<svg xmlns="http://www.w3.org/2000/svg" viewBox="0 0 255 231" width="1020" height="924">
  <rect width="255" height="231" fill="#FEF2F2"/>
  <path d="M 113.0,179.5 L 106.0,176.5 L 103.0,179.5 L 99.0,179.5 L 98.0,176.5 L 77.0,177.5 L 76.0,175.5 L 65.0,178.5 L 61.5,169.0 L 62.5,156.0 L 59.5,154.0 L 59.5,150.0 L 72.5,109.0 L 81.5,90.0 L 92.0,76.5 L 104.0,68.5 L 112.0,66.5 L 114.5,63.0 L 110.5,60.0 L 110.5,53.0 L 106.5,42.0 L 110.5,23.0 L 120.5,14.0 L 117.5,13.0 L 119.0,11.5 L 125.0,11.5 L 130.0,5.5 L 130.0,9.5 L 136.0,6.5 L 146.0,6.5 L 162.0,14.5 L 180.5,35.0 L 176.5,36.0 L 177.5,45.0 L 175.5,49.0 L 173.0,45.5 L 171.5,52.0 L 163.5,62.0 L 165.0,71.5 L 155.0,76.5 L 154.5,81.0 L 149.0,85.5 L 144.0,85.5 L 134.0,79.5 L 129.5,83.0 L 137.5,97.0 L 139.5,114.0 L 151.5,102.0 L 154.5,97.0 L 155.5,86.0 L 163.0,79.5 L 167.0,79.5 L 171.5,84.0 L 175.5,94.0 L 171.0,100.5 L 163.5,105.0 L 153.5,125.0 L 143.0,136.5 L 135.0,135.5 L 124.5,126.0 L 116.5,158.0 L 117.5,164.0 L 113.5,166.0 L 113.0,179.5 Z" fill="#DC2626" opacity="0.85"/>
</svg>