<svg xmlns="http://www.w3.org/2000/svg" viewBox="0 0 254 226" width="1016" height="904">
  <rect width="254" height="226" fill="#ECFDF5"/>
  <path d="M 112.5,225.0 L 130.5,216.0 L 130.5,183.0 L 145.5,175.0 L 139.0,177.5 L 130.0,176.5 L 129.0,174.5 L 126.0,176.5 L 125.0,174.5 L 99.5,176.0 L 101.5,152.0 L 98.5,151.0 L 98.5,147.0 L 102.5,126.0 L 100.5,101.0 L 97.0,97.5 L 85.0,93.5 L 83.0,85.5 L 49.0,69.5 L 27.0,68.5 L 26.5,66.0 L 31.5,64.0 L 21.5,61.0 L 30.5,59.0 L 23.5,55.0 L 24.0,52.5 L 32.5,54.0 L 27.0,48.5 L 42.0,52.5 L 44.0,44.5 L 49.5,58.0 L 53.0,60.5 L 72.0,65.5 L 83.0,71.5 L 116.0,74.5 L 115.5,70.0 L 106.0,64.5 L 100.5,57.0 L 96.5,46.0 L 98.5,34.0 L 96.5,33.0 L 100.5,30.0 L 98.5,29.0 L 101.5,28.0 L 103.0,23.5 L 105.0,25.5 L 112.0,19.5 L 118.0,17.5 L 136.0,18.5 L 140.0,16.5 L 139.5,21.0 L 144.5,21.0 L 142.5,28.0 L 148.5,51.0 L 148.5,59.0 L 145.5,66.0 L 136.5,72.0 L 140.0,74.5 L 166.0,67.5 L 195.0,53.5 L 203.0,37.5 L 205.0,45.5 L 219.0,40.5 L 219.5,43.0 L 213.5,47.0 L 221.0,45.5 L 223.5,48.0 L 214.5,52.0 L 223.5,53.0 L 222.0,55.5 L 214.5,57.0 L 218.0,57.5 L 219.0,61.5 L 204.0,60.5 L 198.0,62.5 L 170.0,80.5 L 167.5,87.0 L 154.5,96.0 L 158.5,148.0 L 153.5,151.0 L 152.5,171.0 L 210.0,143.5 L 218.0,146.5 L 219.0,137.5 L 219.5,148.0 L 226.0,151.5 L 253.0,147.5 Z" fill="#059669" opacity="0.85"/>
</svg>