<svg xmlns="http://www.w3.org/2000/svg" viewBox="0 0 226 154" width="904" height="616">
  <rect width="226" height="154" fill="#FEF2F2"/>
  <path d="M 58.0,120.5 L 52.5,119.0 L 53.5,113.0 L 67.5,85.0 L 78.0,74.5 L 89.0,67.5 L 93.0,67.5 L 96.5,63.0 L 91.5,39.0 L 96.5,25.0 L 108.5,15.0 L 105.5,14.0 L 111.0,13.5 L 113.0,10.5 L 132.0,10.5 L 150.0,20.5 L 163.5,40.0 L 161.5,41.0 L 161.5,51.0 L 158.0,56.5 L 157.0,49.5 L 153.5,58.0 L 147.5,64.0 L 149.5,73.0 L 144.0,75.5 L 142.0,79.5 L 139.0,79.5 L 138.5,83.0 L 131.0,88.5 L 117.0,81.5 L 113.5,84.0 L 112.5,86.0 L 116.5,93.0 L 116.5,117.0 L 69.0,117.5 L 58.0,120.5 Z" fill="#DC2626" opacity="0.85"/>
</svg>