<svg xmlns="http://www.w3.org/2000/svg" viewBox="0 0 251 174" width="1004" height="696">
  <rect width="251" height="174" fill="#ECFDF5"/>
  <path d="M 100.0,132.5 L 100.5,103.0 L 98.5,94.0 L 84.0,87.5 L 81.0,79.5 L 38.0,59.5 L 20.0,59.5 L 19.0,57.5 L 25.5,55.0 L 15.5,52.0 L 22.5,50.0 L 17.0,47.5 L 16.0,44.5 L 25.5,46.0 L 20.0,39.5 L 33.0,45.5 L 33.5,38.0 L 36.0,36.5 L 40.5,50.0 L 45.0,52.5 L 67.0,58.5 L 81.0,65.5 L 87.0,64.5 L 116.0,70.5 L 117.5,66.0 L 112.5,57.0 L 106.5,53.0 L 103.5,46.0 L 106.5,43.0 L 104.5,34.0 L 105.5,24.0 L 110.5,19.0 L 109.0,16.5 L 130.0,11.5 L 140.0,15.5 L 141.0,12.5 L 150.5,28.0 L 149.5,42.0 L 152.5,44.0 L 151.5,50.0 L 138.5,66.0 L 140.0,70.5 L 170.0,64.5 L 172.0,66.5 L 211.0,52.5 L 215.5,49.0 L 220.0,36.5 L 222.5,37.0 L 223.0,45.5 L 233.0,39.5 L 236.5,41.0 L 230.0,46.5 L 240.5,45.0 L 232.5,50.0 L 240.5,52.0 L 230.5,55.0 L 237.0,57.5 L 237.0,59.5 L 218.0,59.5 L 196.0,71.5 L 175.0,79.5 L 172.0,87.5 L 160.0,91.5 L 156.5,98.0 L 155.5,107.0 L 156.0,129.5 L 155.0,126.5 L 115.0,127.5 L 101.0,129.5 L 100.0,132.5 Z" fill="#059669" opacity="0.85"/>
</svg>