<?xml version="1.0" encoding="utf-8" ?>
<svg baseProfile="full" height="1256px" version="1.1" viewBox="0 0 2400 1256" width="2400px" xmlns="http://www.w3.org/2000/svg" xmlns:ev="http://www.w3.org/2001/xml-events" xmlns:xlink="http://www.w3.org/1999/xlink"><defs><linearGradient id="bg_gradient" x1="0%" x2="100%" y1="0%" y2="100%"><stop offset="0" stop-color="#FFF7ED" /><stop offset="0.5" stop-color="#FFFFFF" stop-opacity="0.7" /><stop offset="1" stop-color="#F0FDFA" /></linearGradient><radialGradient cx="50%" cy="50%" id="hero_radial_glow" r="50%"><stop offset="0" stop-color="#5EEAD4" stop-opacity="0.12" /><stop offset="0.6" stop-color="#5EEAD4" stop-opacity="0.04" /><stop offset="1" stop-color="#5EEAD4" stop-opacity="0.0" /></radialGradient><linearGradient id="top_accent" x1="0%" x2="100%" y1="0%" y2="0%"><stop offset="0" stop-color="#0D9488" stop-opacity="0.8" /><stop offset="0.5" stop-color="#5EEAD4" stop-opacity="0.6" /><stop offset="1" stop-color="#0D9488" stop-opacity="0.3" /></linearGradient><clipPath id="reduction_ring_clip"><circle cx="528" cy="728" r="240" /></clipPath><radialGradient cx="40%" cy="35%" id="after_circle_grad" r="65%"><stop offset="0" stop-color="#5EEAD4" stop-opacity="0.9" /><stop offset="0.4" stop-color="#0D9488" stop-opacity="0.95" /><stop offset="1" stop-color="#0F766E" stop-opacity="1.0" /></radialGradient><radialGradient cx="35%" cy="30%" id="circle_highlight" r="50%"><stop offset="0" stop-color="#FFFFFF" stop-opacity="0.35" /><stop offset="1" stop-color="#FFFFFF" stop-opacity="0.0" /></radialGradient><linearGradient id="badge_bg_grad" x1="0%" x2="0%" y1="0%" y2="100%"><stop offset="0" stop-color="#0D9488" /><stop offset="1" stop-color="#0F766E" /></linearGradient><linearGradient id="badge_shine" x1="0%" x2="0%" y1="0%" y2="100%"><stop offset="0" stop-color="#FFFFFF" stop-opacity="0.2" /><stop offset="0.3" stop-color="#FFFFFF" stop-opacity="0.05" /><stop offset="1" stop-color="#000000" stop-opacity="0.0" /></linearGradient><clipPath id="badge_shine_clip"><rect height="340" rx="28" ry="28" width="440" x="1124" y="458" /></clipPath><linearGradient id="ms_bar_grad_0" x1="0%" x2="0%" y1="0%" y2="100%"><stop offset="0" stop-color="#3da99f" /><stop offset="0.5" stop-color="#0D9488" /><stop offset="1" stop-color="#0b7d73" /></linearGradient><linearGradient id="ms_shine_0" x1="0%" x2="0%" y1="0%" y2="100%"><stop offset="0" stop-color="#FFFFFF" stop-opacity="0.25" /><stop offset="0.4" stop-color="#FFFFFF" stop-opacity="0.05" /><stop offset="1" stop-color="#000000" stop-opacity="0.0" /></linearGradient><clipPath id="ms_clip_0"><rect height="50" rx="10" ry="10" width="456" x="1776" y="376" /></clipPath><linearGradient id="ms_bar_grad_1" x1="0%" x2="0%" y1="0%" y2="100%"><stop offset="0" stop-color="#7eeedc" /><stop offset="0.5" stop-color="#5EEAD4" /><stop offset="1" stop-color="#4fc6b4" /></linearGradient><linearGradient id="ms_shine_1" x1="0%" x2="0%" y1="0%" y2="100%"><stop offset="0" stop-color="#FFFFFF" stop-opacity="0.25" /><stop offset="0.4" stop-color="#FFFFFF" stop-opacity="0.05" /><stop offset="1" stop-color="#000000" stop-opacity="0.0" /></linearGradient><clipPath id="ms_clip_1"><rect height="50" rx="10" ry="10" width="364" x="1776" y="484" /></clipPath><linearGradient id="ms_bar_grad_2" x1="0%" x2="0%" y1="0%" y2="100%"><stop offset="0" stop-color="#adf7e9" /><stop offset="0.5" stop-color="#99F6E4" /><stop offset="1" stop-color="#82d1c1" /></linearGradient><linearGradient id="ms_shine_2" x1="0%" x2="0%" y1="0%" y2="100%"><stop offset="0" stop-color="#FFFFFF" stop-opacity="0.25" /><stop offset="0.4" stop-color="#FFFFFF" stop-opacity="0.05" /><stop offset="1" stop-color="#000000" stop-opacity="0.0" /></linearGradient><clipPath id="ms_clip_2"><rect height="50" rx="10" ry="10" width="266" x="1776" y="592" /></clipPath><linearGradient id="bottom_accent" x1="100%" x2="0%" y1="0%" y2="0%"><stop offset="0" stop-color="#0D9488" stop-opacity="0.8" /><stop offset="0.5" stop-color="#5EEAD4" stop-opacity="0.6" /><stop offset="1" stop-color="#0D9488" stop-opacity="0.3" /></linearGradient></defs><rect fill="url(#bg_gradient)" height="1256" width="2400" x="0" y="0" /><rect fill="url(#hero_radial_glow)" height="800" width="800" x="944" y="228" /><rect fill="url(#top_accent)" height="6" width="2400" x="0" y="0" /><text dominant-baseline="middle" fill="#0F172A" font-family="Helvetica, Arial, sans-serif" font-size="64" font-weight="900" text-anchor="start" x="120" y="125">STEP 1 Trial</text><text dominant-baseline="middle" fill="#0D9488" font-family="Helvetica, Arial, sans-serif" font-size="42" font-weight="700" text-anchor="start" x="120" y="219">Semaglutide 2.4 mg</text><text dominant-baseline="middle" fill="#64748B" font-family="Helvetica, Arial, sans-serif" font-size="26" font-weight="400" text-anchor="start" x="120" y="295">68 wk  |  N = 1,961  |  P &lt; 0.001</text><circle cx="534" cy="734" fill="#000000" opacity="0.06" r="244" /><circle cx="528" cy="728" fill="#E2E8F0" opacity="0.6" r="240" stroke="#94A3B8" stroke-width="3" /><g clip-path="url(#reduction_ring_clip)"><line opacity="0.4" stroke="#CCFBF1" stroke-width="3" x1="288.0" x2="528.0" y1="488" y2="968" /><line opacity="0.4" stroke="#CCFBF1" stroke-width="3" x1="304.0" x2="544.0" y1="488" y2="968" /><line opacity="0.4" stroke="#CCFBF1" stroke-width="3" x1="320.0" x2="560.0" y1="488" y2="968" /><line opacity="0.4" stroke="#CCFBF1" stroke-width="3" x1="336.0" x2="576.0" y1="488" y2="968" /><line opacity="0.4" stroke="#CCFBF1" stroke-width="3" x1="352.0" x2="592.0" y1="488" y2="968" /><line opacity="0.4" stroke="#CCFBF1" stroke-width="3" x1="368.0" x2="608.0" y1="488" y2="968" /><line opacity="0.4" stroke="#CCFBF1" stroke-width="3" x1="384.0" x2="624.0" y1="488" y2="968" /><line opacity="0.4" stroke="#CCFBF1" stroke-width="3" x1="400.0" x2="640.0" y1="488" y2="968" /><line opacity="0.4" stroke="#CCFBF1" stroke-width="3" x1="416.0" x2="656.0" y1="488" y2="968" /><line opacity="0.4" stroke="#CCFBF1" stroke-width="3" x1="432.0" x2="672.0" y1="488" y2="968" /><line opacity="0.4" stroke="#CCFBF1" stroke-width="3" x1="448.0" x2="688.0" y1="488" y2="968" /><line opacity="0.4" stroke="#CCFBF1" stroke-width="3" x1="464.0" x2="704.0" y1="488" y2="968" /><line opacity="0.4" stroke="#CCFBF1" stroke-width="3" x1="480.0" x2="720.0" y1="488" y2="968" /><line opacity="0.4" stroke="#CCFBF1" stroke-width="3" x1="496.0" x2="736.0" y1="488" y2="968" /><line opacity="0.4" stroke="#CCFBF1" stroke-width="3" x1="512.0" x2="752.0" y1="488" y2="968" /><line opacity="0.4" stroke="#CCFBF1" stroke-width="3" x1="528.0" x2="768.0" y1="488" y2="968" /><line opacity="0.4" stroke="#CCFBF1" stroke-width="3" x1="544.0" x2="784.0" y1="488" y2="968" /><line opacity="0.4" stroke="#CCFBF1" stroke-width="3" x1="560.0" x2="800.0" y1="488" y2="968" /><line opacity="0.4" stroke="#CCFBF1" stroke-width="3" x1="576.0" x2="816.0" y1="488" y2="968" /><line opacity="0.4" stroke="#CCFBF1" stroke-width="3" x1="592.0" x2="832.0" y1="488" y2="968" /><line opacity="0.4" stroke="#CCFBF1" stroke-width="3" x1="608.0" x2="848.0" y1="488" y2="968" /><line opacity="0.4" stroke="#CCFBF1" stroke-width="3" x1="624.0" x2="864.0" y1="488" y2="968" /><line opacity="0.4" stroke="#CCFBF1" stroke-width="3" x1="640.0" x2="880.0" y1="488" y2="968" /><line opacity="0.4" stroke="#CCFBF1" stroke-width="3" x1="656.0" x2="896.0" y1="488" y2="968" /><line opacity="0.4" stroke="#CCFBF1" stroke-width="3" x1="672.0" x2="912.0" y1="488" y2="968" /><line opacity="0.4" stroke="#CCFBF1" stroke-width="3" x1="688.0" x2="928.0" y1="488" y2="968" /><line opacity="0.4" stroke="#CCFBF1" stroke-width="3" x1="704.0" x2="944.0" y1="488" y2="968" /><line opacity="0.4" stroke="#CCFBF1" stroke-width="3" x1="720.0" x2="960.0" y1="488" y2="968" /><line opacity="0.4" stroke="#CCFBF1" stroke-width="3" x1="736.0" x2="976.0" y1="488" y2="968" /><line opacity="0.4" stroke="#CCFBF1" stroke-width="3" x1="752.0" x2="992.0" y1="488" y2="968" /></g><circle cx="528" cy="728" fill="url(#after_circle_grad)" r="204" stroke="#0F766E" stroke-width="4" /><circle cx="528" cy="728" fill="url(#circle_highlight)" r="173.4" /><text dominant-baseline="middle" fill="#FFFFFF" font-family="Impact, Haettenschweiler, 'Arial Narrow Bold', sans-serif" font-size="62" font-weight="900" text-anchor="middle" x="528" y="720">85.1%</text><text dominant-baseline="middle" fill="#FFFFFF" font-family="Helvetica, Arial, sans-serif" font-size="22" font-weight="400" opacity="0.85" text-anchor="middle" x="528" y="764">after 68 wk</text><text dominant-baseline="middle" fill="#334155" font-family="Helvetica, Arial, sans-serif" font-size="32" font-weight="700" text-anchor="middle" x="528" y="470">100%</text><text dominant-baseline="middle" fill="#64748B" font-family="Helvetica, Arial, sans-serif" font-size="20" font-weight="400" text-anchor="middle" x="528" y="500">baseline</text><text dominant-baseline="middle" fill="#0D9488" font-family="Impact, Haettenschweiler, 'Arial Narrow Bold', sans-serif" font-size="64" font-weight="900" text-anchor="start" x="840" y="552">-14.9%</text><path d="M 816,590 Q 736.0,651.5 696,653" fill="none" opacity="0.7" stroke="#0D9488" stroke-linecap="round" stroke-width="3" /><polygon fill="#0D9488" opacity="0.7" points="696,653 706.8698534933156,647.9160758233571 707.2200838321999,657.2555515269361" /><rect fill="#5EEAD4" height="412" opacity="0.06" rx="46" ry="46" width="512" x="1088" y="422" /><rect fill="#5EEAD4" height="388" opacity="0.04" rx="40" ry="40" width="488" x="1100" y="434" /><rect fill="#5EEAD4" height="364" opacity="0.03" rx="34" ry="34" width="464" x="1112" y="446" /><rect fill="#000000" height="340" opacity="0.12" rx="28" ry="28" width="440" x="1132" y="468" /><rect fill="url(#badge_bg_grad)" height="340" rx="28" ry="28" width="440" x="1124" y="458" /><g clip-path="url(#badge_shine_clip)"><rect fill="url(#badge_shine)" height="170" width="440" x="1124" y="458" /></g><text dominant-baseline="middle" fill="#FFFFFF" font-family="Impact, Haettenschweiler, 'Arial Narrow Bold', sans-serif" font-size="160" font-weight="900" text-anchor="start" x="1183" y="618">6.2</text><text dominant-baseline="middle" fill="#FFFFFF" font-family="Impact, Haettenschweiler, 'Arial Narrow Bold', sans-serif" font-size="100" font-weight="700" opacity="0.85" text-anchor="start" x="1466" y="628">x</text><text dominant-baseline="middle" fill="#FFFFFF" font-family="Helvetica, Arial, sans-serif" font-size="36" font-weight="600" opacity="0.9" text-anchor="middle" x="1344" y="698">more weight loss</text><text dominant-baseline="middle" fill="#FFFFFF" font-family="Helvetica, Arial, sans-serif" font-size="26" font-weight="400" opacity="0.65" text-anchor="middle" x="1344" y="736">vs. placebo (-2.4%)</text><text dominant-baseline="middle" fill="#0F172A" font-family="Helvetica, Arial, sans-serif" font-size="28" font-weight="700" text-anchor="start" x="1776" y="321">Patients achieving weight loss:</text><rect fill="#E2E8F0" height="50" rx="10" ry="10" width="528" x="1776" y="376" /><rect fill="#CBD5E1" height="50" opacity="0.6" rx="10" ry="10" width="166" x="1776" y="376" /><rect fill="url(#ms_bar_grad_0)" height="50" rx="10" ry="10" width="456" x="1776" y="376" /><g clip-path="url(#ms_clip_0)"><rect fill="url(#ms_shine_0)" height="25" width="456" x="1776" y="376" /></g><text fill="#FFFFFF" font-family="Impact, Haettenschweiler, 'Arial Narrow Bold', sans-serif" font-size="36" font-weight="800" text-anchor="end" x="2218" y="410">86%</text><text fill="#64748B" font-family="Helvetica, Arial, sans-serif" font-size="20" font-weight="600" text-anchor="start" x="1954" y="371">32%</text><text fill="#64748B" font-family="Helvetica, Arial, sans-serif" font-size="18" font-weight="400" text-anchor="start" x="1996" y="371">placebo</text><text fill="#334155" font-family="Helvetica, Arial, sans-serif" font-size="26" font-weight="600" text-anchor="start" x="1776" y="446">lost ≥5% weight</text><rect fill="#E2E8F0" height="50" rx="10" ry="10" width="528" x="1776" y="484" /><rect fill="#CBD5E1" height="50" opacity="0.6" rx="10" ry="10" width="63" x="1776" y="484" /><rect fill="url(#ms_bar_grad_1)" height="50" rx="10" ry="10" width="364" x="1776" y="484" /><g clip-path="url(#ms_clip_1)"><rect fill="url(#ms_shine_1)" height="25" width="364" x="1776" y="484" /></g><text fill="#FFFFFF" font-family="Impact, Haettenschweiler, 'Arial Narrow Bold', sans-serif" font-size="36" font-weight="800" text-anchor="end" x="2126" y="518">69%</text><text fill="#64748B" font-family="Helvetica, Arial, sans-serif" font-size="20" font-weight="600" text-anchor="start" x="1851" y="479">12%</text><text fill="#334155" font-family="Helvetica, Arial, sans-serif" font-size="26" font-weight="600" text-anchor="start" x="1776" y="554">lost ≥10% weight</text><rect fill="#E2E8F0" height="50" rx="10" ry="10" width="528" x="1776" y="592" /><rect fill="#CBD5E1" height="50" opacity="0.6" rx="10" ry="10" width="25" x="1776" y="592" /><rect fill="url(#ms_bar_grad_2)" height="50" rx="10" ry="10" width="266" x="1776" y="592" /><g clip-path="url(#ms_clip_2)"><rect fill="url(#ms_shine_2)" height="25" width="266" x="1776" y="592" /></g><text fill="#FFFFFF" font-family="Impact, Haettenschweiler, 'Arial Narrow Bold', sans-serif" font-size="36" font-weight="800" text-anchor="end" x="2028" y="626">50%</text><text fill="#64748B" font-family="Helvetica, Arial, sans-serif" font-size="20" font-weight="600" text-anchor="start" x="1813" y="587">5%</text><text fill="#334155" font-family="Helvetica, Arial, sans-serif" font-size="26" font-weight="600" text-anchor="start" x="1776" y="662">lost ≥15% weight</text><line opacity="0.3" stroke="#CBD5E1" stroke-dasharray="6,4" stroke-width="2" x1="788" x2="1114" y1="628" y2="628" /><line opacity="0.3" stroke="#CBD5E1" stroke-dasharray="6,4" stroke-width="2" x1="1574" x2="1756" y1="628" y2="628" /><text fill="#64748B" font-family="Helvetica, Arial, sans-serif" font-size="18" font-style="italic" font-weight="400" text-anchor="middle" x="1200" y="1180">Wilding et al., NEJM 2021 — STEP 1 (semaglutide 2.4 mg vs placebo)</text><rect fill="url(#bottom_accent)" height="6" width="2400" x="0" y="1250" /></svg>