<?xml version="1.0" encoding="utf-8" ?>
<svg baseProfile="full" height="1256px" version="1.1" viewBox="0 0 2400 1256" width="2400px" xmlns="http://www.w3.org/2000/svg" xmlns:ev="http://www.w3.org/2001/xml-events" xmlns:xlink="http://www.w3.org/1999/xlink"><defs><linearGradient id="canvas_gradient" x1="0%" x2="100%" y1="0%" y2="0%"><stop offset="0" stop-color="#FFF5F0" stop-opacity="0.5" /><stop offset="1" stop-color="#F0F5FF" stop-opacity="0.5" /></linearGradient><clipPath id="lens_clip"><circle cx="536" cy="954" r="206" /></clipPath><linearGradient id="shine_glance" x1="0%" x2="0%" y1="0%" y2="100%"><stop offset="0" stop-color="#FFFFFF" stop-opacity="0.35" /><stop offset="0.4" stop-color="#FFFFFF" stop-opacity="0.08" /><stop offset="1" stop-color="#000000" stop-opacity="0.05" /></linearGradient></defs><rect fill="#FFFFFF" height="1256" width="2400" x="0" y="0" /><rect fill="url(#canvas_gradient)" height="1256" width="2400" x="0" y="0" /><rect fill="#FFECEC" height="1256" opacity="0.9" width="1032" x="0" y="0" /><line opacity="0.4" stroke="#E63946" stroke-width="3.5" x1="18" x2="73" y1="150" y2="150" /><line opacity="0.4" stroke="#E63946" stroke-width="3.5" x1="18" x2="18" y1="150" y2="205" /><line opacity="0.4" stroke="#E63946" stroke-width="3.5" x1="1014" x2="959" y1="1155" y2="1155" /><line opacity="0.4" stroke="#E63946" stroke-width="3.5" x1="1014" x2="1014" y1="1155" y2="1100" /><line opacity="0.4" stroke="#8D99AE" stroke-width="1.5" x1="103" x2="929" y1="728" y2="728" /><line opacity="0.4" stroke="#8D99AE" stroke-width="1.5" x1="103" x2="103" y1="175" y2="728" /><line opacity="0.18" stroke="#8D99AE" stroke-dasharray="6,4" stroke-width="0.8" x1="103" x2="929" y1="285.6" y2="285.6" /><line opacity="0.18" stroke="#8D99AE" stroke-dasharray="6,4" stroke-width="0.8" x1="103" x2="929" y1="396.2" y2="396.2" /><line opacity="0.18" stroke="#8D99AE" stroke-dasharray="6,4" stroke-width="0.8" x1="103" x2="929" y1="506.8" y2="506.8" /><line opacity="0.18" stroke="#8D99AE" stroke-dasharray="6,4" stroke-width="0.8" x1="103" x2="929" y1="617.4" y2="617.4" /><text fill="#E63946" font-family="Helvetica, Arial, sans-serif" font-size="26" font-weight="bold" opacity="0.85" text-anchor="end" x="919" y="199">×7.7</text><polygon fill="#E63946" opacity="0.1" points="144.3,661.64 309.5,573.16 474.7,451.5 639.9,340.9 780.3199999999999,230.3 780.3199999999999,728 144.3,728" /><polyline fill="none" points="144.3,661.64 309.5,573.16 474.7,451.5 639.9,340.9 780.3199999999999,230.3" stroke="#E63946" stroke-linecap="round" stroke-linejoin="bevel" stroke-width="8" /><circle cx="144.3" cy="661.64" fill="#E63946" r="8" /><circle cx="309.5" cy="573.16" fill="#E63946" r="8" /><circle cx="474.7" cy="451.5" fill="#E63946" r="8" /><circle cx="639.9" cy="340.9" fill="#E63946" r="8" /><circle cx="780.3199999999999" cy="230.3" fill="#E63946" r="8" /><text fill="#E63946" font-family="Helvetica, Arial, sans-serif" font-size="22" font-weight="bold" text-anchor="end" x="770.3199999999999" y="208.3">Engagement</text><polygon fill="#8D99AE" opacity="0.05" points="144.3,595.28 309.5,606.34 474.7,595.28 639.9,600.81 780.3199999999999,595.28 780.3199999999999,728 144.3,728" /><polyline fill="none" points="144.3,595.28 309.5,606.34 474.7,595.28 639.9,600.81 780.3199999999999,595.28" stroke="#8D99AE" stroke-dasharray="10,5" stroke-linecap="round" stroke-linejoin="bevel" stroke-width="2.5" /><circle cx="144.3" cy="595.28" fill="#8D99AE" r="4" /><circle cx="309.5" cy="606.34" fill="#8D99AE" r="4" /><circle cx="474.7" cy="595.28" fill="#8D99AE" r="4" /><circle cx="639.9" cy="600.81" fill="#8D99AE" r="4" /><circle cx="780.3199999999999" cy="595.28" fill="#8D99AE" r="4" /><rect fill="#FFFFFF" height="28" opacity="0.7" rx="4" ry="4" width="159" x="615.3199999999999" y="601.28" /><text fill="#1D3557" font-family="Helvetica, Arial, sans-serif" font-size="20" font-weight="600" text-anchor="end" x="770.3199999999999" y="623.28">Comprehension</text><text fill="#6B7280" font-family="Helvetica, Arial, sans-serif" font-size="20" font-weight="500" text-anchor="middle" x="516" y="785">6 RCTs · 538 participants</text><rect fill="#E63946" height="38" opacity="0.55" rx="2" ry="2" width="37" x="186" y="946" /><rect fill="#8D99AE" height="26" opacity="0.55" rx="2" ry="2" width="37" x="228" y="958" /><rect fill="#F4A261" height="32" opacity="0.55" rx="2" ry="2" width="37" x="270" y="952" /><rect fill="#c3814d" height="20" opacity="0.55" rx="2" ry="2" width="37" x="312" y="964" /><rect fill="#ed747d" height="30" opacity="0.55" rx="2" ry="2" width="37" x="354" y="954" /><circle cx="536" cy="954" fill="#FFECEC" opacity="0.3" r="206" /><g clip-path="url(#lens_clip)"><rect fill="#E63946" height="83" opacity="0.8" rx="3" ry="3" width="45" x="414" y="943" /><rect fill="#8D99AE" height="57" opacity="0.8" rx="3" ry="3" width="45" x="464" y="969" /><rect fill="#F4A261" height="70" opacity="0.8" rx="3" ry="3" width="45" x="514" y="956" /><rect fill="#c3814d" height="44" opacity="0.8" rx="3" ry="3" width="45" x="564" y="982" /><rect fill="#ed747d" height="66" opacity="0.8" rx="3" ry="3" width="45" x="614" y="960" /><line opacity="0.5" stroke="#FFFFFF" stroke-width="2" x1="528" x2="536" y1="831" y2="819" /><line opacity="0.5" stroke="#FFFFFF" stroke-width="2" x1="544" x2="536" y1="831" y2="819" /><line opacity="0.5" stroke="#FFFFFF" stroke-width="2" x1="528" x2="536" y1="1057" y2="1069" /><line opacity="0.5" stroke="#FFFFFF" stroke-width="2" x1="544" x2="536" y1="1057" y2="1069" /></g><circle cx="536" cy="954" fill="none" opacity="0.25" r="212" stroke="#F4A261" stroke-width="2" /><circle cx="536" cy="954" fill="none" opacity="0.12" r="218" stroke="#F4A261" stroke-width="1" /><circle cx="536" cy="954" fill="none" r="206" stroke="#F4A261" stroke-width="8" /><line stroke="#F4A261" stroke-linecap="round" stroke-width="8" x1="391" x2="318" y1="1099" y2="1172" /><text fill="#F4A261" font-family="Helvetica, Arial, sans-serif" font-size="26" font-style="italic" font-weight="bold" text-anchor="middle" x="536" y="1192">Visual Spin</text><path d="M 1033.3942679845788,0.0 L 1027.2501075522266,62.8 L 1029.7502931836912,125.6 L 1029.2321073814883,188.4 L 1034.3647121416402,251.2 L 1033.766994874229,314.0 L 1035.9217956770485,376.8 L 1027.8693883262943,439.6 L 1031.2192181968528,502.4 L 1027.2979721943807,565.2 L 1029.186379748036,628.0 L 1032.0535528810335,690.8 L 1027.2653596968387,753.6 L 1028.9883765068664,816.4 L 1033.4988443777952,879.2 L 1032.449414806032,942.0 L 1029.204406220407,1004.8 L 1032.8926568387592,1067.6 L 1035.0943045667782,1130.4 L 1027.0649875967806,1193.2 L 1035.058192518328,1256.0 " fill="none" opacity="0.4" stroke="#1D3557" stroke-dasharray="10,6" stroke-width="2.5" /><circle cx="1032" cy="602" fill="#FFFFFF" r="54" /><circle cx="1032" cy="602" fill="#FFFFFF" r="50" stroke="#1D3557" stroke-width="5.0" /><line stroke="#1D3557" stroke-width="2.8" x1="1032.0" x2="1032.0" y1="564.5" y2="556.0" /><line stroke="#1D3557" stroke-width="0.8" x1="1036.4424596888753" x2="1036.808309310312" y1="559.7328194468483" y2="556.2519928130595" /><line stroke="#1D3557" stroke-width="0.8" x1="1040.8362468597547" x2="1041.563937777617" y1="560.4287269688133" y2="557.0052103662449" /><line stroke="#1D3557" stroke-width="0.8" x1="1045.1332222609353" x2="1046.2147817412476" y1="561.580098057456" y2="558.251400250423" /><line stroke="#1D3557" stroke-width="0.8" x1="1049.2863073307215" x2="1050.7098855814868" y1="563.1743180501894" y2="559.9769089484404" /><line stroke="#1D3557" stroke-width="1.8" x1="1050.75" x2="1055.0" y1="569.5240473580835" y2="562.1628314259158" /><line stroke="#1D3557" stroke-width="0.8" x1="1056.98087322243" x2="1059.0381216054539" y1="567.6167777390647" y2="564.7852182587524" /><line stroke="#1D3557" stroke-width="0.8" x1="1060.4380507702515" x2="1062.7800078925075" y1="570.4163449172107" y2="567.8153380280398" /><line stroke="#1D3557" stroke-width="0.8" x1="1063.5836550827892" x2="1066.1846619719602" y1="573.5619492297485" y2="571.2199921074925" /><line stroke="#1D3557" stroke-width="0.8" x1="1066.3832222609353" x2="1069.2147817412476" y1="577.0191267775699" y2="574.9618783945463" /><line stroke="#1D3557" stroke-width="1.8" x1="1064.4759526419164" x2="1071.8371685740842" y1="583.25" y2="579.0" /><line stroke="#1D3557" stroke-width="0.8" x1="1070.8256819498106" x2="1074.0230910515597" y1="584.7136926692785" y2="583.2901144185132" /><line stroke="#1D3557" stroke-width="0.8" x1="1072.4199019425441" x2="1075.7485997495771" y1="588.8667777390648" y2="587.7852182587524" /><line stroke="#1D3557" stroke-width="0.8" x1="1073.5712730311868" x2="1076.994789633755" y1="593.1637531402453" y2="592.436062222383" /><line stroke="#1D3557" stroke-width="0.8" x1="1074.2671805531515" x2="1077.7480071869406" y1="597.5575403111247" y2="597.1916906896879" /><line stroke="#1D3557" stroke-width="2.8" x1="1069.5" x2="1078.0" y1="602.0" y2="602.0" /><line stroke="#1D3557" stroke-width="0.8" x1="1074.2671805531515" x2="1077.7480071869406" y1="606.4424596888753" y2="606.8083093103121" /><line stroke="#1D3557" stroke-width="0.8" x1="1073.5712730311868" x2="1076.994789633755" y1="610.8362468597547" y2="611.563937777617" /><line stroke="#1D3557" stroke-width="0.8" x1="1072.4199019425441" x2="1075.7485997495771" y1="615.1332222609352" y2="616.2147817412476" /><line stroke="#1D3557" stroke-width="0.8" x1="1070.8256819498106" x2="1074.0230910515597" y1="619.2863073307215" y2="620.7098855814868" /><line stroke="#1D3557" stroke-width="1.8" x1="1064.4759526419164" x2="1071.8371685740842" y1="620.75" y2="625.0" /><line stroke="#1D3557" stroke-width="0.8" x1="1066.3832222609353" x2="1069.2147817412476" y1="626.9808732224301" y2="629.0381216054537" /><line stroke="#1D3557" stroke-width="0.8" x1="1063.5836550827892" x2="1066.1846619719602" y1="630.4380507702515" y2="632.7800078925075" /><line stroke="#1D3557" stroke-width="0.8" x1="1060.4380507702515" x2="1062.7800078925075" y1="633.5836550827893" y2="636.1846619719602" /><line stroke="#1D3557" stroke-width="0.8" x1="1056.98087322243" x2="1059.0381216054539" y1="636.3832222609353" y2="639.2147817412476" /><line stroke="#1D3557" stroke-width="1.8" x1="1050.75" x2="1055.0" y1="634.4759526419165" y2="641.8371685740842" /><line stroke="#1D3557" stroke-width="0.8" x1="1049.2863073307215" x2="1050.7098855814868" y1="640.8256819498106" y2="644.0230910515596" /><line stroke="#1D3557" stroke-width="0.8" x1="1045.1332222609353" x2="1046.2147817412476" y1="642.419901942544" y2="645.748599749577" /><line stroke="#1D3557" stroke-width="0.8" x1="1040.8362468597547" x2="1041.563937777617" y1="643.5712730311867" y2="646.9947896337551" /><line stroke="#1D3557" stroke-width="0.8" x1="1036.4424596888753" x2="1036.808309310312" y1="644.2671805531517" y2="647.7480071869405" /><line stroke="#1D3557" stroke-width="2.8" x1="1032.0" x2="1032.0" y1="639.5" y2="648.0" /><line stroke="#1D3557" stroke-width="0.8" x1="1027.5575403111247" x2="1027.191690689688" y1="644.2671805531517" y2="647.7480071869405" /><line stroke="#1D3557" stroke-width="0.8" x1="1023.1637531402453" x2="1022.436062222383" y1="643.5712730311867" y2="646.9947896337551" /><line stroke="#1D3557" stroke-width="0.8" x1="1018.8667777390648" x2="1017.7852182587524" y1="642.419901942544" y2="645.7485997495771" /><line stroke="#1D3557" stroke-width="0.8" x1="1014.7136926692785" x2="1013.2901144185132" y1="640.8256819498106" y2="644.0230910515596" /><line stroke="#1D3557" stroke-width="1.8" x1="1013.25" x2="1009.0" y1="634.4759526419165" y2="641.8371685740842" /><line stroke="#1D3557" stroke-width="0.8" x1="1007.0191267775699" x2="1004.9618783945463" y1="636.3832222609353" y2="639.2147817412476" /><line stroke="#1D3557" stroke-width="0.8" x1="1003.5619492297485" x2="1001.2199921074925" y1="633.5836550827893" y2="636.1846619719602" /><line stroke="#1D3557" stroke-width="0.8" x1="1000.4163449172107" x2="997.8153380280398" y1="630.4380507702515" y2="632.7800078925075" /><line stroke="#1D3557" stroke-width="0.8" x1="997.6167777390648" x2="994.7852182587524" y1="626.9808732224301" y2="629.0381216054537" /><line stroke="#1D3557" stroke-width="1.8" x1="999.5240473580835" x2="992.1628314259158" y1="620.75" y2="625.0" /><line stroke="#1D3557" stroke-width="0.8" x1="993.1743180501894" x2="989.9769089484404" y1="619.2863073307216" y2="620.7098855814868" /><line stroke="#1D3557" stroke-width="0.8" x1="991.580098057456" x2="988.251400250423" y1="615.1332222609353" y2="616.2147817412476" /><line stroke="#1D3557" stroke-width="0.8" x1="990.4287269688133" x2="987.0052103662449" y1="610.8362468597547" y2="611.563937777617" /><line stroke="#1D3557" stroke-width="0.8" x1="989.7328194468483" x2="986.2519928130595" y1="606.4424596888753" y2="606.8083093103121" /><line stroke="#1D3557" stroke-width="2.8" x1="994.5" x2="986.0" y1="602.0" y2="602.0" /><line stroke="#1D3557" stroke-width="0.8" x1="989.7328194468483" x2="986.2519928130595" y1="597.5575403111247" y2="597.1916906896879" /><line stroke="#1D3557" stroke-width="0.8" x1="990.4287269688133" x2="987.0052103662449" y1="593.1637531402453" y2="592.436062222383" /><line stroke="#1D3557" stroke-width="0.8" x1="991.580098057456" x2="988.2514002504229" y1="588.8667777390648" y2="587.7852182587525" /><line stroke="#1D3557" stroke-width="0.8" x1="993.1743180501894" x2="989.9769089484404" y1="584.7136926692785" y2="583.2901144185132" /><line stroke="#1D3557" stroke-width="1.8" x1="999.5240473580835" x2="992.1628314259158" y1="583.25" y2="579.0" /><line stroke="#1D3557" stroke-width="0.8" x1="997.6167777390647" x2="994.7852182587524" y1="577.0191267775699" y2="574.9618783945463" /><line stroke="#1D3557" stroke-width="0.8" x1="1000.4163449172107" x2="997.8153380280398" y1="573.5619492297485" y2="571.2199921074925" /><line stroke="#1D3557" stroke-width="0.8" x1="1003.5619492297485" x2="1001.2199921074925" y1="570.4163449172107" y2="567.8153380280398" /><line stroke="#1D3557" stroke-width="0.8" x1="1007.0191267775699" x2="1004.9618783945463" y1="567.6167777390648" y2="564.7852182587524" /><line stroke="#1D3557" stroke-width="1.8" x1="1013.25" x2="1009.0" y1="569.5240473580835" y2="562.1628314259158" /><line stroke="#1D3557" stroke-width="0.8" x1="1014.7136926692785" x2="1013.2901144185132" y1="563.1743180501894" y2="559.9769089484404" /><line stroke="#1D3557" stroke-width="0.8" x1="1018.8667777390647" x2="1017.7852182587524" y1="561.580098057456" y2="558.251400250423" /><line stroke="#1D3557" stroke-width="0.8" x1="1023.1637531402453" x2="1022.436062222383" y1="560.4287269688133" y2="557.0052103662449" /><line stroke="#1D3557" stroke-width="0.8" x1="1027.5575403111247" x2="1027.191690689688" y1="559.7328194468483" y2="556.2519928130595" /><circle cx="1032" cy="602" fill="#1D3557" r="4" /><line stroke="#1D3557" stroke-linecap="round" stroke-width="3" x1="1032" x2="1032.0" y1="602" y2="572.0" /><line stroke="#F4A261" stroke-linecap="round" stroke-width="2" x1="1032" x2="1071.0" y1="602" y2="602.0" /><text fill="#6B7280" font-family="Helvetica, Arial, sans-serif" font-size="22" font-weight="bold" text-anchor="middle" x="1032" y="680">5.0s</text><line stroke="#8D99AE" stroke-width="1.5" x1="1100" x2="2331" y1="271" y2="271" /><line stroke="#8D99AE" stroke-width="1.5" x1="1100" x2="1100" y1="261" y2="271" /><text fill="#8D99AE" font-family="Helvetica, Arial, sans-serif" font-size="20" text-anchor="middle" x="1100" y="255">0</text><line stroke="#8D99AE" stroke-width="1.5" x1="1407" x2="1407" y1="261" y2="271" /><text fill="#8D99AE" font-family="Helvetica, Arial, sans-serif" font-size="20" text-anchor="middle" x="1407" y="255">25</text><line stroke="#8D99AE" stroke-width="1.5" x1="1715" x2="1715" y1="261" y2="271" /><text fill="#8D99AE" font-family="Helvetica, Arial, sans-serif" font-size="20" text-anchor="middle" x="1715" y="255">50</text><line stroke="#8D99AE" stroke-width="1.5" x1="2023" x2="2023" y1="261" y2="271" /><text fill="#8D99AE" font-family="Helvetica, Arial, sans-serif" font-size="20" text-anchor="middle" x="2023" y="255">75</text><line stroke="#8D99AE" stroke-width="1.5" x1="2331" x2="2331" y1="261" y2="271" /><text fill="#8D99AE" font-family="Helvetica, Arial, sans-serif" font-size="20" text-anchor="middle" x="2331" y="255">100%</text><rect fill="#000000" height="72" opacity="0.1" rx="8" ry="8" width="1231" x="1104" y="305" /><rect fill="#1A8D7F" height="72" opacity="0.95" rx="8" ry="8" width="1231" x="1100" y="301" /><rect fill="url(#shine_glance)" height="72" rx="8" ry="8" width="1231" x="1100" y="301" /><rect fill="none" height="76" opacity="0.25" rx="10" ry="10" stroke="#1A8D7F" stroke-width="2" width="1235" x="1098" y="299" /><text fill="#1D3557" font-family="Helvetica, Arial, sans-serif" font-size="22" font-weight="600" text-anchor="start" x="1104" y="393">GLANCE Comprehension (≥80%)</text><line opacity="0.25" stroke="#8D99AE" stroke-width="1.0" x1="1104" x2="1412.88" y1="398" y2="398" /><path d="M 2285,337 L 2292,346 L 2307,327" fill="none" stroke="#FFFFFF" stroke-linecap="round" stroke-linejoin="round" stroke-width="4.0" /><rect fill="#000000" height="72" opacity="0.1" rx="8" ry="8" width="800" x="1104" y="447" /><rect fill="#1D3557" height="72" opacity="0.95" rx="8" ry="8" width="800" x="1100" y="443" /><rect fill="#FFFFFF" height="24" opacity="0.15" rx="8" ry="8" width="796" x="1102" y="445" /><text fill="#1D3557" font-family="Helvetica, Arial, sans-serif" font-size="22" font-weight="600" text-anchor="start" x="1104" y="535">GRADE Symbols (65%)</text><line opacity="0.25" stroke="#8D99AE" stroke-width="1.0" x1="1104" x2="1321.3600000000001" y1="540" y2="540" /><rect fill="#000000" height="72" opacity="0.1" rx="8" ry="8" width="36" x="1104" y="589" /><rect fill="#A8DADC" height="72" opacity="0.95" rx="8" ry="8" width="36" x="1100" y="585" /><rect fill="#FFFFFF" height="24" opacity="0.15" rx="8" ry="8" width="32" x="1102" y="587" /><text fill="#1D3557" font-family="Helvetica, Arial, sans-serif" font-size="22" font-weight="600" text-anchor="start" x="1104" y="677">Vanity Metrics (~0%)</text><line opacity="0.25" stroke="#8D99AE" stroke-width="1.0" x1="1104" x2="1332.8" y1="682" y2="682" /><text fill="#6B7280" font-family="Helvetica, Arial, sans-serif" font-size="22" font-style="italic" text-anchor="middle" x="1715" y="757">What do readers actually understand?</text><text fill="#8D99AE" font-family="Helvetica, Arial, sans-serif" font-size="18" text-anchor="middle" x="1715" y="793">49 GAs · glance.scisense.fr</text><text dominant-baseline="middle" fill="#1D3557" font-family="Helvetica, Arial, sans-serif" font-size="68" font-weight="800" text-anchor="middle" x="1200" y="81">GLANCE</text></svg>