<?xml version="1.0" encoding="utf-8" ?>
<svg baseProfile="full" height="600px" version="1.1" viewBox="0 0 800 600" width="800px" xmlns="http://www.w3.org/2000/svg" xmlns:ev="http://www.w3.org/2001/xml-events" xmlns:xlink="http://www.w3.org/1999/xlink"><defs /><rect fill="#FAFAFA" height="600" width="800" x="0" y="0" /><circle cx="229.97468517695032" cy="78.0" fill="#DC2626" opacity="0.75" r="70.0" /><path d="M 209.97468517695032,127.0 L 165.84818481527623,161.0 L 265.8481848152762,161.0 L 249.97468517695032,127.0 Z" fill="#DC2626" opacity="0.75" /><path d="M 153.34818481527623,161.0 C 146.78568481527623,177.5 205.1859392110147,286.125 208.4671892110147,298.5 L 269.71718921101467,298.5 C 272.99843921101467,286.125 284.9106848152762,177.5 278.3481848152762,161.0 Z" fill="#DC2626" opacity="0.75" /><path d="M 153.34818481527623,161.0 Q 94.15653664932665,118.33444453557027 64.96488848337708,55.668889071140526" fill="none" opacity="0.75" stroke="#DC2626" stroke-linecap="round" stroke-width="31.5" /><path d="M 278.3481848152762,161.0 Q 269.8342999616365,106.39613232096879 231.32041510799678,31.792264641937578" fill="none" opacity="0.75" stroke="#DC2626" stroke-linecap="round" stroke-width="31.5" /><circle cx="64.96488848337708" cy="55.668889071140526" fill="#DC2626" opacity="0.75" r="12.5" /><circle cx="231.32041510799678" cy="31.792264641937578" fill="#DC2626" opacity="0.75" r="12.5" /><path d="M 208.4671892110147,298.5 Q 197.2171892110147,373.5 195.9671892110147,448.5" fill="none" opacity="0.75" stroke="#DC2626" stroke-linecap="round" stroke-width="35.0" /><path d="M 269.71718921101467,298.5 Q 280.96718921101467,373.5 282.21718921101467,448.5" fill="none" opacity="0.75" stroke="#DC2626" stroke-linecap="round" stroke-width="35.0" /><path d="M 293.4746851769503,76.0 A 25.0,25.0 0 0,1 293.4746851769503,101.0" fill="none" opacity="0.5" stroke="#DC2626" stroke-width="3.75" /><path d="M 299.4746851769503,66.0 A 45.0,45.0 0 0,1 299.4746851769503,111.0" fill="none" opacity="0.4" stroke="#DC2626" stroke-width="3.75" /><path d="M 305.4746851769503,56.0 A 65.0,65.0 0 0,1 305.4746851769503,121.0" fill="none" opacity="0.3" stroke="#DC2626" stroke-width="3.75" /><line opacity="0.45" stroke="#DC2626" stroke-width="3.75" x1="139.97468517695032" x2="127.47468517695032" y1="37.0" y2="77.0" /><line opacity="0.45" stroke="#DC2626" stroke-width="3.75" x1="114.97468517695032" x2="102.47468517695032" y1="37.0" y2="77.0" /><circle cx="595.9818821230099" cy="78.0" fill="#059669" opacity="0.75" r="70.0" /><path d="M 575.9818821230099,127.0 L 540.4816596469628,161.0 L 652.9816596469628,161.0 L 615.9818821230099,127.0 Z" fill="#059669" opacity="0.75" /><path d="M 527.9816596469628,161.0 C 521.4191596469628,205.0 558.0318437958416,265.5 561.3130937958416,298.5 L 622.5630937958416,298.5 C 625.8443437958416,265.5 672.0441596469628,205.0 665.4816596469628,161.0 Z" fill="#059669" opacity="0.75" /><path d="M 527.9816596469628,161.0 Q 561.1907303734533,228.45333323392333 624.3998010999437,275.90666646784666" fill="none" opacity="0.75" stroke="#059669" stroke-linecap="round" stroke-width="31.5" /><path d="M 665.4816596469628,161.0 Q 728.6907303734533,228.45333323392333 761.8998010999437,275.90666646784666" fill="none" opacity="0.75" stroke="#059669" stroke-linecap="round" stroke-width="31.5" /><circle cx="624.3998010999437" cy="275.90666646784666" fill="#059669" opacity="0.75" r="12.5" /><circle cx="761.8998010999437" cy="275.90666646784666" fill="#059669" opacity="0.75" r="12.5" /><path d="M 561.3130937958416,298.5 Q 540.6880937958416,373.5 530.0630937958416,448.5" fill="none" opacity="0.75" stroke="#059669" stroke-linecap="round" stroke-width="35.0" /><path d="M 622.5630937958416,298.5 Q 643.1880937958416,373.5 653.8130937958416,448.5" fill="none" opacity="0.75" stroke="#059669" stroke-linecap="round" stroke-width="35.0" /><path d="M 564.4818821230099,92.0 Q 595.9818821230099,123.5 627.4818821230099,92.0" fill="none" opacity="0.7" stroke="white" stroke-width="3.75" /><polygon fill="#059669" opacity="0.5" points="455.9818821230099,-42.0 459.5085936367647,-31.854101966249686 470.24772986743716,-31.63525491562421 461.6882212207808,-25.145898033750317 464.798660907397,-14.864745084375787 455.9818821230099,-21.0 447.16510333862277,-14.864745084375787 450.27554302523896,-25.145898033750314 441.71603437858255,-31.63525491562421 452.45517060925505,-31.854101966249683" /><polygon fill="#059669" opacity="0.5" points="735.9818821230099,-7.0 739.5085936367648,3.1458980337503153 750.2477298674372,3.364745084375789 741.6882212207807,9.854101966249685 744.798660907397,20.135254915624213 735.9818821230099,14.0 727.1651033386228,20.135254915624213 730.275543025239,9.854101966249685 721.7160343785825,3.364745084375791 732.455170609255,3.145898033750316" /><polygon fill="#059669" opacity="0.5" points="595.9818821230099,-91.0 599.5085936367648,-80.85410196624969 610.2477298674372,-80.63525491562422 601.6882212207807,-74.14589803375031 604.798660907397,-63.864745084375784 595.9818821230099,-70.0 587.1651033386228,-63.864745084375784 590.275543025239,-74.14589803375031 581.7160343785825,-80.63525491562422 592.455170609255,-80.85410196624969" /><polygon fill="#059669" opacity="0.5" points="700.9818821230099,98.0 704.5085936367648,108.14589803375031 715.2477298674372,108.36474508437578 706.6882212207807,114.85410196624969 709.798660907397,125.13525491562422 700.9818821230099,119.0 692.1651033386228,125.13525491562422 695.275543025239,114.85410196624969 686.7160343785825,108.36474508437578 697.455170609255,108.14589803375031" /></svg>