<?xml version="1.0" encoding="utf-8" ?>
<svg baseProfile="full" height="1680px" version="1.1" viewBox="0 0 3300 1680" width="3300px" xmlns="http://www.w3.org/2000/svg" xmlns:ev="http://www.w3.org/2001/xml-events" xmlns:xlink="http://www.w3.org/1999/xlink"><defs /><rect fill="#FAFAFA" height="1680" width="3300" x="0" y="0" /><rect fill="#FEF2F2" height="1680" opacity="0.65" width="891" x="0" y="0" /><rect fill="#FFFBEB" height="1680" opacity="0.35" width="1518" x="891" y="0" /><rect fill="#ECFDF5" height="1680" opacity="0.55" width="891" x="2409" y="0" /><rect fill="#F87171" height="32.0" opacity="0.85" rx="3" ry="3" stroke="#FCA5A5" stroke-width="1.5" width="78.1" x="40.0" y="672.0" /><rect fill="#F87171" height="32.0" opacity="0.85" rx="3" ry="3" stroke="#FCA5A5" stroke-width="1.5" width="78.1" x="121.1" y="672.0" /><rect fill="#F87171" height="32.0" opacity="0.85" rx="3" ry="3" stroke="#FCA5A5" stroke-width="1.5" width="78.1" x="202.2" y="672.0" /><rect fill="#F87171" height="32.0" opacity="0.85" rx="3" ry="3" stroke="#FCA5A5" stroke-width="1.5" width="78.1" x="364.4" y="672.0" /><rect fill="#F87171" height="32.0" opacity="0.85" rx="3" ry="3" stroke="#FCA5A5" stroke-width="1.5" width="78.1" x="445.5" y="672.0" /><rect fill="#F87171" height="32.0" opacity="0.85" rx="3" ry="3" stroke="#FCA5A5" stroke-width="1.5" width="78.1" x="526.5999999999999" y="672.0" /><rect fill="#F87171" height="32.0" opacity="0.85" rx="3" ry="3" stroke="#FCA5A5" stroke-width="1.5" width="78.1" x="688.8" y="672.0" /><rect fill="#F87171" height="32.0" opacity="0.85" rx="3" ry="3" stroke="#FCA5A5" stroke-width="1.5" width="78.1" x="769.9" y="672.0" /><rect fill="#F87171" height="32.0" opacity="0.85" rx="3" ry="3" stroke="#FCA5A5" stroke-width="1.5" width="78.1" x="80.55" y="707.0" /><rect fill="#F87171" height="32.0" opacity="0.85" rx="3" ry="3" stroke="#FCA5A5" stroke-width="1.5" width="78.1" x="161.64999999999998" y="707.0" /><rect fill="#F87171" height="32.0" opacity="0.85" rx="3" ry="3" stroke="#FCA5A5" stroke-width="1.5" width="78.1" x="323.84999999999997" y="707.0" /><rect fill="#F87171" height="32.0" opacity="0.85" rx="3" ry="3" stroke="#FCA5A5" stroke-width="1.5" width="78.1" x="404.95" y="707.0" /><rect fill="#F87171" height="32.0" opacity="0.85" rx="3" ry="3" stroke="#FCA5A5" stroke-width="1.5" width="78.1" x="567.1499999999999" y="707.0" /><rect fill="#F87171" height="32.0" opacity="0.85" rx="3" ry="3" stroke="#FCA5A5" stroke-width="1.5" width="78.1" x="648.2499999999999" y="707.0" /><rect fill="#F87171" height="32.0" opacity="0.85" rx="3" ry="3" stroke="#FCA5A5" stroke-width="1.5" width="78.1" x="40.0" y="742.0" /><rect fill="#F87171" height="32.0" opacity="0.85" rx="3" ry="3" stroke="#FCA5A5" stroke-width="1.5" width="78.1" x="202.2" y="742.0" /><rect fill="#F87171" height="32.0" opacity="0.85" rx="3" ry="3" stroke="#FCA5A5" stroke-width="1.5" width="78.1" x="283.29999999999995" y="742.0" /><rect fill="#F87171" height="32.0" opacity="0.85" rx="3" ry="3" stroke="#FCA5A5" stroke-width="1.5" width="78.1" x="364.4" y="742.0" /><rect fill="#F87171" height="32.0" opacity="0.85" rx="3" ry="3" stroke="#FCA5A5" stroke-width="1.5" width="78.1" x="445.5" y="742.0" /><rect fill="#F87171" height="32.0" opacity="0.85" rx="3" ry="3" stroke="#FCA5A5" stroke-width="1.5" width="78.1" x="607.6999999999999" y="742.0" /><rect fill="#F87171" height="32.0" opacity="0.85" rx="3" ry="3" stroke="#FCA5A5" stroke-width="1.5" width="78.1" x="688.8" y="742.0" /><rect fill="#F87171" height="32.0" opacity="0.85" rx="3" ry="3" stroke="#FCA5A5" stroke-width="1.5" width="78.1" x="769.9" y="742.0" /><rect fill="#F87171" height="32.0" opacity="0.85" rx="3" ry="3" stroke="#FCA5A5" stroke-width="1.5" width="78.1" x="80.55" y="777.0" /><rect fill="#F87171" height="32.0" opacity="0.85" rx="3" ry="3" stroke="#FCA5A5" stroke-width="1.5" width="78.1" x="161.64999999999998" y="777.0" /><rect fill="#F87171" height="32.0" opacity="0.85" rx="3" ry="3" stroke="#FCA5A5" stroke-width="1.5" width="78.1" x="242.75" y="777.0" /><rect fill="#F87171" height="32.0" opacity="0.85" rx="3" ry="3" stroke="#FCA5A5" stroke-width="1.5" width="78.1" x="323.84999999999997" y="777.0" /><rect fill="#F87171" height="32.0" opacity="0.85" rx="3" ry="3" stroke="#FCA5A5" stroke-width="1.5" width="78.1" x="486.05" y="777.0" /><rect fill="#F87171" height="32.0" opacity="0.85" rx="3" ry="3" stroke="#FCA5A5" stroke-width="1.5" width="78.1" x="567.1499999999999" y="777.0" /><rect fill="#F87171" height="32.0" opacity="0.85" rx="3" ry="3" stroke="#FCA5A5" stroke-width="1.5" width="78.1" x="648.2499999999999" y="777.0" /><rect fill="#F87171" height="32.0" opacity="0.85" rx="3" ry="3" stroke="#FCA5A5" stroke-width="1.5" width="78.1" x="729.3499999999999" y="777.0" /><rect fill="#F87171" height="24.5" opacity="0.5" rx="3" ry="3" stroke="#FCA5A5" stroke-width="1" transform="rotate(14, 651.0849999999999, 654.25)" width="56.76999999999999" x="622.6999999999999" y="642" /><rect fill="#F87171" height="24.5" opacity="0.5" rx="3" ry="3" stroke="#FCA5A5" stroke-width="1" transform="rotate(19, 245.58499999999998, 769.25)" width="56.76999999999999" x="217.2" y="757.0" /><rect fill="#F87171" height="24.5" opacity="0.5" rx="3" ry="3" stroke="#FCA5A5" stroke-width="1" transform="rotate(12, 164.48499999999999, 804.25)" width="56.76999999999999" x="136.1" y="792.0" /><rect fill="#F87171" height="24.5" opacity="0.5" rx="3" ry="3" stroke="#FCA5A5" stroke-width="1" transform="rotate(-7, 407.78499999999997, 839.25)" width="56.76999999999999" x="379.4" y="827.0" /><circle cx="323.84999999999997" cy="689.5" fill="#DC2626" opacity="0.85" r="18" /><line stroke="#DC2626" stroke-width="2.5" x1="341.84999999999997" x2="355.84999999999997" y1="689.5" y2="689.5" /><circle cx="355.84999999999997" cy="689.5" fill="#DC2626" r="4" /><line stroke="#DC2626" stroke-width="2.5" x1="336.5779220613578" x2="346.4774169979695" y1="702.2279220613578" y2="712.1274169979695" /><circle cx="346.4774169979695" cy="712.1274169979695" fill="#DC2626" r="4" /><line stroke="#DC2626" stroke-width="2.5" x1="323.84999999999997" x2="323.84999999999997" y1="707.5" y2="721.5" /><circle cx="323.84999999999997" cy="721.5" fill="#DC2626" r="4" /><line stroke="#DC2626" stroke-width="2.5" x1="311.1220779386421" x2="301.22258300203043" y1="702.2279220613578" y2="712.1274169979695" /><circle cx="301.22258300203043" cy="712.1274169979695" fill="#DC2626" r="4" /><line stroke="#DC2626" stroke-width="2.5" x1="305.84999999999997" x2="291.84999999999997" y1="689.5" y2="689.5" /><circle cx="291.84999999999997" cy="689.5" fill="#DC2626" r="4" /><line stroke="#DC2626" stroke-width="2.5" x1="311.1220779386421" x2="301.22258300203043" y1="676.7720779386422" y2="666.8725830020305" /><circle cx="301.22258300203043" cy="666.8725830020305" fill="#DC2626" r="4" /><line stroke="#DC2626" stroke-width="2.5" x1="323.84999999999997" x2="323.84999999999997" y1="671.5" y2="657.5" /><circle cx="323.84999999999997" cy="657.5" fill="#DC2626" r="4" /><line stroke="#DC2626" stroke-width="2.5" x1="336.5779220613578" x2="346.4774169979695" y1="676.7720779386422" y2="666.8725830020305" /><circle cx="346.4774169979695" cy="666.8725830020305" fill="#DC2626" r="4" /><line opacity="0.7" stroke="white" stroke-width="1.5" x1="316.65" x2="322.04999999999995" y1="686.8" y2="688.6" /><line opacity="0.7" stroke="white" stroke-width="1.5" x1="331.04999999999995" x2="325.65" y1="686.8" y2="688.6" /><path d="M 319.34999999999997,694.9 Q 323.84999999999997,692.2 328.34999999999997,694.9" fill="none" opacity="0.6" stroke="white" stroke-width="1.5" /><circle cx="648.25" cy="689.5" fill="#DC2626" opacity="0.85" r="18" /><line stroke="#DC2626" stroke-width="2.5" x1="666.25" x2="680.25" y1="689.5" y2="689.5" /><circle cx="680.25" cy="689.5" fill="#DC2626" r="4" /><line stroke="#DC2626" stroke-width="2.5" x1="660.9779220613578" x2="670.8774169979695" y1="702.2279220613578" y2="712.1274169979695" /><circle cx="670.8774169979695" cy="712.1274169979695" fill="#DC2626" r="4" /><line stroke="#DC2626" stroke-width="2.5" x1="648.25" x2="648.25" y1="707.5" y2="721.5" /><circle cx="648.25" cy="721.5" fill="#DC2626" r="4" /><line stroke="#DC2626" stroke-width="2.5" x1="635.5220779386422" x2="625.6225830020305" y1="702.2279220613578" y2="712.1274169979695" /><circle cx="625.6225830020305" cy="712.1274169979695" fill="#DC2626" r="4" /><line stroke="#DC2626" stroke-width="2.5" x1="630.25" x2="616.25" y1="689.5" y2="689.5" /><circle cx="616.25" cy="689.5" fill="#DC2626" r="4" /><line stroke="#DC2626" stroke-width="2.5" x1="635.5220779386422" x2="625.6225830020305" y1="676.7720779386422" y2="666.8725830020305" /><circle cx="625.6225830020305" cy="666.8725830020305" fill="#DC2626" r="4" /><line stroke="#DC2626" stroke-width="2.5" x1="648.25" x2="648.25" y1="671.5" y2="657.5" /><circle cx="648.25" cy="657.5" fill="#DC2626" r="4" /><line stroke="#DC2626" stroke-width="2.5" x1="660.9779220613578" x2="670.8774169979695" y1="676.7720779386422" y2="666.8725830020305" /><circle cx="670.8774169979695" cy="666.8725830020305" fill="#DC2626" r="4" /><line opacity="0.7" stroke="white" stroke-width="1.5" x1="641.05" x2="646.45" y1="686.8" y2="688.6" /><line opacity="0.7" stroke="white" stroke-width="1.5" x1="655.45" x2="650.05" y1="686.8" y2="688.6" /><path d="M 643.75,694.9 Q 648.25,692.2 652.75,694.9" fill="none" opacity="0.6" stroke="white" stroke-width="1.5" /><circle cx="242.75" cy="724.5" fill="#DC2626" opacity="0.85" r="18" /><line stroke="#DC2626" stroke-width="2.5" x1="260.75" x2="274.75" y1="724.5" y2="724.5" /><circle cx="274.75" cy="724.5" fill="#DC2626" r="4" /><line stroke="#DC2626" stroke-width="2.5" x1="255.47792206135784" x2="265.37741699796953" y1="737.2279220613578" y2="747.1274169979695" /><circle cx="265.37741699796953" cy="747.1274169979695" fill="#DC2626" r="4" /><line stroke="#DC2626" stroke-width="2.5" x1="242.75" x2="242.75" y1="742.5" y2="756.5" /><circle cx="242.75" cy="756.5" fill="#DC2626" r="4" /><line stroke="#DC2626" stroke-width="2.5" x1="230.02207793864216" x2="220.12258300203047" y1="737.2279220613578" y2="747.1274169979695" /><circle cx="220.12258300203047" cy="747.1274169979695" fill="#DC2626" r="4" /><line stroke="#DC2626" stroke-width="2.5" x1="224.75" x2="210.75" y1="724.5" y2="724.5" /><circle cx="210.75" cy="724.5" fill="#DC2626" r="4" /><line stroke="#DC2626" stroke-width="2.5" x1="230.02207793864216" x2="220.12258300203047" y1="711.7720779386422" y2="701.8725830020305" /><circle cx="220.12258300203047" cy="701.8725830020305" fill="#DC2626" r="4" /><line stroke="#DC2626" stroke-width="2.5" x1="242.75" x2="242.75" y1="706.5" y2="692.5" /><circle cx="242.75" cy="692.5" fill="#DC2626" r="4" /><line stroke="#DC2626" stroke-width="2.5" x1="255.47792206135784" x2="265.37741699796953" y1="711.7720779386422" y2="701.8725830020305" /><circle cx="265.37741699796953" cy="701.8725830020305" fill="#DC2626" r="4" /><line opacity="0.7" stroke="white" stroke-width="1.5" x1="235.55" x2="240.95" y1="721.8" y2="723.6" /><line opacity="0.7" stroke="white" stroke-width="1.5" x1="249.95" x2="244.55" y1="721.8" y2="723.6" /><path d="M 238.25,729.9 Q 242.75,727.2 247.25,729.9" fill="none" opacity="0.6" stroke="white" stroke-width="1.5" /><rect fill="#D4A574" height="32.0" opacity="0.7" rx="3" ry="3" stroke="#C4956A" stroke-width="1.5" width="101.14285714285714" x="921.0" y="672.0" /><rect fill="#D4A574" height="32.0" opacity="0.7" rx="3" ry="3" stroke="#C4956A" stroke-width="1.5" width="101.14285714285714" x="1025.142857142857" y="672.0" /><rect fill="#0D9488" height="32.0" opacity="0.85" rx="3" ry="3" stroke="#0D9488" stroke-width="1.5" width="101.14285714285714" x="1129.2857142857142" y="672.0" /><rect fill="#D4A574" height="32.0" opacity="0.7" rx="3" ry="3" stroke="#C4956A" stroke-width="1.5" width="101.14285714285714" x="1337.5714285714284" y="672.0" /><rect fill="#D4A574" height="32.0" opacity="0.7" rx="3" ry="3" stroke="#C4956A" stroke-width="1.5" width="101.14285714285714" x="1441.7142857142858" y="672.0" /><rect fill="#D4A574" height="32.0" opacity="0.7" rx="3" ry="3" stroke="#C4956A" stroke-width="1.5" width="101.14285714285714" x="1545.857142857143" y="672.0" /><rect fill="#D4A574" height="32.0" opacity="0.7" rx="3" ry="3" stroke="#C4956A" stroke-width="1.5" width="101.14285714285714" x="1650.0" y="672.0" /><rect fill="#D4A574" height="32.0" opacity="0.7" rx="3" ry="3" stroke="#C4956A" stroke-width="1.5" width="101.14285714285714" x="1754.142857142857" y="672.0" /><rect fill="#D4A574" height="32.0" opacity="0.7" rx="3" ry="3" stroke="#C4956A" stroke-width="1.5" width="101.14285714285714" x="1858.2857142857142" y="672.0" /><rect fill="#D4A574" height="32.0" opacity="0.7" rx="3" ry="3" stroke="#C4956A" stroke-width="1.5" width="101.14285714285714" x="1962.4285714285713" y="672.0" /><rect fill="#D4A574" height="32.0" opacity="0.7" rx="3" ry="3" stroke="#C4956A" stroke-width="1.5" width="101.14285714285714" x="2170.714285714286" y="672.0" /><rect fill="#D4A574" height="32.0" opacity="0.7" rx="3" ry="3" stroke="#C4956A" stroke-width="1.5" width="101.14285714285714" x="2274.857142857143" y="672.0" /><rect fill="#D4A574" height="32.0" opacity="0.7" rx="3" ry="3" stroke="#C4956A" stroke-width="1.5" width="101.14285714285714" x="973.0714285714286" y="707.0" /><rect fill="#D4A574" height="32.0" opacity="0.7" rx="3" ry="3" stroke="#C4956A" stroke-width="1.5" width="101.14285714285714" x="1077.2142857142858" y="707.0" /><rect fill="#D4A574" height="32.0" opacity="0.7" rx="3" ry="3" stroke="#C4956A" stroke-width="1.5" width="101.14285714285714" x="1181.357142857143" y="707.0" /><rect fill="#D4A574" height="32.0" opacity="0.7" rx="3" ry="3" stroke="#C4956A" stroke-width="1.5" width="101.14285714285714" x="1285.5000000000002" y="707.0" /><rect fill="#0D9488" height="32.0" opacity="0.85" rx="3" ry="3" stroke="#0D9488" stroke-width="1.5" width="101.14285714285714" x="1389.642857142857" y="707.0" /><rect fill="#D4A574" height="32.0" opacity="0.7" rx="3" ry="3" stroke="#C4956A" stroke-width="1.5" width="101.14285714285714" x="1493.7857142857144" y="707.0" /><rect fill="#D4A574" height="32.0" opacity="0.7" rx="3" ry="3" stroke="#C4956A" stroke-width="1.5" width="101.14285714285714" x="1597.9285714285716" y="707.0" /><rect fill="#0D9488" height="32.0" opacity="0.85" rx="3" ry="3" stroke="#0D9488" stroke-width="1.5" width="101.14285714285714" x="1702.0714285714287" y="707.0" /><rect fill="#D4A574" height="32.0" opacity="0.7" rx="3" ry="3" stroke="#C4956A" stroke-width="1.5" width="101.14285714285714" x="1910.357142857143" y="707.0" /><rect fill="#D4A574" height="32.0" opacity="0.7" rx="3" ry="3" stroke="#C4956A" stroke-width="1.5" width="101.14285714285714" x="2014.5" y="707.0" /><rect fill="#D4A574" height="32.0" opacity="0.7" rx="3" ry="3" stroke="#C4956A" stroke-width="1.5" width="101.14285714285714" x="2118.642857142857" y="707.0" /><rect fill="#D4A574" height="32.0" opacity="0.7" rx="3" ry="3" stroke="#C4956A" stroke-width="1.5" width="101.14285714285714" x="2222.785714285714" y="707.0" /><rect fill="#D4A574" height="32.0" opacity="0.7" rx="3" ry="3" stroke="#C4956A" stroke-width="1.5" width="101.14285714285714" x="921.0" y="742.0" /><rect fill="#D4A574" height="32.0" opacity="0.7" rx="3" ry="3" stroke="#C4956A" stroke-width="1.5" width="101.14285714285714" x="1129.2857142857142" y="742.0" /><rect fill="#0D9488" height="32.0" opacity="0.85" rx="3" ry="3" stroke="#0D9488" stroke-width="1.5" width="101.14285714285714" x="1233.4285714285716" y="742.0" /><rect fill="#D4A574" height="32.0" opacity="0.7" rx="3" ry="3" stroke="#C4956A" stroke-width="1.5" width="101.14285714285714" x="1337.5714285714284" y="742.0" /><rect fill="#D4A574" height="32.0" opacity="0.7" rx="3" ry="3" stroke="#C4956A" stroke-width="1.5" width="101.14285714285714" x="1545.857142857143" y="742.0" /><rect fill="#D4A574" height="32.0" opacity="0.7" rx="3" ry="3" stroke="#C4956A" stroke-width="1.5" width="101.14285714285714" x="1650.0" y="742.0" /><rect fill="#0D9488" height="32.0" opacity="0.85" rx="3" ry="3" stroke="#0D9488" stroke-width="1.5" width="101.14285714285714" x="1754.142857142857" y="742.0" /><rect fill="#D4A574" height="32.0" opacity="0.7" rx="3" ry="3" stroke="#C4956A" stroke-width="1.5" width="101.14285714285714" x="1858.2857142857142" y="742.0" /><rect fill="#D4A574" height="32.0" opacity="0.7" rx="3" ry="3" stroke="#C4956A" stroke-width="1.5" width="101.14285714285714" x="1962.4285714285713" y="742.0" /><rect fill="#D4A574" height="32.0" opacity="0.7" rx="3" ry="3" stroke="#C4956A" stroke-width="1.5" width="101.14285714285714" x="2066.5714285714284" y="742.0" /><rect fill="#D4A574" height="32.0" opacity="0.7" rx="3" ry="3" stroke="#C4956A" stroke-width="1.5" width="101.14285714285714" x="2170.714285714286" y="742.0" /><rect fill="#D4A574" height="32.0" opacity="0.7" rx="3" ry="3" stroke="#C4956A" stroke-width="1.5" width="101.14285714285714" x="2274.857142857143" y="742.0" /><rect fill="#D4A574" height="32.0" opacity="0.7" rx="3" ry="3" stroke="#C4956A" stroke-width="1.5" width="101.14285714285714" x="973.0714285714286" y="777.0" /><rect fill="#0D9488" height="32.0" opacity="0.85" rx="3" ry="3" stroke="#0D9488" stroke-width="1.5" width="101.14285714285714" x="1077.2142857142858" y="777.0" /><rect fill="#D4A574" height="32.0" opacity="0.7" rx="3" ry="3" stroke="#C4956A" stroke-width="1.5" width="101.14285714285714" x="1181.357142857143" y="777.0" /><rect fill="#D4A574" height="32.0" opacity="0.7" rx="3" ry="3" stroke="#C4956A" stroke-width="1.5" width="101.14285714285714" x="1285.5000000000002" y="777.0" /><rect fill="#D4A574" height="32.0" opacity="0.7" rx="3" ry="3" stroke="#C4956A" stroke-width="1.5" width="101.14285714285714" x="1389.642857142857" y="777.0" /><rect fill="#D4A574" height="32.0" opacity="0.7" rx="3" ry="3" stroke="#C4956A" stroke-width="1.5" width="101.14285714285714" x="1493.7857142857144" y="777.0" /><rect fill="#D4A574" height="32.0" opacity="0.7" rx="3" ry="3" stroke="#C4956A" stroke-width="1.5" width="101.14285714285714" x="1597.9285714285716" y="777.0" /><rect fill="#D4A574" height="32.0" opacity="0.7" rx="3" ry="3" stroke="#C4956A" stroke-width="1.5" width="101.14285714285714" x="1702.0714285714287" y="777.0" /><rect fill="#D4A574" height="32.0" opacity="0.7" rx="3" ry="3" stroke="#C4956A" stroke-width="1.5" width="101.14285714285714" x="1806.2142857142858" y="777.0" /><rect fill="#D4A574" height="32.0" opacity="0.7" rx="3" ry="3" stroke="#C4956A" stroke-width="1.5" width="101.14285714285714" x="1910.357142857143" y="777.0" /><rect fill="#D4A574" height="32.0" opacity="0.7" rx="3" ry="3" stroke="#C4956A" stroke-width="1.5" width="101.14285714285714" x="2118.642857142857" y="777.0" /><rect fill="#D4A574" height="32.0" opacity="0.7" rx="3" ry="3" stroke="#C4956A" stroke-width="1.5" width="101.14285714285714" x="2222.785714285714" y="777.0" /><line opacity="0.2" stroke="#0D9488" stroke-width="6" x1="1229.977719201651" x2="1390.0937093697776" y1="690.131716095717" y2="720.868283904283" /><line opacity="0.65" stroke="#0D9488" stroke-width="2.5" x1="1229.977719201651" x2="1390.0937093697776" y1="690.131716095717" y2="720.868283904283" /><line opacity="0.2" stroke="#0D9488" stroke-width="6" x1="1221.8285225361778" x2="1242.0286203209653" y1="696.9255822804455" y2="749.0744177195545" /><line opacity="0.65" stroke="#0D9488" stroke-width="2.5" x1="1221.8285225361778" x2="1242.0286203209653" y1="696.9255822804455" y2="749.0744177195545" /><line opacity="0.2" stroke="#0D9488" stroke-width="6" x1="1157.3889719930862" x2="1150.2538851497711" y1="702.3341612264238" y2="778.6658387735762" /><line opacity="0.65" stroke="#0D9488" stroke-width="2.5" x1="1157.3889719930862" x2="1150.2538851497711" y1="702.3341612264238" y2="778.6658387735762" /><line opacity="0.2" stroke="#0D9488" stroke-width="6" x1="1490.7857142857144" x2="1702.0714285714287" y1="723.0" y2="723.0" /><line opacity="0.65" stroke="#0D9488" stroke-width="2.5" x1="1490.7857142857144" x2="1702.0714285714287" y1="723.0" y2="723.0" /><line opacity="0.2" stroke="#0D9488" stroke-width="6" x1="1390.8662996885637" x2="1333.3479860257223" y1="726.4980941220355" y2="754.5019058779645" /><line opacity="0.65" stroke="#0D9488" stroke-width="2.5" x1="1390.8662996885637" x2="1333.3479860257223" y1="726.4980941220355" y2="754.5019058779645" /><line opacity="0.2" stroke="#0D9488" stroke-width="6" x1="1390.8662996885637" x2="1177.1337003114365" y1="726.4980941220355" y2="789.5019058779645" /><line opacity="0.65" stroke="#0D9488" stroke-width="2.5" x1="1390.8662996885637" x2="1177.1337003114365" y1="726.4980941220355" y2="789.5019058779645" /><line opacity="0.2" stroke="#0D9488" stroke-width="6" x1="1794.6142368218923" x2="1762.7429060352508" y1="731.9255822804455" y2="749.0744177195545" /><line opacity="0.65" stroke="#0D9488" stroke-width="2.5" x1="1794.6142368218923" x2="1762.7429060352508" y1="731.9255822804455" y2="749.0744177195545" /><line opacity="0.2" stroke="#0D9488" stroke-width="6" x1="1234.6520139742781" x2="1177.1337003114365" y1="761.4980941220355" y2="789.5019058779645" /><line opacity="0.65" stroke="#0D9488" stroke-width="2.5" x1="1234.6520139742781" x2="1177.1337003114365" y1="761.4980941220355" y2="789.5019058779645" /><rect fill="#34D399" height="32.0" opacity="0.85" rx="3" ry="3" stroke="#6EE7B7" stroke-width="1.5" width="78.1" x="2449.0" y="672.0" /><rect fill="#34D399" height="32.0" opacity="0.85" rx="3" ry="3" stroke="#6EE7B7" stroke-width="1.5" width="78.1" x="2530.1" y="672.0" /><rect fill="#34D399" height="32.0" opacity="0.85" rx="3" ry="3" stroke="#6EE7B7" stroke-width="1.5" width="78.1" x="2611.2" y="672.0" /><rect fill="#34D399" height="32.0" opacity="0.85" rx="3" ry="3" stroke="#6EE7B7" stroke-width="1.5" width="78.1" x="2692.3" y="672.0" /><rect fill="#34D399" height="32.0" opacity="0.85" rx="3" ry="3" stroke="#6EE7B7" stroke-width="1.5" width="78.1" x="2773.4" y="672.0" /><rect fill="#34D399" height="32.0" opacity="0.85" rx="3" ry="3" stroke="#6EE7B7" stroke-width="1.5" width="78.1" x="2854.5" y="672.0" /><rect fill="#34D399" height="32.0" opacity="0.85" rx="3" ry="3" stroke="#6EE7B7" stroke-width="1.5" width="78.1" x="2935.6" y="672.0" /><rect fill="#34D399" height="32.0" opacity="0.85" rx="3" ry="3" stroke="#6EE7B7" stroke-width="1.5" width="78.1" x="3016.7" y="672.0" /><rect fill="#34D399" height="32.0" opacity="0.85" rx="3" ry="3" stroke="#6EE7B7" stroke-width="1.5" width="78.1" x="3097.8" y="672.0" /><rect fill="#34D399" height="32.0" opacity="0.85" rx="3" ry="3" stroke="#6EE7B7" stroke-width="1.5" width="78.1" x="3178.9" y="672.0" /><rect fill="#34D399" height="32.0" opacity="0.85" rx="3" ry="3" stroke="#6EE7B7" stroke-width="1.5" width="78.1" x="2489.55" y="707.0" /><rect fill="#34D399" height="32.0" opacity="0.85" rx="3" ry="3" stroke="#6EE7B7" stroke-width="1.5" width="78.1" x="2570.65" y="707.0" /><rect fill="#34D399" height="32.0" opacity="0.85" rx="3" ry="3" stroke="#6EE7B7" stroke-width="1.5" width="78.1" x="2651.75" y="707.0" /><rect fill="#34D399" height="32.0" opacity="0.85" rx="3" ry="3" stroke="#6EE7B7" stroke-width="1.5" width="78.1" x="2732.8500000000004" y="707.0" /><rect fill="#34D399" height="32.0" opacity="0.85" rx="3" ry="3" stroke="#6EE7B7" stroke-width="1.5" width="78.1" x="2813.9500000000003" y="707.0" /><rect fill="#34D399" height="32.0" opacity="0.85" rx="3" ry="3" stroke="#6EE7B7" stroke-width="1.5" width="78.1" x="2895.05" y="707.0" /><rect fill="#34D399" height="32.0" opacity="0.85" rx="3" ry="3" stroke="#6EE7B7" stroke-width="1.5" width="78.1" x="2976.15" y="707.0" /><rect fill="#34D399" height="32.0" opacity="0.85" rx="3" ry="3" stroke="#6EE7B7" stroke-width="1.5" width="78.1" x="3057.25" y="707.0" /><rect fill="#34D399" height="32.0" opacity="0.85" rx="3" ry="3" stroke="#6EE7B7" stroke-width="1.5" width="78.1" x="3138.3500000000004" y="707.0" /><rect fill="#34D399" height="32.0" opacity="0.85" rx="3" ry="3" stroke="#6EE7B7" stroke-width="1.5" width="78.1" x="2449.0" y="742.0" /><rect fill="#34D399" height="32.0" opacity="0.85" rx="3" ry="3" stroke="#6EE7B7" stroke-width="1.5" width="78.1" x="2530.1" y="742.0" /><rect fill="#34D399" height="32.0" opacity="0.85" rx="3" ry="3" stroke="#6EE7B7" stroke-width="1.5" width="78.1" x="2611.2" y="742.0" /><rect fill="#34D399" height="32.0" opacity="0.85" rx="3" ry="3" stroke="#6EE7B7" stroke-width="1.5" width="78.1" x="2692.3" y="742.0" /><rect fill="#34D399" height="32.0" opacity="0.85" rx="3" ry="3" stroke="#6EE7B7" stroke-width="1.5" width="78.1" x="2773.4" y="742.0" /><rect fill="#34D399" height="32.0" opacity="0.85" rx="3" ry="3" stroke="#6EE7B7" stroke-width="1.5" width="78.1" x="2854.5" y="742.0" /><rect fill="#34D399" height="32.0" opacity="0.85" rx="3" ry="3" stroke="#6EE7B7" stroke-width="1.5" width="78.1" x="2935.6" y="742.0" /><rect fill="#34D399" height="32.0" opacity="0.85" rx="3" ry="3" stroke="#6EE7B7" stroke-width="1.5" width="78.1" x="3016.7" y="742.0" /><rect fill="#34D399" height="32.0" opacity="0.85" rx="3" ry="3" stroke="#6EE7B7" stroke-width="1.5" width="78.1" x="3097.8" y="742.0" /><rect fill="#34D399" height="32.0" opacity="0.85" rx="3" ry="3" stroke="#6EE7B7" stroke-width="1.5" width="78.1" x="3178.9" y="742.0" /><rect fill="#34D399" height="32.0" opacity="0.85" rx="3" ry="3" stroke="#6EE7B7" stroke-width="1.5" width="78.1" x="2489.55" y="777.0" /><rect fill="#34D399" height="32.0" opacity="0.85" rx="3" ry="3" stroke="#6EE7B7" stroke-width="1.5" width="78.1" x="2570.65" y="777.0" /><rect fill="#34D399" height="32.0" opacity="0.85" rx="3" ry="3" stroke="#6EE7B7" stroke-width="1.5" width="78.1" x="2651.75" y="777.0" /><rect fill="#34D399" height="32.0" opacity="0.85" rx="3" ry="3" stroke="#6EE7B7" stroke-width="1.5" width="78.1" x="2732.8500000000004" y="777.0" /><rect fill="#34D399" height="32.0" opacity="0.85" rx="3" ry="3" stroke="#6EE7B7" stroke-width="1.5" width="78.1" x="2813.9500000000003" y="777.0" /><rect fill="#34D399" height="32.0" opacity="0.85" rx="3" ry="3" stroke="#6EE7B7" stroke-width="1.5" width="78.1" x="2895.05" y="777.0" /><rect fill="#34D399" height="32.0" opacity="0.85" rx="3" ry="3" stroke="#6EE7B7" stroke-width="1.5" width="78.1" x="2976.15" y="777.0" /><rect fill="#34D399" height="32.0" opacity="0.85" rx="3" ry="3" stroke="#6EE7B7" stroke-width="1.5" width="78.1" x="3057.25" y="777.0" /><rect fill="#34D399" height="32.0" opacity="0.85" rx="3" ry="3" stroke="#6EE7B7" stroke-width="1.5" width="78.1" x="3138.3500000000004" y="777.0" /><ellipse cx="445" cy="1176" fill="#FEE2E2" opacity="0.3" rx="200" ry="150" stroke="none" /><circle cx="445.0" cy="1326.0" fill="#991B1B" opacity="0.8" r="6" /><text style="font-family:Helvetica,Arial,sans-serif;font-size:28px;fill:#991B1B;text-anchor:middle;font-weight:bold" x="445.0" y="1310.0">Viral RTIs</text><circle cx="645.0" cy="1176.0" fill="#991B1B" opacity="0.8" r="6" /><text style="font-family:Helvetica,Arial,sans-serif;font-size:28px;fill:#991B1B;text-anchor:start;font-weight:bold" x="657.0" y="1183.0">Th2 bias</text><circle cx="445.0" cy="1026.0" fill="#991B1B" opacity="0.8" r="6" /><text style="font-family:Helvetica,Arial,sans-serif;font-size:28px;fill:#991B1B;text-anchor:middle;font-weight:bold" x="445.0" y="1050.0">Remodeling</text><circle cx="245.0" cy="1176.0" fill="#991B1B" opacity="0.8" r="6" /><text style="font-family:Helvetica,Arial,sans-serif;font-size:28px;fill:#991B1B;text-anchor:end;font-weight:bold" x="235.0" y="1183.0">Re-susceptibility</text><path d="M 479.7296355333861,1028.2788370481687 A 200,150 0 0,1 641.9615506024415,1149.9527733499604" fill="none" opacity="0.5" stroke="#991B1B" stroke-width="2.5" /><polygon fill="#991B1B" opacity="0.5" points="641.9615506024415,1149.9527733499604 640.7101690994768,1159.8741666157289 646.530780913314,1158.847835708719" /><path d="M 641.9615506024415,1149.9527733499604 A 200,150 0 0,1 479.7296355333861,1323.7211629518313" fill="none" opacity="0.5" stroke="#991B1B" stroke-width="2.5" /><polygon fill="#991B1B" opacity="0.5" points="479.7296355333861,1323.7211629518313 469.8082422676175,1322.4697814488666 470.83457317462745,1328.2903932627037" /><path d="M 479.7296355333861,1323.7211629518313 A 200,150 0 0,1 248.0384493975584,1202.0472266500396" fill="none" opacity="0.5" stroke="#991B1B" stroke-width="2.5" /><polygon fill="#991B1B" opacity="0.5" points="248.0384493975584,1202.0472266500396 249.28983090052313,1192.1258333842711 243.46921908668597,1193.152164291281" /><path d="M 248.0384493975584,1202.0472266500396 A 200,150 0 0,1 410.27036446661396,1028.2788370481687" fill="none" opacity="0.5" stroke="#991B1B" stroke-width="2.5" /><polygon fill="#991B1B" opacity="0.5" points="410.27036446661396,1028.2788370481687 420.19175773238254,1029.5302185511334 419.1654268253726,1023.7096067372963" /><text style="font-family:Helvetica,Arial,sans-serif;font-size:36px;fill:#7F1D1D;text-anchor:middle;font-weight:bold" x="445" y="1371">Wheezing / Asthma</text><path d="M 340.0,45.8 C 365.2,41.6 390.4,58.4 382.0,83.6 C 403.0,96.2 419.8,125.6 415.6,138.2 C 414.0,144.9 407.2,150.0 403.0,152.5 C 398.8,162.6 403.0,180.2 390.4,188.6 C 382.0,197.0 369.4,205.4 356.8,205.4 C 348.4,213.8 358.7,242.0 358.7,260.0 C 364.7,275.0 361.3,272.0 366.7,281.0 C 366.7,296.0 436.1,239.0 436.1,257.0 C 436.1,275.0 412.0,152.0 412.0,167.0 C 412.0,182.0 397.0,185.0 389.5,174.5 C 382.0,167.0 409.1,275.0 409.1,257.0 C 409.1,239.0 358.3,308.0 352.3,302.0 C 361.9,317.0 395.2,315.5 388.0,339.5 C 383.2,369.5 412.4,383.0 406.4,407.0 C 403.4,425.0 396.8,407.0 392.0,422.0 C 392.0,434.0 409.4,497.0 409.4,512.0 C 409.4,527.0 397.4,578.0 397.4,596.0 C 397.4,608.0 410.0,611.0 410.0,602.0 C 410.0,599.0 370.1,608.0 355.4,602.0 C 355.4,578.0 377.9,527.0 377.9,512.0 C 377.9,497.0 377.6,437.0 375.2,428.0 C 368.0,431.0 365.0,437.0 354.5,428.0 C 350.3,440.0 383.9,503.0 383.9,518.0 C 383.9,533.0 371.9,578.0 371.9,596.0 C 371.9,608.0 344.6,608.0 340.4,602.0 C 340.4,578.0 352.4,533.0 352.4,518.0 C 352.4,494.0 333.5,446.0 344.0,428.0 C 334.4,398.0 318.3,377.0 325.5,347.0 C 330.3,311.0 314.5,296.0 323.5,266.0 C 326.5,251.0 325.7,266.0 325.7,254.0 C 319.7,236.0 270.4,191.0 264.4,176.0 C 251.8,150.8 256.0,125.6 260.2,108.8 C 264.4,83.6 272.8,62.6 289.6,54.2 C 302.2,45.8 323.2,47.5 340.0,45.8 Z" fill="#DC2626" opacity="0.85" /><path d="M 428.8,138.8 A 36.0,36.0 0 0,1 428.8,171.2" fill="none" opacity="0.55" stroke="#DC2626" stroke-linecap="round" stroke-width="5.4" /><path d="M 437.8,125.3 A 66.0,66.0 0 0,1 437.8,184.7" fill="none" opacity="0.43000000000000005" stroke="#DC2626" stroke-linecap="round" stroke-width="5.4" /><path d="M 446.8,111.8 A 96.0,96.0 0 0,1 446.8,198.2" fill="none" opacity="0.31000000000000005" stroke="#DC2626" stroke-linecap="round" stroke-width="5.4" /><line opacity="0.4" stroke="#DC2626" stroke-linecap="round" stroke-width="4.5" x1="222.44875170863764" x2="203.16512341804147" y1="117.2" y2="140.18133329356934" /><line opacity="0.4" stroke="#DC2626" stroke-linecap="round" stroke-width="4.5" x1="204.44875170863764" x2="177.25951809753815" y1="126.2" y2="138.87854785222098" /><line opacity="0.4" stroke="#DC2626" stroke-linecap="round" stroke-width="4.5" x1="186.44875170863764" x2="156.44875170863764" y1="135.2" y2="135.2" /><path d="M 2720.0,10.7 C 2766.2,9.1 2804.0,59.5 2799.8,101.5 C 2797.3,139.3 2774.6,172.9 2749.4,181.3 C 2741.0,191.5 2747.0,197.5 2741.0,203.5 C 2756.0,209.5 2787.5,206.5 2802.5,212.5 C 2817.5,203.5 2861.4,137.4 2867.4,142.8 C 2876.4,139.2 2897.8,62.7 2914.3,69.3 C 2927.5,74.2 2927.5,89.1 2914.3,89.1 C 2906.1,95.7 2876.4,184.2 2867.4,178.8 C 2855.4,187.8 2811.5,227.5 2802.5,236.5 C 2796.5,257.5 2760.2,275.5 2754.2,299.5 C 2751.2,323.5 2771.8,344.5 2762.8,368.5 C 2765.8,383.5 2801.8,434.5 2801.8,458.5 C 2801.8,482.5 2818.2,518.5 2818.2,539.5 C 2818.2,551.5 2825.0,557.5 2795.8,557.5 C 2766.5,557.5 2773.2,551.5 2773.2,539.5 C 2773.2,518.5 2768.0,482.5 2768.0,458.5 C 2768.0,434.5 2753.8,386.5 2729.0,380.5 C 2720.0,383.5 2711.0,383.5 2711.0,380.5 C 2686.2,386.5 2672.0,434.5 2672.0,458.5 C 2672.0,482.5 2666.8,518.5 2666.8,539.5 C 2666.8,551.5 2673.5,557.5 2644.2,557.5 C 2615.0,557.5 2621.8,551.5 2621.8,539.5 C 2621.8,518.5 2638.2,482.5 2638.2,458.5 C 2638.2,434.5 2674.2,383.5 2677.2,368.5 C 2668.2,344.5 2682.8,323.5 2685.8,299.5 C 2691.8,275.5 2643.5,257.5 2637.5,236.5 C 2628.5,227.5 2584.6,187.8 2572.6,178.8 C 2563.6,184.2 2533.9,95.7 2525.7,89.1 C 2512.5,89.1 2512.5,74.2 2525.7,69.3 C 2542.2,62.7 2563.6,139.2 2572.6,142.8 C 2578.6,137.4 2622.5,203.5 2637.5,212.5 C 2652.5,206.5 2684.0,209.5 2699.0,203.5 C 2693.0,197.5 2699.0,191.5 2690.6,181.3 C 2665.4,172.9 2642.7,139.3 2640.2,101.5 C 2636.0,59.5 2673.8,9.1 2720.0,10.7 Z" fill="#059669" opacity="0.85" /><line opacity="0.35" stroke="#059669" stroke-linecap="round" stroke-width="6.0" x1="2720.0" x2="2720.0" y1="185.45864469240223" y2="125.45864469240223" /><line opacity="0.35" stroke="#059669" stroke-linecap="round" stroke-width="6.0" x1="2794.2462120245873" x2="2853.6431816442573" y1="216.21243266781474" y2="156.81546304814475" /><line opacity="0.35" stroke="#059669" stroke-linecap="round" stroke-width="6.0" x1="2825.0" x2="2885.0" y1="290.45864469240223" y2="290.45864469240223" /><line opacity="0.35" stroke="#059669" stroke-linecap="round" stroke-width="6.0" x1="2794.2462120245873" x2="2853.6431816442573" y1="364.70485671698975" y2="424.1018263366597" /><line opacity="0.35" stroke="#059669" stroke-linecap="round" stroke-width="6.0" x1="2720.0" x2="2720.0" y1="395.45864469240223" y2="455.45864469240223" /><line opacity="0.35" stroke="#059669" stroke-linecap="round" stroke-width="6.0" x1="2645.7537879754127" x2="2586.3568183557427" y1="364.70485671698975" y2="424.1018263366597" /><line opacity="0.35" stroke="#059669" stroke-linecap="round" stroke-width="6.0" x1="2615.0" x2="2555.0" y1="290.45864469240223" y2="290.45864469240223" /><line opacity="0.35" stroke="#059669" stroke-linecap="round" stroke-width="6.0" x1="2645.7537879754127" x2="2586.3568183557427" y1="216.21243266781477" y2="156.81546304814475" /><polygon fill="#059669" opacity="0.45" points="2535.2,-64.7413553075978 2538.9123106012294,-53.453665908827176 2550.2,-49.7413553075978 2538.9123106012294,-46.029044706368424 2535.2,-34.7413553075978 2531.4876893987703,-46.029044706368424 2520.2,-49.7413553075978 2531.4876893987703,-53.453665908827176" /><polygon fill="#059669" opacity="0.45" points="2904.8,-22.741355307597786 2908.5123106012297,-11.45366590882716 2919.8,-7.741355307597786 2908.5123106012297,-4.029044706368412 2904.8,7.258644692402214 2901.0876893987706,-4.029044706368412 2889.8,-7.741355307597784 2901.0876893987706,-11.45366590882716" /><polygon fill="#059669" opacity="0.45" points="2619.2,-123.54135530759778 2622.9123106012294,-112.25366590882716 2634.2,-108.54135530759778 2622.9123106012294,-104.8290447063684 2619.2,-93.54135530759778 2615.4876893987703,-104.8290447063684 2604.2,-108.54135530759778 2615.4876893987703,-112.25366590882716" /><polygon fill="#059669" opacity="0.45" points="2854.4,153.65864469240222 2858.1123106012296,164.94633409117284 2869.4,168.65864469240222 2858.1123106012296,172.3709552936316 2854.4,183.65864469240222 2850.6876893987705,172.3709552936316 2839.4,168.65864469240222 2850.6876893987705,164.94633409117284" /><path d="M 2690.6,122.5 Q 2720.0,151.9 2749.4,122.5" fill="none" opacity="0.6" stroke="white" stroke-linecap="round" stroke-width="4.5" /><path d="M 978.0,453 L 1258.0,453 L 1258.0,688.2 Q 1202.0,772.2 1118,789.0 Q 1034.0,772.2 978.0,688.2 Z" fill="#2563EB" opacity="0.15" stroke="#2563EB" stroke-width="16.799999999999997" /><path d="M 1013.0,479.88 L 1223.0,479.88 L 1223.0,679.8 Q 1181.0,751.1999999999999 1118,765.48 Q 1055.0,751.1999999999999 1013.0,679.8 Z" fill="#2563EB" opacity="0.08" stroke="none" /><circle cx="1118" cy="570.6" fill="none" opacity="0.7" r="28.0" stroke="#2563EB" stroke-width="5.6" /><path d="M 1105.4,587.4 L 1118,637.8000000000001 L 1130.6,587.4" fill="none" opacity="0.7" stroke="#2563EB" stroke-width="5.6" /><path d="M 1574.0,593.0 L 1578.592201188381,594.5 L 1582.4852813742386,596.0 L 1585.0865543901355,597.5 L 1586.0,599.0 L 1585.0865543901355,600.5 L 1582.4852813742386,602.0 L 1578.592201188381,603.5 L 1574.0,605.0 L 1569.407798811619,606.5 L 1565.5147186257614,608.0 L 1562.9134456098645,609.5 L 1562.0,611.0 L 1562.9134456098645,612.5 L 1565.5147186257614,614.0 L 1569.407798811619,615.5 L 1574.0,617.0 L 1578.592201188381,618.5 L 1582.4852813742386,620.0 L 1585.0865543901355,621.5 L 1586.0,623.0 L 1585.0865543901355,624.5 L 1582.4852813742386,626.0 L 1578.592201188381,627.5 L 1574.0,629.0 L 1569.407798811619,630.5 L 1565.5147186257614,632.0 L 1562.9134456098645,633.5 L 1562.0,635.0 L 1562.9134456098645,636.5 L 1565.5147186257614,638.0 L 1569.407798811619,639.5 L 1574.0,641.0 L 1578.592201188381,642.5 L 1582.4852813742386,644.0 L 1585.0865543901355,645.5 L 1586.0,647.0 L 1585.0865543901355,648.5 L 1582.4852813742386,650.0 L 1578.592201188381,651.5 L 1574.0,653.0 L 1569.407798811619,654.5 L 1565.5147186257614,656.0 L 1562.9134456098645,657.5 L 1562.0,659.0 L 1562.9134456098645,660.5 L 1565.5147186257614,662.0 L 1569.407798811619,663.5 L 1574.0,665.0 L 1578.592201188381,666.5 L 1582.4852813742386,668.0 L 1585.0865543901355,669.5 L 1586.0,671.0 L 1585.0865543901355,672.5 L 1582.4852813742386,674.0 L 1578.592201188381,675.5 L 1574.0,677.0 L 1569.407798811619,678.5 L 1565.5147186257614,680.0 L 1562.9134456098645,681.5 L 1562.0,683.0" fill="none" opacity="0.7" stroke="#7C3AED" stroke-width="2.4" /><path d="M 1574.0,593.0 L 1569.407798811619,594.5 L 1565.5147186257614,596.0 L 1562.9134456098645,597.5 L 1562.0,599.0 L 1562.9134456098645,600.5 L 1565.5147186257614,602.0 L 1569.407798811619,603.5 L 1574.0,605.0 L 1578.592201188381,606.5 L 1582.4852813742386,608.0 L 1585.0865543901355,609.5 L 1586.0,611.0 L 1585.0865543901355,612.5 L 1582.4852813742386,614.0 L 1578.592201188381,615.5 L 1574.0,617.0 L 1569.407798811619,618.5 L 1565.5147186257614,620.0 L 1562.9134456098645,621.5 L 1562.0,623.0 L 1562.9134456098645,624.5 L 1565.5147186257614,626.0 L 1569.407798811619,627.5 L 1574.0,629.0 L 1578.592201188381,630.5 L 1582.4852813742386,632.0 L 1585.0865543901355,633.5 L 1586.0,635.0 L 1585.0865543901355,636.5 L 1582.4852813742386,638.0 L 1578.592201188381,639.5 L 1574.0,641.0 L 1569.407798811619,642.5 L 1565.5147186257614,644.0 L 1562.9134456098645,645.5 L 1562.0,647.0 L 1562.9134456098645,648.5 L 1565.5147186257614,650.0 L 1569.407798811619,651.5 L 1574.0,653.0 L 1578.592201188381,654.5 L 1582.4852813742386,656.0 L 1585.0865543901355,657.5 L 1586.0,659.0 L 1585.0865543901355,660.5 L 1582.4852813742386,662.0 L 1578.592201188381,663.5 L 1574.0,665.0 L 1569.407798811619,666.5 L 1565.5147186257614,668.0 L 1562.9134456098645,669.5 L 1562.0,671.0 L 1562.9134456098645,672.5 L 1565.5147186257614,674.0 L 1569.407798811619,675.5 L 1574.0,677.0 L 1578.592201188381,678.5 L 1582.4852813742386,680.0 L 1585.0865543901355,681.5 L 1586.0,683.0" fill="none" opacity="0.7" stroke="#7C3AED" stroke-width="2.4" /><line opacity="0.35" stroke="#7C3AED" stroke-width="0.96" x1="1585.0865543901355" x2="1562.9134456098645" y1="600.5" y2="600.5" /><line opacity="0.35" stroke="#7C3AED" stroke-width="0.96" x1="1569.407798811619" x2="1578.592201188381" y1="615.5" y2="615.5" /><line opacity="0.35" stroke="#7C3AED" stroke-width="0.96" x1="1569.407798811619" x2="1578.592201188381" y1="630.5" y2="630.5" /><line opacity="0.35" stroke="#7C3AED" stroke-width="0.96" x1="1585.0865543901355" x2="1562.9134456098645" y1="645.5" y2="645.5" /><line opacity="0.35" stroke="#7C3AED" stroke-width="0.96" x1="1562.9134456098645" x2="1585.0865543901355" y1="660.5" y2="660.5" /><line opacity="0.35" stroke="#7C3AED" stroke-width="0.96" x1="1578.592201188381" x2="1569.407798811619" y1="675.5" y2="675.5" /><path d="M 1112.5,1310 Q 1725,680.0 2337.5,1121.0" fill="none" opacity="0.9" stroke="#059669" stroke-width="24.5" /><path d="M 1098.5,1320.5 Q 1725,652.0 2351.5,1131.5" fill="none" opacity="0.4" stroke="#059669" stroke-width="12.25" /><line opacity="0.25" stroke="#059669" stroke-dasharray="14.0,14.0" stroke-width="5.25" x1="1316.666666666667" x2="1316.666666666667" y1="1129.75" y2="1345.0" /><line opacity="0.25" stroke="#059669" stroke-dasharray="14.0,14.0" stroke-width="5.25" x1="1520.8333333333335" x2="1520.8333333333335" y1="1009.0000000000001" y2="1345.0" /><line opacity="0.25" stroke="#059669" stroke-dasharray="14.0,14.0" stroke-width="5.25" x1="1725.0" x2="1725.0" y1="947.75" y2="1345.0" /><line opacity="0.25" stroke="#059669" stroke-dasharray="14.0,14.0" stroke-width="5.25" x1="1929.1666666666667" x2="1929.1666666666667" y1="946.0" y2="1345.0" /><line opacity="0.25" stroke="#059669" stroke-dasharray="14.0,14.0" stroke-width="5.25" x1="2133.3333333333335" x2="2133.3333333333335" y1="1003.75" y2="1345.0" /><circle cx="1112.5" cy="1310" fill="#059669" opacity="0.1" r="87.5" stroke="#059669" stroke-width="5.25" /><path d="M 1068.75,1283.75 Q 1099.375,1266.25 1112.5,1292.5 Q 1125.625,1318.75 1103.75,1331.875 Q 1086.25,1353.75 1130.0,1340.625" fill="none" opacity="0.7" stroke="#059669" stroke-width="5.25" /><circle cx="2337.5" cy="1121.0" fill="#059669" opacity="0.1" r="70.0" stroke="#059669" stroke-width="5.25" /><path d="M 2337.5,1086.0 C 2288.5,1103.5 2288.5,1163.0 2327.0,1159.5 M 2337.5,1086.0 C 2386.5,1103.5 2386.5,1163.0 2348.0,1159.5" fill="none" opacity="0.7" stroke="#059669" stroke-width="5.25" /><ellipse cx="1569.1985384191084" cy="632.2384058901009" fill="#6B7280" opacity="0.12" rx="42.87516132834" ry="46.62543977553678" stroke="#6B7280" stroke-width="3.75" /><ellipse cx="1575.2564614875437" cy="645.394004634183" fill="#6B7280" opacity="0.12" rx="53.54706821246018" ry="52.65049231134367" stroke="#6B7280" stroke-width="3.75" /><ellipse cx="1579.8437750241133" cy="633.2989050777984" fill="#6B7280" opacity="0.12" rx="43.80408248944124" ry="48.828827295279055" stroke="#6B7280" stroke-width="3.75" /><circle cx="1574" cy="638" fill="#6B7280" opacity="0.2" r="17.5" stroke="none" /><path d="M 1617.8587230621904,627.9296270499005 Q 1656.0959295629157,619.2226336245889 1694.3014547530197,610.3776610166105" fill="none" opacity="0.75" stroke="#6B7280" stroke-width="5.369411863577386" /><line opacity="0.55" stroke="#6B7280" stroke-width="3.2216471181464317" x1="1694.3014547530197" x2="1709.60318503781" y1="610.3776610166105" y2="600.2350634780955" /><line opacity="0.55" stroke="#6B7280" stroke-width="3.2216471181464317" x1="1694.3014547530197" x2="1712.4949709140124" y1="610.3776610166105" y2="612.8294367478826" /><path d="M 1601.291620112412,673.779428050764 Q 1624.1633776294445,705.7122577404026 1648.913696630006,736.2121694333217" fill="none" opacity="0.75" stroke="#6B7280" stroke-width="8.892437055050221" /><line opacity="0.55" stroke="#6B7280" stroke-width="5.335462233030133" x1="1648.913696630006" x2="1663.9028257560767" y1="736.2121694333217" y2="746.8502648515584" /><line opacity="0.55" stroke="#6B7280" stroke-width="5.335462233030133" x1="1648.913696630006" x2="1655.2107532035811" y1="736.2121694333217" y2="753.4803524470244" /><path d="M 1559.8655915601687,680.722575976362 Q 1551.274302249263,722.3890485205868 1533.3203791533895,760.9579716552787" fill="none" opacity="0.75" stroke="#6B7280" stroke-width="9.557458824930515" /><line opacity="0.55" stroke="#6B7280" stroke-width="5.734475294958309" x1="1533.3203791533895" x2="1534.9380988169971" y1="760.9579716552787" y2="780.7701672249492" /><line opacity="0.55" stroke="#6B7280" stroke-width="5.734475294958309" x1="1533.3203791533895" x2="1520.2058011849322" y1="760.9579716552787" y2="775.8961092537263" /><line opacity="0.4" stroke="#6B7280" stroke-width="3.8229835299722064" x1="1533.3203791533895" x2="1531.4414906442616" y1="760.9579716552787" y2="772.7359263861558" /><path d="M 1530.7774844833375,650.5225457640157 Q 1482.43772492194,659.1929694637646 1436.9497581432674,677.7065720286165" fill="none" opacity="0.75" stroke="#6B7280" stroke-width="8.53379304012218" /><line opacity="0.55" stroke="#6B7280" stroke-width="5.120275824073308" x1="1436.9497581432674" x2="1419.8831917367947" y1="677.7065720286165" y2="693.3799321420252" /><line opacity="0.55" stroke="#6B7280" stroke-width="5.120275824073308" x1="1436.9497581432674" x2="1414.147863404204" y1="677.7065720286165" y2="673.5840118459382" /><path d="M 1532.3875738371344,620.8709022759501 Q 1490.4497393773415,597.8305368899995 1444.444767917548,584.6706357779583" fill="none" opacity="0.75" stroke="#6B7280" stroke-width="8.033338885639107" /><line opacity="0.55" stroke="#6B7280" stroke-width="4.8200033313834645" x1="1444.444767917548" x2="1422.2364556402201" y1="584.6706357779583" y2="588.4375139995598" /><line opacity="0.55" stroke="#6B7280" stroke-width="4.8200033313834645" x1="1444.444767917548" x2="1431.3238825710594" y1="584.6706357779583" y2="566.3610515809322" /><path d="M 1568.3358394388836,593.357897841411 Q 1560.7953950996869,559.1392551183029 1559.5512023009426,524.1217481407382" fill="none" opacity="0.75" stroke="#6B7280" stroke-width="6.552245836209482" /><line opacity="0.55" stroke="#6B7280" stroke-width="3.931347501725689" x1="1559.5512023009426" x2="1552.5036358895265" y1="524.1217481407382" y2="509.53748649072156" /><line opacity="0.55" stroke="#6B7280" stroke-width="3.931347501725689" x1="1559.5512023009426" x2="1562.7332062764613" y1="524.1217481407382" y2="508.23956532793665" /><line opacity="0.4" stroke="#6B7280" stroke-width="2.620898334483793" x1="1559.5512023009426" x2="1556.8112205168052" y1="524.1217481407382" y2="514.7973019537305" /><path d="M 1598.15546909875,600.0327336693919 Q 1622.8673200127316,556.9174713163535 1651.450068246858,516.2649446205784" fill="none" opacity="0.75" stroke="#6B7280" stroke-width="6.915814352025971" /><line opacity="0.55" stroke="#6B7280" stroke-width="4.149488611215583" x1="1651.450068246858" x2="1656.2200562959365" y1="516.2649446205784" y2="493.1815767140393" /><line opacity="0.55" stroke="#6B7280" stroke-width="4.149488611215583" x1="1651.450068246858" x2="1670.3377361175478" y1="516.2649446205784" y2="502.1635027686432" /><line opacity="0.4" stroke="#6B7280" stroke-width="2.7663257408103887" x1="1651.450068246858" x2="1660.999714484522" y1="516.2649446205784" y2="505.833341948966" /><text style="font-family:Helvetica,Arial,sans-serif;font-size:32px;fill:#1F2937;text-anchor:start;font-weight:bold" x="2459" y="867">Clinical evidence</text><polygon fill="#2563EB" opacity="0.45" points="2459,892 2469,882 2889,882 2879,892" /><polygon fill="#2563EB" opacity="0.3" points="2879,892 2889,882 2889,992 2879,1002" /><rect fill="#2563EB" height="110" opacity="0.8" rx="3" ry="3" width="420" x="2459" y="892" /><text style="font-family:Helvetica,Arial,sans-serif;font-size:28px;fill:white;text-anchor:middle;font-weight:bold;opacity:0.95" x="2669.0" y="951.0">18 RCTs</text><polygon fill="#0D9488" opacity="0.45" points="2459,1016 2469,1006 2742,1006 2732,1016" /><polygon fill="#0D9488" opacity="0.3" points="2732,1016 2742,1006 2742,1104 2732,1114" /><rect fill="#0D9488" height="98" opacity="0.8" rx="3" ry="3" width="273" x="2459" y="1016" /><text style="font-family:Helvetica,Arial,sans-serif;font-size:24px;fill:white;text-anchor:middle;font-weight:bold;opacity:0.95" x="2595.5" y="1069.0">5 RCTs</text><polygon fill="#7C3AED" opacity="0.45" points="2459,1128 2469,1118 2616,1118 2606,1128" /><polygon fill="#7C3AED" opacity="0.3" points="2606,1128 2616,1118 2616,1204 2606,1214" /><rect fill="#7C3AED" height="86" opacity="0.8" rx="3" ry="3" width="147" x="2459" y="1128" /><text style="font-family:Helvetica,Arial,sans-serif;font-size:19px;fill:white;text-anchor:middle;font-weight:bold;opacity:0.95" x="2532.5" y="1175.0">1 RCT</text><polygon fill="#059669" opacity="0.45" points="2459,1228 2469,1218 2532,1218 2522,1228" /><polygon fill="#059669" opacity="0.3" points="2522,1228 2532,1218 2532,1292 2522,1302" /><rect fill="#059669" height="74" opacity="0.8" rx="3" ry="3" width="63" x="2459" y="1228" /><text style="font-family:Helvetica,Arial,sans-serif;font-size:19px;fill:white;text-anchor:middle;font-weight:bold;opacity:0.95" x="2490.5" y="1269.0">Preclinical</text><text style="font-family:Helvetica, Arial, sans-serif;font-size:42px;fill:#1F2937;text-anchor:middle;font-weight:bold" x="445" y="109">Vulnerability</text><text style="font-family:Helvetica, Arial, sans-serif;font-size:42px;fill:#1F2937;text-anchor:middle;font-weight:bold" x="1650" y="109">Repair</text><text style="font-family:Helvetica, Arial, sans-serif;font-size:42px;fill:#1F2937;text-anchor:middle;font-weight:bold" x="2854" y="109">Resolution</text><text style="font-family:Helvetica, Arial, sans-serif;font-size:32px;fill:#065F46;text-anchor:middle;font-weight:bold" x="2854" y="652">Protected airways</text><text style="font-family:Helvetica, Arial, sans-serif;font-size:28px;fill:#6B7280;text-anchor:middle;font-weight:bold" x="1574" y="598">IgA</text><text style="font-family:Helvetica, Arial, sans-serif;font-size:48px;fill:#2563EB;text-anchor:start;font-weight:bold" x="1218" y="513">OM-85</text><text style="font-family:Helvetica, Arial, sans-serif;font-size:44px;fill:#0D9488;text-anchor:middle;font-weight:bold" x="1953" y="862">PMBL</text><rect fill="#0D9488" height="16" opacity="0.4" rx="3" ry="3" stroke="#0D9488" stroke-width="1.5" width="28" x="1903" y="874" /><rect fill="#0D9488" height="16" opacity="0.4" rx="3" ry="3" stroke="#0D9488" stroke-width="1.5" width="28" x="1938" y="874" /><rect fill="#0D9488" height="16" opacity="0.4" rx="3" ry="3" stroke="#0D9488" stroke-width="1.5" width="28" x="1973" y="874" /><text style="font-family:Helvetica, Arial, sans-serif;font-size:44px;fill:#7C3AED;text-anchor:middle;font-weight:bold" x="1574" y="718">MV130</text><text style="font-family:Helvetica, Arial, sans-serif;font-size:44px;fill:#059669;text-anchor:middle;font-weight:bold" x="1725" y="1280">CRL1505</text><line opacity="0.3" stroke="#D1D5DB" stroke-dasharray="6,10" stroke-width="1.5" x1="891" x2="891" y1="33" y2="1646" /><line opacity="0.3" stroke="#D1D5DB" stroke-dasharray="6,10" stroke-width="1.5" x1="2409" x2="2409" y1="33" y2="1646" /><path d="M 869,678.0 L 913,700.0 L 869,722.0" fill="none" opacity="0.55" stroke="#D1D5DB" stroke-width="3" /><path d="M 869,768.0 L 913,790.0 L 869,812.0" fill="none" opacity="0.55" stroke="#D1D5DB" stroke-width="3" /><path d="M 869,858.0 L 913,880.0 L 869,902.0" fill="none" opacity="0.55" stroke="#D1D5DB" stroke-width="3" /><path d="M 869,948.0 L 913,970.0 L 869,992.0" fill="none" opacity="0.55" stroke="#D1D5DB" stroke-width="3" /><path d="M 2387,678.0 L 2431,700.0 L 2387,722.0" fill="none" opacity="0.55" stroke="#D1D5DB" stroke-width="3" /><path d="M 2387,768.0 L 2431,790.0 L 2387,812.0" fill="none" opacity="0.55" stroke="#D1D5DB" stroke-width="3" /><path d="M 2387,858.0 L 2431,880.0 L 2387,902.0" fill="none" opacity="0.55" stroke="#D1D5DB" stroke-width="3" /><path d="M 2387,948.0 L 2431,970.0 L 2387,992.0" fill="none" opacity="0.55" stroke="#D1D5DB" stroke-width="3" /><line opacity="0.4" stroke="#6B7280" stroke-width="1.2" x1="2329" x2="2329" y1="622" y2="614.5" /><line opacity="0.4" stroke="#6B7280" stroke-width="1.2" x1="2329" x2="2323.75" y1="614.5" y2="607.0" /><line opacity="0.4" stroke="#6B7280" stroke-width="1.2" x1="2329" x2="2334.25" y1="614.5" y2="607.0" /><circle cx="2323.75" cy="607.0" fill="#6B7280" opacity="0.35" r="2" /><circle cx="2334.25" cy="607.0" fill="#6B7280" opacity="0.35" r="2" /><line opacity="0.4" stroke="#6B7280" stroke-width="1.2" x1="2379" x2="2379" y1="582" y2="574.5" /><line opacity="0.4" stroke="#6B7280" stroke-width="1.2" x1="2379" x2="2373.75" y1="574.5" y2="567.0" /><line opacity="0.4" stroke="#6B7280" stroke-width="1.2" x1="2379" x2="2384.25" y1="574.5" y2="567.0" /><circle cx="2373.75" cy="567.0" fill="#6B7280" opacity="0.35" r="2" /><circle cx="2384.25" cy="567.0" fill="#6B7280" opacity="0.35" r="2" /><line opacity="0.4" stroke="#6B7280" stroke-width="1.2" x1="2449" x2="2449" y1="612" y2="604.5" /><line opacity="0.4" stroke="#6B7280" stroke-width="1.2" x1="2449" x2="2443.75" y1="604.5" y2="597.0" /><line opacity="0.4" stroke="#6B7280" stroke-width="1.2" x1="2449" x2="2454.25" y1="604.5" y2="597.0" /><circle cx="2443.75" cy="597.0" fill="#6B7280" opacity="0.35" r="2" /><circle cx="2454.25" cy="597.0" fill="#6B7280" opacity="0.35" r="2" /><line opacity="0.4" stroke="#6B7280" stroke-width="1.2" x1="2459" x2="2459" y1="592" y2="584.5" /><line opacity="0.4" stroke="#6B7280" stroke-width="1.2" x1="2459" x2="2453.75" y1="584.5" y2="577.0" /><line opacity="0.4" stroke="#6B7280" stroke-width="1.2" x1="2459" x2="2464.25" y1="584.5" y2="577.0" /><circle cx="2453.75" cy="577.0" fill="#6B7280" opacity="0.35" r="2" /><circle cx="2464.25" cy="577.0" fill="#6B7280" opacity="0.35" r="2" /><line opacity="0.4" stroke="#6B7280" stroke-width="1.2" x1="2509" x2="2509" y1="627" y2="619.5" /><line opacity="0.4" stroke="#6B7280" stroke-width="1.2" x1="2509" x2="2503.75" y1="619.5" y2="612.0" /><line opacity="0.4" stroke="#6B7280" stroke-width="1.2" x1="2509" x2="2514.25" y1="619.5" y2="612.0" /><circle cx="2503.75" cy="612.0" fill="#6B7280" opacity="0.35" r="2" /><circle cx="2514.25" cy="612.0" fill="#6B7280" opacity="0.35" r="2" /><line opacity="0.35" stroke="#0D9488" stroke-width="1.5" x1="2676.3" x2="2676.3" y1="647" y2="629" /><polygon fill="#0D9488" opacity="0.35" points="2676.3,625 2673.3,631 2679.3,631" /><line opacity="0.35" stroke="#0D9488" stroke-width="1.5" x1="2854.5" x2="2854.5" y1="637" y2="619" /><polygon fill="#0D9488" opacity="0.35" points="2854.5,615 2851.5,621 2857.5,621" /><line opacity="0.35" stroke="#0D9488" stroke-width="1.5" x1="3032.7" x2="3032.7" y1="652" y2="634" /><polygon fill="#0D9488" opacity="0.35" points="3032.7,630 3029.7,636 3035.7,636" /><line opacity="0.7" stroke="#DC2626" stroke-dasharray="12,8" stroke-width="5" x1="971.0" x2="811.0" y1="433.0" y2="305.0" /><line opacity="0.8" stroke="#059669" stroke-width="6" x1="870.0" x2="912.0" y1="334.0" y2="404.0" /><line opacity="0.8" stroke="#059669" stroke-width="4" x1="871" x2="911" y1="349" y2="389" /><line opacity="0.8" stroke="#059669" stroke-width="4" x1="911" x2="871" y1="349" y2="389" /></svg>