<?xml version="1.0" encoding="utf-8" ?>
<svg baseProfile="full" height="1680px" version="1.1" viewBox="0 0 3300 1680" width="3300px" xmlns="http://www.w3.org/2000/svg" xmlns:ev="http://www.w3.org/2001/xml-events" xmlns:xlink="http://www.w3.org/1999/xlink"><defs><linearGradient id="child_grad_sick_1" x1="0%" x2="0%" y1="0%" y2="100%"><stop offset="0%" stop-color="#DC2626" stop-opacity="0.85" /><stop offset="100%" stop-color="#ea7c7c" stop-opacity="0.6375" /></linearGradient><radialGradient cx="50.0%" cy="55.0%" fx="50.0%" fy="55.0%" id="child_grad_healthy_2" r="65%"><stop offset="0%" stop-color="#059669" stop-opacity="0.85" /><stop offset="100%" stop-color="#75c5ac" stop-opacity="0.595" /></radialGradient></defs><rect fill="#FAFAFA" height="1680" width="3300" x="0" y="0" /><rect fill="#FEF2F2" height="1680" opacity="0.65" width="891" x="0" y="0" /><rect fill="#FFFBEB" height="1680" opacity="0.35" width="1518" x="891" y="0" /><rect fill="#ECFDF5" height="1680" opacity="0.55" width="891" x="2409" y="0" /><rect fill="#F87171" height="32.0" opacity="0.85" rx="3" ry="3" stroke="#FCA5A5" stroke-width="1.5" width="78.1" x="40.0" y="672.0" /><rect fill="#F87171" height="32.0" opacity="0.85" rx="3" ry="3" stroke="#FCA5A5" stroke-width="1.5" width="78.1" x="121.1" y="672.0" /><rect fill="#F87171" height="32.0" opacity="0.85" rx="3" ry="3" stroke="#FCA5A5" stroke-width="1.5" width="78.1" x="202.2" y="672.0" /><rect fill="#F87171" height="32.0" opacity="0.85" rx="3" ry="3" stroke="#FCA5A5" stroke-width="1.5" width="78.1" x="364.4" y="672.0" /><rect fill="#F87171" height="32.0" opacity="0.85" rx="3" ry="3" stroke="#FCA5A5" stroke-width="1.5" width="78.1" x="445.5" y="672.0" /><rect fill="#F87171" height="32.0" opacity="0.85" rx="3" ry="3" stroke="#FCA5A5" stroke-width="1.5" width="78.1" x="526.5999999999999" y="672.0" /><rect fill="#F87171" height="32.0" opacity="0.85" rx="3" ry="3" stroke="#FCA5A5" stroke-width="1.5" width="78.1" x="688.8" y="672.0" /><rect fill="#F87171" height="32.0" opacity="0.85" rx="3" ry="3" stroke="#FCA5A5" stroke-width="1.5" width="78.1" x="769.9" y="672.0" /><rect fill="#F87171" height="32.0" opacity="0.85" rx="3" ry="3" stroke="#FCA5A5" stroke-width="1.5" width="78.1" x="80.55" y="707.0" /><rect fill="#F87171" height="32.0" opacity="0.85" rx="3" ry="3" stroke="#FCA5A5" stroke-width="1.5" width="78.1" x="161.64999999999998" y="707.0" /><rect fill="#F87171" height="32.0" opacity="0.85" rx="3" ry="3" stroke="#FCA5A5" stroke-width="1.5" width="78.1" x="323.84999999999997" y="707.0" /><rect fill="#F87171" height="32.0" opacity="0.85" rx="3" ry="3" stroke="#FCA5A5" stroke-width="1.5" width="78.1" x="404.95" y="707.0" /><rect fill="#F87171" height="32.0" opacity="0.85" rx="3" ry="3" stroke="#FCA5A5" stroke-width="1.5" width="78.1" x="567.1499999999999" y="707.0" /><rect fill="#F87171" height="32.0" opacity="0.85" rx="3" ry="3" stroke="#FCA5A5" stroke-width="1.5" width="78.1" x="648.2499999999999" y="707.0" /><rect fill="#F87171" height="32.0" opacity="0.85" rx="3" ry="3" stroke="#FCA5A5" stroke-width="1.5" width="78.1" x="40.0" y="742.0" /><rect fill="#F87171" height="32.0" opacity="0.85" rx="3" ry="3" stroke="#FCA5A5" stroke-width="1.5" width="78.1" x="202.2" y="742.0" /><rect fill="#F87171" height="32.0" opacity="0.85" rx="3" ry="3" stroke="#FCA5A5" stroke-width="1.5" width="78.1" x="283.29999999999995" y="742.0" /><rect fill="#F87171" height="32.0" opacity="0.85" rx="3" ry="3" stroke="#FCA5A5" stroke-width="1.5" width="78.1" x="364.4" y="742.0" /><rect fill="#F87171" height="32.0" opacity="0.85" rx="3" ry="3" stroke="#FCA5A5" stroke-width="1.5" width="78.1" x="445.5" y="742.0" /><rect fill="#F87171" height="32.0" opacity="0.85" rx="3" ry="3" stroke="#FCA5A5" stroke-width="1.5" width="78.1" x="607.6999999999999" y="742.0" /><rect fill="#F87171" height="32.0" opacity="0.85" rx="3" ry="3" stroke="#FCA5A5" stroke-width="1.5" width="78.1" x="688.8" y="742.0" /><rect fill="#F87171" height="32.0" opacity="0.85" rx="3" ry="3" stroke="#FCA5A5" stroke-width="1.5" width="78.1" x="769.9" y="742.0" /><rect fill="#F87171" height="32.0" opacity="0.85" rx="3" ry="3" stroke="#FCA5A5" stroke-width="1.5" width="78.1" x="80.55" y="777.0" /><rect fill="#F87171" height="32.0" opacity="0.85" rx="3" ry="3" stroke="#FCA5A5" stroke-width="1.5" width="78.1" x="161.64999999999998" y="777.0" /><rect fill="#F87171" height="32.0" opacity="0.85" rx="3" ry="3" stroke="#FCA5A5" stroke-width="1.5" width="78.1" x="242.75" y="777.0" /><rect fill="#F87171" height="32.0" opacity="0.85" rx="3" ry="3" stroke="#FCA5A5" stroke-width="1.5" width="78.1" x="323.84999999999997" y="777.0" /><rect fill="#F87171" height="32.0" opacity="0.85" rx="3" ry="3" stroke="#FCA5A5" stroke-width="1.5" width="78.1" x="486.05" y="777.0" /><rect fill="#F87171" height="32.0" opacity="0.85" rx="3" ry="3" stroke="#FCA5A5" stroke-width="1.5" width="78.1" x="567.1499999999999" y="777.0" /><rect fill="#F87171" height="32.0" opacity="0.85" rx="3" ry="3" stroke="#FCA5A5" stroke-width="1.5" width="78.1" x="648.2499999999999" y="777.0" /><rect fill="#F87171" height="32.0" opacity="0.85" rx="3" ry="3" stroke="#FCA5A5" stroke-width="1.5" width="78.1" x="729.3499999999999" y="777.0" /><rect fill="#F87171" height="24.5" opacity="0.5" rx="3" ry="3" stroke="#FCA5A5" stroke-width="1" transform="rotate(14, 651.0849999999999, 654.25)" width="56.76999999999999" x="622.6999999999999" y="642" /><rect fill="#F87171" height="24.5" opacity="0.5" rx="3" ry="3" stroke="#FCA5A5" stroke-width="1" transform="rotate(19, 245.58499999999998, 769.25)" width="56.76999999999999" x="217.2" y="757.0" /><rect fill="#F87171" height="24.5" opacity="0.5" rx="3" ry="3" stroke="#FCA5A5" stroke-width="1" transform="rotate(12, 164.48499999999999, 804.25)" width="56.76999999999999" x="136.1" y="792.0" /><rect fill="#F87171" height="24.5" opacity="0.5" rx="3" ry="3" stroke="#FCA5A5" stroke-width="1" transform="rotate(-7, 407.78499999999997, 839.25)" width="56.76999999999999" x="379.4" y="827.0" /><circle cx="323.84999999999997" cy="689.5" fill="#DC2626" opacity="0.85" r="18" /><line stroke="#DC2626" stroke-width="2.5" x1="341.84999999999997" x2="355.84999999999997" y1="689.5" y2="689.5" /><circle cx="355.84999999999997" cy="689.5" fill="#DC2626" r="4" /><line stroke="#DC2626" stroke-width="2.5" x1="336.5779220613578" x2="346.4774169979695" y1="702.2279220613578" y2="712.1274169979695" /><circle cx="346.4774169979695" cy="712.1274169979695" fill="#DC2626" r="4" /><line stroke="#DC2626" stroke-width="2.5" x1="323.84999999999997" x2="323.84999999999997" y1="707.5" y2="721.5" /><circle cx="323.84999999999997" cy="721.5" fill="#DC2626" r="4" /><line stroke="#DC2626" stroke-width="2.5" x1="311.1220779386421" x2="301.22258300203043" y1="702.2279220613578" y2="712.1274169979695" /><circle cx="301.22258300203043" cy="712.1274169979695" fill="#DC2626" r="4" /><line stroke="#DC2626" stroke-width="2.5" x1="305.84999999999997" x2="291.84999999999997" y1="689.5" y2="689.5" /><circle cx="291.84999999999997" cy="689.5" fill="#DC2626" r="4" /><line stroke="#DC2626" stroke-width="2.5" x1="311.1220779386421" x2="301.22258300203043" y1="676.7720779386422" y2="666.8725830020305" /><circle cx="301.22258300203043" cy="666.8725830020305" fill="#DC2626" r="4" /><line stroke="#DC2626" stroke-width="2.5" x1="323.84999999999997" x2="323.84999999999997" y1="671.5" y2="657.5" /><circle cx="323.84999999999997" cy="657.5" fill="#DC2626" r="4" /><line stroke="#DC2626" stroke-width="2.5" x1="336.5779220613578" x2="346.4774169979695" y1="676.7720779386422" y2="666.8725830020305" /><circle cx="346.4774169979695" cy="666.8725830020305" fill="#DC2626" r="4" /><line opacity="0.7" stroke="white" stroke-width="1.5" x1="316.65" x2="322.04999999999995" y1="686.8" y2="688.6" /><line opacity="0.7" stroke="white" stroke-width="1.5" x1="331.04999999999995" x2="325.65" y1="686.8" y2="688.6" /><path d="M 319.34999999999997,694.9 Q 323.84999999999997,692.2 328.34999999999997,694.9" fill="none" opacity="0.6" stroke="white" stroke-width="1.5" /><circle cx="648.25" cy="689.5" fill="#DC2626" opacity="0.85" r="18" /><line stroke="#DC2626" stroke-width="2.5" x1="666.25" x2="680.25" y1="689.5" y2="689.5" /><circle cx="680.25" cy="689.5" fill="#DC2626" r="4" /><line stroke="#DC2626" stroke-width="2.5" x1="660.9779220613578" x2="670.8774169979695" y1="702.2279220613578" y2="712.1274169979695" /><circle cx="670.8774169979695" cy="712.1274169979695" fill="#DC2626" r="4" /><line stroke="#DC2626" stroke-width="2.5" x1="648.25" x2="648.25" y1="707.5" y2="721.5" /><circle cx="648.25" cy="721.5" fill="#DC2626" r="4" /><line stroke="#DC2626" stroke-width="2.5" x1="635.5220779386422" x2="625.6225830020305" y1="702.2279220613578" y2="712.1274169979695" /><circle cx="625.6225830020305" cy="712.1274169979695" fill="#DC2626" r="4" /><line stroke="#DC2626" stroke-width="2.5" x1="630.25" x2="616.25" y1="689.5" y2="689.5" /><circle cx="616.25" cy="689.5" fill="#DC2626" r="4" /><line stroke="#DC2626" stroke-width="2.5" x1="635.5220779386422" x2="625.6225830020305" y1="676.7720779386422" y2="666.8725830020305" /><circle cx="625.6225830020305" cy="666.8725830020305" fill="#DC2626" r="4" /><line stroke="#DC2626" stroke-width="2.5" x1="648.25" x2="648.25" y1="671.5" y2="657.5" /><circle cx="648.25" cy="657.5" fill="#DC2626" r="4" /><line stroke="#DC2626" stroke-width="2.5" x1="660.9779220613578" x2="670.8774169979695" y1="676.7720779386422" y2="666.8725830020305" /><circle cx="670.8774169979695" cy="666.8725830020305" fill="#DC2626" r="4" /><line opacity="0.7" stroke="white" stroke-width="1.5" x1="641.05" x2="646.45" y1="686.8" y2="688.6" /><line opacity="0.7" stroke="white" stroke-width="1.5" x1="655.45" x2="650.05" y1="686.8" y2="688.6" /><path d="M 643.75,694.9 Q 648.25,692.2 652.75,694.9" fill="none" opacity="0.6" stroke="white" stroke-width="1.5" /><circle cx="242.75" cy="724.5" fill="#DC2626" opacity="0.85" r="18" /><line stroke="#DC2626" stroke-width="2.5" x1="260.75" x2="274.75" y1="724.5" y2="724.5" /><circle cx="274.75" cy="724.5" fill="#DC2626" r="4" /><line stroke="#DC2626" stroke-width="2.5" x1="255.47792206135784" x2="265.37741699796953" y1="737.2279220613578" y2="747.1274169979695" /><circle cx="265.37741699796953" cy="747.1274169979695" fill="#DC2626" r="4" /><line stroke="#DC2626" stroke-width="2.5" x1="242.75" x2="242.75" y1="742.5" y2="756.5" /><circle cx="242.75" cy="756.5" fill="#DC2626" r="4" /><line stroke="#DC2626" stroke-width="2.5" x1="230.02207793864216" x2="220.12258300203047" y1="737.2279220613578" y2="747.1274169979695" /><circle cx="220.12258300203047" cy="747.1274169979695" fill="#DC2626" r="4" /><line stroke="#DC2626" stroke-width="2.5" x1="224.75" x2="210.75" y1="724.5" y2="724.5" /><circle cx="210.75" cy="724.5" fill="#DC2626" r="4" /><line stroke="#DC2626" stroke-width="2.5" x1="230.02207793864216" x2="220.12258300203047" y1="711.7720779386422" y2="701.8725830020305" /><circle cx="220.12258300203047" cy="701.8725830020305" fill="#DC2626" r="4" /><line stroke="#DC2626" stroke-width="2.5" x1="242.75" x2="242.75" y1="706.5" y2="692.5" /><circle cx="242.75" cy="692.5" fill="#DC2626" r="4" /><line stroke="#DC2626" stroke-width="2.5" x1="255.47792206135784" x2="265.37741699796953" y1="711.7720779386422" y2="701.8725830020305" /><circle cx="265.37741699796953" cy="701.8725830020305" fill="#DC2626" r="4" /><line opacity="0.7" stroke="white" stroke-width="1.5" x1="235.55" x2="240.95" y1="721.8" y2="723.6" /><line opacity="0.7" stroke="white" stroke-width="1.5" x1="249.95" x2="244.55" y1="721.8" y2="723.6" /><path d="M 238.25,729.9 Q 242.75,727.2 247.25,729.9" fill="none" opacity="0.6" stroke="white" stroke-width="1.5" /><rect fill="#D4A574" height="32.0" opacity="0.7" rx="3" ry="3" stroke="#C4956A" stroke-width="1.5" width="101.14285714285714" x="921.0" y="672.0" /><rect fill="#D4A574" height="32.0" opacity="0.7" rx="3" ry="3" stroke="#C4956A" stroke-width="1.5" width="101.14285714285714" x="1025.142857142857" y="672.0" /><rect fill="#0D9488" height="32.0" opacity="0.85" rx="3" ry="3" stroke="#0D9488" stroke-width="1.5" width="101.14285714285714" x="1129.2857142857142" y="672.0" /><rect fill="#D4A574" height="32.0" opacity="0.7" rx="3" ry="3" stroke="#C4956A" stroke-width="1.5" width="101.14285714285714" x="1337.5714285714284" y="672.0" /><rect fill="#D4A574" height="32.0" opacity="0.7" rx="3" ry="3" stroke="#C4956A" stroke-width="1.5" width="101.14285714285714" x="1441.7142857142858" y="672.0" /><rect fill="#D4A574" height="32.0" opacity="0.7" rx="3" ry="3" stroke="#C4956A" stroke-width="1.5" width="101.14285714285714" x="1545.857142857143" y="672.0" /><rect fill="#D4A574" height="32.0" opacity="0.7" rx="3" ry="3" stroke="#C4956A" stroke-width="1.5" width="101.14285714285714" x="1650.0" y="672.0" /><rect fill="#D4A574" height="32.0" opacity="0.7" rx="3" ry="3" stroke="#C4956A" stroke-width="1.5" width="101.14285714285714" x="1754.142857142857" y="672.0" /><rect fill="#D4A574" height="32.0" opacity="0.7" rx="3" ry="3" stroke="#C4956A" stroke-width="1.5" width="101.14285714285714" x="1858.2857142857142" y="672.0" /><rect fill="#D4A574" height="32.0" opacity="0.7" rx="3" ry="3" stroke="#C4956A" stroke-width="1.5" width="101.14285714285714" x="1962.4285714285713" y="672.0" /><rect fill="#D4A574" height="32.0" opacity="0.7" rx="3" ry="3" stroke="#C4956A" stroke-width="1.5" width="101.14285714285714" x="2170.714285714286" y="672.0" /><rect fill="#D4A574" height="32.0" opacity="0.7" rx="3" ry="3" stroke="#C4956A" stroke-width="1.5" width="101.14285714285714" x="2274.857142857143" y="672.0" /><rect fill="#D4A574" height="32.0" opacity="0.7" rx="3" ry="3" stroke="#C4956A" stroke-width="1.5" width="101.14285714285714" x="973.0714285714286" y="707.0" /><rect fill="#D4A574" height="32.0" opacity="0.7" rx="3" ry="3" stroke="#C4956A" stroke-width="1.5" width="101.14285714285714" x="1077.2142857142858" y="707.0" /><rect fill="#D4A574" height="32.0" opacity="0.7" rx="3" ry="3" stroke="#C4956A" stroke-width="1.5" width="101.14285714285714" x="1181.357142857143" y="707.0" /><rect fill="#D4A574" height="32.0" opacity="0.7" rx="3" ry="3" stroke="#C4956A" stroke-width="1.5" width="101.14285714285714" x="1285.5000000000002" y="707.0" /><rect fill="#0D9488" height="32.0" opacity="0.85" rx="3" ry="3" stroke="#0D9488" stroke-width="1.5" width="101.14285714285714" x="1389.642857142857" y="707.0" /><rect fill="#D4A574" height="32.0" opacity="0.7" rx="3" ry="3" stroke="#C4956A" stroke-width="1.5" width="101.14285714285714" x="1493.7857142857144" y="707.0" /><rect fill="#D4A574" height="32.0" opacity="0.7" rx="3" ry="3" stroke="#C4956A" stroke-width="1.5" width="101.14285714285714" x="1597.9285714285716" y="707.0" /><rect fill="#0D9488" height="32.0" opacity="0.85" rx="3" ry="3" stroke="#0D9488" stroke-width="1.5" width="101.14285714285714" x="1702.0714285714287" y="707.0" /><rect fill="#D4A574" height="32.0" opacity="0.7" rx="3" ry="3" stroke="#C4956A" stroke-width="1.5" width="101.14285714285714" x="1910.357142857143" y="707.0" /><rect fill="#D4A574" height="32.0" opacity="0.7" rx="3" ry="3" stroke="#C4956A" stroke-width="1.5" width="101.14285714285714" x="2014.5" y="707.0" /><rect fill="#D4A574" height="32.0" opacity="0.7" rx="3" ry="3" stroke="#C4956A" stroke-width="1.5" width="101.14285714285714" x="2118.642857142857" y="707.0" /><rect fill="#D4A574" height="32.0" opacity="0.7" rx="3" ry="3" stroke="#C4956A" stroke-width="1.5" width="101.14285714285714" x="2222.785714285714" y="707.0" /><rect fill="#D4A574" height="32.0" opacity="0.7" rx="3" ry="3" stroke="#C4956A" stroke-width="1.5" width="101.14285714285714" x="921.0" y="742.0" /><rect fill="#D4A574" height="32.0" opacity="0.7" rx="3" ry="3" stroke="#C4956A" stroke-width="1.5" width="101.14285714285714" x="1129.2857142857142" y="742.0" /><rect fill="#0D9488" height="32.0" opacity="0.85" rx="3" ry="3" stroke="#0D9488" stroke-width="1.5" width="101.14285714285714" x="1233.4285714285716" y="742.0" /><rect fill="#D4A574" height="32.0" opacity="0.7" rx="3" ry="3" stroke="#C4956A" stroke-width="1.5" width="101.14285714285714" x="1337.5714285714284" y="742.0" /><rect fill="#D4A574" height="32.0" opacity="0.7" rx="3" ry="3" stroke="#C4956A" stroke-width="1.5" width="101.14285714285714" x="1545.857142857143" y="742.0" /><rect fill="#D4A574" height="32.0" opacity="0.7" rx="3" ry="3" stroke="#C4956A" stroke-width="1.5" width="101.14285714285714" x="1650.0" y="742.0" /><rect fill="#0D9488" height="32.0" opacity="0.85" rx="3" ry="3" stroke="#0D9488" stroke-width="1.5" width="101.14285714285714" x="1754.142857142857" y="742.0" /><rect fill="#D4A574" height="32.0" opacity="0.7" rx="3" ry="3" stroke="#C4956A" stroke-width="1.5" width="101.14285714285714" x="1858.2857142857142" y="742.0" /><rect fill="#D4A574" height="32.0" opacity="0.7" rx="3" ry="3" stroke="#C4956A" stroke-width="1.5" width="101.14285714285714" x="1962.4285714285713" y="742.0" /><rect fill="#D4A574" height="32.0" opacity="0.7" rx="3" ry="3" stroke="#C4956A" stroke-width="1.5" width="101.14285714285714" x="2066.5714285714284" y="742.0" /><rect fill="#D4A574" height="32.0" opacity="0.7" rx="3" ry="3" stroke="#C4956A" stroke-width="1.5" width="101.14285714285714" x="2170.714285714286" y="742.0" /><rect fill="#D4A574" height="32.0" opacity="0.7" rx="3" ry="3" stroke="#C4956A" stroke-width="1.5" width="101.14285714285714" x="2274.857142857143" y="742.0" /><rect fill="#D4A574" height="32.0" opacity="0.7" rx="3" ry="3" stroke="#C4956A" stroke-width="1.5" width="101.14285714285714" x="973.0714285714286" y="777.0" /><rect fill="#0D9488" height="32.0" opacity="0.85" rx="3" ry="3" stroke="#0D9488" stroke-width="1.5" width="101.14285714285714" x="1077.2142857142858" y="777.0" /><rect fill="#D4A574" height="32.0" opacity="0.7" rx="3" ry="3" stroke="#C4956A" stroke-width="1.5" width="101.14285714285714" x="1181.357142857143" y="777.0" /><rect fill="#D4A574" height="32.0" opacity="0.7" rx="3" ry="3" stroke="#C4956A" stroke-width="1.5" width="101.14285714285714" x="1285.5000000000002" y="777.0" /><rect fill="#D4A574" height="32.0" opacity="0.7" rx="3" ry="3" stroke="#C4956A" stroke-width="1.5" width="101.14285714285714" x="1389.642857142857" y="777.0" /><rect fill="#D4A574" height="32.0" opacity="0.7" rx="3" ry="3" stroke="#C4956A" stroke-width="1.5" width="101.14285714285714" x="1493.7857142857144" y="777.0" /><rect fill="#D4A574" height="32.0" opacity="0.7" rx="3" ry="3" stroke="#C4956A" stroke-width="1.5" width="101.14285714285714" x="1597.9285714285716" y="777.0" /><rect fill="#D4A574" height="32.0" opacity="0.7" rx="3" ry="3" stroke="#C4956A" stroke-width="1.5" width="101.14285714285714" x="1702.0714285714287" y="777.0" /><rect fill="#D4A574" height="32.0" opacity="0.7" rx="3" ry="3" stroke="#C4956A" stroke-width="1.5" width="101.14285714285714" x="1806.2142857142858" y="777.0" /><rect fill="#D4A574" height="32.0" opacity="0.7" rx="3" ry="3" stroke="#C4956A" stroke-width="1.5" width="101.14285714285714" x="1910.357142857143" y="777.0" /><rect fill="#D4A574" height="32.0" opacity="0.7" rx="3" ry="3" stroke="#C4956A" stroke-width="1.5" width="101.14285714285714" x="2118.642857142857" y="777.0" /><rect fill="#D4A574" height="32.0" opacity="0.7" rx="3" ry="3" stroke="#C4956A" stroke-width="1.5" width="101.14285714285714" x="2222.785714285714" y="777.0" /><line opacity="0.2" stroke="#0D9488" stroke-width="6" x1="1229.977719201651" x2="1390.0937093697776" y1="690.131716095717" y2="720.868283904283" /><line opacity="0.65" stroke="#0D9488" stroke-width="2.5" x1="1229.977719201651" x2="1390.0937093697776" y1="690.131716095717" y2="720.868283904283" /><line opacity="0.2" stroke="#0D9488" stroke-width="6" x1="1221.8285225361778" x2="1242.0286203209653" y1="696.9255822804455" y2="749.0744177195545" /><line opacity="0.65" stroke="#0D9488" stroke-width="2.5" x1="1221.8285225361778" x2="1242.0286203209653" y1="696.9255822804455" y2="749.0744177195545" /><line opacity="0.2" stroke="#0D9488" stroke-width="6" x1="1157.3889719930862" x2="1150.2538851497711" y1="702.3341612264238" y2="778.6658387735762" /><line opacity="0.65" stroke="#0D9488" stroke-width="2.5" x1="1157.3889719930862" x2="1150.2538851497711" y1="702.3341612264238" y2="778.6658387735762" /><line opacity="0.2" stroke="#0D9488" stroke-width="6" x1="1490.7857142857144" x2="1702.0714285714287" y1="723.0" y2="723.0" /><line opacity="0.65" stroke="#0D9488" stroke-width="2.5" x1="1490.7857142857144" x2="1702.0714285714287" y1="723.0" y2="723.0" /><line opacity="0.2" stroke="#0D9488" stroke-width="6" x1="1390.8662996885637" x2="1333.3479860257223" y1="726.4980941220355" y2="754.5019058779645" /><line opacity="0.65" stroke="#0D9488" stroke-width="2.5" x1="1390.8662996885637" x2="1333.3479860257223" y1="726.4980941220355" y2="754.5019058779645" /><line opacity="0.2" stroke="#0D9488" stroke-width="6" x1="1390.8662996885637" x2="1177.1337003114365" y1="726.4980941220355" y2="789.5019058779645" /><line opacity="0.65" stroke="#0D9488" stroke-width="2.5" x1="1390.8662996885637" x2="1177.1337003114365" y1="726.4980941220355" y2="789.5019058779645" /><line opacity="0.2" stroke="#0D9488" stroke-width="6" x1="1794.6142368218923" x2="1762.7429060352508" y1="731.9255822804455" y2="749.0744177195545" /><line opacity="0.65" stroke="#0D9488" stroke-width="2.5" x1="1794.6142368218923" x2="1762.7429060352508" y1="731.9255822804455" y2="749.0744177195545" /><line opacity="0.2" stroke="#0D9488" stroke-width="6" x1="1234.6520139742781" x2="1177.1337003114365" y1="761.4980941220355" y2="789.5019058779645" /><line opacity="0.65" stroke="#0D9488" stroke-width="2.5" x1="1234.6520139742781" x2="1177.1337003114365" y1="761.4980941220355" y2="789.5019058779645" /><rect fill="#34D399" height="32.0" opacity="0.85" rx="3" ry="3" stroke="#6EE7B7" stroke-width="1.5" width="78.1" x="2449.0" y="672.0" /><rect fill="#34D399" height="32.0" opacity="0.85" rx="3" ry="3" stroke="#6EE7B7" stroke-width="1.5" width="78.1" x="2530.1" y="672.0" /><rect fill="#34D399" height="32.0" opacity="0.85" rx="3" ry="3" stroke="#6EE7B7" stroke-width="1.5" width="78.1" x="2611.2" y="672.0" /><rect fill="#34D399" height="32.0" opacity="0.85" rx="3" ry="3" stroke="#6EE7B7" stroke-width="1.5" width="78.1" x="2692.3" y="672.0" /><rect fill="#34D399" height="32.0" opacity="0.85" rx="3" ry="3" stroke="#6EE7B7" stroke-width="1.5" width="78.1" x="2773.4" y="672.0" /><rect fill="#34D399" height="32.0" opacity="0.85" rx="3" ry="3" stroke="#6EE7B7" stroke-width="1.5" width="78.1" x="2854.5" y="672.0" /><rect fill="#34D399" height="32.0" opacity="0.85" rx="3" ry="3" stroke="#6EE7B7" stroke-width="1.5" width="78.1" x="2935.6" y="672.0" /><rect fill="#34D399" height="32.0" opacity="0.85" rx="3" ry="3" stroke="#6EE7B7" stroke-width="1.5" width="78.1" x="3016.7" y="672.0" /><rect fill="#34D399" height="32.0" opacity="0.85" rx="3" ry="3" stroke="#6EE7B7" stroke-width="1.5" width="78.1" x="3097.8" y="672.0" /><rect fill="#34D399" height="32.0" opacity="0.85" rx="3" ry="3" stroke="#6EE7B7" stroke-width="1.5" width="78.1" x="3178.9" y="672.0" /><rect fill="#34D399" height="32.0" opacity="0.85" rx="3" ry="3" stroke="#6EE7B7" stroke-width="1.5" width="78.1" x="2489.55" y="707.0" /><rect fill="#34D399" height="32.0" opacity="0.85" rx="3" ry="3" stroke="#6EE7B7" stroke-width="1.5" width="78.1" x="2570.65" y="707.0" /><rect fill="#34D399" height="32.0" opacity="0.85" rx="3" ry="3" stroke="#6EE7B7" stroke-width="1.5" width="78.1" x="2651.75" y="707.0" /><rect fill="#34D399" height="32.0" opacity="0.85" rx="3" ry="3" stroke="#6EE7B7" stroke-width="1.5" width="78.1" x="2732.8500000000004" y="707.0" /><rect fill="#34D399" height="32.0" opacity="0.85" rx="3" ry="3" stroke="#6EE7B7" stroke-width="1.5" width="78.1" x="2813.9500000000003" y="707.0" /><rect fill="#34D399" height="32.0" opacity="0.85" rx="3" ry="3" stroke="#6EE7B7" stroke-width="1.5" width="78.1" x="2895.05" y="707.0" /><rect fill="#34D399" height="32.0" opacity="0.85" rx="3" ry="3" stroke="#6EE7B7" stroke-width="1.5" width="78.1" x="2976.15" y="707.0" /><rect fill="#34D399" height="32.0" opacity="0.85" rx="3" ry="3" stroke="#6EE7B7" stroke-width="1.5" width="78.1" x="3057.25" y="707.0" /><rect fill="#34D399" height="32.0" opacity="0.85" rx="3" ry="3" stroke="#6EE7B7" stroke-width="1.5" width="78.1" x="3138.3500000000004" y="707.0" /><rect fill="#34D399" height="32.0" opacity="0.85" rx="3" ry="3" stroke="#6EE7B7" stroke-width="1.5" width="78.1" x="2449.0" y="742.0" /><rect fill="#34D399" height="32.0" opacity="0.85" rx="3" ry="3" stroke="#6EE7B7" stroke-width="1.5" width="78.1" x="2530.1" y="742.0" /><rect fill="#34D399" height="32.0" opacity="0.85" rx="3" ry="3" stroke="#6EE7B7" stroke-width="1.5" width="78.1" x="2611.2" y="742.0" /><rect fill="#34D399" height="32.0" opacity="0.85" rx="3" ry="3" stroke="#6EE7B7" stroke-width="1.5" width="78.1" x="2692.3" y="742.0" /><rect fill="#34D399" height="32.0" opacity="0.85" rx="3" ry="3" stroke="#6EE7B7" stroke-width="1.5" width="78.1" x="2773.4" y="742.0" /><rect fill="#34D399" height="32.0" opacity="0.85" rx="3" ry="3" stroke="#6EE7B7" stroke-width="1.5" width="78.1" x="2854.5" y="742.0" /><rect fill="#34D399" height="32.0" opacity="0.85" rx="3" ry="3" stroke="#6EE7B7" stroke-width="1.5" width="78.1" x="2935.6" y="742.0" /><rect fill="#34D399" height="32.0" opacity="0.85" rx="3" ry="3" stroke="#6EE7B7" stroke-width="1.5" width="78.1" x="3016.7" y="742.0" /><rect fill="#34D399" height="32.0" opacity="0.85" rx="3" ry="3" stroke="#6EE7B7" stroke-width="1.5" width="78.1" x="3097.8" y="742.0" /><rect fill="#34D399" height="32.0" opacity="0.85" rx="3" ry="3" stroke="#6EE7B7" stroke-width="1.5" width="78.1" x="3178.9" y="742.0" /><rect fill="#34D399" height="32.0" opacity="0.85" rx="3" ry="3" stroke="#6EE7B7" stroke-width="1.5" width="78.1" x="2489.55" y="777.0" /><rect fill="#34D399" height="32.0" opacity="0.85" rx="3" ry="3" stroke="#6EE7B7" stroke-width="1.5" width="78.1" x="2570.65" y="777.0" /><rect fill="#34D399" height="32.0" opacity="0.85" rx="3" ry="3" stroke="#6EE7B7" stroke-width="1.5" width="78.1" x="2651.75" y="777.0" /><rect fill="#34D399" height="32.0" opacity="0.85" rx="3" ry="3" stroke="#6EE7B7" stroke-width="1.5" width="78.1" x="2732.8500000000004" y="777.0" /><rect fill="#34D399" height="32.0" opacity="0.85" rx="3" ry="3" stroke="#6EE7B7" stroke-width="1.5" width="78.1" x="2813.9500000000003" y="777.0" /><rect fill="#34D399" height="32.0" opacity="0.85" rx="3" ry="3" stroke="#6EE7B7" stroke-width="1.5" width="78.1" x="2895.05" y="777.0" /><rect fill="#34D399" height="32.0" opacity="0.85" rx="3" ry="3" stroke="#6EE7B7" stroke-width="1.5" width="78.1" x="2976.15" y="777.0" /><rect fill="#34D399" height="32.0" opacity="0.85" rx="3" ry="3" stroke="#6EE7B7" stroke-width="1.5" width="78.1" x="3057.25" y="777.0" /><rect fill="#34D399" height="32.0" opacity="0.85" rx="3" ry="3" stroke="#6EE7B7" stroke-width="1.5" width="78.1" x="3138.3500000000004" y="777.0" /><ellipse cx="445" cy="1176" fill="#FEE2E2" opacity="0.3" rx="200" ry="150" stroke="none" /><circle cx="445.0" cy="1326.0" fill="#991B1B" opacity="0.8" r="6" /><text style="font-family:Helvetica,Arial,sans-serif;font-size:28px;fill:#991B1B;text-anchor:middle;font-weight:bold" x="445.0" y="1310.0">Viral RTIs</text><circle cx="645.0" cy="1176.0" fill="#991B1B" opacity="0.8" r="6" /><text style="font-family:Helvetica,Arial,sans-serif;font-size:28px;fill:#991B1B;text-anchor:start;font-weight:bold" x="657.0" y="1183.0">Th2 bias</text><circle cx="445.0" cy="1026.0" fill="#991B1B" opacity="0.8" r="6" /><text style="font-family:Helvetica,Arial,sans-serif;font-size:28px;fill:#991B1B;text-anchor:middle;font-weight:bold" x="445.0" y="1050.0">Remodeling</text><circle cx="245.0" cy="1176.0" fill="#991B1B" opacity="0.8" r="6" /><text style="font-family:Helvetica,Arial,sans-serif;font-size:28px;fill:#991B1B;text-anchor:end;font-weight:bold" x="235.0" y="1183.0">Re-susceptibility</text><path d="M 479.7296355333861,1028.2788370481687 A 200,150 0 0,1 641.9615506024415,1149.9527733499604" fill="none" opacity="0.5" stroke="#991B1B" stroke-width="2.5" /><polygon fill="#991B1B" opacity="0.5" points="641.9615506024415,1149.9527733499604 640.7101690994768,1159.8741666157289 646.530780913314,1158.847835708719" /><path d="M 641.9615506024415,1149.9527733499604 A 200,150 0 0,1 479.7296355333861,1323.7211629518313" fill="none" opacity="0.5" stroke="#991B1B" stroke-width="2.5" /><polygon fill="#991B1B" opacity="0.5" points="479.7296355333861,1323.7211629518313 469.8082422676175,1322.4697814488666 470.83457317462745,1328.2903932627037" /><path d="M 479.7296355333861,1323.7211629518313 A 200,150 0 0,1 248.0384493975584,1202.0472266500396" fill="none" opacity="0.5" stroke="#991B1B" stroke-width="2.5" /><polygon fill="#991B1B" opacity="0.5" points="248.0384493975584,1202.0472266500396 249.28983090052313,1192.1258333842711 243.46921908668597,1193.152164291281" /><path d="M 248.0384493975584,1202.0472266500396 A 200,150 0 0,1 410.27036446661396,1028.2788370481687" fill="none" opacity="0.5" stroke="#991B1B" stroke-width="2.5" /><polygon fill="#991B1B" opacity="0.5" points="410.27036446661396,1028.2788370481687 420.19175773238254,1029.5302185511334 419.1654268253726,1023.7096067372963" /><text style="font-family:Helvetica,Arial,sans-serif;font-size:36px;fill:#7F1D1D;text-anchor:middle;font-weight:bold" x="445" y="1371">Wheezing / Asthma</text><path d="M 38.27,552.00 C 23.27,553.36 12.36,550.64 8.27,543.82 C 4.18,537.00 0.09,542.00 13.73,511.09 C 27.36,480.18 67.82,393.36 90.09,358.36 C 112.36,323.36 127.82,317.00 147.36,301.09 C 166.91,285.18 193.73,269.27 207.36,262.91 C 221.00,256.55 222.36,267.00 229.18,262.91 C 236.00,258.82 249.64,264.27 248.27,238.36 C 246.91,212.45 221.00,142.00 221.00,107.45 C 221.00,72.91 232.82,52.91 248.27,31.09 C 263.73,9.27 305.55,-13.45 313.73,-23.45 C 321.91,-33.45 295.09,-27.55 297.36,-28.91 C 299.64,-30.27 320.55,-28.45 327.36,-31.64 C 334.18,-34.82 319.18,-45.27 338.27,-48.00 C 357.36,-50.73 408.27,-57.09 441.91,-48.00 C 475.55,-38.91 511.45,-20.27 540.09,6.55 C 568.73,33.36 603.27,94.27 613.73,112.91 C 624.18,131.55 604.64,108.36 602.82,118.36 C 601.00,128.36 606.00,158.82 602.82,172.91 C 599.64,187.00 587.82,204.27 583.73,202.91 C 579.64,201.55 582.36,163.36 578.27,164.73 C 574.18,166.09 567.82,197.91 559.18,211.09 C 550.55,224.27 530.09,230.18 526.45,243.82 C 522.82,257.45 540.55,282.45 537.36,292.91 C 534.18,303.36 514.18,300.64 507.36,306.55 C 500.55,312.45 501.00,324.73 496.45,328.36 C 491.91,332.00 483.27,325.18 480.09,328.36 C 476.91,331.55 484.64,339.27 477.36,347.45 C 470.09,355.64 456.00,378.82 436.45,377.45 C 416.91,376.09 376.00,343.36 360.09,339.27 C 344.18,335.18 345.09,348.82 341.00,352.91 C 336.91,357.00 332.82,355.64 335.55,363.82 C 338.27,372.00 353.73,373.82 357.36,402.00 C 361.00,430.18 400.55,510.64 357.36,532.91 C 314.18,555.18 151.45,532.45 98.27,535.64 C 45.09,538.82 53.27,550.64 38.27,552.00 Z" fill="url(#child_grad_sick_1)" opacity="0.85" /><path d="M 606.8,145.8 A 36.0,36.0 0 0,1 606.8,178.2" fill="none" opacity="0.55" stroke="#DC2626" stroke-linecap="round" stroke-width="5.4" /><path d="M 615.8,132.3 A 66.0,66.0 0 0,1 615.8,191.7" fill="none" opacity="0.43000000000000005" stroke="#DC2626" stroke-linecap="round" stroke-width="5.4" /><path d="M 624.8,118.8 A 96.0,96.0 0 0,1 624.8,205.2" fill="none" opacity="0.31000000000000005" stroke="#DC2626" stroke-linecap="round" stroke-width="5.4" /><line opacity="0.4" stroke="#DC2626" stroke-linecap="round" stroke-width="4.5" x1="303.8" x2="284.5163717094038" y1="-22.8" y2="0.18133329356933814" /><line opacity="0.4" stroke="#DC2626" stroke-linecap="round" stroke-width="4.5" x1="285.8" x2="258.6107663889005" y1="-13.8" y2="-1.1214521477790171" /><line opacity="0.4" stroke="#DC2626" stroke-linecap="round" stroke-width="4.5" x1="267.8" x2="237.8" y1="-4.800000000000001" y2="-4.800000000000001" /><path d="M 2618.18,472.00 C 2617.88,455.94 2620.91,388.06 2620.00,364.73 C 2619.09,341.39 2622.73,341.39 2612.73,332.00 C 2602.73,322.61 2570.61,317.15 2560.00,308.36 C 2549.39,299.58 2576.97,296.24 2549.09,279.27 C 2521.21,262.30 2429.70,218.67 2392.73,206.55 C 2355.76,194.42 2338.79,207.76 2327.27,206.55 C 2315.76,205.33 2320.30,202.00 2323.64,199.27 C 2326.97,196.55 2349.39,193.52 2347.27,190.18 C 2345.15,186.85 2312.73,182.30 2310.91,179.27 C 2309.09,176.24 2335.45,174.73 2336.36,172.00 C 2337.27,169.27 2320.30,166.24 2316.36,162.91 C 2312.42,159.58 2307.58,152.91 2312.73,152.00 C 2317.88,151.09 2344.85,160.48 2347.27,157.45 C 2349.70,154.42 2322.73,134.12 2327.27,133.82 C 2331.82,133.52 2366.36,156.55 2374.55,155.64 C 2382.73,154.73 2374.55,133.82 2376.36,128.36 C 2378.18,122.91 2381.21,115.64 2385.45,122.91 C 2389.70,130.18 2396.36,162.30 2401.82,172.00 C 2407.27,181.70 2402.12,175.94 2418.18,181.09 C 2434.24,186.24 2476.36,195.03 2498.18,202.91 C 2520.00,210.79 2536.97,224.73 2549.09,228.36 C 2561.21,232.00 2549.70,221.70 2570.91,224.73 C 2592.12,227.76 2657.88,245.64 2676.36,246.55 C 2694.85,247.45 2683.94,238.36 2681.82,230.18 C 2679.70,222.00 2670.30,205.33 2663.64,197.45 C 2656.97,189.58 2647.27,189.58 2641.82,182.91 C 2636.36,176.24 2630.91,163.52 2630.91,157.45 C 2630.91,151.39 2641.21,153.82 2641.82,146.55 C 2642.42,139.27 2635.15,125.33 2634.55,113.82 C 2633.94,102.30 2634.55,86.55 2638.18,77.45 C 2641.82,68.36 2654.24,63.82 2656.36,59.27 C 2658.48,54.73 2639.09,54.73 2650.91,50.18 C 2662.73,45.64 2708.48,32.61 2727.27,32.00 C 2746.06,31.39 2756.97,45.94 2763.64,46.55 C 2770.30,47.15 2760.91,28.06 2767.27,35.64 C 2773.64,43.21 2796.67,74.12 2801.82,92.00 C 2806.97,109.88 2796.97,133.21 2798.18,142.91 C 2799.39,152.61 2807.88,145.33 2809.09,150.18 C 2810.30,155.03 2813.94,158.67 2805.45,172.00 C 2796.97,185.33 2765.15,217.76 2758.18,230.18 C 2751.21,242.61 2744.55,247.45 2763.64,246.55 C 2782.73,245.64 2853.33,227.15 2872.73,224.73 C 2892.12,222.30 2855.15,239.27 2880.00,232.00 C 2904.85,224.73 2995.45,191.70 3021.82,181.09 C 3048.18,170.48 3032.73,178.06 3038.18,168.36 C 3043.64,158.67 3050.30,130.18 3054.55,122.91 C 3058.79,115.64 3061.82,119.27 3063.64,124.73 C 3065.45,130.18 3059.09,154.12 3065.45,155.64 C 3071.82,157.15 3093.64,136.55 3101.82,133.82 C 3110.00,131.09 3116.36,135.03 3114.55,139.27 C 3112.73,143.52 3088.48,156.85 3090.91,159.27 C 3093.33,161.70 3127.58,151.70 3129.09,153.82 C 3130.61,155.94 3100.00,167.76 3100.00,172.00 C 3100.00,176.24 3130.30,176.24 3129.09,179.27 C 3127.88,182.30 3094.85,186.85 3092.73,190.18 C 3090.61,193.52 3112.42,196.55 3116.36,199.27 C 3120.30,202.00 3127.88,205.33 3116.36,206.55 C 3104.85,207.76 3072.12,199.27 3047.27,206.55 C 3022.42,213.82 2993.33,238.06 2967.27,250.18 C 2941.21,262.30 2905.45,269.58 2890.91,279.27 C 2876.36,288.97 2889.09,301.09 2880.00,308.36 C 2870.91,315.64 2845.76,316.55 2836.36,322.91 C 2826.97,329.27 2826.36,337.15 2823.64,346.55 C 2820.91,355.94 2820.30,360.18 2820.00,379.27 C 2819.70,398.36 2822.12,449.27 2821.82,461.09 C 2821.52,472.91 2843.03,451.39 2818.18,450.18 C 2793.33,448.97 2705.45,452.00 2672.73,453.82 C 2640.00,455.64 2630.91,458.06 2621.82,461.09 C 2612.73,464.12 2618.48,488.06 2618.18,472.00 Z" fill="url(#child_grad_healthy_2)" opacity="0.85" /><line opacity="0.35" stroke="#059669" stroke-linecap="round" stroke-width="4.4" x1="2720.0" x2="2720.0" y1="197.0" y2="153.0" /><line opacity="0.35" stroke="#059669" stroke-linecap="round" stroke-width="4.4" x1="2774.4472221513643" x2="2818.0049998724553" y1="219.55277784863583" y2="175.99500012754447" /><line opacity="0.35" stroke="#059669" stroke-linecap="round" stroke-width="4.4" x1="2797.0" x2="2841.0" y1="274.0" y2="274.0" /><line opacity="0.35" stroke="#059669" stroke-linecap="round" stroke-width="4.4" x1="2774.4472221513643" x2="2818.0049998724553" y1="328.44722215136414" y2="372.0049998724555" /><line opacity="0.35" stroke="#059669" stroke-linecap="round" stroke-width="4.4" x1="2720.0" x2="2720.0" y1="351.0" y2="395.0" /><line opacity="0.35" stroke="#059669" stroke-linecap="round" stroke-width="4.4" x1="2665.5527778486357" x2="2621.9950001275447" y1="328.44722215136414" y2="372.0049998724555" /><line opacity="0.35" stroke="#059669" stroke-linecap="round" stroke-width="4.4" x1="2643.0" x2="2599.0" y1="274.0" y2="274.0" /><line opacity="0.35" stroke="#059669" stroke-linecap="round" stroke-width="4.4" x1="2665.5527778486357" x2="2621.9950001275447" y1="219.55277784863586" y2="175.9950001275445" /><polygon fill="#059669" opacity="0.45" points="2584.48,-59.08000000000004 2587.2023611075683,-50.802361107568245 2595.48,-48.08000000000004 2587.2023611075683,-45.35763889243184 2584.48,-37.08000000000004 2581.7576388924317,-45.35763889243184 2573.48,-48.08000000000004 2581.7576388924317,-50.802361107568245" /><polygon fill="#059669" opacity="0.45" points="2855.52,-28.28000000000003 2858.2423611075683,-20.002361107568237 2866.52,-17.28000000000003 2858.2423611075683,-14.557638892431822 2855.52,-6.28000000000003 2852.7976388924317,-14.557638892431822 2844.52,-17.28000000000003 2852.7976388924317,-20.002361107568237" /><polygon fill="#059669" opacity="0.45" points="2646.08,-102.20000000000005 2648.8023611075682,-93.92236110756825 2657.08,-91.20000000000005 2648.8023611075682,-88.47763889243184 2646.08,-80.20000000000005 2643.3576388924316,-88.47763889243184 2635.08,-91.20000000000005 2643.3576388924316,-93.92236110756825" /><polygon fill="#059669" opacity="0.45" points="2818.56,101.07999999999998 2821.2823611075682,109.35763889243178 2829.56,112.07999999999998 2821.2823611075682,114.80236110756819 2818.56,123.07999999999998 2815.8376388924316,114.80236110756819 2807.56,112.07999999999998 2815.8376388924316,109.35763889243178" /><path d="M 2698.4,78.2 Q 2720.0,99.8 2741.6,78.2" fill="none" opacity="0.6" stroke="white" stroke-linecap="round" stroke-width="3.3000000000000003" /><path d="M 978.0,453 L 1258.0,453 L 1258.0,688.2 Q 1202.0,772.2 1118,789.0 Q 1034.0,772.2 978.0,688.2 Z" fill="#2563EB" opacity="0.15" stroke="#2563EB" stroke-width="16.799999999999997" /><path d="M 1013.0,479.88 L 1223.0,479.88 L 1223.0,679.8 Q 1181.0,751.1999999999999 1118,765.48 Q 1055.0,751.1999999999999 1013.0,679.8 Z" fill="#2563EB" opacity="0.08" stroke="none" /><circle cx="1118" cy="570.6" fill="none" opacity="0.7" r="28.0" stroke="#2563EB" stroke-width="5.6" /><path d="M 1105.4,587.4 L 1118,637.8000000000001 L 1130.6,587.4" fill="none" opacity="0.7" stroke="#2563EB" stroke-width="5.6" /><path d="M 1574.0,593.0 L 1578.592201188381,594.5 L 1582.4852813742386,596.0 L 1585.0865543901355,597.5 L 1586.0,599.0 L 1585.0865543901355,600.5 L 1582.4852813742386,602.0 L 1578.592201188381,603.5 L 1574.0,605.0 L 1569.407798811619,606.5 L 1565.5147186257614,608.0 L 1562.9134456098645,609.5 L 1562.0,611.0 L 1562.9134456098645,612.5 L 1565.5147186257614,614.0 L 1569.407798811619,615.5 L 1574.0,617.0 L 1578.592201188381,618.5 L 1582.4852813742386,620.0 L 1585.0865543901355,621.5 L 1586.0,623.0 L 1585.0865543901355,624.5 L 1582.4852813742386,626.0 L 1578.592201188381,627.5 L 1574.0,629.0 L 1569.407798811619,630.5 L 1565.5147186257614,632.0 L 1562.9134456098645,633.5 L 1562.0,635.0 L 1562.9134456098645,636.5 L 1565.5147186257614,638.0 L 1569.407798811619,639.5 L 1574.0,641.0 L 1578.592201188381,642.5 L 1582.4852813742386,644.0 L 1585.0865543901355,645.5 L 1586.0,647.0 L 1585.0865543901355,648.5 L 1582.4852813742386,650.0 L 1578.592201188381,651.5 L 1574.0,653.0 L 1569.407798811619,654.5 L 1565.5147186257614,656.0 L 1562.9134456098645,657.5 L 1562.0,659.0 L 1562.9134456098645,660.5 L 1565.5147186257614,662.0 L 1569.407798811619,663.5 L 1574.0,665.0 L 1578.592201188381,666.5 L 1582.4852813742386,668.0 L 1585.0865543901355,669.5 L 1586.0,671.0 L 1585.0865543901355,672.5 L 1582.4852813742386,674.0 L 1578.592201188381,675.5 L 1574.0,677.0 L 1569.407798811619,678.5 L 1565.5147186257614,680.0 L 1562.9134456098645,681.5 L 1562.0,683.0" fill="none" opacity="0.7" stroke="#7C3AED" stroke-width="2.4" /><path d="M 1574.0,593.0 L 1569.407798811619,594.5 L 1565.5147186257614,596.0 L 1562.9134456098645,597.5 L 1562.0,599.0 L 1562.9134456098645,600.5 L 1565.5147186257614,602.0 L 1569.407798811619,603.5 L 1574.0,605.0 L 1578.592201188381,606.5 L 1582.4852813742386,608.0 L 1585.0865543901355,609.5 L 1586.0,611.0 L 1585.0865543901355,612.5 L 1582.4852813742386,614.0 L 1578.592201188381,615.5 L 1574.0,617.0 L 1569.407798811619,618.5 L 1565.5147186257614,620.0 L 1562.9134456098645,621.5 L 1562.0,623.0 L 1562.9134456098645,624.5 L 1565.5147186257614,626.0 L 1569.407798811619,627.5 L 1574.0,629.0 L 1578.592201188381,630.5 L 1582.4852813742386,632.0 L 1585.0865543901355,633.5 L 1586.0,635.0 L 1585.0865543901355,636.5 L 1582.4852813742386,638.0 L 1578.592201188381,639.5 L 1574.0,641.0 L 1569.407798811619,642.5 L 1565.5147186257614,644.0 L 1562.9134456098645,645.5 L 1562.0,647.0 L 1562.9134456098645,648.5 L 1565.5147186257614,650.0 L 1569.407798811619,651.5 L 1574.0,653.0 L 1578.592201188381,654.5 L 1582.4852813742386,656.0 L 1585.0865543901355,657.5 L 1586.0,659.0 L 1585.0865543901355,660.5 L 1582.4852813742386,662.0 L 1578.592201188381,663.5 L 1574.0,665.0 L 1569.407798811619,666.5 L 1565.5147186257614,668.0 L 1562.9134456098645,669.5 L 1562.0,671.0 L 1562.9134456098645,672.5 L 1565.5147186257614,674.0 L 1569.407798811619,675.5 L 1574.0,677.0 L 1578.592201188381,678.5 L 1582.4852813742386,680.0 L 1585.0865543901355,681.5 L 1586.0,683.0" fill="none" opacity="0.7" stroke="#7C3AED" stroke-width="2.4" /><line opacity="0.35" stroke="#7C3AED" stroke-width="0.96" x1="1585.0865543901355" x2="1562.9134456098645" y1="600.5" y2="600.5" /><line opacity="0.35" stroke="#7C3AED" stroke-width="0.96" x1="1569.407798811619" x2="1578.592201188381" y1="615.5" y2="615.5" /><line opacity="0.35" stroke="#7C3AED" stroke-width="0.96" x1="1569.407798811619" x2="1578.592201188381" y1="630.5" y2="630.5" /><line opacity="0.35" stroke="#7C3AED" stroke-width="0.96" x1="1585.0865543901355" x2="1562.9134456098645" y1="645.5" y2="645.5" /><line opacity="0.35" stroke="#7C3AED" stroke-width="0.96" x1="1562.9134456098645" x2="1585.0865543901355" y1="660.5" y2="660.5" /><line opacity="0.35" stroke="#7C3AED" stroke-width="0.96" x1="1578.592201188381" x2="1569.407798811619" y1="675.5" y2="675.5" /><path d="M 1112.5,1310 Q 1725,680.0 2337.5,1121.0" fill="none" opacity="0.9" stroke="#059669" stroke-width="24.5" /><path d="M 1098.5,1320.5 Q 1725,652.0 2351.5,1131.5" fill="none" opacity="0.4" stroke="#059669" stroke-width="12.25" /><line opacity="0.25" stroke="#059669" stroke-dasharray="14.0,14.0" stroke-width="5.25" x1="1316.666666666667" x2="1316.666666666667" y1="1129.75" y2="1345.0" /><line opacity="0.25" stroke="#059669" stroke-dasharray="14.0,14.0" stroke-width="5.25" x1="1520.8333333333335" x2="1520.8333333333335" y1="1009.0000000000001" y2="1345.0" /><line opacity="0.25" stroke="#059669" stroke-dasharray="14.0,14.0" stroke-width="5.25" x1="1725.0" x2="1725.0" y1="947.75" y2="1345.0" /><line opacity="0.25" stroke="#059669" stroke-dasharray="14.0,14.0" stroke-width="5.25" x1="1929.1666666666667" x2="1929.1666666666667" y1="946.0" y2="1345.0" /><line opacity="0.25" stroke="#059669" stroke-dasharray="14.0,14.0" stroke-width="5.25" x1="2133.3333333333335" x2="2133.3333333333335" y1="1003.75" y2="1345.0" /><circle cx="1112.5" cy="1310" fill="#059669" opacity="0.1" r="87.5" stroke="#059669" stroke-width="5.25" /><path d="M 1068.75,1283.75 Q 1099.375,1266.25 1112.5,1292.5 Q 1125.625,1318.75 1103.75,1331.875 Q 1086.25,1353.75 1130.0,1340.625" fill="none" opacity="0.7" stroke="#059669" stroke-width="5.25" /><circle cx="2337.5" cy="1121.0" fill="#059669" opacity="0.1" r="70.0" stroke="#059669" stroke-width="5.25" /><path d="M 2337.5,1086.0 C 2288.5,1103.5 2288.5,1163.0 2327.0,1159.5 M 2337.5,1086.0 C 2386.5,1103.5 2386.5,1163.0 2348.0,1159.5" fill="none" opacity="0.7" stroke="#059669" stroke-width="5.25" /><ellipse cx="1569.1985384191084" cy="632.2384058901009" fill="#6B7280" opacity="0.12" rx="42.87516132834" ry="46.62543977553678" stroke="#6B7280" stroke-width="3.75" /><ellipse cx="1575.2564614875437" cy="645.394004634183" fill="#6B7280" opacity="0.12" rx="53.54706821246018" ry="52.65049231134367" stroke="#6B7280" stroke-width="3.75" /><ellipse cx="1579.8437750241133" cy="633.2989050777984" fill="#6B7280" opacity="0.12" rx="43.80408248944124" ry="48.828827295279055" stroke="#6B7280" stroke-width="3.75" /><circle cx="1574" cy="638" fill="#6B7280" opacity="0.2" r="17.5" stroke="none" /><path d="M 1617.8587230621904,627.9296270499005 Q 1656.0959295629157,619.2226336245889 1694.3014547530197,610.3776610166105" fill="none" opacity="0.75" stroke="#6B7280" stroke-width="5.369411863577386" /><line opacity="0.55" stroke="#6B7280" stroke-width="3.2216471181464317" x1="1694.3014547530197" x2="1709.60318503781" y1="610.3776610166105" y2="600.2350634780955" /><line opacity="0.55" stroke="#6B7280" stroke-width="3.2216471181464317" x1="1694.3014547530197" x2="1712.4949709140124" y1="610.3776610166105" y2="612.8294367478826" /><path d="M 1601.291620112412,673.779428050764 Q 1624.1633776294445,705.7122577404026 1648.913696630006,736.2121694333217" fill="none" opacity="0.75" stroke="#6B7280" stroke-width="8.892437055050221" /><line opacity="0.55" stroke="#6B7280" stroke-width="5.335462233030133" x1="1648.913696630006" x2="1663.9028257560767" y1="736.2121694333217" y2="746.8502648515584" /><line opacity="0.55" stroke="#6B7280" stroke-width="5.335462233030133" x1="1648.913696630006" x2="1655.2107532035811" y1="736.2121694333217" y2="753.4803524470244" /><path d="M 1559.8655915601687,680.722575976362 Q 1551.274302249263,722.3890485205868 1533.3203791533895,760.9579716552787" fill="none" opacity="0.75" stroke="#6B7280" stroke-width="9.557458824930515" /><line opacity="0.55" stroke="#6B7280" stroke-width="5.734475294958309" x1="1533.3203791533895" x2="1534.9380988169971" y1="760.9579716552787" y2="780.7701672249492" /><line opacity="0.55" stroke="#6B7280" stroke-width="5.734475294958309" x1="1533.3203791533895" x2="1520.2058011849322" y1="760.9579716552787" y2="775.8961092537263" /><line opacity="0.4" stroke="#6B7280" stroke-width="3.8229835299722064" x1="1533.3203791533895" x2="1531.4414906442616" y1="760.9579716552787" y2="772.7359263861558" /><path d="M 1530.7774844833375,650.5225457640157 Q 1482.43772492194,659.1929694637646 1436.9497581432674,677.7065720286165" fill="none" opacity="0.75" stroke="#6B7280" stroke-width="8.53379304012218" /><line opacity="0.55" stroke="#6B7280" stroke-width="5.120275824073308" x1="1436.9497581432674" x2="1419.8831917367947" y1="677.7065720286165" y2="693.3799321420252" /><line opacity="0.55" stroke="#6B7280" stroke-width="5.120275824073308" x1="1436.9497581432674" x2="1414.147863404204" y1="677.7065720286165" y2="673.5840118459382" /><path d="M 1532.3875738371344,620.8709022759501 Q 1490.4497393773415,597.8305368899995 1444.444767917548,584.6706357779583" fill="none" opacity="0.75" stroke="#6B7280" stroke-width="8.033338885639107" /><line opacity="0.55" stroke="#6B7280" stroke-width="4.8200033313834645" x1="1444.444767917548" x2="1422.2364556402201" y1="584.6706357779583" y2="588.4375139995598" /><line opacity="0.55" stroke="#6B7280" stroke-width="4.8200033313834645" x1="1444.444767917548" x2="1431.3238825710594" y1="584.6706357779583" y2="566.3610515809322" /><path d="M 1568.3358394388836,593.357897841411 Q 1560.7953950996869,559.1392551183029 1559.5512023009426,524.1217481407382" fill="none" opacity="0.75" stroke="#6B7280" stroke-width="6.552245836209482" /><line opacity="0.55" stroke="#6B7280" stroke-width="3.931347501725689" x1="1559.5512023009426" x2="1552.5036358895265" y1="524.1217481407382" y2="509.53748649072156" /><line opacity="0.55" stroke="#6B7280" stroke-width="3.931347501725689" x1="1559.5512023009426" x2="1562.7332062764613" y1="524.1217481407382" y2="508.23956532793665" /><line opacity="0.4" stroke="#6B7280" stroke-width="2.620898334483793" x1="1559.5512023009426" x2="1556.8112205168052" y1="524.1217481407382" y2="514.7973019537305" /><path d="M 1598.15546909875,600.0327336693919 Q 1622.8673200127316,556.9174713163535 1651.450068246858,516.2649446205784" fill="none" opacity="0.75" stroke="#6B7280" stroke-width="6.915814352025971" /><line opacity="0.55" stroke="#6B7280" stroke-width="4.149488611215583" x1="1651.450068246858" x2="1656.2200562959365" y1="516.2649446205784" y2="493.1815767140393" /><line opacity="0.55" stroke="#6B7280" stroke-width="4.149488611215583" x1="1651.450068246858" x2="1670.3377361175478" y1="516.2649446205784" y2="502.1635027686432" /><line opacity="0.4" stroke="#6B7280" stroke-width="2.7663257408103887" x1="1651.450068246858" x2="1660.999714484522" y1="516.2649446205784" y2="505.833341948966" /><text style="font-family:Helvetica,Arial,sans-serif;font-size:32px;fill:#1F2937;text-anchor:start;font-weight:bold" x="2459" y="867">Clinical evidence</text><polygon fill="#2563EB" opacity="0.45" points="2459,892 2469,882 2889,882 2879,892" /><polygon fill="#2563EB" opacity="0.3" points="2879,892 2889,882 2889,992 2879,1002" /><rect fill="#2563EB" height="110" opacity="0.8" rx="3" ry="3" width="420" x="2459" y="892" /><text style="font-family:Helvetica,Arial,sans-serif;font-size:28px;fill:white;text-anchor:middle;font-weight:bold;opacity:0.95" x="2669.0" y="951.0">18 RCTs</text><polygon fill="#0D9488" opacity="0.45" points="2459,1016 2469,1006 2742,1006 2732,1016" /><polygon fill="#0D9488" opacity="0.3" points="2732,1016 2742,1006 2742,1104 2732,1114" /><rect fill="#0D9488" height="98" opacity="0.8" rx="3" ry="3" width="273" x="2459" y="1016" /><text style="font-family:Helvetica,Arial,sans-serif;font-size:24px;fill:white;text-anchor:middle;font-weight:bold;opacity:0.95" x="2595.5" y="1069.0">5 RCTs</text><polygon fill="#7C3AED" opacity="0.45" points="2459,1128 2469,1118 2616,1118 2606,1128" /><polygon fill="#7C3AED" opacity="0.3" points="2606,1128 2616,1118 2616,1204 2606,1214" /><rect fill="#7C3AED" height="86" opacity="0.8" rx="3" ry="3" width="147" x="2459" y="1128" /><text style="font-family:Helvetica,Arial,sans-serif;font-size:19px;fill:white;text-anchor:middle;font-weight:bold;opacity:0.95" x="2532.5" y="1175.0">1 RCT</text><polygon fill="#059669" opacity="0.45" points="2459,1228 2469,1218 2532,1218 2522,1228" /><polygon fill="#059669" opacity="0.3" points="2522,1228 2532,1218 2532,1292 2522,1302" /><rect fill="#059669" height="74" opacity="0.8" rx="3" ry="3" width="63" x="2459" y="1228" /><text style="font-family:Helvetica,Arial,sans-serif;font-size:19px;fill:white;text-anchor:middle;font-weight:bold;opacity:0.95" x="2490.5" y="1269.0">Preclinical</text><text style="font-family:Helvetica, Arial, sans-serif;font-size:42px;fill:#1F2937;text-anchor:middle;font-weight:bold" x="445" y="109">Vulnerability</text><text style="font-family:Helvetica, Arial, sans-serif;font-size:42px;fill:#1F2937;text-anchor:middle;font-weight:bold" x="1650" y="109">Repair</text><text style="font-family:Helvetica, Arial, sans-serif;font-size:42px;fill:#1F2937;text-anchor:middle;font-weight:bold" x="2854" y="109">Resolution</text><text style="font-family:Helvetica, Arial, sans-serif;font-size:32px;fill:#065F46;text-anchor:middle;font-weight:bold" x="2854" y="652">Protected airways</text><text style="font-family:Helvetica, Arial, sans-serif;font-size:28px;fill:#6B7280;text-anchor:middle;font-weight:bold" x="1574" y="598">IgA</text><text style="font-family:Helvetica, Arial, sans-serif;font-size:48px;fill:#2563EB;text-anchor:start;font-weight:bold" x="1218" y="513">OM-85</text><text style="font-family:Helvetica, Arial, sans-serif;font-size:44px;fill:#0D9488;text-anchor:middle;font-weight:bold" x="1953" y="862">PMBL</text><rect fill="#0D9488" height="16" opacity="0.4" rx="3" ry="3" stroke="#0D9488" stroke-width="1.5" width="28" x="1903" y="874" /><rect fill="#0D9488" height="16" opacity="0.4" rx="3" ry="3" stroke="#0D9488" stroke-width="1.5" width="28" x="1938" y="874" /><rect fill="#0D9488" height="16" opacity="0.4" rx="3" ry="3" stroke="#0D9488" stroke-width="1.5" width="28" x="1973" y="874" /><text style="font-family:Helvetica, Arial, sans-serif;font-size:44px;fill:#7C3AED;text-anchor:middle;font-weight:bold" x="1574" y="718">MV130</text><text style="font-family:Helvetica, Arial, sans-serif;font-size:44px;fill:#059669;text-anchor:middle;font-weight:bold" x="1725" y="1280">CRL1505</text><line opacity="0.3" stroke="#D1D5DB" stroke-dasharray="6,10" stroke-width="1.5" x1="891" x2="891" y1="33" y2="1646" /><line opacity="0.3" stroke="#D1D5DB" stroke-dasharray="6,10" stroke-width="1.5" x1="2409" x2="2409" y1="33" y2="1646" /><path d="M 869,678.0 L 913,700.0 L 869,722.0" fill="none" opacity="0.55" stroke="#D1D5DB" stroke-width="3" /><path d="M 869,768.0 L 913,790.0 L 869,812.0" fill="none" opacity="0.55" stroke="#D1D5DB" stroke-width="3" /><path d="M 869,858.0 L 913,880.0 L 869,902.0" fill="none" opacity="0.55" stroke="#D1D5DB" stroke-width="3" /><path d="M 869,948.0 L 913,970.0 L 869,992.0" fill="none" opacity="0.55" stroke="#D1D5DB" stroke-width="3" /><path d="M 2387,678.0 L 2431,700.0 L 2387,722.0" fill="none" opacity="0.55" stroke="#D1D5DB" stroke-width="3" /><path d="M 2387,768.0 L 2431,790.0 L 2387,812.0" fill="none" opacity="0.55" stroke="#D1D5DB" stroke-width="3" /><path d="M 2387,858.0 L 2431,880.0 L 2387,902.0" fill="none" opacity="0.55" stroke="#D1D5DB" stroke-width="3" /><path d="M 2387,948.0 L 2431,970.0 L 2387,992.0" fill="none" opacity="0.55" stroke="#D1D5DB" stroke-width="3" /><line opacity="0.4" stroke="#6B7280" stroke-width="1.2" x1="2329" x2="2329" y1="622" y2="614.5" /><line opacity="0.4" stroke="#6B7280" stroke-width="1.2" x1="2329" x2="2323.75" y1="614.5" y2="607.0" /><line opacity="0.4" stroke="#6B7280" stroke-width="1.2" x1="2329" x2="2334.25" y1="614.5" y2="607.0" /><circle cx="2323.75" cy="607.0" fill="#6B7280" opacity="0.35" r="2" /><circle cx="2334.25" cy="607.0" fill="#6B7280" opacity="0.35" r="2" /><line opacity="0.4" stroke="#6B7280" stroke-width="1.2" x1="2379" x2="2379" y1="582" y2="574.5" /><line opacity="0.4" stroke="#6B7280" stroke-width="1.2" x1="2379" x2="2373.75" y1="574.5" y2="567.0" /><line opacity="0.4" stroke="#6B7280" stroke-width="1.2" x1="2379" x2="2384.25" y1="574.5" y2="567.0" /><circle cx="2373.75" cy="567.0" fill="#6B7280" opacity="0.35" r="2" /><circle cx="2384.25" cy="567.0" fill="#6B7280" opacity="0.35" r="2" /><line opacity="0.4" stroke="#6B7280" stroke-width="1.2" x1="2449" x2="2449" y1="612" y2="604.5" /><line opacity="0.4" stroke="#6B7280" stroke-width="1.2" x1="2449" x2="2443.75" y1="604.5" y2="597.0" /><line opacity="0.4" stroke="#6B7280" stroke-width="1.2" x1="2449" x2="2454.25" y1="604.5" y2="597.0" /><circle cx="2443.75" cy="597.0" fill="#6B7280" opacity="0.35" r="2" /><circle cx="2454.25" cy="597.0" fill="#6B7280" opacity="0.35" r="2" /><line opacity="0.4" stroke="#6B7280" stroke-width="1.2" x1="2459" x2="2459" y1="592" y2="584.5" /><line opacity="0.4" stroke="#6B7280" stroke-width="1.2" x1="2459" x2="2453.75" y1="584.5" y2="577.0" /><line opacity="0.4" stroke="#6B7280" stroke-width="1.2" x1="2459" x2="2464.25" y1="584.5" y2="577.0" /><circle cx="2453.75" cy="577.0" fill="#6B7280" opacity="0.35" r="2" /><circle cx="2464.25" cy="577.0" fill="#6B7280" opacity="0.35" r="2" /><line opacity="0.4" stroke="#6B7280" stroke-width="1.2" x1="2509" x2="2509" y1="627" y2="619.5" /><line opacity="0.4" stroke="#6B7280" stroke-width="1.2" x1="2509" x2="2503.75" y1="619.5" y2="612.0" /><line opacity="0.4" stroke="#6B7280" stroke-width="1.2" x1="2509" x2="2514.25" y1="619.5" y2="612.0" /><circle cx="2503.75" cy="612.0" fill="#6B7280" opacity="0.35" r="2" /><circle cx="2514.25" cy="612.0" fill="#6B7280" opacity="0.35" r="2" /><line opacity="0.35" stroke="#0D9488" stroke-width="1.5" x1="2676.3" x2="2676.3" y1="647" y2="629" /><polygon fill="#0D9488" opacity="0.35" points="2676.3,625 2673.3,631 2679.3,631" /><line opacity="0.35" stroke="#0D9488" stroke-width="1.5" x1="2854.5" x2="2854.5" y1="637" y2="619" /><polygon fill="#0D9488" opacity="0.35" points="2854.5,615 2851.5,621 2857.5,621" /><line opacity="0.35" stroke="#0D9488" stroke-width="1.5" x1="3032.7" x2="3032.7" y1="652" y2="634" /><polygon fill="#0D9488" opacity="0.35" points="3032.7,630 3029.7,636 3035.7,636" /><line opacity="0.7" stroke="#DC2626" stroke-dasharray="12,8" stroke-width="5" x1="971.0" x2="811.0" y1="433.0" y2="305.0" /><line opacity="0.8" stroke="#059669" stroke-width="6" x1="870.0" x2="912.0" y1="334.0" y2="404.0" /><line opacity="0.8" stroke="#059669" stroke-width="4" x1="871" x2="911" y1="349" y2="389" /><line opacity="0.8" stroke="#059669" stroke-width="4" x1="911" x2="871" y1="349" y2="389" /></svg>