<?xml version="1.0" encoding="utf-8" ?>
<svg baseProfile="full" height="1680px" version="1.1" viewBox="0 0 3300 1680" width="3300px" xmlns="http://www.w3.org/2000/svg" xmlns:ev="http://www.w3.org/2001/xml-events" xmlns:xlink="http://www.w3.org/1999/xlink"><defs /><rect fill="#FAFAFA" height="1680" width="3300" x="0" y="0" /><rect fill="#FEF2F2" height="1680" opacity="0.6" width="891" x="0" y="0" /><rect fill="#FFFBEB" height="1680" opacity="0.25" width="1518" x="891" y="0" /><rect fill="#ECFDF5" height="1680" opacity="0.5" width="891" x="2409" y="0" /><circle cx="515" cy="739.2" fill="#FCA5A5" opacity="0.25" r="140" stroke="#F87171" stroke-width="8" /><circle cx="515" cy="739.2" fill="none" r="105.0" stroke="#DC2626" stroke-dasharray="18,12" stroke-width="5" /><circle cx="515" cy="739.2" fill="white" opacity="0.9" r="70.0" stroke="#FCA5A5" stroke-width="2" /><circle cx="533.1865334794732" cy="749.7" fill="#FCD34D" opacity="0.35" r="8" /><circle cx="499.8445554337723" cy="747.95" fill="#FCD34D" opacity="0.35" r="8" /><circle cx="506.62050648852113" cy="716.1775307907453" fill="#FCD34D" opacity="0.35" r="8" /><circle cx="610.4594154601839" cy="834.6594154601839" fill="#DC2626" opacity="0.85" r="22" /><line stroke="#DC2626" stroke-width="2.5" x1="632.4594154601839" x2="642.4594154601839" y1="834.6594154601839" y2="834.6594154601839" /><circle cx="642.4594154601839" cy="834.6594154601839" fill="#DC2626" r="3.5" /><line stroke="#DC2626" stroke-width="2.5" x1="626.015764646288" x2="633.0868324581534" y1="850.215764646288" y2="857.2868324581534" /><circle cx="633.0868324581534" cy="857.2868324581534" fill="#DC2626" r="3.5" /><line stroke="#DC2626" stroke-width="2.5" x1="610.4594154601839" x2="610.4594154601839" y1="856.6594154601839" y2="866.6594154601839" /><circle cx="610.4594154601839" cy="866.6594154601839" fill="#DC2626" r="3.5" /><line stroke="#DC2626" stroke-width="2.5" x1="594.9030662740798" x2="587.8319984622144" y1="850.215764646288" y2="857.2868324581534" /><circle cx="587.8319984622144" cy="857.2868324581534" fill="#DC2626" r="3.5" /><line stroke="#DC2626" stroke-width="2.5" x1="588.4594154601839" x2="578.4594154601839" y1="834.6594154601839" y2="834.6594154601839" /><circle cx="578.4594154601839" cy="834.6594154601839" fill="#DC2626" r="3.5" /><line stroke="#DC2626" stroke-width="2.5" x1="594.9030662740798" x2="587.8319984622144" y1="819.1030662740799" y2="812.0319984622145" /><circle cx="587.8319984622144" cy="812.0319984622145" fill="#DC2626" r="3.5" /><line stroke="#DC2626" stroke-width="2.5" x1="610.4594154601839" x2="610.4594154601839" y1="812.6594154601839" y2="802.6594154601839" /><circle cx="610.4594154601839" cy="802.6594154601839" fill="#DC2626" r="3.5" /><line stroke="#DC2626" stroke-width="2.5" x1="626.015764646288" x2="633.0868324581534" y1="819.1030662740799" y2="812.0319984622145" /><circle cx="633.0868324581534" cy="812.0319984622145" fill="#DC2626" r="3.5" /><line opacity="0.4" stroke="#DC2626" stroke-dasharray="5,4" stroke-width="2" x1="610.4594154601839" x2="578.6396103067893" y1="834.6594154601839" y2="802.8396103067894" /><circle cx="411.58400017893797" cy="825.9763273076828" fill="#DC2626" opacity="0.85" r="18" /><line stroke="#DC2626" stroke-width="2.5" x1="429.58400017893797" x2="439.58400017893797" y1="825.9763273076828" y2="825.9763273076828" /><circle cx="439.58400017893797" cy="825.9763273076828" fill="#DC2626" r="3.5" /><line stroke="#DC2626" stroke-width="2.5" x1="424.3119222402958" x2="431.3829900521613" y1="838.7042493690407" y2="845.7753171809062" /><circle cx="431.3829900521613" cy="845.7753171809062" fill="#DC2626" r="3.5" /><line stroke="#DC2626" stroke-width="2.5" x1="411.58400017893797" x2="411.58400017893797" y1="843.9763273076828" y2="853.9763273076828" /><circle cx="411.58400017893797" cy="853.9763273076828" fill="#DC2626" r="3.5" /><line stroke="#DC2626" stroke-width="2.5" x1="398.8560781175801" x2="391.78501030571465" y1="838.7042493690407" y2="845.7753171809062" /><circle cx="391.78501030571465" cy="845.7753171809062" fill="#DC2626" r="3.5" /><line stroke="#DC2626" stroke-width="2.5" x1="393.58400017893797" x2="383.58400017893797" y1="825.9763273076828" y2="825.9763273076828" /><circle cx="383.58400017893797" cy="825.9763273076828" fill="#DC2626" r="3.5" /><line stroke="#DC2626" stroke-width="2.5" x1="398.8560781175801" x2="391.78501030571465" y1="813.248405246325" y2="806.1773374344594" /><circle cx="391.78501030571465" cy="806.1773374344594" fill="#DC2626" r="3.5" /><line stroke="#DC2626" stroke-width="2.5" x1="411.58400017893797" x2="411.58400017893797" y1="807.9763273076828" y2="797.9763273076828" /><circle cx="411.58400017893797" cy="797.9763273076828" fill="#DC2626" r="3.5" /><line stroke="#DC2626" stroke-width="2.5" x1="424.3119222402958" x2="431.3829900521613" y1="813.248405246325" y2="806.1773374344594" /><circle cx="431.3829900521613" cy="806.1773374344594" fill="#DC2626" r="3.5" /><line opacity="0.4" stroke="#DC2626" stroke-dasharray="5,4" stroke-width="2" x1="411.58400017893797" x2="446.056000119292" y1="825.9763273076828" y2="797.0508848717886" /><circle cx="601.7763273076828" cy="635.784000178938" fill="#DC2626" opacity="0.85" r="16" /><line stroke="#DC2626" stroke-width="2.5" x1="617.7763273076828" x2="627.7763273076828" y1="635.784000178938" y2="635.784000178938" /><circle cx="627.7763273076828" cy="635.784000178938" fill="#DC2626" r="3.5" /><line stroke="#DC2626" stroke-width="2.5" x1="613.0900358066675" x2="620.161103618533" y1="647.0977086779227" y2="654.1687764897882" /><circle cx="620.161103618533" cy="654.1687764897882" fill="#DC2626" r="3.5" /><line stroke="#DC2626" stroke-width="2.5" x1="601.7763273076828" x2="601.7763273076828" y1="651.784000178938" y2="661.784000178938" /><circle cx="601.7763273076828" cy="661.784000178938" fill="#DC2626" r="3.5" /><line stroke="#DC2626" stroke-width="2.5" x1="590.462618808698" x2="583.3915509968325" y1="647.0977086779227" y2="654.1687764897882" /><circle cx="583.3915509968325" cy="654.1687764897882" fill="#DC2626" r="3.5" /><line stroke="#DC2626" stroke-width="2.5" x1="585.7763273076828" x2="575.7763273076828" y1="635.784000178938" y2="635.784000178938" /><circle cx="575.7763273076828" cy="635.784000178938" fill="#DC2626" r="3.5" /><line stroke="#DC2626" stroke-width="2.5" x1="590.462618808698" x2="583.3915509968325" y1="624.4702916799532" y2="617.3992238680877" /><circle cx="583.3915509968325" cy="617.3992238680877" fill="#DC2626" r="3.5" /><line stroke="#DC2626" stroke-width="2.5" x1="601.7763273076828" x2="601.7763273076828" y1="619.784000178938" y2="609.784000178938" /><circle cx="601.7763273076828" cy="609.784000178938" fill="#DC2626" r="3.5" /><line stroke="#DC2626" stroke-width="2.5" x1="613.0900358066675" x2="620.161103618533" y1="624.4702916799532" y2="617.3992238680877" /><circle cx="620.161103618533" cy="617.3992238680877" fill="#DC2626" r="3.5" /><line opacity="0.4" stroke="#DC2626" stroke-dasharray="5,4" stroke-width="2" x1="601.7763273076828" x2="572.8508848717885" y1="635.784000178938" y2="670.256000119292" /><text style="font-family:Arial;font-size:30px;fill:#DC2626;text-anchor:middle;font-weight:bold" x="690" y="569.2">RSV</text><text style="font-family:Arial;font-size:30px;fill:#DC2626;text-anchor:middle;font-weight:bold" x="355" y="749.2">RV</text><circle cx="515" cy="499.20000000000005" fill="#DC2626" opacity="0.15" r="18" stroke="#DC2626" stroke-width="3" /><line stroke="#DC2626" stroke-width="3" x1="515" x2="515" y1="517.2" y2="572.2" /><line stroke="#DC2626" stroke-width="3" x1="515" x2="487" y1="535.2" y2="553.2" /><line stroke="#DC2626" stroke-width="3" x1="515" x2="543" y1="535.2" y2="553.2" /><line stroke="#DC2626" stroke-width="3" x1="515" x2="495" y1="572.2" y2="607.2" /><line stroke="#DC2626" stroke-width="3" x1="515" x2="535" y1="572.2" y2="607.2" /><circle cx="515.0" cy="479.20000000000005" fill="#991B1B" opacity="0.8" r="7" /><text style="font-family:Arial;font-size:26px;font-weight:bold;fill:#991B1B;text-anchor:middle" x="515.0" y="459.20000000000005">Viral RTIs</text><circle cx="775.0" cy="739.2" fill="#991B1B" opacity="0.8" r="7" /><text style="font-family:Arial;font-size:26px;font-weight:bold;fill:#991B1B;text-anchor:start" x="790.0" y="747.2">Th2 bias</text><circle cx="515.0" cy="999.2" fill="#991B1B" opacity="0.8" r="7" /><text style="font-family:Arial;font-size:26px;font-weight:bold;fill:#991B1B;text-anchor:middle" x="515.0" y="1027.2">Remodeling</text><circle cx="255.0" cy="739.2" fill="#991B1B" opacity="0.8" r="7" /><text style="font-family:Arial;font-size:26px;font-weight:bold;fill:#991B1B;text-anchor:end" x="243.0" y="747.2">Re-susceptibility</text><path d="M 560.148526193402,483.14998421682594 A 260,260 0 0,0 771.0500157831741,694.0514738065982" fill="none" opacity="0.6" stroke="#991B1B" stroke-width="2.5" /><polygon fill="#991B1B" opacity="0.6" points="771.0500157831741,694.0514738065982 776.533092156221,704.7255486371085 769.5483579796164,705.9571457255205" /><path d="M 771.0500157831741,784.348526193402 A 260,260 0 0,0 560.1485261934018,995.2500157831741" fill="none" opacity="0.6" stroke="#991B1B" stroke-width="2.5" /><polygon fill="#991B1B" opacity="0.6" points="560.1485261934018,995.2500157831741 549.4744513628915,1000.733092156221 548.2428542744796,993.7483579796165" /><path d="M 469.8514738065981,995.2500157831741 A 260,260 0 0,0 258.9499842168259,784.348526193402" fill="none" opacity="0.6" stroke="#991B1B" stroke-width="2.5" /><polygon fill="#991B1B" opacity="0.6" points="258.9499842168259,784.348526193402 253.46690784377898,773.6744513628917 260.4516420203836,772.4428542744797" /><path d="M 258.9499842168259,694.0514738065982 A 260,260 0 0,0 469.8514738065981,483.14998421682594" fill="none" opacity="0.6" stroke="#991B1B" stroke-width="2.5" /><polygon fill="#991B1B" opacity="0.6" points="469.8514738065981,483.14998421682594 480.52554863710844,477.66690784377903 481.7571457255204,484.65164202038363" /><text style="font-family:Arial;font-size:36px;fill:#7F1D1D;text-anchor:middle;font-weight:bold" x="515" y="1064.2">Wheezing / Asthma</text><text style="font-family:Arial;font-size:36px;fill:#4B5563;text-anchor:middle;font-weight:bold" x="1650" y="55">Immunomodulators</text><circle cx="1650" cy="840.0" fill="#FEF3C7" opacity="0.2" r="220" stroke="#FBBF24" stroke-width="5" /><circle cx="1650" cy="840.0" fill="none" r="165.0" stroke="#92400E" stroke-dasharray="30,8" stroke-width="4" /><circle cx="1650" cy="840.0" fill="white" opacity="0.95" r="110.0" stroke="#D4A574" stroke-width="2" /><path d="M 1437.8237760728125,717.5 A 245,245 0 0,0 1862.1762239271875,717.5" fill="none" opacity="1.0" stroke="#2563EB" stroke-width="14" /><path d="M 1422.2353188046927,708.5 A 263,263 0 0,0 1877.7646811953073,708.5" fill="none" opacity="0.5" stroke="#2563EB" stroke-width="6" /><text style="font-family:Arial;font-size:42px;fill:#2563EB;text-anchor:middle;font-weight:bold" x="1650.0" y="545.0">OM-85</text><path d="M 1650.0,477.0 C 1670.0,483.0   1670.0,501.0   1650.0,515.0 C 1630.0,501.0   1630.0,483.0   1650.0,477.0 Z" fill="#2563EB" opacity="0.2" stroke="#2563EB" stroke-width="2" /><rect fill="#0D9488" height="16" opacity="0.5" rx="3" ry="3" stroke="#0D9488" stroke-width="2" transform="rotate(-340, 1805.0492824296748, 896.4333236487353)" width="28" x="1791.0492824296748" y="888.4333236487353" /><rect fill="#0D9488" height="16" opacity="0.5" rx="3" ry="3" stroke="#0D9488" stroke-width="2" transform="rotate(0, 1815.0, 840.0)" width="28" x="1801.0" y="832.0" /><rect fill="#0D9488" height="16" opacity="0.5" rx="3" ry="3" stroke="#0D9488" stroke-width="2" transform="rotate(-20, 1805.0492824296748, 783.5666763512646)" width="28" x="1791.0492824296748" y="775.5666763512646" /><text style="font-family:Arial;font-size:38px;fill:#0D9488;text-anchor:start;font-weight:bold" x="1935" y="850.0">PMBL</text><rect fill="#0D9488" height="10" opacity="0.35" rx="2" ry="2" stroke="#0D9488" stroke-width="1.5" width="18" x="1935" y="862.0" /><rect fill="#0D9488" height="10" opacity="0.35" rx="2" ry="2" stroke="#0D9488" stroke-width="1.5" width="18" x="1957" y="862.0" /><rect fill="#0D9488" height="10" opacity="0.35" rx="2" ry="2" stroke="#0D9488" stroke-width="1.5" width="18" x="1979" y="862.0" /><path d="M 1683.0,840.0 L 1711.9208163705873,875.75 L 1666.5,868.5788383248864 L 1650.0,911.5 L 1633.5,868.5788383248864 L 1588.0791836294127,875.75 L 1617.0,840.0 L 1588.0791836294127,804.25 L 1633.5,811.4211616751136 L 1650.0,768.5 L 1666.5,811.4211616751136 L 1711.9208163705873,804.25 Z" fill="#7C3AED" fill-opacity="0.08" stroke="#7C3AED" stroke-opacity="0.5" stroke-width="3" /><text style="font-family:Arial;font-size:34px;fill:#7C3AED;text-anchor:middle;font-weight:bold" x="1639.0" y="812.5">MV130</text><path d="M 1560.0,1080.0 Q 1650,1220.0   1740.0,1080.0" fill="none" opacity="0.3" stroke="#059669" stroke-width="5" /><line opacity="0.3" stroke="#059669" stroke-width="3" x1="1560.0" x2="1560.0" y1="1080.0" y2="1115.0" /><line opacity="0.3" stroke="#059669" stroke-width="3" x1="1740.0" x2="1740.0" y1="1080.0" y2="1115.0" /><text style="font-family:Arial;font-size:34px;fill:#059669;text-anchor:middle;font-weight:bold" x="1650" y="1235.0">CRL1505</text><circle cx="1560.0" cy="1125.0" fill="#059669" opacity="0.15" r="8" stroke="#059669" stroke-width="1.5" /><circle cx="1740.0" cy="1125.0" fill="#059669" opacity="0.15" r="8" stroke="#059669" stroke-width="1.5" /><rect fill="white" height="44" opacity="0.85" rx="10" ry="10" width="110" x="1595" y="873.0" /><text style="font-family:Arial;font-size:36px;fill:#1F2937;text-anchor:middle;font-weight:bold" x="1650" y="906.0">↑ IgA</text><line opacity="0.3" stroke="#2563EB" stroke-width="2" x1="1650.0" x2="1650.0" y1="553.0" y2="575.0" /><line opacity="0.25" stroke="#0D9488" stroke-dasharray="8,6" stroke-width="1.5" x1="1930" x2="1820.0" y1="844.0" y2="840.0" /><circle cx="2854" cy="302.4" fill="#D1FAE5" opacity="0.2" r="110" stroke="#34D399" stroke-width="5" /><circle cx="2854" cy="302.4" fill="none" r="82.5" stroke="#065F46" stroke-width="4" /><circle cx="2854" cy="302.4" fill="white" opacity="0.95" r="55.0" stroke="#34D399" stroke-width="2" /><circle cx="2854" cy="102.39999999999998" fill="#059669" opacity="0.15" r="18" stroke="#059669" stroke-width="3" /><line stroke="#059669" stroke-width="3" x1="2854" x2="2854" y1="120.39999999999998" y2="175.39999999999998" /><line stroke="#059669" stroke-width="3" x1="2854" x2="2826" y1="138.39999999999998" y2="118.39999999999998" /><line stroke="#059669" stroke-width="3" x1="2854" x2="2882" y1="138.39999999999998" y2="118.39999999999998" /><line stroke="#059669" stroke-width="3" x1="2854" x2="2834" y1="175.39999999999998" y2="210.39999999999998" /><line stroke="#059669" stroke-width="3" x1="2854" x2="2874" y1="175.39999999999998" y2="210.39999999999998" /><text style="font-family:Arial;font-size:32px;fill:#065F46;text-anchor:middle;font-weight:bold" x="2854" y="452.4">Protected airways</text><path d="M 2984,415.4 C 3008.2,426.4   3008.2,444.0   2984,459.4 C 2959.8,444.0   2959.8,426.4   2984,415.4 Z" fill="#34D399" opacity="0.2" stroke="#34D399" stroke-width="2" /><path d="M 2975,437.4 L 2982,446.4 L 2996,429.4" fill="none" stroke="#34D399" stroke-width="3" /><text style="font-family:Arial;font-size:32px;fill:#1F2937;text-anchor:middle;font-weight:bold" x="2854" y="492.4">Clinical evidence</text><line stroke="#2563EB" stroke-width="6" x1="2884" x2="2884" y1="552.4" y2="814.3" /><line stroke="#0D9488" stroke-width="4" x1="2884" x2="2884" y1="814.3" y2="1076.1999999999998" /><line stroke="#7C3AED" stroke-width="3" x1="2884" x2="2884" y1="1076.1999999999998" y2="1338.1" /><line stroke="#059669" stroke-dasharray="8,6" stroke-width="2" x1="2884" x2="2884" y1="1338.1" y2="1600" /><circle cx="2884" cy="552.4" fill="#2563EB" opacity="0.9" r="14" /><circle cx="2884" cy="814.3" fill="#0D9488" opacity="0.8" r="11" /><circle cx="2884" cy="1076.1999999999998" fill="#7C3AED" opacity="0.7" r="8" /><circle cx="2884" cy="1338.1" fill="#059669" opacity="0.5" r="6" /><line stroke="#2563EB" stroke-width="4" x1="2534" x2="2884" y1="552.4" y2="552.4" /><line stroke="#0D9488" stroke-width="3" x1="2624" x2="2884" y1="814.3" y2="814.3" /><line stroke="#7C3AED" stroke-width="2" x1="2714" x2="2884" y1="1076.1999999999998" y2="1076.1999999999998" /><line stroke="#059669" stroke-dasharray="6,4" stroke-width="1.5" x1="2884" x2="3034" y1="1338.1" y2="1338.1" /><text style="font-family:Arial;font-size:38px;fill:#2563EB;text-anchor:start;font-weight:bold" x="2539" y="537.4">OM-85</text><text style="font-family:Arial;font-size:28px;fill:#2563EB;text-anchor:start;opacity:0.8" x="2539" y="582.4">18 RCTs</text><text style="font-family:Arial;font-size:34px;fill:#0D9488;text-anchor:start;font-weight:bold" x="2629" y="802.3">PMBL</text><text style="font-family:Arial;font-size:24px;fill:#0D9488;text-anchor:start;opacity:0.8" x="2629" y="840.3">5 RCTs</text><text style="font-family:Arial;font-size:30px;fill:#7C3AED;text-anchor:start;font-weight:bold" x="2719" y="1066.1999999999998">MV130</text><text style="font-family:Arial;font-size:22px;fill:#7C3AED;text-anchor:start;opacity:0.8" x="2719" y="1098.1999999999998">1 RCT</text><text style="font-family:Arial;font-size:28px;fill:#059669;text-anchor:start;font-weight:bold" x="2904" y="1328.1">CRL1505</text><text style="font-family:Arial;font-size:20px;fill:#059669;text-anchor:start;opacity:0.7" x="2904" y="1358.1">Preclinical</text><circle cx="2884" cy="566.1842105263157" fill="#2563EB" opacity="0.3" r="4" /><circle cx="2884" cy="579.9684210526316" fill="#2563EB" opacity="0.3" r="4" /><circle cx="2884" cy="593.7526315789473" fill="#2563EB" opacity="0.3" r="4" /><circle cx="2884" cy="607.5368421052631" fill="#2563EB" opacity="0.3" r="4" /><circle cx="2884" cy="621.3210526315789" fill="#2563EB" opacity="0.3" r="4" /><circle cx="2884" cy="635.1052631578947" fill="#2563EB" opacity="0.3" r="4" /><circle cx="2884" cy="648.8894736842105" fill="#2563EB" opacity="0.3" r="4" /><circle cx="2884" cy="662.6736842105263" fill="#2563EB" opacity="0.3" r="4" /><circle cx="2884" cy="676.457894736842" fill="#2563EB" opacity="0.3" r="4" /><circle cx="2884" cy="690.2421052631579" fill="#2563EB" opacity="0.3" r="4" /><circle cx="2884" cy="704.0263157894736" fill="#2563EB" opacity="0.3" r="4" /><circle cx="2884" cy="717.8105263157895" fill="#2563EB" opacity="0.3" r="4" /><circle cx="2884" cy="731.5947368421052" fill="#2563EB" opacity="0.3" r="4" /><circle cx="2884" cy="745.378947368421" fill="#2563EB" opacity="0.3" r="4" /><circle cx="2884" cy="759.1631578947367" fill="#2563EB" opacity="0.3" r="4" /><circle cx="2884" cy="772.9473684210526" fill="#2563EB" opacity="0.3" r="4" /><circle cx="2884" cy="786.7315789473683" fill="#2563EB" opacity="0.3" r="4" /><circle cx="2884" cy="800.5157894736842" fill="#2563EB" opacity="0.3" r="4" /><circle cx="2884" cy="857.9499999999999" fill="#0D9488" opacity="0.25" r="3.5" /><circle cx="2884" cy="901.5999999999999" fill="#0D9488" opacity="0.25" r="3.5" /><circle cx="2884" cy="945.2499999999999" fill="#0D9488" opacity="0.25" r="3.5" /><circle cx="2884" cy="988.8999999999999" fill="#0D9488" opacity="0.25" r="3.5" /><circle cx="2884" cy="1032.5499999999997" fill="#0D9488" opacity="0.25" r="3.5" /><circle cx="2884" cy="1207.1499999999999" fill="#7C3AED" opacity="0.2" r="3.5" /><text style="font-family:Arial;font-size:22px;fill:#2563EB;text-anchor:start;opacity:0.6" x="2904" y="517.4">Bedside</text><text style="font-family:Arial;font-size:22px;fill:#059669;text-anchor:start;opacity:0.6" x="2904" y="1620">Laboratory</text><text style="font-family:Arial;font-size:60px;fill:#D1D5DB;text-anchor:middle" x="891" y="740.0">›</text><text style="font-family:Arial;font-size:60px;fill:#D1D5DB;text-anchor:middle" x="891" y="840.0">›</text><text style="font-family:Arial;font-size:60px;fill:#D1D5DB;text-anchor:middle" x="891" y="940.0">›</text><text style="font-family:Arial;font-size:60px;fill:#D1D5DB;text-anchor:middle" x="2409" y="740.0">›</text><text style="font-family:Arial;font-size:60px;fill:#D1D5DB;text-anchor:middle" x="2409" y="840.0">›</text><text style="font-family:Arial;font-size:60px;fill:#D1D5DB;text-anchor:middle" x="2409" y="940.0">›</text></svg>