<?xml version="1.0" encoding="utf-8" ?>
<svg baseProfile="full" height="1680px" version="1.1" viewBox="0 0 3300 1680" width="3300px" xmlns="http://www.w3.org/2000/svg" xmlns:ev="http://www.w3.org/2001/xml-events" xmlns:xlink="http://www.w3.org/1999/xlink"><defs /><rect fill="#FAFAFA" height="1680" width="3300" x="0" y="0" /><rect fill="#FEF2F2" height="1680" opacity="0.6" width="891" x="0" y="0" /><rect fill="#FFFBEB" height="1680" opacity="0.2" width="1518" x="891" y="0" /><rect fill="#ECFDF5" height="1680" opacity="0.5" width="891" x="2409" y="0" /><line stroke="#F87171" stroke-dasharray="12,8" stroke-width="6" x1="80" x2="891" y1="686.4" y2="686.4" /><line stroke="#FBBF24" stroke-dasharray="20,4" stroke-width="5" x1="891" x2="2409" y1="686.4" y2="686.4" /><line stroke="#34D399" stroke-width="6" x1="2409" x2="3220" y1="686.4" y2="686.4" /><line stroke="#F87171" stroke-dasharray="12,8" stroke-width="6" x1="80" x2="891" y1="926.4" y2="926.4" /><line stroke="#FBBF24" stroke-dasharray="20,4" stroke-width="5" x1="891" x2="2409" y1="926.4" y2="926.4" /><line stroke="#34D399" stroke-width="6" x1="2409" x2="3220" y1="926.4" y2="926.4" /><rect fill="#F87171" height="228" opacity="0.08" width="811" x="80" y="692.4" /><rect fill="#FBBF24" height="230" opacity="0.04" width="1518" x="891" y="691.4" /><rect fill="#34D399" height="228" opacity="0.08" width="811" x="2409" y="692.4" /><ellipse cx="80" cy="806.4" fill="none" rx="20" ry="120" stroke="#F87171" stroke-dasharray="12,8" stroke-width="6" /><ellipse cx="3220" cy="806.4" fill="none" rx="20" ry="120" stroke="#34D399" stroke-width="6" /><circle cx="200" cy="606.4" fill="#DC2626" opacity="0.85" r="26" /><line stroke="#DC2626" stroke-width="3" x1="226.0" x2="238.0" y1="606.4" y2="606.4" /><circle cx="238.0" cy="606.4" fill="#DC2626" r="4" /><line stroke="#DC2626" stroke-width="3" x1="218.38477631085024" x2="226.8700576850888" y1="624.7847763108502" y2="633.2700576850888" /><circle cx="226.8700576850888" cy="633.2700576850888" fill="#DC2626" r="4" /><line stroke="#DC2626" stroke-width="3" x1="200.0" x2="200.0" y1="632.4" y2="644.4" /><circle cx="200.0" cy="644.4" fill="#DC2626" r="4" /><line stroke="#DC2626" stroke-width="3" x1="181.61522368914976" x2="173.1299423149112" y1="624.7847763108502" y2="633.2700576850888" /><circle cx="173.1299423149112" cy="633.2700576850888" fill="#DC2626" r="4" /><line stroke="#DC2626" stroke-width="3" x1="174.0" x2="162.0" y1="606.4" y2="606.4" /><circle cx="162.0" cy="606.4" fill="#DC2626" r="4" /><line stroke="#DC2626" stroke-width="3" x1="181.61522368914976" x2="173.12994231491118" y1="588.0152236891497" y2="579.5299423149112" /><circle cx="173.12994231491118" cy="579.5299423149112" fill="#DC2626" r="4" /><line stroke="#DC2626" stroke-width="3" x1="200.0" x2="200.0" y1="580.4" y2="568.4" /><circle cx="200.0" cy="568.4" fill="#DC2626" r="4" /><line stroke="#DC2626" stroke-width="3" x1="218.38477631085024" x2="226.8700576850888" y1="588.0152236891497" y2="579.5299423149112" /><circle cx="226.8700576850888" cy="579.5299423149112" fill="#DC2626" r="4" /><circle cx="420" cy="576.4" fill="#DC2626" opacity="0.85" r="20" /><line stroke="#DC2626" stroke-width="3" x1="440.0" x2="452.0" y1="576.4" y2="576.4" /><circle cx="452.0" cy="576.4" fill="#DC2626" r="4" /><line stroke="#DC2626" stroke-width="3" x1="434.14213562373095" x2="442.62741699796953" y1="590.5421356237309" y2="599.0274169979695" /><circle cx="442.62741699796953" cy="599.0274169979695" fill="#DC2626" r="4" /><line stroke="#DC2626" stroke-width="3" x1="420.0" x2="420.0" y1="596.4" y2="608.4" /><circle cx="420.0" cy="608.4" fill="#DC2626" r="4" /><line stroke="#DC2626" stroke-width="3" x1="405.85786437626905" x2="397.37258300203047" y1="590.5421356237309" y2="599.0274169979695" /><circle cx="397.37258300203047" cy="599.0274169979695" fill="#DC2626" r="4" /><line stroke="#DC2626" stroke-width="3" x1="400.0" x2="388.0" y1="576.4" y2="576.4" /><circle cx="388.0" cy="576.4" fill="#DC2626" r="4" /><line stroke="#DC2626" stroke-width="3" x1="405.85786437626905" x2="397.37258300203047" y1="562.257864376269" y2="553.7725830020305" /><circle cx="397.37258300203047" cy="553.7725830020305" fill="#DC2626" r="4" /><line stroke="#DC2626" stroke-width="3" x1="420.0" x2="420.0" y1="556.4" y2="544.4" /><circle cx="420.0" cy="544.4" fill="#DC2626" r="4" /><line stroke="#DC2626" stroke-width="3" x1="434.14213562373095" x2="442.62741699796953" y1="562.257864376269" y2="553.7725830020305" /><circle cx="442.62741699796953" cy="553.7725830020305" fill="#DC2626" r="4" /><circle cx="620" cy="626.4" fill="#DC2626" opacity="0.85" r="18" /><line stroke="#DC2626" stroke-width="3" x1="638.0" x2="650.0" y1="626.4" y2="626.4" /><circle cx="650.0" cy="626.4" fill="#DC2626" r="4" /><line stroke="#DC2626" stroke-width="3" x1="632.7279220613578" x2="641.2132034355964" y1="639.1279220613578" y2="647.6132034355965" /><circle cx="641.2132034355964" cy="647.6132034355965" fill="#DC2626" r="4" /><line stroke="#DC2626" stroke-width="3" x1="620.0" x2="620.0" y1="644.4" y2="656.4" /><circle cx="620.0" cy="656.4" fill="#DC2626" r="4" /><line stroke="#DC2626" stroke-width="3" x1="607.2720779386422" x2="598.7867965644036" y1="639.1279220613578" y2="647.6132034355965" /><circle cx="598.7867965644036" cy="647.6132034355965" fill="#DC2626" r="4" /><line stroke="#DC2626" stroke-width="3" x1="602.0" x2="590.0" y1="626.4" y2="626.4" /><circle cx="590.0" cy="626.4" fill="#DC2626" r="4" /><line stroke="#DC2626" stroke-width="3" x1="607.2720779386422" x2="598.7867965644035" y1="613.6720779386421" y2="605.1867965644036" /><circle cx="598.7867965644035" cy="605.1867965644036" fill="#DC2626" r="4" /><line stroke="#DC2626" stroke-width="3" x1="620.0" x2="620.0" y1="608.4" y2="596.4" /><circle cx="620.0" cy="596.4" fill="#DC2626" r="4" /><line stroke="#DC2626" stroke-width="3" x1="632.7279220613578" x2="641.2132034355964" y1="613.6720779386421" y2="605.1867965644035" /><circle cx="641.2132034355964" cy="605.1867965644035" fill="#DC2626" r="4" /><line opacity="0.5" stroke="#DC2626" stroke-dasharray="6,4" stroke-width="2" x1="200" x2="200" y1="636.4" y2="701.4" /><line opacity="0.5" stroke="#DC2626" stroke-dasharray="6,4" stroke-width="2" x1="420" x2="420" y1="600.4" y2="701.4" /><line opacity="0.5" stroke="#DC2626" stroke-dasharray="6,4" stroke-width="2" x1="620" x2="620" y1="648.4" y2="701.4" /><text style="font-family:Arial;font-size:28px;fill:#DC2626;text-anchor:middle;font-weight:bold" x="200" y="568.4">RSV</text><text style="font-family:Arial;font-size:28px;fill:#DC2626;text-anchor:middle;font-weight:bold" x="420" y="544.4">RV</text><circle cx="365" cy="766.4" fill="#FCD34D" opacity="0.4" r="14" /><circle cx="505" cy="836.4" fill="#FCD34D" opacity="0.4" r="14" /><circle cx="425" cy="866.4" fill="#FCD34D" opacity="0.4" r="14" /><circle cx="545" cy="786.4" fill="#FCD34D" opacity="0.4" r="14" /><ellipse cx="445" cy="1226.4" fill="none" opacity="0.4" rx="260" ry="180" stroke="#991B1B" stroke-dasharray="8,6" stroke-width="3" /><circle cx="445.0" cy="1100.4" fill="#991B1B" opacity="0.6" r="8" /><text style="font-family:Arial;font-size:28px;fill:#991B1B;text-anchor:middle;font-weight:bold" x="445.0" y="1070.4">Viral RTIs</text><circle cx="602.6166234887678" cy="1289.4" fill="#991B1B" opacity="0.6" r="8" /><text style="font-family:Arial;font-size:28px;fill:#991B1B;text-anchor:middle;font-weight:bold" x="602.6166234887678" y="1309.4">Inflammation</text><circle cx="287.3833765112322" cy="1163.4" fill="#991B1B" opacity="0.6" r="8" /><text style="font-family:Arial;font-size:28px;fill:#991B1B;text-anchor:middle;font-weight:bold" x="287.3833765112322" y="1183.4">Airway</text><text style="font-family:Arial;font-size:28px;fill:#991B1B;text-anchor:middle;font-weight:bold" x="287.3833765112322" y="1215.4">remodeling</text><path d="M 533.9252372646739,1057.2553282585366 A 260,180 0 0,1 701.0500157831741,1257.6566719800476" fill="none" opacity="0.6" stroke="#991B1B" stroke-width="3" /><polygon fill="#991B1B" opacity="0.6" points="701.0500157831741,1257.6566719800476 713.5031030854362,1264.053594415269 714.9399663552501,1255.904737875897" /><path d="M 612.1247785185002,1364.2879997614161 A 260,180 0 0,1 277.8752214814998,1364.2879997614161" fill="none" opacity="0.6" stroke="#991B1B" stroke-width="3" /><polygon fill="#991B1B" opacity="0.6" points="277.8752214814998,1364.2879997614161 266.10878049542845,1371.8742285031099 272.4474656354126,1377.1930168662195" /><path d="M 188.9499842168259,1257.6566719800476 A 260,180 0 0,1 356.0747627353262,1057.2553282585366" fill="none" opacity="0.6" stroke="#991B1B" stroke-width="3" /><polygon fill="#991B1B" opacity="0.6" points="356.0747627353262,1057.2553282585366 355.3881164191355,1043.2721770816215 347.61256800933745,1046.1022452578839" /><line opacity="0.3" stroke="#991B1B" stroke-dasharray="6,4" stroke-width="2" x1="445" x2="445" y1="1046.4" y2="946.4" /><text style="font-family:Arial;font-size:36px;fill:#7F1D1D;text-anchor:middle;font-weight:bold" x="445" y="1456.4">Wheezing / Asthma</text><rect fill="#2563EB" height="52" opacity="0.15" rx="26" ry="26" stroke="#2563EB" stroke-width="3" width="130" x="1165.6" y="114" /><text style="font-family:Arial;font-size:28px;fill:#2563EB;text-anchor:middle;font-weight:bold" x="1230.6" y="150">OM-85</text><line opacity="0.4" stroke="#2563EB" stroke-width="2.5" x1="1230.6" x2="1230.6" y1="174" y2="676.4" /><polygon fill="#2563EB" opacity="0.4" points="1230.6,682.4 1223.6,668.4 1237.6,668.4" /><rect fill="#0D9488" height="52" opacity="0.15" rx="26" ry="26" stroke="#0D9488" stroke-width="3" width="130" x="1445.2" y="114" /><text style="font-family:Arial;font-size:28px;fill:#0D9488;text-anchor:middle;font-weight:bold" x="1510.2" y="150">PMBL</text><line opacity="0.4" stroke="#0D9488" stroke-width="2.5" x1="1510.2" x2="1510.2" y1="174" y2="676.4" /><polygon fill="#0D9488" opacity="0.4" points="1510.2,682.4 1503.2,668.4 1517.2,668.4" /><rect fill="#7C3AED" height="52" opacity="0.15" rx="26" ry="26" stroke="#7C3AED" stroke-width="3" width="130" x="1724.8000000000002" y="114" /><text style="font-family:Arial;font-size:28px;fill:#7C3AED;text-anchor:middle;font-weight:bold" x="1789.8000000000002" y="150">MV130</text><line opacity="0.4" stroke="#7C3AED" stroke-width="2.5" x1="1789.8000000000002" x2="1789.8000000000002" y1="174" y2="676.4" /><polygon fill="#7C3AED" opacity="0.4" points="1789.8000000000002,682.4 1782.8000000000002,668.4 1796.8000000000002,668.4" /><rect fill="#059669" height="52" opacity="0.15" rx="26" ry="26" stroke="#059669" stroke-width="3" width="130" x="2004.4" y="114" /><text style="font-family:Arial;font-size:28px;fill:#059669;text-anchor:middle;font-weight:bold" x="2069.4" y="150">CRL1505</text><line opacity="0.4" stroke="#059669" stroke-width="2.5" x1="2069.4" x2="2069.4" y1="174" y2="676.4" /><polygon fill="#059669" opacity="0.4" points="2069.4,682.4 2062.4,668.4 2076.4,668.4" /><text style="font-family:Arial;font-size:32px;fill:#4B5563;text-anchor:middle;font-weight:bold" x="1650" y="70">Bacterial-derived immunomodulators</text><rect fill="white" height="260" opacity="0.7" rx="16" ry="16" stroke="#D97706" stroke-width="2" width="619.0" x="1011.0" y="1026.4" /><rect fill="#D97706" height="12.0" opacity="0.2" rx="2" ry="2" stroke="#D97706" stroke-width="1.5" width="19.5" x="1120.75" y="1123.9" /><rect fill="#D97706" height="12.0" opacity="0.2" rx="2" ry="2" stroke="#D97706" stroke-width="1.5" width="19.5" x="1143.25" y="1123.9" /><rect fill="#D97706" height="12.0" opacity="0.2" rx="2" ry="2" stroke="#D97706" stroke-width="1.5" width="19.5" x="1165.75" y="1123.9" /><rect fill="#D97706" height="12.0" opacity="0.2" rx="2" ry="2" stroke="#D97706" stroke-width="1.5" width="19.5" x="1188.25" y="1123.9" /><rect fill="#D97706" height="12.0" opacity="0.2" rx="2" ry="2" stroke="#D97706" stroke-width="1.5" width="19.5" x="1132.0" y="1138.9" /><rect fill="#D97706" height="12.0" opacity="0.2" rx="2" ry="2" stroke="#D97706" stroke-width="1.5" width="19.5" x="1154.5" y="1138.9" /><rect fill="#D97706" height="12.0" opacity="0.2" rx="2" ry="2" stroke="#D97706" stroke-width="1.5" width="19.5" x="1177.0" y="1138.9" /><rect fill="#D97706" height="12.0" opacity="0.2" rx="2" ry="2" stroke="#D97706" stroke-width="1.5" width="19.5" x="1120.75" y="1153.9" /><rect fill="#D97706" height="12.0" opacity="0.2" rx="2" ry="2" stroke="#D97706" stroke-width="1.5" width="19.5" x="1143.25" y="1153.9" /><rect fill="#D97706" height="12.0" opacity="0.2" rx="2" ry="2" stroke="#D97706" stroke-width="1.5" width="19.5" x="1165.75" y="1153.9" /><rect fill="#D97706" height="12.0" opacity="0.2" rx="2" ry="2" stroke="#D97706" stroke-width="1.5" width="19.5" x="1188.25" y="1153.9" /><text style="font-family:Arial;font-size:30px;fill:#1F2937;text-anchor:start;font-weight:bold" x="1230.75" y="1136.4">Epithelial barrier</text><text style="font-family:Arial;font-size:24px;fill:#9CA3AF;text-anchor:start" x="1230.75" y="1170.4">↑ Tight junctions</text><rect fill="white" height="260" opacity="0.7" rx="16" ry="16" stroke="#DC2626" stroke-width="2" width="619.0" x="1670.0" y="1026.4" /><polygon fill="#DC2626" opacity="0.15" points="1824.75,1101.4 1837.9751681765806,1128.1971176265638 1867.5475432332819,1132.4942352531275 1846.148771616641,1153.3528823734364 1851.2003363531612,1182.8057647468727 1824.75,1168.9 1798.2996636468388,1182.8057647468727 1803.351228383359,1153.3528823734364 1781.9524567667181,1132.4942352531275 1811.5248318234194,1128.1971176265638" stroke="#DC2626" stroke-width="2" /><circle cx="1824.75" cy="1146.4" fill="#DC2626" opacity="0.25" r="13.5" /><text style="font-family:Arial;font-size:30px;fill:#1F2937;text-anchor:start;font-weight:bold" x="1889.75" y="1136.4">Innate immunity</text><text style="font-family:Arial;font-size:24px;fill:#9CA3AF;text-anchor:start" x="1889.75" y="1170.4">DC / Macrophage</text><rect fill="white" height="260" opacity="0.7" rx="16" ry="16" stroke="#2563EB" stroke-width="2" width="619.0" x="1011.0" y="1326.4" /><polygon fill="#2563EB" opacity="0.2" points="1165.75,1464.4 1156.75,1477.9 1174.75,1477.9" stroke="#2563EB" stroke-width="2" /><line stroke="#2563EB" stroke-width="3" x1="1129.75" x2="1201.75" y1="1450.9" y2="1459.9" /><circle cx="1129.75" cy="1450.9" fill="#2563EB" opacity="0.1" r="9.0" stroke="#2563EB" stroke-width="1.5" /><text style="font-family:Arial;font-size:22px;fill:#2563EB;text-anchor:middle;font-weight:bold" x="1129.75" y="1458.9">Th1</text><circle cx="1201.75" cy="1459.9" fill="#2563EB" opacity="0.1" r="9.0" stroke="#2563EB" stroke-width="1.5" /><text style="font-family:Arial;font-size:22px;fill:#2563EB;text-anchor:middle;font-weight:bold" x="1201.75" y="1467.9">Th2</text><text style="font-family:Arial;font-size:30px;fill:#1F2937;text-anchor:start;font-weight:bold" x="1230.75" y="1436.4">Adaptive balance</text><text style="font-family:Arial;font-size:24px;fill:#9CA3AF;text-anchor:start" x="1230.75" y="1470.4">Th1/Th2 rebalance</text><rect fill="white" height="260" opacity="0.7" rx="16" ry="16" stroke="#059669" stroke-width="2" width="619.0" x="1670.0" y="1326.4" /><rect fill="none" height="45.0" rx="6.75" ry="6.75" stroke="#059669" stroke-width="2" width="13.5" x="1818.0" y="1419.4" /><rect fill="#059669" height="15.749999999999998" opacity="0.3" rx="4" ry="4" width="10.799999999999999" x="1819.35" y="1448.65" /><circle cx="1824.75" cy="1471.15" fill="#059669" opacity="0.2" r="9.9" stroke="#059669" stroke-width="2" /><line stroke="#059669" stroke-width="3" x1="1847.25" x2="1847.25" y1="1432.9" y2="1459.9" /><polygon fill="#059669" points="1847.25,1464.4 1839.25,1455.4 1855.25,1455.4" /><text style="font-family:Arial;font-size:30px;fill:#1F2937;text-anchor:start;font-weight:bold" x="1889.75" y="1436.4">Inflammation control</text><text style="font-family:Arial;font-size:24px;fill:#9CA3AF;text-anchor:start" x="1889.75" y="1470.4">↓ Cytokine storm</text><text style="font-family:Arial;font-size:26px;fill:#9CA3AF;text-anchor:middle;letter-spacing:4px" x="1650" y="996.4">SHARED MECHANISMS</text><text style="font-family:Arial;font-size:34px;fill:#065F46;text-anchor:middle;font-weight:bold" x="2854" y="636.4">Protected airways</text><path d="M 2854,536.4 C 2902.0,552.4   2902.0,588.4   2854,620.4 C 2806.0,588.4   2806.0,552.4   2854,536.4 Z" fill="#34D399" opacity="0.2" stroke="#34D399" stroke-width="3" /><path d="M 2839,576.4 L 2851,590.4 L 2872,564.4" fill="none" stroke="#34D399" stroke-width="4" /><text style="font-family:Arial;font-size:30px;fill:#1F2937;text-anchor:middle;font-weight:bold" x="2854" y="1006.4000000000001">Clinical evidence</text><text style="font-family:Arial;font-size:28px;fill:#2563EB;text-anchor:end;font-weight:bold" x="2678" y="1106.4">OM-85</text><rect fill="#F3F4F6" height="120" rx="10" ry="10" width="320" x="2694" y="1036.4" /><rect fill="#2563EB" height="120" opacity="0.75" rx="10" ry="10" width="320.0" x="2694" y="1036.4" /><text style="font-family:Arial;font-size:26px;fill:white;text-anchor:start;font-weight:bold" x="2710" y="1106.4">18 RCTs</text><text style="font-family:Arial;font-size:28px;fill:#0D9488;text-anchor:end;font-weight:bold" x="2678" y="1262.4">PMBL</text><rect fill="#F3F4F6" height="120" rx="10" ry="10" width="320" x="2694" y="1192.4" /><rect fill="#0D9488" height="120" opacity="0.75" rx="10" ry="10" width="176.0" x="2694" y="1192.4" /><text style="font-family:Arial;font-size:26px;fill:white;text-anchor:start;font-weight:bold" x="2710" y="1262.4">5 RCTs</text><text style="font-family:Arial;font-size:28px;fill:#7C3AED;text-anchor:end;font-weight:bold" x="2678" y="1418.4">MV130</text><rect fill="#F3F4F6" height="120" rx="10" ry="10" width="320" x="2694" y="1348.4" /><rect fill="#7C3AED" height="120" opacity="0.75" rx="10" ry="10" width="96.0" x="2694" y="1348.4" /><text style="font-family:Arial;font-size:26px;fill:#7C3AED;text-anchor:start;font-weight:bold" x="2802.0" y="1418.4">1 RCT</text><text style="font-family:Arial;font-size:28px;fill:#059669;text-anchor:end;font-weight:bold" x="2678" y="1574.4">CRL1505</text><rect fill="#F3F4F6" height="120" rx="10" ry="10" width="320" x="2694" y="1504.4" /><rect fill="#059669" height="120" opacity="0.75" rx="10" ry="10" width="38.4" x="2694" y="1504.4" /><text style="font-family:Arial;font-size:26px;fill:#059669;text-anchor:start;font-weight:bold" x="2744.4" y="1574.4">Preclinical</text><text style="font-family:Arial;font-size:22px;fill:#9CA3AF;text-anchor:end" x="2678" y="1056.4">Robust ▲</text><text style="font-family:Arial;font-size:22px;fill:#9CA3AF;text-anchor:end" x="2678" y="1624.4">Emerging ▼</text><text style="font-family:Arial;font-size:48px;fill:#D1D5DB;text-anchor:middle" x="851" y="822.4">›</text><text style="font-family:Arial;font-size:48px;fill:#D1D5DB;text-anchor:middle" x="951" y="822.4">›</text><text style="font-family:Arial;font-size:48px;fill:#D1D5DB;text-anchor:middle" x="1550" y="822.4">›</text><text style="font-family:Arial;font-size:48px;fill:#D1D5DB;text-anchor:middle" x="1750" y="822.4">›</text><text style="font-family:Arial;font-size:48px;fill:#D1D5DB;text-anchor:middle" x="2369" y="822.4">›</text><text style="font-family:Arial;font-size:48px;fill:#D1D5DB;text-anchor:middle" x="2469" y="822.4">›</text></svg>