<?xml version="1.0" encoding="utf-8" ?>
<svg baseProfile="full" height="1680px" version="1.1" viewBox="0 0 3300 1680" width="3300px" xmlns="http://www.w3.org/2000/svg" xmlns:ev="http://www.w3.org/2001/xml-events" xmlns:xlink="http://www.w3.org/1999/xlink"><defs><linearGradient id="bg_grad" x1="0%" x2="100%" y1="0%" y2="0%"><stop offset="0%" stop-color="#FFF0F0" /><stop offset="50%" stop-color="#FFFFFF" /><stop offset="100%" stop-color="#F0FFFB" /></linearGradient><linearGradient id="cell_grad_0" x1="0%" x2="0%" y1="0%" y2="100%"><stop offset="0%" stop-color="#fecaca" /><stop offset="100%" stop-color="#e9b9b9" /></linearGradient><linearGradient id="cell_grad_1" x1="0%" x2="0%" y1="0%" y2="100%"><stop offset="0%" stop-color="#fccbca" /><stop offset="100%" stop-color="#e7bab9" /></linearGradient><linearGradient id="cell_grad_2" x1="0%" x2="0%" y1="0%" y2="100%"><stop offset="0%" stop-color="#fbcccb" /><stop offset="100%" stop-color="#e6bbba" /></linearGradient><linearGradient id="cell_grad_3" x1="0%" x2="0%" y1="0%" y2="100%"><stop offset="0%" stop-color="#facecc" /><stop offset="100%" stop-color="#e6bdbb" /></linearGradient><linearGradient id="cell_grad_4" x1="0%" x2="0%" y1="0%" y2="100%"><stop offset="0%" stop-color="#f8cfcd" /><stop offset="100%" stop-color="#e4bebc" /></linearGradient><linearGradient id="cell_grad_5" x1="0%" x2="0%" y1="0%" y2="100%"><stop offset="0%" stop-color="#f7d0cd" /><stop offset="100%" stop-color="#e3bfbc" /></linearGradient><linearGradient id="cell_grad_6" x1="0%" x2="0%" y1="0%" y2="100%"><stop offset="0%" stop-color="#f6d2ce" /><stop offset="100%" stop-color="#e2c1bd" /></linearGradient><linearGradient id="cell_grad_7" x1="0%" x2="0%" y1="0%" y2="100%"><stop offset="0%" stop-color="#f5d3cf" /><stop offset="100%" stop-color="#e1c2be" /></linearGradient><linearGradient id="cell_grad_8" x1="0%" x2="0%" y1="0%" y2="100%"><stop offset="0%" stop-color="#f3d4d0" /><stop offset="100%" stop-color="#dfc3bf" /></linearGradient><linearGradient id="cell_grad_9" x1="0%" x2="0%" y1="0%" y2="100%"><stop offset="0%" stop-color="#f2d6d0" /><stop offset="100%" stop-color="#dec4bf" /></linearGradient><linearGradient id="cell_grad_10" x1="0%" x2="0%" y1="0%" y2="100%"><stop offset="0%" stop-color="#f1d7d1" /><stop offset="100%" stop-color="#ddc5c0" /></linearGradient><linearGradient id="cell_grad_11" x1="0%" x2="0%" y1="0%" y2="100%"><stop offset="0%" stop-color="#efd9d2" /><stop offset="100%" stop-color="#dbc7c1" /></linearGradient><linearGradient id="cell_grad_12" x1="0%" x2="0%" y1="0%" y2="100%"><stop offset="0%" stop-color="#eedad3" /><stop offset="100%" stop-color="#dac8c2" /></linearGradient><linearGradient id="cell_grad_13" x1="0%" x2="0%" y1="0%" y2="100%"><stop offset="0%" stop-color="#eddbd4" /><stop offset="100%" stop-color="#dac9c3" /></linearGradient><linearGradient id="cell_grad_14" x1="0%" x2="0%" y1="0%" y2="100%"><stop offset="0%" stop-color="#ecddd4" /><stop offset="100%" stop-color="#d9cbc3" /></linearGradient><linearGradient id="cell_grad_15" x1="0%" x2="0%" y1="0%" y2="100%"><stop offset="0%" stop-color="#eaded5" /><stop offset="100%" stop-color="#d7ccc3" /></linearGradient><linearGradient id="cell_grad_16" x1="0%" x2="0%" y1="0%" y2="100%"><stop offset="0%" stop-color="#e9dfd6" /><stop offset="100%" stop-color="#d6cdc4" /></linearGradient><linearGradient id="cell_grad_17" x1="0%" x2="0%" y1="0%" y2="100%"><stop offset="0%" stop-color="#e8e1d7" /><stop offset="100%" stop-color="#d5cfc5" /></linearGradient><linearGradient id="cell_grad_18" x1="0%" x2="0%" y1="0%" y2="100%"><stop offset="0%" stop-color="#e6e2d7" /><stop offset="100%" stop-color="#d3cfc5" /></linearGradient><linearGradient id="cell_grad_19" x1="0%" x2="0%" y1="0%" y2="100%"><stop offset="0%" stop-color="#e5e4d8" /><stop offset="100%" stop-color="#d2d1c6" /></linearGradient><linearGradient id="cell_grad_20" x1="0%" x2="0%" y1="0%" y2="100%"><stop offset="0%" stop-color="#e4e5d9" /><stop offset="100%" stop-color="#d1d2c7" /></linearGradient><linearGradient id="cell_grad_21" x1="0%" x2="0%" y1="0%" y2="100%"><stop offset="0%" stop-color="#e3e6da" /><stop offset="100%" stop-color="#d0d3c8" /></linearGradient><linearGradient id="cell_grad_22" x1="0%" x2="0%" y1="0%" y2="100%"><stop offset="0%" stop-color="#e1e8da" /><stop offset="100%" stop-color="#cfd5c8" /></linearGradient><linearGradient id="cell_grad_23" x1="0%" x2="0%" y1="0%" y2="100%"><stop offset="0%" stop-color="#e0e9db" /><stop offset="100%" stop-color="#ced6c9" /></linearGradient><linearGradient id="cell_grad_24" x1="0%" x2="0%" y1="0%" y2="100%"><stop offset="0%" stop-color="#dfeadc" /><stop offset="100%" stop-color="#cdd7ca" /></linearGradient><linearGradient id="cell_grad_25" x1="0%" x2="0%" y1="0%" y2="100%"><stop offset="0%" stop-color="#ddecdd" /><stop offset="100%" stop-color="#cbd9cb" /></linearGradient><linearGradient id="cell_grad_26" x1="0%" x2="0%" y1="0%" y2="100%"><stop offset="0%" stop-color="#dcedde" /><stop offset="100%" stop-color="#cadacc" /></linearGradient><linearGradient id="cell_grad_27" x1="0%" x2="0%" y1="0%" y2="100%"><stop offset="0%" stop-color="#dbefde" /><stop offset="100%" stop-color="#c9dbcc" /></linearGradient><linearGradient id="cell_grad_28" x1="0%" x2="0%" y1="0%" y2="100%"><stop offset="0%" stop-color="#daf0df" /><stop offset="100%" stop-color="#c8dccd" /></linearGradient><linearGradient id="cell_grad_29" x1="0%" x2="0%" y1="0%" y2="100%"><stop offset="0%" stop-color="#d8f1e0" /><stop offset="100%" stop-color="#c6ddce" /></linearGradient><linearGradient id="cell_grad_30" x1="0%" x2="0%" y1="0%" y2="100%"><stop offset="0%" stop-color="#d7f3e1" /><stop offset="100%" stop-color="#c5dfcf" /></linearGradient><linearGradient id="cell_grad_31" x1="0%" x2="0%" y1="0%" y2="100%"><stop offset="0%" stop-color="#d6f4e1" /><stop offset="100%" stop-color="#c4e0cf" /></linearGradient><linearGradient id="cell_grad_32" x1="0%" x2="0%" y1="0%" y2="100%"><stop offset="0%" stop-color="#d4f5e2" /><stop offset="100%" stop-color="#c3e1cf" /></linearGradient><linearGradient id="cell_grad_33" x1="0%" x2="0%" y1="0%" y2="100%"><stop offset="0%" stop-color="#d3f7e3" /><stop offset="100%" stop-color="#c2e3d0" /></linearGradient><linearGradient id="cell_grad_34" x1="0%" x2="0%" y1="0%" y2="100%"><stop offset="0%" stop-color="#d2f8e4" /><stop offset="100%" stop-color="#c1e4d1" /></linearGradient><linearGradient id="cell_grad_35" x1="0%" x2="0%" y1="0%" y2="100%"><stop offset="0%" stop-color="#d1fae5" /><stop offset="100%" stop-color="#c0e6d2" /></linearGradient></defs><rect fill="#FAFAFA" height="1680" width="3300" x="0" y="0" /><rect fill="url(#bg_grad)" height="1680" opacity="0.6" width="3300" x="0" y="0" /><rect fill="none" height="1176" rx="20" ry="20" stroke="#9CA3AF" stroke-width="3" width="2178" x="561" y="168" /><rect fill="#F8FAFC" height="176" opacity="0.3" width="2178" x="561" y="168" /><rect fill="#F3F4F6" height="329" opacity="0.3" width="2178" x="561" y="344" /><rect fill="#F8FAFC" height="411" opacity="0.3" width="2178" x="561" y="673" /><rect fill="#F3F4F6" height="258" opacity="0.3" width="2178" x="561" y="1084" /><line stroke="#9CA3AF" stroke-dasharray="12,6" stroke-width="4" x1="561" x2="2739" y1="344" y2="344" /><line stroke="#9CA3AF" stroke-dasharray="12,6" stroke-width="4" x1="561" x2="2739" y1="673" y2="673" /><line stroke="#9CA3AF" stroke-dasharray="12,6" stroke-width="4" x1="561" x2="2739" y1="1084" y2="1084" /><rect fill="#fbbf24" height="258" opacity="0.7" width="55" x="561" y="1084" /><rect fill="#f8c027" height="254" opacity="0.7" width="55" x="616" y="1086" /><rect fill="#f4c12a" height="250" opacity="0.7" width="55" x="672" y="1088" /><rect fill="#f2c22e" height="247" opacity="0.7" width="55" x="728" y="1089" /><rect fill="#efc331" height="243" opacity="0.7" width="55" x="784" y="1091" /><rect fill="#ecc535" height="239" opacity="0.7" width="55" x="840" y="1093" /><rect fill="#e9c638" height="236" opacity="0.7" width="55" x="896" y="1095" /><rect fill="#e5c73c" height="232" opacity="0.7" width="55" x="951" y="1097" /><rect fill="#e3c83f" height="228" opacity="0.7" width="55" x="1007" y="1099" /><rect fill="#e0ca43" height="225" opacity="0.7" width="55" x="1063" y="1100" /><rect fill="#ddcb46" height="221" opacity="0.7" width="55" x="1119" y="1102" /><rect fill="#dacc4a" height="217" opacity="0.7" width="55" x="1175" y="1104" /><rect fill="#d7cd4d" height="214" opacity="0.7" width="55" x="1231" y="1106" /><rect fill="#d4cf51" height="210" opacity="0.7" width="55" x="1287" y="1108" /><rect fill="#d1d054" height="207" opacity="0.7" width="55" x="1342" y="1109" /><rect fill="#ced158" height="203" opacity="0.7" width="55" x="1398" y="1111" /><rect fill="#cbd25b" height="199" opacity="0.7" width="55" x="1454" y="1113" /><rect fill="#c8d35f" height="196" opacity="0.7" width="55" x="1510" y="1115" /><rect fill="#c5d562" height="192" opacity="0.7" width="55" x="1566" y="1117" /><rect fill="#c2d666" height="188" opacity="0.7" width="55" x="1622" y="1119" /><rect fill="#bfd769" height="185" opacity="0.7" width="55" x="1677" y="1120" /><rect fill="#bcd86d" height="181" opacity="0.7" width="55" x="1733" y="1122" /><rect fill="#b9da70" height="177" opacity="0.7" width="55" x="1789" y="1124" /><rect fill="#b6db74" height="174" opacity="0.7" width="55" x="1845" y="1126" /><rect fill="#b3dc77" height="170" opacity="0.7" width="55" x="1901" y="1128" /><rect fill="#b0dd7b" height="167" opacity="0.7" width="55" x="1957" y="1129" /><rect fill="#addf7e" height="163" opacity="0.7" width="55" x="2013" y="1131" /><rect fill="#aae082" height="159" opacity="0.7" width="55" x="2068" y="1133" /><rect fill="#a7e185" height="156" opacity="0.7" width="55" x="2124" y="1135" /><rect fill="#a4e289" height="152" opacity="0.7" width="55" x="2180" y="1137" /><rect fill="#a1e38c" height="148" opacity="0.7" width="55" x="2236" y="1139" /><rect fill="#9ee590" height="145" opacity="0.7" width="55" x="2292" y="1140" /><rect fill="#9be693" height="141" opacity="0.7" width="55" x="2348" y="1142" /><rect fill="#98e797" height="137" opacity="0.7" width="55" x="2403" y="1144" /><rect fill="#95e89a" height="134" opacity="0.7" width="55" x="2459" y="1146" /><rect fill="#92ea9e" height="130" opacity="0.7" width="55" x="2515" y="1148" /><rect fill="#8feba1" height="127" opacity="0.7" width="55" x="2571" y="1149" /><rect fill="#8ceca5" height="123" opacity="0.7" width="55" x="2627" y="1151" /><rect fill="#89eda8" height="119" opacity="0.7" width="55" x="2683" y="1153" /><rect fill="#86efac" height="116" opacity="0.7" width="55" x="2739" y="1155" /><rect fill="url(#cell_grad_0)" height="197" rx="2" ry="2" stroke="#D1D5DB" stroke-width="1" width="58" x="562" y="410" /><rect fill="url(#cell_grad_1)" height="197" rx="2" ry="2" stroke="#D1D5DB" stroke-width="1" width="58" x="622" y="410" /><rect fill="url(#cell_grad_2)" height="197" rx="2" ry="2" stroke="#D1D5DB" stroke-width="1" width="58" x="683" y="410" /><rect fill="url(#cell_grad_3)" height="197" rx="2" ry="2" stroke="#D1D5DB" stroke-width="1" width="39" x="742" y="410" /><rect fill="#DC2626" height="157" opacity="0.2" width="19" x="781" y="429" /><rect fill="url(#cell_grad_4)" height="197" rx="2" ry="2" stroke="#D1D5DB" stroke-width="1" width="39" x="803" y="410" /><rect fill="#DC2626" height="157" opacity="0.2" width="19" x="842" y="429" /><rect fill="url(#cell_grad_5)" height="197" rx="2" ry="2" stroke="#D1D5DB" stroke-width="1" width="58" x="864" y="410" /><rect fill="url(#cell_grad_6)" height="197" rx="2" ry="2" stroke="#D1D5DB" stroke-width="1" width="58" x="925" y="410" /><rect fill="url(#cell_grad_7)" height="197" rx="2" ry="2" stroke="#D1D5DB" stroke-width="1" width="39" x="984" y="410" /><rect fill="#DC2626" height="157" opacity="0.2" width="19" x="1023" y="429" /><rect fill="url(#cell_grad_8)" height="197" rx="2" ry="2" stroke="#D1D5DB" stroke-width="1" width="39" x="1045" y="410" /><rect fill="#DC2626" height="157" opacity="0.2" width="19" x="1084" y="429" /><rect fill="url(#cell_grad_9)" height="197" rx="2" ry="2" stroke="#D1D5DB" stroke-width="1" width="58" x="1106" y="410" /><rect fill="url(#cell_grad_10)" height="197" rx="2" ry="2" stroke="#D1D5DB" stroke-width="1" width="39" x="1166" y="410" /><rect fill="#DC2626" height="157" opacity="0.2" width="19" x="1205" y="429" /><rect fill="url(#cell_grad_11)" height="197" rx="2" ry="2" stroke="#D1D5DB" stroke-width="1" width="39" x="1226" y="410" /><rect fill="#DC2626" height="157" opacity="0.2" width="19" x="1265" y="429" /><rect fill="url(#cell_grad_12)" height="197" rx="2" ry="2" stroke="#D1D5DB" stroke-width="1" width="58" x="1288" y="410" /><rect fill="url(#cell_grad_13)" height="197" rx="2" ry="2" stroke="#D1D5DB" stroke-width="1" width="58" x="1348" y="410" /><rect fill="url(#cell_grad_14)" height="197" rx="2" ry="2" stroke="#D1D5DB" stroke-width="1" width="58" x="1409" y="410" /><rect fill="url(#cell_grad_15)" height="197" rx="2" ry="2" stroke="#D1D5DB" stroke-width="1" width="58" x="1469" y="410" /><rect fill="url(#cell_grad_16)" height="197" rx="2" ry="2" stroke="#D1D5DB" stroke-width="1" width="58" x="1530" y="410" /><line opacity="0.7" stroke="#0D9488" stroke-width="3" x1="1529" x2="1529" y1="459" y2="557" /><line stroke="#0D9488" stroke-width="2" x1="1526" x2="1532" y1="459" y2="459" /><line stroke="#0D9488" stroke-width="2" x1="1526" x2="1532" y1="557" y2="557" /><rect fill="url(#cell_grad_17)" height="197" rx="2" ry="2" stroke="#D1D5DB" stroke-width="1" width="58" x="1590" y="410" /><line opacity="0.7" stroke="#0D9488" stroke-width="3" x1="1589" x2="1589" y1="459" y2="557" /><line stroke="#0D9488" stroke-width="2" x1="1586" x2="1592" y1="459" y2="459" /><line stroke="#0D9488" stroke-width="2" x1="1586" x2="1592" y1="557" y2="557" /><rect fill="url(#cell_grad_18)" height="197" rx="2" ry="2" stroke="#D1D5DB" stroke-width="1" width="58" x="1651" y="410" /><line opacity="0.7" stroke="#0D9488" stroke-width="3" x1="1650" x2="1650" y1="459" y2="557" /><line stroke="#0D9488" stroke-width="2" x1="1647" x2="1653" y1="459" y2="459" /><line stroke="#0D9488" stroke-width="2" x1="1647" x2="1653" y1="557" y2="557" /><rect fill="url(#cell_grad_19)" height="197" rx="2" ry="2" stroke="#D1D5DB" stroke-width="1" width="58" x="1711" y="410" /><line opacity="0.7" stroke="#0D9488" stroke-width="3" x1="1710" x2="1710" y1="459" y2="557" /><line stroke="#0D9488" stroke-width="2" x1="1707" x2="1713" y1="459" y2="459" /><line stroke="#0D9488" stroke-width="2" x1="1707" x2="1713" y1="557" y2="557" /><rect fill="url(#cell_grad_20)" height="197" rx="2" ry="2" stroke="#D1D5DB" stroke-width="1" width="58" x="1772" y="410" /><line opacity="0.7" stroke="#0D9488" stroke-width="3" x1="1771" x2="1771" y1="459" y2="557" /><line stroke="#0D9488" stroke-width="2" x1="1768" x2="1774" y1="459" y2="459" /><line stroke="#0D9488" stroke-width="2" x1="1768" x2="1774" y1="557" y2="557" /><rect fill="url(#cell_grad_21)" height="197" rx="2" ry="2" stroke="#D1D5DB" stroke-width="1" width="58" x="1832" y="410" /><line opacity="0.7" stroke="#0D9488" stroke-width="3" x1="1831" x2="1831" y1="459" y2="557" /><line stroke="#0D9488" stroke-width="2" x1="1828" x2="1834" y1="459" y2="459" /><line stroke="#0D9488" stroke-width="2" x1="1828" x2="1834" y1="557" y2="557" /><rect fill="url(#cell_grad_22)" height="197" rx="2" ry="2" stroke="#D1D5DB" stroke-width="1" width="58" x="1893" y="410" /><line opacity="0.7" stroke="#0D9488" stroke-width="3" x1="1892" x2="1892" y1="459" y2="557" /><line stroke="#0D9488" stroke-width="2" x1="1889" x2="1895" y1="459" y2="459" /><line stroke="#0D9488" stroke-width="2" x1="1889" x2="1895" y1="557" y2="557" /><rect fill="url(#cell_grad_23)" height="197" rx="2" ry="2" stroke="#D1D5DB" stroke-width="1" width="58" x="1953" y="410" /><line opacity="0.7" stroke="#0D9488" stroke-width="3" x1="1952" x2="1952" y1="459" y2="557" /><line stroke="#0D9488" stroke-width="2" x1="1949" x2="1955" y1="459" y2="459" /><line stroke="#0D9488" stroke-width="2" x1="1949" x2="1955" y1="557" y2="557" /><rect fill="url(#cell_grad_24)" height="197" rx="2" ry="2" stroke="#D1D5DB" stroke-width="1" width="58" x="2014" y="410" /><line opacity="0.7" stroke="#0D9488" stroke-width="3" x1="2013" x2="2013" y1="459" y2="557" /><line stroke="#0D9488" stroke-width="2" x1="2010" x2="2016" y1="459" y2="459" /><line stroke="#0D9488" stroke-width="2" x1="2010" x2="2016" y1="557" y2="557" /><rect fill="url(#cell_grad_25)" height="197" rx="2" ry="2" stroke="#D1D5DB" stroke-width="1" width="58" x="2074" y="410" /><line opacity="0.7" stroke="#0D9488" stroke-width="3" x1="2073" x2="2073" y1="459" y2="557" /><line stroke="#0D9488" stroke-width="2" x1="2070" x2="2076" y1="459" y2="459" /><line stroke="#0D9488" stroke-width="2" x1="2070" x2="2076" y1="557" y2="557" /><rect fill="url(#cell_grad_26)" height="197" rx="2" ry="2" stroke="#D1D5DB" stroke-width="1" width="58" x="2135" y="410" /><line opacity="0.7" stroke="#0D9488" stroke-width="3" x1="2134" x2="2134" y1="459" y2="557" /><line stroke="#0D9488" stroke-width="2" x1="2131" x2="2137" y1="459" y2="459" /><line stroke="#0D9488" stroke-width="2" x1="2131" x2="2137" y1="557" y2="557" /><rect fill="url(#cell_grad_27)" height="197" rx="2" ry="2" stroke="#D1D5DB" stroke-width="1" width="58" x="2195" y="410" /><line opacity="0.7" stroke="#0D9488" stroke-width="3" x1="2194" x2="2194" y1="459" y2="557" /><line stroke="#0D9488" stroke-width="2" x1="2191" x2="2197" y1="459" y2="459" /><line stroke="#0D9488" stroke-width="2" x1="2191" x2="2197" y1="557" y2="557" /><rect fill="url(#cell_grad_28)" height="197" rx="2" ry="2" stroke="#D1D5DB" stroke-width="1" width="58" x="2256" y="410" /><line opacity="0.7" stroke="#0D9488" stroke-width="3" x1="2255" x2="2255" y1="459" y2="557" /><line stroke="#0D9488" stroke-width="2" x1="2252" x2="2258" y1="459" y2="459" /><line stroke="#0D9488" stroke-width="2" x1="2252" x2="2258" y1="557" y2="557" /><rect fill="url(#cell_grad_29)" height="197" rx="2" ry="2" stroke="#D1D5DB" stroke-width="1" width="58" x="2316" y="410" /><line opacity="0.7" stroke="#0D9488" stroke-width="3" x1="2315" x2="2315" y1="459" y2="557" /><line stroke="#0D9488" stroke-width="2" x1="2312" x2="2318" y1="459" y2="459" /><line stroke="#0D9488" stroke-width="2" x1="2312" x2="2318" y1="557" y2="557" /><rect fill="url(#cell_grad_30)" height="197" rx="2" ry="2" stroke="#D1D5DB" stroke-width="1" width="58" x="2377" y="410" /><line opacity="0.7" stroke="#0D9488" stroke-width="3" x1="2376" x2="2376" y1="459" y2="557" /><line stroke="#0D9488" stroke-width="2" x1="2373" x2="2379" y1="459" y2="459" /><line stroke="#0D9488" stroke-width="2" x1="2373" x2="2379" y1="557" y2="557" /><rect fill="url(#cell_grad_31)" height="197" rx="2" ry="2" stroke="#D1D5DB" stroke-width="1" width="58" x="2437" y="410" /><line opacity="0.7" stroke="#0D9488" stroke-width="3" x1="2436" x2="2436" y1="459" y2="557" /><line stroke="#0D9488" stroke-width="2" x1="2433" x2="2439" y1="459" y2="459" /><line stroke="#0D9488" stroke-width="2" x1="2433" x2="2439" y1="557" y2="557" /><rect fill="url(#cell_grad_32)" height="197" rx="2" ry="2" stroke="#D1D5DB" stroke-width="1" width="58" x="2498" y="410" /><line opacity="0.7" stroke="#0D9488" stroke-width="3" x1="2497" x2="2497" y1="459" y2="557" /><line stroke="#0D9488" stroke-width="2" x1="2494" x2="2500" y1="459" y2="459" /><line stroke="#0D9488" stroke-width="2" x1="2494" x2="2500" y1="557" y2="557" /><rect fill="url(#cell_grad_33)" height="197" rx="2" ry="2" stroke="#D1D5DB" stroke-width="1" width="58" x="2558" y="410" /><line opacity="0.7" stroke="#0D9488" stroke-width="3" x1="2557" x2="2557" y1="459" y2="557" /><line stroke="#0D9488" stroke-width="2" x1="2554" x2="2560" y1="459" y2="459" /><line stroke="#0D9488" stroke-width="2" x1="2554" x2="2560" y1="557" y2="557" /><rect fill="url(#cell_grad_34)" height="197" rx="2" ry="2" stroke="#D1D5DB" stroke-width="1" width="58" x="2619" y="410" /><line opacity="0.7" stroke="#0D9488" stroke-width="3" x1="2618" x2="2618" y1="459" y2="557" /><line stroke="#0D9488" stroke-width="2" x1="2615" x2="2621" y1="459" y2="459" /><line stroke="#0D9488" stroke-width="2" x1="2615" x2="2621" y1="557" y2="557" /><rect fill="url(#cell_grad_35)" height="197" rx="2" ry="2" stroke="#D1D5DB" stroke-width="1" width="58" x="2679" y="410" /><line opacity="0.7" stroke="#0D9488" stroke-width="3" x1="2678" x2="2678" y1="459" y2="557" /><line stroke="#0D9488" stroke-width="2" x1="2675" x2="2681" y1="459" y2="459" /><line stroke="#0D9488" stroke-width="2" x1="2675" x2="2681" y1="557" y2="557" /><path d="M 1758,385 L 1878,385 L 1878,476.0 Q 1818.0,515 1758,476.0 Z" fill="#2563EB" opacity="0.6" stroke="#2563EB" stroke-width="2" /><circle cx="1818.0" cy="437.0" fill="none" r="12" stroke="white" stroke-width="3" /><rect fill="white" height="16" rx="2" width="20" x="1808.0" y="445.0" /><text fill="white" font-family="Helvetica, Arial, sans-serif" font-size="18" font-weight="bold" opacity="0.9" text-anchor="middle" x="1818.0" y="475.0">OM-85</text><circle cx="783" cy="223" fill="#DC2626" opacity="0.85" r="24" /><line stroke="#DC2626" stroke-width="2" x1="804.6" x2="822.6" y1="223.0" y2="223.0" /><circle cx="822.6" cy="223.0" fill="#DC2626" r="4.32" /><line stroke="#DC2626" stroke-width="2" x1="798.2735064736295" x2="811.0014285349873" y1="238.27350647362942" y2="251.00142853498727" /><circle cx="811.0014285349873" cy="251.00142853498727" fill="#DC2626" r="4.32" /><line stroke="#DC2626" stroke-width="2" x1="783.0" x2="783.0" y1="244.6" y2="262.6" /><circle cx="783.0" cy="262.6" fill="#DC2626" r="4.32" /><line stroke="#DC2626" stroke-width="2" x1="767.7264935263705" x2="754.9985714650127" y1="238.27350647362942" y2="251.00142853498727" /><circle cx="754.9985714650127" cy="251.00142853498727" fill="#DC2626" r="4.32" /><line stroke="#DC2626" stroke-width="2" x1="761.4" x2="743.4" y1="223.0" y2="223.0" /><circle cx="743.4" cy="223.0" fill="#DC2626" r="4.32" /><line stroke="#DC2626" stroke-width="2" x1="767.7264935263705" x2="754.9985714650127" y1="207.72649352637058" y2="194.99857146501273" /><circle cx="754.9985714650127" cy="194.99857146501273" fill="#DC2626" r="4.32" /><line stroke="#DC2626" stroke-width="2" x1="783.0" x2="783.0" y1="201.4" y2="183.4" /><circle cx="783.0" cy="183.4" fill="#DC2626" r="4.32" /><line stroke="#DC2626" stroke-width="2" x1="798.2735064736294" x2="811.0014285349873" y1="207.72649352637058" y2="194.9985714650127" /><circle cx="811.0014285349873" cy="194.9985714650127" fill="#DC2626" r="4.32" /><circle cx="950" cy="251" fill="#DC2626" opacity="0.85" r="24" /><line stroke="#DC2626" stroke-width="2" x1="971.6" x2="989.6" y1="251.0" y2="251.0" /><circle cx="989.6" cy="251.0" fill="#DC2626" r="4.32" /><line stroke="#DC2626" stroke-width="2" x1="965.2735064736295" x2="978.0014285349873" y1="266.2735064736294" y2="279.00142853498727" /><circle cx="978.0014285349873" cy="279.00142853498727" fill="#DC2626" r="4.32" /><line stroke="#DC2626" stroke-width="2" x1="950.0" x2="950.0" y1="272.6" y2="290.6" /><circle cx="950.0" cy="290.6" fill="#DC2626" r="4.32" /><line stroke="#DC2626" stroke-width="2" x1="934.7264935263705" x2="921.9985714650127" y1="266.2735064736294" y2="279.00142853498727" /><circle cx="921.9985714650127" cy="279.00142853498727" fill="#DC2626" r="4.32" /><line stroke="#DC2626" stroke-width="2" x1="928.4" x2="910.4" y1="251.0" y2="251.0" /><circle cx="910.4" cy="251.0" fill="#DC2626" r="4.32" /><line stroke="#DC2626" stroke-width="2" x1="934.7264935263705" x2="921.9985714650127" y1="235.72649352637058" y2="222.99857146501273" /><circle cx="921.9985714650127" cy="222.99857146501273" fill="#DC2626" r="4.32" /><line stroke="#DC2626" stroke-width="2" x1="950.0" x2="950.0" y1="229.4" y2="211.4" /><circle cx="950.0" cy="211.4" fill="#DC2626" r="4.32" /><line stroke="#DC2626" stroke-width="2" x1="965.2735064736294" x2="978.0014285349873" y1="235.72649352637058" y2="222.9985714650127" /><circle cx="978.0014285349873" cy="222.9985714650127" fill="#DC2626" r="4.32" /><circle cx="897" cy="237" fill="#DC2626" opacity="0.85" r="24" /><line stroke="#DC2626" stroke-width="2" x1="918.6" x2="936.6" y1="237.0" y2="237.0" /><circle cx="936.6" cy="237.0" fill="#DC2626" r="4.32" /><line stroke="#DC2626" stroke-width="2" x1="912.2735064736295" x2="925.0014285349873" y1="252.27350647362942" y2="265.00142853498727" /><circle cx="925.0014285349873" cy="265.00142853498727" fill="#DC2626" r="4.32" /><line stroke="#DC2626" stroke-width="2" x1="897.0" x2="897.0" y1="258.6" y2="276.6" /><circle cx="897.0" cy="276.6" fill="#DC2626" r="4.32" /><line stroke="#DC2626" stroke-width="2" x1="881.7264935263705" x2="868.9985714650127" y1="252.27350647362942" y2="265.00142853498727" /><circle cx="868.9985714650127" cy="265.00142853498727" fill="#DC2626" r="4.32" /><line stroke="#DC2626" stroke-width="2" x1="875.4" x2="857.4" y1="237.0" y2="237.0" /><circle cx="857.4" cy="237.0" fill="#DC2626" r="4.32" /><line stroke="#DC2626" stroke-width="2" x1="881.7264935263705" x2="868.9985714650127" y1="221.72649352637058" y2="208.99857146501273" /><circle cx="868.9985714650127" cy="208.99857146501273" fill="#DC2626" r="4.32" /><line stroke="#DC2626" stroke-width="2" x1="897.0" x2="897.0" y1="215.4" y2="197.4" /><circle cx="897.0" cy="197.4" fill="#DC2626" r="4.32" /><line stroke="#DC2626" stroke-width="2" x1="912.2735064736294" x2="925.0014285349873" y1="221.72649352637058" y2="208.9985714650127" /><circle cx="925.0014285349873" cy="208.9985714650127" fill="#DC2626" r="4.32" /><line opacity="0.5" stroke="#DC2626" stroke-width="3" x1="887" x2="927" y1="256" y2="256" /><polygon fill="#DC2626" opacity="0.5" points="927,250 939,256 927,262" /><line opacity="0.5" stroke="#DC2626" stroke-width="3" x1="1148" x2="1188" y1="256" y2="256" /><polygon fill="#DC2626" opacity="0.5" points="1188,250 1200,256 1188,262" /><circle cx="1039" cy="242" fill="#D97706" opacity="0.45" r="5" /><circle cx="1037.75" cy="240.75" fill="#FFFFFF" opacity="0.4" r="1.75" /><circle cx="809" cy="223" fill="#D97706" opacity="0.45" r="5" /><circle cx="807.75" cy="221.75" fill="#FFFFFF" opacity="0.4" r="1.75" /><circle cx="762" cy="291" fill="#D97706" opacity="0.45" r="4" /><circle cx="761.0" cy="290.0" fill="#FFFFFF" opacity="0.4" r="1.4" /><circle cx="883" cy="287" fill="#D97706" opacity="0.45" r="7" /><circle cx="881.25" cy="285.25" fill="#FFFFFF" opacity="0.4" r="2.4499999999999997" /><circle cx="1169" cy="281" fill="#D97706" opacity="0.45" r="8" /><circle cx="1167.0" cy="279.0" fill="#FFFFFF" opacity="0.4" r="2.8" /><path d="M 1818,508 Q 1912.0,386.0 1976,264" fill="none" opacity="0.45" stroke="#2563EB" stroke-linecap="round" stroke-width="2.5" /><path d="M 2042,508 Q 2024.0,386.0 1976,264" fill="none" opacity="0.45" stroke="#0D9488" stroke-linecap="round" stroke-width="2.5" /><path d="M 2194,968 Q 2100.0,616.0 1976,264" fill="none" opacity="0.45" stroke="#7C3AED" stroke-linecap="round" stroke-width="2.5" /><path d="M 2194,1084 Q 2100.0,674.0 1976,264" fill="none" opacity="0.45" stroke="#059669" stroke-linecap="round" stroke-width="2.5" /><line stroke="#2563EB" stroke-linecap="round" stroke-width="5.25" x1="1986" x2="1986" y1="300" y2="280.75" /><line stroke="#2563EB" stroke-linecap="round" stroke-width="5.25" x1="1986" x2="1973.75" y1="280.75" y2="265.0" /><line stroke="#2563EB" stroke-linecap="round" stroke-width="5.25" x1="1986" x2="1998.25" y1="280.75" y2="265.0" /><line stroke="#0D9488" stroke-linecap="round" stroke-width="5.25" x1="2114" x2="2114" y1="300" y2="280.75" /><line stroke="#0D9488" stroke-linecap="round" stroke-width="5.25" x1="2114" x2="2101.75" y1="280.75" y2="265.0" /><line stroke="#0D9488" stroke-linecap="round" stroke-width="5.25" x1="2114" x2="2126.25" y1="280.75" y2="265.0" /><line stroke="#7C3AED" stroke-linecap="round" stroke-width="5.25" x1="2243" x2="2243" y1="300" y2="280.75" /><line stroke="#7C3AED" stroke-linecap="round" stroke-width="5.25" x1="2243" x2="2230.75" y1="280.75" y2="265.0" /><line stroke="#7C3AED" stroke-linecap="round" stroke-width="5.25" x1="2243" x2="2255.25" y1="280.75" y2="265.0" /><line stroke="#059669" stroke-linecap="round" stroke-width="5.25" x1="2372" x2="2372" y1="300" y2="280.75" /><line stroke="#059669" stroke-linecap="round" stroke-width="5.25" x1="2372" x2="2359.75" y1="280.75" y2="265.0" /><line stroke="#059669" stroke-linecap="round" stroke-width="5.25" x1="2372" x2="2384.25" y1="280.75" y2="265.0" /><line stroke="#2563EB" stroke-linecap="round" stroke-width="5.25" x1="2501" x2="2501" y1="300" y2="280.75" /><line stroke="#2563EB" stroke-linecap="round" stroke-width="5.25" x1="2501" x2="2488.75" y1="280.75" y2="265.0" /><line stroke="#2563EB" stroke-linecap="round" stroke-width="5.25" x1="2501" x2="2513.25" y1="280.75" y2="265.0" /><line stroke="#0D9488" stroke-linecap="round" stroke-width="5.25" x1="2630" x2="2630" y1="300" y2="280.75" /><line stroke="#0D9488" stroke-linecap="round" stroke-width="5.25" x1="2630" x2="2617.75" y1="280.75" y2="265.0" /><line stroke="#0D9488" stroke-linecap="round" stroke-width="5.25" x1="2630" x2="2642.25" y1="280.75" y2="265.0" /><circle cx="1976" cy="264" fill="#FFFFFF" opacity="0.4" r="12" /><circle cx="1976" cy="264" fill="#059669" opacity="0.15" r="8" /><circle cx="996" cy="970" fill="#DC2626" opacity="0.06" r="82.5" /><circle cx="996" cy="970" fill="#DC2626" opacity="0.08" r="66.0" /><circle cx="996" cy="970" fill="#6B7280" opacity="0.6" r="27.5" /><circle cx="996" cy="970" fill="#6B7280" opacity="0.8" r="13.75" /><path d="M 996,970 Q 1025.4452986546873,983.6449169914611 1059.138359226921,985.0460986439232" fill="none" stroke="#6B7280" stroke-linecap="round" stroke-width="2" /><path d="M 996,970 Q 1004.7684311281514,995.6627003238351 1023.384075577069,1016.8182730803879" fill="none" stroke="#6B7280" stroke-linecap="round" stroke-width="2" /><path d="M 996,970 Q 988.8531959993002,998.2530841985508 993.2173551823092,1028.2195086241534" fill="none" stroke="#6B7280" stroke-linecap="round" stroke-width="2" /><path d="M 996,970 Q 975.4815756401428,977.08040134293 958.5944733030015,992.0312927008998" fill="none" stroke="#6B7280" stroke-linecap="round" stroke-width="2" /><path d="M 996,970 Q 971.4907610446427,958.848260843043 943.5276109920319,957.8795745380402" fill="none" stroke="#6B7280" stroke-linecap="round" stroke-width="2" /><path d="M 996,970 Q 1001.363447347879,942.3978816273018 995.5456822040749,913.7650676198863" fill="none" stroke="#6B7280" stroke-linecap="round" stroke-width="2" /><path d="M 996,970 Q 1015.1354577258962,952.1192828323008 1026.4033449100045,927.3481562704899" fill="none" stroke="#6B7280" stroke-linecap="round" stroke-width="2" /><circle cx="2194" cy="970" fill="#a375f2" opacity="0.6" r="33.0" /><circle cx="2194" cy="970" fill="#7C3AED" opacity="0.8" r="16.5" /><path d="M 2194,970 Q 2233.4375703116084,986.3631583971528 2277.8046046042546,986.4038979019625" fill="none" stroke="#7C3AED" stroke-linecap="round" stroke-width="3" /><path d="M 2194,970 Q 2218.0607110618666,997.656199716514 2252.1510748816895,1014.6495832942869" fill="none" stroke="#7C3AED" stroke-linecap="round" stroke-width="3" /><path d="M 2194,970 Q 2170.6275809136605,1001.9804767546656 2160.8940262510732,1041.9727585392425" fill="none" stroke="#7C3AED" stroke-linecap="round" stroke-width="3" /><path d="M 2194,970 Q 2155.381382395499,990.9401962838294 2126.622716771645,1026.3902428538665" fill="none" stroke="#7C3AED" stroke-linecap="round" stroke-width="3" /><path d="M 2194,970 Q 2164.932350019419,941.288251609637 2125.615247837951,925.2708511612904" fill="none" stroke="#7C3AED" stroke-linecap="round" stroke-width="3" /><path d="M 2194,970 Q 2194.6136099345404,929.2502262194498 2179.0112966032843,889.8812063760544" fill="none" stroke="#7C3AED" stroke-linecap="round" stroke-width="3" /><path d="M 2194,970 Q 2219.592022182665,949.3174688646583 2235.945801961591,919.2907851367365" fill="none" stroke="#7C3AED" stroke-linecap="round" stroke-width="3" /><circle cx="2194" cy="970" fill="#7C3AED" opacity="0.08" r="79.2" /><circle cx="2194" cy="970" fill="#7C3AED" opacity="0.12" r="59.4" /><line stroke="#7C3AED" stroke-width="1.5" x1="2194.0" x2="2197.1412527940447" y1="958.45" y2="959.6657894736843" /><line stroke="#7C3AED" stroke-width="1.5" x1="2194.0" x2="2190.8587472059553" y1="958.45" y2="959.6657894736843" /><line stroke="#7C3AED" stroke-width="1.5" x1="2197.1412527940447" x2="2199.5252987565327" y1="959.6657894736843" y2="960.8815789473684" /><line stroke="#7C3AED" stroke-width="1.5" x1="2190.8587472059553" x2="2188.4747012434673" y1="959.6657894736843" y2="960.8815789473684" /><line stroke="#7C3AED" stroke-width="1.5" x1="2199.5252987565327" x2="2200.5774576538442" y1="960.8815789473684" y2="962.0973684210527" /><line stroke="#7C3AED" stroke-width="1.5" x1="2188.4747012434673" x2="2187.4225423461558" y1="960.8815789473684" y2="962.0973684210527" /><line stroke="#7C3AED" stroke-width="1.5" x1="2200.5774576538442" x2="2200.044103955923" y1="962.0973684210527" y2="963.3131578947368" /><line stroke="#7C3AED" stroke-width="1.5" x1="2187.4225423461558" x2="2187.955896044077" y1="962.0973684210527" y2="963.3131578947368" /><line stroke="#7C3AED" stroke-width="1.5" x1="2200.044103955923" x2="2198.053803903752" y1="963.3131578947368" y2="964.5289473684211" /><line stroke="#7C3AED" stroke-width="1.5" x1="2187.955896044077" x2="2189.946196096248" y1="963.3131578947368" y2="964.5289473684211" /><line stroke="#7C3AED" stroke-width="1.5" x1="2198.053803903752" x2="2195.086324295853" y1="964.5289473684211" y2="965.7447368421052" /><line stroke="#7C3AED" stroke-width="1.5" x1="2189.946196096248" x2="2192.913675704147" y1="964.5289473684211" y2="965.7447368421052" /><line stroke="#7C3AED" stroke-width="1.5" x1="2195.086324295853" x2="2191.856983503249" y1="965.7447368421052" y2="966.9605263157895" /><line stroke="#7C3AED" stroke-width="1.5" x1="2192.913675704147" x2="2196.143016496751" y1="965.7447368421052" y2="966.9605263157895" /><line stroke="#7C3AED" stroke-width="1.5" x1="2191.856983503249" x2="2189.1442221895572" y1="966.9605263157895" y2="968.1763157894737" /><line stroke="#7C3AED" stroke-width="1.5" x1="2196.143016496751" x2="2198.8557778104428" y1="966.9605263157895" y2="968.1763157894737" /><line stroke="#7C3AED" stroke-width="1.5" x1="2189.1442221895572" x2="2187.6019582448002" y1="968.1763157894737" y2="969.3921052631579" /><line stroke="#7C3AED" stroke-width="1.5" x1="2198.8557778104428" x2="2200.3980417551998" y1="968.1763157894737" y2="969.3921052631579" /><line stroke="#7C3AED" stroke-width="1.5" x1="2187.6019582448002" x2="2187.6019582448002" y1="969.3921052631579" y2="970.6078947368421" /><line stroke="#7C3AED" stroke-width="1.5" x1="2200.3980417551998" x2="2200.3980417551998" y1="969.3921052631579" y2="970.6078947368421" /><line stroke="#7C3AED" stroke-width="1.5" x1="2187.6019582448002" x2="2189.1442221895572" y1="970.6078947368421" y2="971.8236842105263" /><line stroke="#7C3AED" stroke-width="1.5" x1="2200.3980417551998" x2="2198.8557778104428" y1="970.6078947368421" y2="971.8236842105263" /><line stroke="#7C3AED" stroke-width="1.5" x1="2189.1442221895572" x2="2191.856983503249" y1="971.8236842105263" y2="973.0394736842105" /><line stroke="#7C3AED" stroke-width="1.5" x1="2198.8557778104428" x2="2196.143016496751" y1="971.8236842105263" y2="973.0394736842105" /><line stroke="#7C3AED" stroke-width="1.5" x1="2191.856983503249" x2="2195.086324295853" y1="973.0394736842105" y2="974.2552631578948" /><line stroke="#7C3AED" stroke-width="1.5" x1="2196.143016496751" x2="2192.913675704147" y1="973.0394736842105" y2="974.2552631578948" /><line stroke="#7C3AED" stroke-width="1.5" x1="2195.086324295853" x2="2198.053803903752" y1="974.2552631578948" y2="975.4710526315789" /><line stroke="#7C3AED" stroke-width="1.5" x1="2192.913675704147" x2="2189.946196096248" y1="974.2552631578948" y2="975.4710526315789" /><line stroke="#7C3AED" stroke-width="1.5" x1="2198.053803903752" x2="2200.044103955923" y1="975.4710526315789" y2="976.6868421052632" /><line stroke="#7C3AED" stroke-width="1.5" x1="2189.946196096248" x2="2187.955896044077" y1="975.4710526315789" y2="976.6868421052632" /><line stroke="#7C3AED" stroke-width="1.5" x1="2200.044103955923" x2="2200.5774576538442" y1="976.6868421052632" y2="977.9026315789473" /><line stroke="#7C3AED" stroke-width="1.5" x1="2187.955896044077" x2="2187.4225423461558" y1="976.6868421052632" y2="977.9026315789473" /><line stroke="#7C3AED" stroke-width="1.5" x1="2200.5774576538442" x2="2199.5252987565327" y1="977.9026315789473" y2="979.1184210526316" /><line stroke="#7C3AED" stroke-width="1.5" x1="2187.4225423461558" x2="2188.4747012434673" y1="977.9026315789473" y2="979.1184210526316" /><line stroke="#7C3AED" stroke-width="1.5" x1="2199.5252987565327" x2="2197.1412527940447" y1="979.1184210526316" y2="980.3342105263157" /><line stroke="#7C3AED" stroke-width="1.5" x1="2188.4747012434673" x2="2190.8587472059553" y1="979.1184210526316" y2="980.3342105263157" /><line stroke="#7C3AED" stroke-width="1.5" x1="2197.1412527940447" x2="2194.0" y1="980.3342105263157" y2="981.55" /><line stroke="#7C3AED" stroke-width="1.5" x1="2190.8587472059553" x2="2194.0" y1="980.3342105263157" y2="981.55" /><circle cx="2194" cy="970" fill="#FDE68A" opacity="0.15" r="24.75" /><circle cx="2194" cy="970" fill="none" opacity="0.5" r="88.0" stroke="#2563EB" stroke-dasharray="4,3" stroke-width="2" /><circle cx="2265.5" cy="942.5" fill="#0D9488" opacity="0.6" r="6" /><line stroke="#9CA3AF" stroke-dasharray="6,3" stroke-width="2" x1="1078.5" x2="2095.0" y1="970" y2="970" /><polygon fill="#9CA3AF" points="2095.0,965 2105.0,970 2095.0,975" /><polygon fill="#9CA3AF" points="1040,787 1028,801 1052,801" /><line stroke="#9CA3AF" stroke-width="4" x1="992.0" x2="1088.0" y1="753" y2="777" /><rect fill="#6B7280" height="8" rx="2" width="30" x="977.0" y="749" /><rect fill="#DC2626" height="8" rx="2" width="30" x="1073.0" y="773" /><text fill="#6B7280" font-family="Helvetica, Arial, sans-serif" font-size="26" text-anchor="middle" x="987.0" y="739">Th1</text><text fill="#6B7280" font-family="Helvetica, Arial, sans-serif" font-size="26" text-anchor="middle" x="1093.0" y="763">Th2</text><polygon fill="#9CA3AF" points="2085,787 2073,801 2097,801" /><line stroke="#2563EB" stroke-width="4" x1="2025.0" x2="2145.0" y1="765" y2="765" /><rect fill="#2563EB" height="8" rx="2" width="30" x="2010.0" y="761" /><rect fill="#2563EB" height="8" rx="2" width="30" x="2130.0" y="761" /><text fill="#6B7280" font-family="Helvetica, Arial, sans-serif" font-size="26" text-anchor="middle" x="2020.0" y="751">Th1</text><text fill="#6B7280" font-family="Helvetica, Arial, sans-serif" font-size="26" text-anchor="middle" x="2150.0" y="751">Th2</text><path d="M 1832,1579 S 1838.6666666666667,1589 1843.6666666666667,1579 S 1850.3333333333333,1569 1855.3333333333333,1579 S 1862.0,1589 1867.0,1579 S 1873.6666666666667,1569 1878.6666666666667,1579 S 1885.3333333333333,1589 1890.3333333333333,1579 S 1897.0,1569 1902.0,1579 " fill="none" opacity="0.7" stroke="#059669" stroke-width="3" /><text fill="#059669" font-family="Helvetica, Arial, sans-serif" font-size="28" opacity="0.8" x="1907" y="1587">gut</text><path d="M 1867,1564 Q 2090.5,1331.5 2194,1084" fill="none" opacity="0.7" stroke="#059669" stroke-dasharray="10,5" stroke-width="6" /><polygon fill="#059669" opacity="0.7" points="2188,1086 2194,1074 2200,1086" /><path d="M 116.36363636363637,482.0 C 113.36363636363637,481.1818181818182 100.81818181818183,481.18181818181813 98.36363636363637,477.09090909090907 C 95.90909090909092,473.0 93.45454545454545,476.0 101.63636363636364,457.45454545454544 C 109.81818181818183,438.9090909090909 134.0909090909091,386.8181818181818 147.45454545454547,365.8181818181818 C 160.81818181818184,344.8181818181818 170.0909090909091,341.0 181.8181818181818,331.45454545454544 C 193.54545454545453,321.9090909090909 209.63636363636363,312.3636363636364 217.8181818181818,308.54545454545456 C 226.0,304.72727272727275 226.8181818181818,311.0 230.9090909090909,308.54545454545456 C 235.0,306.0909090909091 243.1818181818182,309.3636363636364 242.36363636363637,293.8181818181818 C 241.54545454545456,278.27272727272725 226.0,236.0 226.0,215.27272727272728 C 226.0,194.54545454545456 233.0909090909091,182.54545454545453 242.36363636363637,169.45454545454544 C 251.63636363636365,156.36363636363635 276.72727272727275,142.72727272727272 281.6363636363636,136.72727272727272 C 286.5454545454545,130.72727272727272 270.45454545454544,134.27272727272725 271.8181818181818,133.45454545454544 C 273.1818181818182,132.63636363636363 285.72727272727263,133.72727272727272 289.81818181818176,131.8181818181818 C 293.9090909090909,129.9090909090909 284.9090909090909,123.63636363636364 296.3636363636364,122.0 C 307.81818181818187,120.36363636363636 338.3636363636364,116.54545454545455 358.54545454545456,122.0 C 378.72727272727275,127.45454545454545 400.27272727272725,138.63636363636363 417.45454545454544,154.72727272727272 C 434.6363636363636,170.8181818181818 455.3636363636364,207.36363636363637 461.6363636363636,218.54545454545456 C 467.9090909090909,229.72727272727275 456.18181818181813,215.8181818181818 455.09090909090907,221.8181818181818 C 454.0,227.8181818181818 457.0,246.0909090909091 455.09090909090907,254.54545454545453 C 453.18181818181813,263.0 446.09090909090907,273.3636363636363 443.6363636363636,272.5454545454545 C 441.1818181818182,271.7272727272727 442.8181818181818,248.81818181818178 440.3636363636364,249.63636363636363 C 437.90909090909093,250.45454545454547 434.0909090909091,269.54545454545456 428.90909090909093,277.4545454545455 C 423.72727272727275,285.36363636363643 411.45454545454544,288.90909090909093 409.27272727272725,297.0909090909091 C 407.09090909090907,305.2727272727273 417.72727272727275,320.2727272727273 415.8181818181818,326.54545454545456 C 413.9090909090909,332.8181818181818 401.9090909090909,331.1818181818182 397.8181818181818,334.72727272727275 C 393.72727272727275,338.2727272727273 394.0,345.6363636363637 391.27272727272725,347.81818181818187 C 388.5454545454545,350.00000000000006 383.3636363636364,345.909090909091 381.45454545454544,347.81818181818187 C 379.5454545454545,349.72727272727275 384.1818181818182,354.3636363636364 379.8181818181818,359.27272727272725 C 375.45454545454544,364.18181818181813 367.0,378.09090909090907 355.27272727272725,377.27272727272725 C 343.5454545454545,376.45454545454544 319.0,356.8181818181818 309.45454545454544,354.3636363636364 C 299.9090909090909,351.90909090909093 300.45454545454544,360.0909090909091 298.0,362.54545454545456 C 295.54545454545456,365.0 293.0909090909091,364.18181818181824 294.72727272727275,369.0909090909091 C 296.3636363636364,374.0 305.6363636363636,375.0909090909091 307.8181818181818,392.0 C 310.0,408.9090909090909 333.72727272727275,457.18181818181813 307.8181818181818,470.5454545454545 C 281.9090909090909,483.9090909090909 184.27272727272728,470.27272727272725 152.36363636363637,472.1818181818182 C 120.45454545454547,474.0909090909091 122.36363636363637,480.3636363636364 116.36363636363637,482.0 C 110.36363636363637,483.6363636363636 119.36363636363637,482.8181818181818 116.36363636363637,482.0 Z" fill="#DC2626" opacity="0.75" stroke="#DC2626" stroke-width="1.5" /><line opacity="0.5" stroke="#DC2626" stroke-width="1.5" x1="388.9818181818182" x2="398.9818181818182" y1="166.0" y2="161.0" /><line opacity="0.5" stroke="#DC2626" stroke-width="1.5" x1="396.9818181818182" x2="406.9818181818182" y1="172.0" y2="167.0" /><line opacity="0.5" stroke="#DC2626" stroke-width="1.5" x1="404.9818181818182" x2="414.9818181818182" y1="178.0" y2="173.0" /><path d="M 2952.3553719008264,446.0 C 2952.5537190082646,434.297520661157 2954.1404958677685,391.0578512396694 2953.5454545454545,375.78512396694214 C 2952.9504132231405,360.5123966942149 2955.3305785123966,360.5123966942149 2948.785123966942,354.3636363636364 C 2942.2396694214876,348.21487603305786 2921.2148760330574,344.64462809917353 2914.272727272727,338.89256198347107 C 2907.3305785123966,333.1404958677686 2925.380165289256,330.9586776859504 2907.1322314049585,319.8512396694215 C 2888.8842975206608,308.74380165289256 2828.9834710743803,280.1818181818182 2804.785123966942,272.24793388429754 C 2780.586776859504,264.3140495867769 2769.4793388429753,273.0413223140496 2761.9421487603304,272.24793388429754 C 2754.4049586776855,271.4545454545455 2757.380165289256,269.27272727272725 2759.561983471074,267.4876033057851 C 2761.743801652892,265.702479338843 2776.4214876033056,263.71900826446284 2775.0330578512394,261.53719008264466 C 2773.644628099173,259.35537190082647 2752.4214876033056,256.38016528925624 2751.2314049586776,254.39669421487605 C 2750.0413223140495,252.4132231404959 2767.297520661157,251.42148760330576 2767.892561983471,249.63636363636363 C 2768.487603305785,247.8512396694215 2757.380165289256,245.86776859504133 2754.801652892562,243.68595041322314 C 2752.2231404958675,241.50413223140495 2749.0495867768595,237.14049586776858 2752.4214876033056,236.54545454545453 C 2755.7933884297518,235.9504132231405 2773.4462809917354,242.099173553719 2775.0330578512394,240.11570247933884 C 2776.6198347107434,238.13223140495867 2758.96694214876,224.84297520661158 2761.9421487603304,224.64462809917356 C 2764.9173553719006,224.44628099173553 2787.528925619835,239.5206611570248 2792.884297520661,238.92561983471074 C 2798.2396694214876,238.3305785123967 2792.884297520661,224.64462809917356 2794.0743801652893,221.07438016528926 C 2795.2644628099174,217.50413223140495 2797.2479338842977,212.74380165289256 2800.0247933884298,217.50413223140495 C 2802.801652892562,222.26446280991735 2807.1652892561983,243.2892561983471 2810.7355371900826,249.63636363636363 C 2814.305785123967,255.98347107438016 2810.9338842975203,252.21487603305786 2821.4462809917354,255.58677685950414 C 2831.9586776859505,258.9586776859504 2859.528925619835,264.7107438016529 2873.809917355372,269.8677685950413 C 2888.090909090909,275.0247933884297 2899.1983471074377,284.1487603305785 2907.1322314049585,286.5289256198347 C 2915.0661157024792,288.9090909090909 2907.5289256198344,282.1652892561983 2921.4132231404956,284.1487603305785 C 2935.297520661157,286.1322314049587 2978.3388429752063,297.8347107438017 2990.4380165289253,298.4297520661157 C 3002.5371900826444,299.02479338842977 2995.396694214876,293.07438016528926 2994.0082644628096,287.7190082644628 C 2992.6198347107434,282.3636363636363 2986.471074380165,271.45454545454544 2982.1074380165287,266.297520661157 C 2977.743801652892,261.1404958677686 2971.396694214876,261.1404958677686 2967.8264462809916,256.77685950413223 C 2964.2561983471073,252.41322314049586 2960.685950413223,244.08264462809916 2960.685950413223,240.11570247933884 C 2960.685950413223,236.1487603305785 2967.4297520661157,237.73553719008265 2967.8264462809916,232.97520661157026 C 2968.2231404958675,228.21487603305786 2963.462809917355,219.0909090909091 2963.0661157024792,211.55371900826447 C 2962.6694214876034,204.01652892561984 2963.0661157024792,193.70247933884298 2965.4462809917354,187.7520661157025 C 2967.8264462809916,181.801652892562 2975.95867768595,178.82644628099175 2977.3471074380163,175.8512396694215 C 2978.7355371900826,172.87603305785123 2966.0413223140495,172.87603305785126 2973.776859504132,169.900826446281 C 2981.5123966942147,166.92561983471074 3011.462809917355,158.39669421487605 3023.7603305785124,158.0 C 3036.0578512396696,157.60330578512395 3043.1983471074377,167.12396694214874 3047.561983471074,167.5206611570248 C 3051.9256198347107,167.91735537190084 3045.776859504132,155.4214876033058 3049.9421487603304,160.3801652892562 C 3054.1074380165287,165.33884297520663 3069.181818181818,185.57024793388427 3072.553719008264,197.27272727272725 C 3075.9256198347102,208.97520661157023 3069.3801652892557,224.2479338842975 3070.173553719008,230.59504132231405 C 3070.96694214876,236.94214876033058 3076.5206611570247,232.1818181818182 3077.314049586777,235.35537190082644 C 3078.107438016529,238.5289256198347 3080.487603305785,240.9090909090909 3074.9338842975203,249.63636363636363 C 3069.3801652892557,258.3636363636364 3048.553719008264,279.5867768595041 3043.99173553719,287.7190082644628 C 3039.4297520661157,295.8512396694215 3035.0661157024792,299.02479338842977 3047.561983471074,298.4297520661157 C 3060.057851239669,297.8347107438017 3106.272727272727,285.73553719008265 3118.96694214876,284.1487603305785 C 3131.6611570247933,282.56198347107437 3107.462809917355,293.66942148760324 3123.7272727272725,288.9090909090909 C 3139.99173553719,284.1487603305785 3199.2975206611573,262.5289256198347 3216.5537190082646,255.58677685950414 C 3233.809917355372,248.64462809917356 3223.694214876033,253.60330578512398 3227.2644628099174,247.25619834710744 C 3230.8347107438017,240.9090909090909 3235.198347107438,222.26446280991735 3237.9752066115702,217.50413223140495 C 3240.7520661157023,212.74380165289256 3242.7355371900826,215.12396694214877 3243.9256198347107,218.69421487603307 C 3245.115702479339,222.26446280991738 3240.9504132231405,237.93388429752065 3245.115702479339,238.92561983471074 C 3249.280991735537,239.91735537190084 3263.561983471074,226.4297520661157 3268.9173553719006,224.64462809917356 C 3274.272727272727,222.85950413223142 3278.4380165289253,225.43801652892563 3277.2479338842973,228.21487603305786 C 3276.057851239669,230.9917355371901 3260.190082644628,239.7190082644628 3261.776859504132,241.30578512396693 C 3263.363636363636,242.89256198347107 3285.7768595041325,236.34710743801654 3286.7685950413224,237.73553719008265 C 3287.7603305785124,239.12396694214877 3267.7272727272725,246.8595041322314 3267.7272727272725,249.63636363636363 C 3267.7272727272725,252.41322314049586 3287.5619834710747,252.4132231404959 3286.7685950413224,254.39669421487605 C 3285.9752066115702,256.38016528925624 3264.3553719008264,259.35537190082647 3262.96694214876,261.53719008264466 C 3261.578512396694,263.71900826446284 3275.8595041322315,265.702479338843 3278.438016528926,267.4876033057851 C 3281.01652892562,269.27272727272725 3285.9752066115707,271.4545454545455 3278.438016528926,272.24793388429754 C 3270.900826446281,273.0413223140496 3249.4793388429753,267.4876033057851 3233.214876033058,272.24793388429754 C 3216.9504132231405,277.00826446280996 3197.909090909091,292.87603305785126 3180.8512396694214,300.8099173553719 C 3163.7933884297518,308.74380165289256 3140.388429752066,313.504132231405 3130.867768595041,319.8512396694215 C 3121.3471074380163,326.198347107438 3129.677685950413,334.1322314049587 3123.7272727272725,338.89256198347107 C 3117.776859504132,343.65289256198344 3101.314049586777,344.24793388429754 3095.1652892561983,348.41322314049586 C 3089.0165289256197,352.5785123966942 3088.619834710744,357.7355371900826 3086.8347107438017,363.8842975206611 C 3085.0495867768595,370.0330578512396 3084.6528925619837,372.8099173553719 3084.4545454545455,385.305785123967 C 3084.2561983471073,397.80165289256206 3085.8429752066118,431.12396694214874 3085.6446280991736,438.8595041322314 C 3085.4462809917354,446.59504132231405 3099.528925619835,432.5123966942149 3083.2644628099174,431.71900826446284 C 3067.0,430.9256198347108 3009.479338842975,432.90909090909093 2988.057851239669,434.099173553719 C 2966.6363636363635,435.2892561983471 2960.685950413223,436.87603305785126 2954.7355371900826,438.8595041322314 C 2948.785123966942,440.8429752066115 2952.7520661157023,444.8099173553719 2952.3553719008264,446.0 C 2951.9586776859505,447.1900826446281 2952.1570247933882,457.702479338843 2952.3553719008264,446.0 Z" fill="#059669" opacity="0.75" stroke="#059669" stroke-width="1.5" /><line stroke="#059669" stroke-width="1.5" x1="3148.884297520661" x2="3156.884297520661" y1="186.2" y2="186.2" /><line stroke="#059669" stroke-width="1.5" x1="3152.884297520661" x2="3152.884297520661" y1="182.2" y2="190.2" /><line stroke="#059669" stroke-width="1.5" x1="3163.884297520661" x2="3171.884297520661" y1="194.2" y2="194.2" /><line stroke="#059669" stroke-width="1.5" x1="3167.884297520661" x2="3167.884297520661" y1="190.2" y2="198.2" /><line stroke="#059669" stroke-width="1.5" x1="3178.884297520661" x2="3186.884297520661" y1="202.2" y2="202.2" /><line stroke="#059669" stroke-width="1.5" x1="3182.884297520661" x2="3182.884297520661" y1="198.2" y2="206.2" /><path d="M 280,1012 A 170,130 0 1 1 279,1012" fill="none" opacity="0.6" stroke="#DC2626" stroke-width="3" /><text fill="#1F2937" font-family="Helvetica, Arial, sans-serif" font-size="32" text-anchor="middle" x="280.0" y="992.0">Viral RTIs</text><text fill="#1F2937" font-family="Helvetica, Arial, sans-serif" font-size="32" text-anchor="start" x="470.0" y="1142.0">Th2 bias</text><text fill="#1F2937" font-family="Helvetica, Arial, sans-serif" font-size="32" text-anchor="middle" x="280.0" y="1292.0">Remodeling</text><text fill="#1F2937" font-family="Helvetica, Arial, sans-serif" font-size="32" text-anchor="middle" x="92.88652692768048" y="1168.0472266500396">Re-suscept.</text><text fill="#DC2626" font-family="Helvetica, Arial, sans-serif" font-size="34" font-weight="bold" text-anchor="middle" x="280" y="1317">Wheezing/Asthma</text><path d="M 561,756 Q 500.5,716 440,1142" fill="none" opacity="0.75" stroke="#059669" stroke-linecap="round" stroke-width="10" /><polygon fill="#059669" opacity="0.8" points="440,1142 460,1130.0 460,1154.0" /><circle cx="561" cy="756" fill="#059669" opacity="0.2" r="14" /><line opacity="0.8" stroke="#DC2626" stroke-linecap="round" stroke-width="5" x1="445" x2="468" y1="1126" y2="1110" /><line opacity="0.8" stroke="#DC2626" stroke-linecap="round" stroke-width="5" x1="442" x2="466" y1="1156" y2="1174" /><line opacity="0.8" stroke="#DC2626" stroke-linecap="round" stroke-width="5" x1="452" x2="476" y1="1137" y2="1147" /><line opacity="0.8" stroke="#DC2626" stroke-linecap="round" stroke-width="5" x1="448" x2="470" y1="1146" y2="1160" /><text fill="#059669" font-family="Helvetica, Arial, sans-serif" font-size="26" font-style="italic" font-weight="bold" opacity="0.7" x="465" y="1187">break</text><text fill="#1F2937" font-family="Helvetica, Arial, sans-serif" font-size="34" font-weight="bold" text-anchor="middle" x="3019" y="863">Clinical evidence</text><rect fill="#2563EB" height="42" opacity="0.85" rx="4" ry="4" width="448" x="2749" y="873" /><text fill="white" font-family="Helvetica, Arial, sans-serif" font-size="30" font-weight="bold" x="2757" y="903.24">18 RCTs</text><rect fill="#0D9488" height="42" opacity="0.85" rx="4" ry="4" width="246" x="2749" y="929" /><text fill="white" font-family="Helvetica, Arial, sans-serif" font-size="30" font-weight="bold" x="2757" y="959.24">5 RCTs</text><rect fill="#7C3AED" height="42" opacity="0.85" rx="4" ry="4" width="134" x="2749" y="985" /><text fill="white" font-family="Helvetica, Arial, sans-serif" font-size="30" font-weight="bold" x="2757" y="1015.24">1 RCT</text><rect fill="#059669" height="42" opacity="0.85" rx="4" ry="4" width="53" x="2749" y="1041" /><text fill="#6B7280" font-family="Helvetica, Arial, sans-serif" font-size="30" x="2808" y="1071.24">Preclin.</text><rect fill="#2563EB" height="34" rx="3" width="34" x="1342" y="1444" /><text fill="#1F2937" font-family="Helvetica, Arial, sans-serif" font-size="36" x="1384" y="1469.5">OM-85</text><rect fill="#0D9488" height="34" rx="3" width="34" x="1496" y="1444" /><text fill="#1F2937" font-family="Helvetica, Arial, sans-serif" font-size="36" x="1538" y="1469.5">PMBL</text><rect fill="#7C3AED" height="34" rx="3" width="34" x="1650" y="1444" /><text fill="#1F2937" font-family="Helvetica, Arial, sans-serif" font-size="36" x="1692" y="1469.5">MV130</text><rect fill="#059669" height="34" rx="3" width="34" x="1804" y="1444" /><text fill="#1F2937" font-family="Helvetica, Arial, sans-serif" font-size="36" x="1846" y="1469.5">CRL1505</text><text fill="#9CA3AF" font-family="Helvetica, Arial, sans-serif" font-size="20" text-anchor="middle" transform="rotate(-90, 575, 256)" x="575" y="256">Lumen</text><text fill="#9CA3AF" font-family="Helvetica, Arial, sans-serif" font-size="20" text-anchor="middle" transform="rotate(-90, 575, 508)" x="575" y="508">Epithelium</text><text fill="#9CA3AF" font-family="Helvetica, Arial, sans-serif" font-size="20" text-anchor="middle" transform="rotate(-90, 575, 878)" x="575" y="878">Lamina propria</text><text fill="#9CA3AF" font-family="Helvetica, Arial, sans-serif" font-size="20" text-anchor="middle" transform="rotate(-90, 575, 1213)" x="575" y="1213">Muscle</text><text fill="#DC2626" font-family="Helvetica, Arial, sans-serif" font-size="28" font-weight="bold" opacity="0.7" x="581" y="156">Pathological</text><text fill="#059669" font-family="Helvetica, Arial, sans-serif" font-size="28" font-weight="bold" opacity="0.7" text-anchor="end" x="2719" y="156">Protected</text></svg>