<?xml version="1.0" encoding="utf-8" ?>
<svg baseProfile="full" height="1680px" version="1.1" viewBox="0 0 3300 1680" width="3300px" xmlns="http://www.w3.org/2000/svg" xmlns:ev="http://www.w3.org/2001/xml-events" xmlns:xlink="http://www.w3.org/1999/xlink"><defs /><rect fill="#FAFAFA" height="1680" width="3300" x="0" y="0" /><rect fill="#FEF2F2" height="1680" opacity="0.6" width="891" x="0" y="0" /><rect fill="#FFFBEB" height="1680" opacity="0.2" width="1518" x="891" y="0" /><rect fill="#ECFDF5" height="1680" opacity="0.5" width="891" x="2409" y="0" /><rect fill="#F87171" height="32.0" opacity="0.85" rx="3" ry="3" stroke="#FCA5A5" stroke-width="1.5" width="78.1" x="40.0" y="756.0" /><rect fill="#F87171" height="32.0" opacity="0.85" rx="3" ry="3" stroke="#FCA5A5" stroke-width="1.5" width="78.1" x="121.1" y="756.0" /><rect fill="#F87171" height="32.0" opacity="0.85" rx="3" ry="3" stroke="#FCA5A5" stroke-width="1.5" width="78.1" x="202.2" y="756.0" /><rect fill="#F87171" height="32.0" opacity="0.85" rx="3" ry="3" stroke="#FCA5A5" stroke-width="1.5" width="78.1" x="364.4" y="756.0" /><rect fill="#F87171" height="32.0" opacity="0.85" rx="3" ry="3" stroke="#FCA5A5" stroke-width="1.5" width="78.1" x="445.5" y="756.0" /><rect fill="#F87171" height="32.0" opacity="0.85" rx="3" ry="3" stroke="#FCA5A5" stroke-width="1.5" width="78.1" x="526.5999999999999" y="756.0" /><rect fill="#F87171" height="32.0" opacity="0.85" rx="3" ry="3" stroke="#FCA5A5" stroke-width="1.5" width="78.1" x="688.8" y="756.0" /><rect fill="#F87171" height="32.0" opacity="0.85" rx="3" ry="3" stroke="#FCA5A5" stroke-width="1.5" width="78.1" x="769.9" y="756.0" /><rect fill="#F87171" height="32.0" opacity="0.85" rx="3" ry="3" stroke="#FCA5A5" stroke-width="1.5" width="78.1" x="80.55" y="791.0" /><rect fill="#F87171" height="32.0" opacity="0.85" rx="3" ry="3" stroke="#FCA5A5" stroke-width="1.5" width="78.1" x="161.64999999999998" y="791.0" /><rect fill="#F87171" height="32.0" opacity="0.85" rx="3" ry="3" stroke="#FCA5A5" stroke-width="1.5" width="78.1" x="323.84999999999997" y="791.0" /><rect fill="#F87171" height="32.0" opacity="0.85" rx="3" ry="3" stroke="#FCA5A5" stroke-width="1.5" width="78.1" x="404.95" y="791.0" /><rect fill="#F87171" height="32.0" opacity="0.85" rx="3" ry="3" stroke="#FCA5A5" stroke-width="1.5" width="78.1" x="567.1499999999999" y="791.0" /><rect fill="#F87171" height="32.0" opacity="0.85" rx="3" ry="3" stroke="#FCA5A5" stroke-width="1.5" width="78.1" x="648.2499999999999" y="791.0" /><rect fill="#F87171" height="32.0" opacity="0.85" rx="3" ry="3" stroke="#FCA5A5" stroke-width="1.5" width="78.1" x="40.0" y="826.0" /><rect fill="#F87171" height="32.0" opacity="0.85" rx="3" ry="3" stroke="#FCA5A5" stroke-width="1.5" width="78.1" x="202.2" y="826.0" /><rect fill="#F87171" height="32.0" opacity="0.85" rx="3" ry="3" stroke="#FCA5A5" stroke-width="1.5" width="78.1" x="283.29999999999995" y="826.0" /><rect fill="#F87171" height="32.0" opacity="0.85" rx="3" ry="3" stroke="#FCA5A5" stroke-width="1.5" width="78.1" x="364.4" y="826.0" /><rect fill="#F87171" height="32.0" opacity="0.85" rx="3" ry="3" stroke="#FCA5A5" stroke-width="1.5" width="78.1" x="445.5" y="826.0" /><rect fill="#F87171" height="32.0" opacity="0.85" rx="3" ry="3" stroke="#FCA5A5" stroke-width="1.5" width="78.1" x="607.6999999999999" y="826.0" /><rect fill="#F87171" height="32.0" opacity="0.85" rx="3" ry="3" stroke="#FCA5A5" stroke-width="1.5" width="78.1" x="688.8" y="826.0" /><rect fill="#F87171" height="32.0" opacity="0.85" rx="3" ry="3" stroke="#FCA5A5" stroke-width="1.5" width="78.1" x="769.9" y="826.0" /><rect fill="#F87171" height="32.0" opacity="0.85" rx="3" ry="3" stroke="#FCA5A5" stroke-width="1.5" width="78.1" x="80.55" y="861.0" /><rect fill="#F87171" height="32.0" opacity="0.85" rx="3" ry="3" stroke="#FCA5A5" stroke-width="1.5" width="78.1" x="161.64999999999998" y="861.0" /><rect fill="#F87171" height="32.0" opacity="0.85" rx="3" ry="3" stroke="#FCA5A5" stroke-width="1.5" width="78.1" x="242.75" y="861.0" /><rect fill="#F87171" height="32.0" opacity="0.85" rx="3" ry="3" stroke="#FCA5A5" stroke-width="1.5" width="78.1" x="323.84999999999997" y="861.0" /><rect fill="#F87171" height="32.0" opacity="0.85" rx="3" ry="3" stroke="#FCA5A5" stroke-width="1.5" width="78.1" x="486.05" y="861.0" /><rect fill="#F87171" height="32.0" opacity="0.85" rx="3" ry="3" stroke="#FCA5A5" stroke-width="1.5" width="78.1" x="567.1499999999999" y="861.0" /><rect fill="#F87171" height="32.0" opacity="0.85" rx="3" ry="3" stroke="#FCA5A5" stroke-width="1.5" width="78.1" x="648.2499999999999" y="861.0" /><rect fill="#F87171" height="32.0" opacity="0.85" rx="3" ry="3" stroke="#FCA5A5" stroke-width="1.5" width="78.1" x="729.3499999999999" y="861.0" /><rect fill="#F87171" height="24.5" opacity="0.5" rx="3" ry="3" stroke="#FCA5A5" stroke-width="1" transform="rotate(14, 651.0849999999999, 738.25)" width="56.76999999999999" x="622.6999999999999" y="726" /><rect fill="#F87171" height="24.5" opacity="0.5" rx="3" ry="3" stroke="#FCA5A5" stroke-width="1" transform="rotate(19, 245.58499999999998, 853.25)" width="56.76999999999999" x="217.2" y="841.0" /><rect fill="#F87171" height="24.5" opacity="0.5" rx="3" ry="3" stroke="#FCA5A5" stroke-width="1" transform="rotate(12, 164.48499999999999, 888.25)" width="56.76999999999999" x="136.1" y="876.0" /><rect fill="#F87171" height="24.5" opacity="0.5" rx="3" ry="3" stroke="#FCA5A5" stroke-width="1" transform="rotate(-7, 407.78499999999997, 923.25)" width="56.76999999999999" x="379.4" y="911.0" /><circle cx="323.84999999999997" cy="773.5" fill="#DC2626" opacity="0.85" r="18" /><line stroke="#DC2626" stroke-width="2.5" x1="341.84999999999997" x2="351.84999999999997" y1="773.5" y2="773.5" /><circle cx="351.84999999999997" cy="773.5" fill="#DC2626" r="3.5" /><line stroke="#DC2626" stroke-width="2.5" x1="336.5779220613578" x2="343.6489898732233" y1="786.2279220613578" y2="793.2989898732234" /><circle cx="343.6489898732233" cy="793.2989898732234" fill="#DC2626" r="3.5" /><line stroke="#DC2626" stroke-width="2.5" x1="323.84999999999997" x2="323.84999999999997" y1="791.5" y2="801.5" /><circle cx="323.84999999999997" cy="801.5" fill="#DC2626" r="3.5" /><line stroke="#DC2626" stroke-width="2.5" x1="311.1220779386421" x2="304.05101012677665" y1="786.2279220613578" y2="793.2989898732234" /><circle cx="304.05101012677665" cy="793.2989898732234" fill="#DC2626" r="3.5" /><line stroke="#DC2626" stroke-width="2.5" x1="305.84999999999997" x2="295.84999999999997" y1="773.5" y2="773.5" /><circle cx="295.84999999999997" cy="773.5" fill="#DC2626" r="3.5" /><line stroke="#DC2626" stroke-width="2.5" x1="311.1220779386421" x2="304.05101012677665" y1="760.7720779386422" y2="753.7010101267766" /><circle cx="304.05101012677665" cy="753.7010101267766" fill="#DC2626" r="3.5" /><line stroke="#DC2626" stroke-width="2.5" x1="323.84999999999997" x2="323.84999999999997" y1="755.5" y2="745.5" /><circle cx="323.84999999999997" cy="745.5" fill="#DC2626" r="3.5" /><line stroke="#DC2626" stroke-width="2.5" x1="336.5779220613578" x2="343.6489898732233" y1="760.7720779386422" y2="753.7010101267766" /><circle cx="343.6489898732233" cy="753.7010101267766" fill="#DC2626" r="3.5" /><circle cx="648.25" cy="773.5" fill="#DC2626" opacity="0.85" r="18" /><line stroke="#DC2626" stroke-width="2.5" x1="666.25" x2="676.25" y1="773.5" y2="773.5" /><circle cx="676.25" cy="773.5" fill="#DC2626" r="3.5" /><line stroke="#DC2626" stroke-width="2.5" x1="660.9779220613578" x2="668.0489898732234" y1="786.2279220613578" y2="793.2989898732234" /><circle cx="668.0489898732234" cy="793.2989898732234" fill="#DC2626" r="3.5" /><line stroke="#DC2626" stroke-width="2.5" x1="648.25" x2="648.25" y1="791.5" y2="801.5" /><circle cx="648.25" cy="801.5" fill="#DC2626" r="3.5" /><line stroke="#DC2626" stroke-width="2.5" x1="635.5220779386422" x2="628.4510101267766" y1="786.2279220613578" y2="793.2989898732234" /><circle cx="628.4510101267766" cy="793.2989898732234" fill="#DC2626" r="3.5" /><line stroke="#DC2626" stroke-width="2.5" x1="630.25" x2="620.25" y1="773.5" y2="773.5" /><circle cx="620.25" cy="773.5" fill="#DC2626" r="3.5" /><line stroke="#DC2626" stroke-width="2.5" x1="635.5220779386422" x2="628.4510101267766" y1="760.7720779386422" y2="753.7010101267766" /><circle cx="628.4510101267766" cy="753.7010101267766" fill="#DC2626" r="3.5" /><line stroke="#DC2626" stroke-width="2.5" x1="648.25" x2="648.25" y1="755.5" y2="745.5" /><circle cx="648.25" cy="745.5" fill="#DC2626" r="3.5" /><line stroke="#DC2626" stroke-width="2.5" x1="660.9779220613578" x2="668.0489898732234" y1="760.7720779386422" y2="753.7010101267766" /><circle cx="668.0489898732234" cy="753.7010101267766" fill="#DC2626" r="3.5" /><circle cx="242.75" cy="808.5" fill="#DC2626" opacity="0.85" r="18" /><line stroke="#DC2626" stroke-width="2.5" x1="260.75" x2="270.75" y1="808.5" y2="808.5" /><circle cx="270.75" cy="808.5" fill="#DC2626" r="3.5" /><line stroke="#DC2626" stroke-width="2.5" x1="255.47792206135784" x2="262.5489898732233" y1="821.2279220613578" y2="828.2989898732234" /><circle cx="262.5489898732233" cy="828.2989898732234" fill="#DC2626" r="3.5" /><line stroke="#DC2626" stroke-width="2.5" x1="242.75" x2="242.75" y1="826.5" y2="836.5" /><circle cx="242.75" cy="836.5" fill="#DC2626" r="3.5" /><line stroke="#DC2626" stroke-width="2.5" x1="230.02207793864216" x2="222.95101012677668" y1="821.2279220613578" y2="828.2989898732234" /><circle cx="222.95101012677668" cy="828.2989898732234" fill="#DC2626" r="3.5" /><line stroke="#DC2626" stroke-width="2.5" x1="224.75" x2="214.75" y1="808.5" y2="808.5" /><circle cx="214.75" cy="808.5" fill="#DC2626" r="3.5" /><line stroke="#DC2626" stroke-width="2.5" x1="230.02207793864216" x2="222.95101012677668" y1="795.7720779386422" y2="788.7010101267766" /><circle cx="222.95101012677668" cy="788.7010101267766" fill="#DC2626" r="3.5" /><line stroke="#DC2626" stroke-width="2.5" x1="242.75" x2="242.75" y1="790.5" y2="780.5" /><circle cx="242.75" cy="780.5" fill="#DC2626" r="3.5" /><line stroke="#DC2626" stroke-width="2.5" x1="255.47792206135784" x2="262.5489898732233" y1="795.7720779386422" y2="788.7010101267766" /><circle cx="262.5489898732233" cy="788.7010101267766" fill="#DC2626" r="3.5" /><rect fill="#D4A574" height="32.0" opacity="0.7" rx="3" ry="3" stroke="#C4956A" stroke-width="1.5" width="101.14285714285714" x="921.0" y="756.0" /><rect fill="#D4A574" height="32.0" opacity="0.7" rx="3" ry="3" stroke="#C4956A" stroke-width="1.5" width="101.14285714285714" x="1025.142857142857" y="756.0" /><rect fill="#0D9488" height="32.0" opacity="0.85" rx="3" ry="3" stroke="#0D9488" stroke-width="1.5" width="101.14285714285714" x="1129.2857142857142" y="756.0" /><rect fill="#D4A574" height="32.0" opacity="0.7" rx="3" ry="3" stroke="#C4956A" stroke-width="1.5" width="101.14285714285714" x="1337.5714285714284" y="756.0" /><rect fill="#D4A574" height="32.0" opacity="0.7" rx="3" ry="3" stroke="#C4956A" stroke-width="1.5" width="101.14285714285714" x="1441.7142857142858" y="756.0" /><rect fill="#D4A574" height="32.0" opacity="0.7" rx="3" ry="3" stroke="#C4956A" stroke-width="1.5" width="101.14285714285714" x="1545.857142857143" y="756.0" /><rect fill="#D4A574" height="32.0" opacity="0.7" rx="3" ry="3" stroke="#C4956A" stroke-width="1.5" width="101.14285714285714" x="1650.0" y="756.0" /><rect fill="#D4A574" height="32.0" opacity="0.7" rx="3" ry="3" stroke="#C4956A" stroke-width="1.5" width="101.14285714285714" x="1754.142857142857" y="756.0" /><rect fill="#D4A574" height="32.0" opacity="0.7" rx="3" ry="3" stroke="#C4956A" stroke-width="1.5" width="101.14285714285714" x="1858.2857142857142" y="756.0" /><rect fill="#D4A574" height="32.0" opacity="0.7" rx="3" ry="3" stroke="#C4956A" stroke-width="1.5" width="101.14285714285714" x="1962.4285714285713" y="756.0" /><rect fill="#D4A574" height="32.0" opacity="0.7" rx="3" ry="3" stroke="#C4956A" stroke-width="1.5" width="101.14285714285714" x="2170.714285714286" y="756.0" /><rect fill="#D4A574" height="32.0" opacity="0.7" rx="3" ry="3" stroke="#C4956A" stroke-width="1.5" width="101.14285714285714" x="2274.857142857143" y="756.0" /><rect fill="#D4A574" height="32.0" opacity="0.7" rx="3" ry="3" stroke="#C4956A" stroke-width="1.5" width="101.14285714285714" x="973.0714285714286" y="791.0" /><rect fill="#D4A574" height="32.0" opacity="0.7" rx="3" ry="3" stroke="#C4956A" stroke-width="1.5" width="101.14285714285714" x="1077.2142857142858" y="791.0" /><rect fill="#D4A574" height="32.0" opacity="0.7" rx="3" ry="3" stroke="#C4956A" stroke-width="1.5" width="101.14285714285714" x="1181.357142857143" y="791.0" /><rect fill="#D4A574" height="32.0" opacity="0.7" rx="3" ry="3" stroke="#C4956A" stroke-width="1.5" width="101.14285714285714" x="1285.5000000000002" y="791.0" /><rect fill="#0D9488" height="32.0" opacity="0.85" rx="3" ry="3" stroke="#0D9488" stroke-width="1.5" width="101.14285714285714" x="1389.642857142857" y="791.0" /><rect fill="#D4A574" height="32.0" opacity="0.7" rx="3" ry="3" stroke="#C4956A" stroke-width="1.5" width="101.14285714285714" x="1493.7857142857144" y="791.0" /><rect fill="#D4A574" height="32.0" opacity="0.7" rx="3" ry="3" stroke="#C4956A" stroke-width="1.5" width="101.14285714285714" x="1597.9285714285716" y="791.0" /><rect fill="#0D9488" height="32.0" opacity="0.85" rx="3" ry="3" stroke="#0D9488" stroke-width="1.5" width="101.14285714285714" x="1702.0714285714287" y="791.0" /><rect fill="#D4A574" height="32.0" opacity="0.7" rx="3" ry="3" stroke="#C4956A" stroke-width="1.5" width="101.14285714285714" x="1910.357142857143" y="791.0" /><rect fill="#D4A574" height="32.0" opacity="0.7" rx="3" ry="3" stroke="#C4956A" stroke-width="1.5" width="101.14285714285714" x="2014.5" y="791.0" /><rect fill="#D4A574" height="32.0" opacity="0.7" rx="3" ry="3" stroke="#C4956A" stroke-width="1.5" width="101.14285714285714" x="2118.642857142857" y="791.0" /><rect fill="#D4A574" height="32.0" opacity="0.7" rx="3" ry="3" stroke="#C4956A" stroke-width="1.5" width="101.14285714285714" x="2222.785714285714" y="791.0" /><rect fill="#D4A574" height="32.0" opacity="0.7" rx="3" ry="3" stroke="#C4956A" stroke-width="1.5" width="101.14285714285714" x="921.0" y="826.0" /><rect fill="#D4A574" height="32.0" opacity="0.7" rx="3" ry="3" stroke="#C4956A" stroke-width="1.5" width="101.14285714285714" x="1129.2857142857142" y="826.0" /><rect fill="#0D9488" height="32.0" opacity="0.85" rx="3" ry="3" stroke="#0D9488" stroke-width="1.5" width="101.14285714285714" x="1233.4285714285716" y="826.0" /><rect fill="#D4A574" height="32.0" opacity="0.7" rx="3" ry="3" stroke="#C4956A" stroke-width="1.5" width="101.14285714285714" x="1337.5714285714284" y="826.0" /><rect fill="#D4A574" height="32.0" opacity="0.7" rx="3" ry="3" stroke="#C4956A" stroke-width="1.5" width="101.14285714285714" x="1545.857142857143" y="826.0" /><rect fill="#D4A574" height="32.0" opacity="0.7" rx="3" ry="3" stroke="#C4956A" stroke-width="1.5" width="101.14285714285714" x="1650.0" y="826.0" /><rect fill="#0D9488" height="32.0" opacity="0.85" rx="3" ry="3" stroke="#0D9488" stroke-width="1.5" width="101.14285714285714" x="1754.142857142857" y="826.0" /><rect fill="#D4A574" height="32.0" opacity="0.7" rx="3" ry="3" stroke="#C4956A" stroke-width="1.5" width="101.14285714285714" x="1858.2857142857142" y="826.0" /><rect fill="#D4A574" height="32.0" opacity="0.7" rx="3" ry="3" stroke="#C4956A" stroke-width="1.5" width="101.14285714285714" x="1962.4285714285713" y="826.0" /><rect fill="#D4A574" height="32.0" opacity="0.7" rx="3" ry="3" stroke="#C4956A" stroke-width="1.5" width="101.14285714285714" x="2066.5714285714284" y="826.0" /><rect fill="#D4A574" height="32.0" opacity="0.7" rx="3" ry="3" stroke="#C4956A" stroke-width="1.5" width="101.14285714285714" x="2170.714285714286" y="826.0" /><rect fill="#D4A574" height="32.0" opacity="0.7" rx="3" ry="3" stroke="#C4956A" stroke-width="1.5" width="101.14285714285714" x="2274.857142857143" y="826.0" /><rect fill="#D4A574" height="32.0" opacity="0.7" rx="3" ry="3" stroke="#C4956A" stroke-width="1.5" width="101.14285714285714" x="973.0714285714286" y="861.0" /><rect fill="#0D9488" height="32.0" opacity="0.85" rx="3" ry="3" stroke="#0D9488" stroke-width="1.5" width="101.14285714285714" x="1077.2142857142858" y="861.0" /><rect fill="#D4A574" height="32.0" opacity="0.7" rx="3" ry="3" stroke="#C4956A" stroke-width="1.5" width="101.14285714285714" x="1181.357142857143" y="861.0" /><rect fill="#D4A574" height="32.0" opacity="0.7" rx="3" ry="3" stroke="#C4956A" stroke-width="1.5" width="101.14285714285714" x="1285.5000000000002" y="861.0" /><rect fill="#D4A574" height="32.0" opacity="0.7" rx="3" ry="3" stroke="#C4956A" stroke-width="1.5" width="101.14285714285714" x="1389.642857142857" y="861.0" /><rect fill="#D4A574" height="32.0" opacity="0.7" rx="3" ry="3" stroke="#C4956A" stroke-width="1.5" width="101.14285714285714" x="1493.7857142857144" y="861.0" /><rect fill="#D4A574" height="32.0" opacity="0.7" rx="3" ry="3" stroke="#C4956A" stroke-width="1.5" width="101.14285714285714" x="1597.9285714285716" y="861.0" /><rect fill="#D4A574" height="32.0" opacity="0.7" rx="3" ry="3" stroke="#C4956A" stroke-width="1.5" width="101.14285714285714" x="1702.0714285714287" y="861.0" /><rect fill="#D4A574" height="32.0" opacity="0.7" rx="3" ry="3" stroke="#C4956A" stroke-width="1.5" width="101.14285714285714" x="1806.2142857142858" y="861.0" /><rect fill="#D4A574" height="32.0" opacity="0.7" rx="3" ry="3" stroke="#C4956A" stroke-width="1.5" width="101.14285714285714" x="1910.357142857143" y="861.0" /><rect fill="#D4A574" height="32.0" opacity="0.7" rx="3" ry="3" stroke="#C4956A" stroke-width="1.5" width="101.14285714285714" x="2118.642857142857" y="861.0" /><rect fill="#D4A574" height="32.0" opacity="0.7" rx="3" ry="3" stroke="#C4956A" stroke-width="1.5" width="101.14285714285714" x="2222.785714285714" y="861.0" /><rect fill="#34D399" height="32.0" opacity="0.85" rx="3" ry="3" stroke="#6EE7B7" stroke-width="1.5" width="78.1" x="2449.0" y="756.0" /><rect fill="#34D399" height="32.0" opacity="0.85" rx="3" ry="3" stroke="#6EE7B7" stroke-width="1.5" width="78.1" x="2530.1" y="756.0" /><rect fill="#34D399" height="32.0" opacity="0.85" rx="3" ry="3" stroke="#6EE7B7" stroke-width="1.5" width="78.1" x="2611.2" y="756.0" /><rect fill="#34D399" height="32.0" opacity="0.85" rx="3" ry="3" stroke="#6EE7B7" stroke-width="1.5" width="78.1" x="2692.3" y="756.0" /><rect fill="#34D399" height="32.0" opacity="0.85" rx="3" ry="3" stroke="#6EE7B7" stroke-width="1.5" width="78.1" x="2773.4" y="756.0" /><rect fill="#34D399" height="32.0" opacity="0.85" rx="3" ry="3" stroke="#6EE7B7" stroke-width="1.5" width="78.1" x="2854.5" y="756.0" /><rect fill="#34D399" height="32.0" opacity="0.85" rx="3" ry="3" stroke="#6EE7B7" stroke-width="1.5" width="78.1" x="2935.6" y="756.0" /><rect fill="#34D399" height="32.0" opacity="0.85" rx="3" ry="3" stroke="#6EE7B7" stroke-width="1.5" width="78.1" x="3016.7" y="756.0" /><rect fill="#34D399" height="32.0" opacity="0.85" rx="3" ry="3" stroke="#6EE7B7" stroke-width="1.5" width="78.1" x="3097.8" y="756.0" /><rect fill="#34D399" height="32.0" opacity="0.85" rx="3" ry="3" stroke="#6EE7B7" stroke-width="1.5" width="78.1" x="3178.9" y="756.0" /><rect fill="#34D399" height="32.0" opacity="0.85" rx="3" ry="3" stroke="#6EE7B7" stroke-width="1.5" width="78.1" x="2489.55" y="791.0" /><rect fill="#34D399" height="32.0" opacity="0.85" rx="3" ry="3" stroke="#6EE7B7" stroke-width="1.5" width="78.1" x="2570.65" y="791.0" /><rect fill="#34D399" height="32.0" opacity="0.85" rx="3" ry="3" stroke="#6EE7B7" stroke-width="1.5" width="78.1" x="2651.75" y="791.0" /><rect fill="#34D399" height="32.0" opacity="0.85" rx="3" ry="3" stroke="#6EE7B7" stroke-width="1.5" width="78.1" x="2732.8500000000004" y="791.0" /><rect fill="#34D399" height="32.0" opacity="0.85" rx="3" ry="3" stroke="#6EE7B7" stroke-width="1.5" width="78.1" x="2813.9500000000003" y="791.0" /><rect fill="#34D399" height="32.0" opacity="0.85" rx="3" ry="3" stroke="#6EE7B7" stroke-width="1.5" width="78.1" x="2895.05" y="791.0" /><rect fill="#34D399" height="32.0" opacity="0.85" rx="3" ry="3" stroke="#6EE7B7" stroke-width="1.5" width="78.1" x="2976.15" y="791.0" /><rect fill="#34D399" height="32.0" opacity="0.85" rx="3" ry="3" stroke="#6EE7B7" stroke-width="1.5" width="78.1" x="3057.25" y="791.0" /><rect fill="#34D399" height="32.0" opacity="0.85" rx="3" ry="3" stroke="#6EE7B7" stroke-width="1.5" width="78.1" x="3138.3500000000004" y="791.0" /><rect fill="#34D399" height="32.0" opacity="0.85" rx="3" ry="3" stroke="#6EE7B7" stroke-width="1.5" width="78.1" x="2449.0" y="826.0" /><rect fill="#34D399" height="32.0" opacity="0.85" rx="3" ry="3" stroke="#6EE7B7" stroke-width="1.5" width="78.1" x="2530.1" y="826.0" /><rect fill="#34D399" height="32.0" opacity="0.85" rx="3" ry="3" stroke="#6EE7B7" stroke-width="1.5" width="78.1" x="2611.2" y="826.0" /><rect fill="#34D399" height="32.0" opacity="0.85" rx="3" ry="3" stroke="#6EE7B7" stroke-width="1.5" width="78.1" x="2692.3" y="826.0" /><rect fill="#34D399" height="32.0" opacity="0.85" rx="3" ry="3" stroke="#6EE7B7" stroke-width="1.5" width="78.1" x="2773.4" y="826.0" /><rect fill="#34D399" height="32.0" opacity="0.85" rx="3" ry="3" stroke="#6EE7B7" stroke-width="1.5" width="78.1" x="2854.5" y="826.0" /><rect fill="#34D399" height="32.0" opacity="0.85" rx="3" ry="3" stroke="#6EE7B7" stroke-width="1.5" width="78.1" x="2935.6" y="826.0" /><rect fill="#34D399" height="32.0" opacity="0.85" rx="3" ry="3" stroke="#6EE7B7" stroke-width="1.5" width="78.1" x="3016.7" y="826.0" /><rect fill="#34D399" height="32.0" opacity="0.85" rx="3" ry="3" stroke="#6EE7B7" stroke-width="1.5" width="78.1" x="3097.8" y="826.0" /><rect fill="#34D399" height="32.0" opacity="0.85" rx="3" ry="3" stroke="#6EE7B7" stroke-width="1.5" width="78.1" x="3178.9" y="826.0" /><rect fill="#34D399" height="32.0" opacity="0.85" rx="3" ry="3" stroke="#6EE7B7" stroke-width="1.5" width="78.1" x="2489.55" y="861.0" /><rect fill="#34D399" height="32.0" opacity="0.85" rx="3" ry="3" stroke="#6EE7B7" stroke-width="1.5" width="78.1" x="2570.65" y="861.0" /><rect fill="#34D399" height="32.0" opacity="0.85" rx="3" ry="3" stroke="#6EE7B7" stroke-width="1.5" width="78.1" x="2651.75" y="861.0" /><rect fill="#34D399" height="32.0" opacity="0.85" rx="3" ry="3" stroke="#6EE7B7" stroke-width="1.5" width="78.1" x="2732.8500000000004" y="861.0" /><rect fill="#34D399" height="32.0" opacity="0.85" rx="3" ry="3" stroke="#6EE7B7" stroke-width="1.5" width="78.1" x="2813.9500000000003" y="861.0" /><rect fill="#34D399" height="32.0" opacity="0.85" rx="3" ry="3" stroke="#6EE7B7" stroke-width="1.5" width="78.1" x="2895.05" y="861.0" /><rect fill="#34D399" height="32.0" opacity="0.85" rx="3" ry="3" stroke="#6EE7B7" stroke-width="1.5" width="78.1" x="2976.15" y="861.0" /><rect fill="#34D399" height="32.0" opacity="0.85" rx="3" ry="3" stroke="#6EE7B7" stroke-width="1.5" width="78.1" x="3057.25" y="861.0" /><rect fill="#34D399" height="32.0" opacity="0.85" rx="3" ry="3" stroke="#6EE7B7" stroke-width="1.5" width="78.1" x="3138.3500000000004" y="861.0" /><ellipse cx="445" cy="1209" fill="#FEE2E2" opacity="0.3" rx="160" ry="120" stroke="none" /><circle cx="445.0" cy="1329.0" fill="#991B1B" opacity="0.8" r="6" /><text style="font-family:Arial;font-size:28px;fill:#991B1B;text-anchor:middle;font-weight:bold" x="445.0" y="1313.0">Viral RTIs</text><circle cx="605.0" cy="1209.0" fill="#991B1B" opacity="0.8" r="6" /><text style="font-family:Arial;font-size:28px;fill:#991B1B;text-anchor:start;font-weight:bold" x="617.0" y="1216.0">Th2 bias</text><circle cx="445.0" cy="1089.0" fill="#991B1B" opacity="0.8" r="6" /><text style="font-family:Arial;font-size:28px;fill:#991B1B;text-anchor:middle;font-weight:bold" x="445.0" y="1113.0">Remodeling</text><circle cx="285.0" cy="1209.0" fill="#991B1B" opacity="0.8" r="6" /><text style="font-family:Arial;font-size:28px;fill:#991B1B;text-anchor:end;font-weight:bold" x="275.0" y="1216.0">Re-susceptibility</text><path d="M 472.78370842670887,1090.8230696385351 A 160,120 0 0,1 602.5692404819533,1188.1622186799684" fill="none" opacity="0.5" stroke="#991B1B" stroke-width="2.5" /><polygon fill="#991B1B" opacity="0.5" points="602.5692404819533,1188.1622186799684 601.3178589789886,1198.083611945737 607.1384707928257,1197.057281038727" /><path d="M 602.5692404819533,1188.1622186799684 A 160,120 0 0,1 472.78370842670887,1327.1769303614649" fill="none" opacity="0.5" stroke="#991B1B" stroke-width="2.5" /><polygon fill="#991B1B" opacity="0.5" points="472.78370842670887,1327.1769303614649 462.8623151609403,1325.9255488585002 463.8886460679502,1331.7461606723373" /><path d="M 472.78370842670887,1327.1769303614649 A 160,120 0 0,1 287.4307595180467,1229.8377813200316" fill="none" opacity="0.5" stroke="#991B1B" stroke-width="2.5" /><polygon fill="#991B1B" opacity="0.5" points="287.4307595180467,1229.8377813200316 288.68214102101143,1219.916388054263 282.8615292071743,1220.942718961273" /><path d="M 287.4307595180467,1229.8377813200316 A 160,120 0 0,1 417.21629157329113,1090.8230696385351" fill="none" opacity="0.5" stroke="#991B1B" stroke-width="2.5" /><polygon fill="#991B1B" opacity="0.5" points="417.21629157329113,1090.8230696385351 427.1376848390597,1092.0744511414998 426.1113539320498,1086.2538393276627" /><text style="font-family:Arial;font-size:36px;fill:#7F1D1D;text-anchor:middle;font-weight:bold" x="445" y="1374">Wheezing / Asthma</text><text style="font-family:Arial;font-size:32px;fill:#1F2937;text-anchor:start;font-weight:bold" x="2459" y="951">Clinical evidence</text><polygon fill="#2563EB" opacity="0.45" points="2459,976 2469,966 2819,966 2809,976" /><polygon fill="#2563EB" opacity="0.3" points="2809,976 2819,966 2819,1066 2809,1076" /><rect fill="#2563EB" height="100" opacity="0.8" rx="3" ry="3" width="350" x="2459" y="976" /><text style="font-family:Arial;font-size:38px;fill:white;text-anchor:middle;font-weight:bold" x="2634.0" y="1024.0">OM-85</text><text style="font-family:Arial;font-size:24px;fill:white;text-anchor:middle;opacity:0.9" x="2634.0" y="1052.6">18 RCTs</text><polygon fill="#0D9488" opacity="0.45" points="2459,1092 2469,1082 2696,1082 2686,1092" /><polygon fill="#0D9488" opacity="0.3" points="2686,1092 2696,1082 2696,1170 2686,1180" /><rect fill="#0D9488" height="88" opacity="0.8" rx="3" ry="3" width="227" x="2459" y="1092" /><text style="font-family:Arial;font-size:32px;fill:white;text-anchor:middle;font-weight:bold" x="2572.5" y="1134.0">PMBL</text><text style="font-family:Arial;font-size:20px;fill:white;text-anchor:middle;opacity:0.9" x="2572.5" y="1158.4">5 RCTs</text><polygon fill="#7C3AED" opacity="0.45" points="2459,1196 2469,1186 2591,1186 2581,1196" /><polygon fill="#7C3AED" opacity="0.3" points="2581,1196 2591,1186 2591,1262 2581,1272" /><rect fill="#7C3AED" height="76" opacity="0.8" rx="3" ry="3" width="122" x="2459" y="1196" /><text style="font-family:Arial;font-size:26px;fill:white;text-anchor:middle;font-weight:bold" x="2520.0" y="1232.0">MV130</text><text style="font-family:Arial;font-size:16px;fill:white;text-anchor:middle;opacity:0.9" x="2520.0" y="1252.2">1 RCT</text><polygon fill="#059669" opacity="0.45" points="2459,1288 2469,1278 2521,1278 2511,1288" /><polygon fill="#059669" opacity="0.3" points="2511,1288 2521,1278 2521,1342 2511,1352" /><rect fill="#059669" height="64" opacity="0.8" rx="3" ry="3" width="52" x="2459" y="1288" /><text style="font-family:Arial;font-size:26px;fill:white;text-anchor:middle;font-weight:bold" x="2485.0" y="1318.0">CRL1505</text><text style="font-family:Arial;font-size:16px;fill:white;text-anchor:middle;opacity:0.9" x="2485.0" y="1338.2">Preclinical</text><text style="font-family:Arial;font-size:42px;fill:#1F2937;text-anchor:middle;font-weight:bold" x="445" y="109">Vulnerability</text><text style="font-family:Arial;font-size:42px;fill:#1F2937;text-anchor:middle;font-weight:bold" x="1650" y="109">Repair</text><text style="font-family:Arial;font-size:42px;fill:#1F2937;text-anchor:middle;font-weight:bold" x="2854" y="109">Resolution</text><text style="font-family:Arial;font-size:32px;fill:#065F46;text-anchor:middle;font-weight:bold" x="2854" y="736">Protected airways</text><text style="font-family:Arial;font-size:28px;fill:#6B7280;text-anchor:middle;font-weight:bold" x="1574" y="598">IgA</text><text style="font-family:Arial;font-size:48px;fill:#2563EB;text-anchor:start;font-weight:bold" x="1446" y="160">OM-85</text><text style="font-family:Arial;font-size:44px;fill:#0D9488;text-anchor:middle;font-weight:bold" x="1953" y="946">PMBL</text><rect fill="#0D9488" height="16" opacity="0.4" rx="3" ry="3" stroke="#0D9488" stroke-width="1.5" width="28" x="1903" y="958" /><rect fill="#0D9488" height="16" opacity="0.4" rx="3" ry="3" stroke="#0D9488" stroke-width="1.5" width="28" x="1938" y="958" /><rect fill="#0D9488" height="16" opacity="0.4" rx="3" ry="3" stroke="#0D9488" stroke-width="1.5" width="28" x="1973" y="958" /><text style="font-family:Arial;font-size:44px;fill:#7C3AED;text-anchor:middle;font-weight:bold" x="1118" y="1088">MV130</text><text style="font-family:Arial;font-size:44px;fill:#059669;text-anchor:middle;font-weight:bold" x="1725" y="1280">CRL1505</text><text style="font-family:Arial;font-size:60px;fill:#D1D5DB;text-anchor:middle" x="891" y="740.0">›</text><text style="font-family:Arial;font-size:60px;fill:#D1D5DB;text-anchor:middle" x="891" y="840.0">›</text><text style="font-family:Arial;font-size:60px;fill:#D1D5DB;text-anchor:middle" x="891" y="940.0">›</text><text style="font-family:Arial;font-size:60px;fill:#D1D5DB;text-anchor:middle" x="2409" y="740.0">›</text><text style="font-family:Arial;font-size:60px;fill:#D1D5DB;text-anchor:middle" x="2409" y="840.0">›</text><text style="font-family:Arial;font-size:60px;fill:#D1D5DB;text-anchor:middle" x="2409" y="940.0">›</text><g transform="translate(311,134) scale(2.0)"><g>
  
  <circle cx="55" cy="22" r="18" fill="#DC2626" opacity="0.2" stroke="#DC2626" stroke-width="1.8"/>
  
  <path d="M 48,28 Q 55,23 62,28" fill="none" stroke="#DC2626" stroke-width="1.2" opacity="0.5"/>
  
  <path d="M 42,38 Q 38,65 40,88 L 65,88 Q 68,65 66,38 Z"
        fill="#DC2626" opacity="0.15" stroke="#DC2626" stroke-width="1.5"/>
  
  <path d="M 42,44 Q 30,62 32,75" fill="none" stroke="#DC2626" stroke-width="2" opacity="0.8"/>
  
  <path d="M 66,44 Q 76,34 72,24" fill="none" stroke="#DC2626" stroke-width="2" opacity="0.8"/>
  
  <path d="M 45,88 L 38,130" fill="none" stroke="#DC2626" stroke-width="2.5"/>
  
  <path d="M 60,88 L 64,130" fill="none" stroke="#DC2626" stroke-width="2.5"/>
  
  <path d="M 78,18 A 5,5 0 0,1 78,28" fill="none" stroke="#DC2626" stroke-width="1.3" opacity="0.4"/>
  <path d="M 85,14 A 7,7 0 0,1 85,28" fill="none" stroke="#DC2626" stroke-width="1.3" opacity="0.35"/>
  <path d="M 92,10 A 9,9 0 0,1 92,28" fill="none" stroke="#DC2626" stroke-width="1.3" opacity="0.3"/>
</g></g>
<g transform="translate(2720,100) scale(2.0)"><g>
  
  <circle cx="50" cy="22" r="18" fill="#059669" opacity="0.25" stroke="#059669" stroke-width="1.8"/>
  
  <path d="M 42,26 Q 50,36 58,26" fill="none" stroke="#059669" stroke-width="1.2" opacity="0.6"/>
  
  <path d="M 36,38 Q 32,62 38,88 L 62,88 Q 68,62 64,38 Z"
        fill="#059669" opacity="0.18" stroke="#059669" stroke-width="1.5"/>
  
  <path d="M 36,44 Q 18,28 8,12" fill="none" stroke="#059669" stroke-width="2.2"/>
  
  <path d="M 64,44 Q 82,28 92,12" fill="none" stroke="#059669" stroke-width="2.2"/>
  
  <path d="M 42,88 L 30,132" fill="none" stroke="#059669" stroke-width="2.5"/>
  
  <path d="M 58,88 L 70,132" fill="none" stroke="#059669" stroke-width="2.5"/>
  
  <path d="M 20,8 L 22,3 24,8 19,5.5 25,5.5 Z" fill="#059669" opacity="0.4"/>
  <path d="M 78,5 L 80,0 82,5 77,2.5 83,2.5 Z" fill="#059669" opacity="0.4"/>
  <path d="M 50,0 L 51.5,-4 53,0 49,-2 55,-2 Z" fill="#059669" opacity="0.35"/>
</g></g>
<g transform="translate(1346,100) scale(1.8)"><g>
  
  <path d="M 40,5 C 68,5 75,15 75,30 C 75,60 60,80 40,95 C 20,80 5,60 5,30 C 5,15 12,5 40,5 Z"
        fill="#2563EB" opacity="0.15" stroke="#2563EB" stroke-width="2.5"/>
  
  <circle cx="40" cy="38" r="8" fill="none" stroke="#2563EB" stroke-width="2" opacity="0.7"/>
  
  <path d="M 36,44 L 40,62 L 44,44" fill="none" stroke="#2563EB" stroke-width="2" opacity="0.7"/>
</g></g>
<g transform="translate(1118,1008) scale(1.5)"><g>
  
  <path d="M 30,5 C 50,15 50,25 30,35 C 10,45 10,55 30,65 C 50,75 50,85 30,95 C 10,105 10,115 30,120"
        fill="none" stroke="#7C3AED" stroke-width="2.5" opacity="0.7"/>
  
  <path d="M 30,5 C 10,15 10,25 30,35 C 50,45 50,55 30,65 C 10,75 10,85 30,95 C 50,105 50,115 30,120"
        fill="none" stroke="#7C3AED" stroke-width="2.5" opacity="0.7"/>
  
  <line x1="18" y1="20" x2="42" y2="20" stroke="#7C3AED" stroke-width="1.2" opacity="0.35"/>
  <line x1="18" y1="50" x2="42" y2="50" stroke="#7C3AED" stroke-width="1.2" opacity="0.35"/>
  <line x1="18" y1="80" x2="42" y2="80" stroke="#7C3AED" stroke-width="1.2" opacity="0.35"/>
  <line x1="18" y1="110" x2="42" y2="110" stroke="#7C3AED" stroke-width="1.2" opacity="0.35"/>
</g></g>
<g transform="translate(1725,1310) scale(3.0)"><g>
  
  <path d="M 20,85 Q 100,5 180,85"
        fill="none" stroke="#059669" stroke-width="3.5" opacity="0.9"/>
  
  <path d="M 15,88 Q 100,0 185,88"
        fill="none" stroke="#059669" stroke-width="1.8" opacity="0.4"/>
  
  <circle cx="20" cy="85" r="15" fill="#059669" opacity="0.1" stroke="#059669" stroke-width="1.5"/>
  <path d="M 13,80 Q 17,75 20,80 Q 23,85 20,88 Q 17,92 24,90"
        fill="none" stroke="#059669" stroke-width="1.5" opacity="0.7"/>
  
  <circle cx="180" cy="85" r="15" fill="#059669" opacity="0.1" stroke="#059669" stroke-width="1.5"/>
  <path d="M 180,78 C 172,80 172,90 177,92 M 180,78 C 188,80 188,90 183,92"
        fill="none" stroke="#059669" stroke-width="1.5" opacity="0.7"/>
</g></g>
<g transform="translate(1574,638) scale(1.5)"><g>
  
  <circle cx="40" cy="40" r="12" fill="#6B7280" opacity="0.15" stroke="#6B7280" stroke-width="1.5"/>
  
  
  <path d="M 40,28 L 40,8 M 38,12 L 40,8 L 42,12" fill="none" stroke="#6B7280" stroke-width="1.8"/>
  
  <path d="M 49,31 L 65,12 M 61,16 L 65,12 L 62,18" fill="none" stroke="#6B7280" stroke-width="1.8"/>
  
  <path d="M 49,49 L 68,62 M 64,58 L 68,62 L 63,63" fill="none" stroke="#6B7280" stroke-width="1.8"/>
  
  <path d="M 40,52 L 40,74 M 38,70 L 40,74 L 42,70" fill="none" stroke="#6B7280" stroke-width="1.8"/>
  
  <path d="M 31,49 L 14,65 M 18,61 L 14,65 L 19,64" fill="none" stroke="#6B7280" stroke-width="1.8"/>
  
  <path d="M 31,31 L 12,15 M 16,19 L 12,15 L 17,17" fill="none" stroke="#6B7280" stroke-width="1.8"/>
</g></g>
</svg>