<?xml version="1.0" encoding="utf-8" ?>
<svg baseProfile="full" height="1680px" version="1.1" viewBox="0 0 3300 1680" width="3300px" xmlns="http://www.w3.org/2000/svg" xmlns:ev="http://www.w3.org/2001/xml-events" xmlns:xlink="http://www.w3.org/1999/xlink"><defs /><rect fill="#FAFAFA" height="1680" width="3300" x="0" y="0" /><rect fill="#FEF2F2" height="1680" opacity="0.6" width="891" x="0" y="0" /><rect fill="#FFFBEB" height="1680" opacity="0.2" width="1518" x="891" y="0" /><rect fill="#ECFDF5" height="1680" opacity="0.5" width="891" x="2409" y="0" /><line stroke="#F87171" stroke-dasharray="12,8" stroke-width="6" x1="80" x2="891" y1="686.4" y2="686.4" /><line stroke="#FBBF24" stroke-dasharray="20,4" stroke-width="5" x1="891" x2="2409" y1="686.4" y2="686.4" /><line stroke="#34D399" stroke-width="6" x1="2409" x2="3220" y1="686.4" y2="686.4" /><line stroke="#F87171" stroke-dasharray="12,8" stroke-width="6" x1="80" x2="891" y1="926.4" y2="926.4" /><line stroke="#FBBF24" stroke-dasharray="20,4" stroke-width="5" x1="891" x2="2409" y1="926.4" y2="926.4" /><line stroke="#34D399" stroke-width="6" x1="2409" x2="3220" y1="926.4" y2="926.4" /><rect fill="#F87171" height="228" opacity="0.08" width="811" x="80" y="692.4" /><rect fill="#FFF7ED" height="230" opacity="0.25" width="1518" x="891" y="691.4" /><rect fill="#34D399" height="228" opacity="0.08" width="811" x="2409" y="692.4" /><ellipse cx="80" cy="806.4" fill="none" rx="20" ry="120" stroke="#F87171" stroke-dasharray="12,8" stroke-width="6" /><ellipse cx="3220" cy="806.4" fill="none" rx="20" ry="120" stroke="#34D399" stroke-width="6" /><circle cx="200" cy="606.4" fill="#DC2626" opacity="0.85" r="26" /><line stroke="#DC2626" stroke-width="3" x1="226.0" x2="238.0" y1="606.4" y2="606.4" /><circle cx="238.0" cy="606.4" fill="#DC2626" r="4" /><line stroke="#DC2626" stroke-width="3" x1="218.38477631085024" x2="226.8700576850888" y1="624.7847763108502" y2="633.2700576850888" /><circle cx="226.8700576850888" cy="633.2700576850888" fill="#DC2626" r="4" /><line stroke="#DC2626" stroke-width="3" x1="200.0" x2="200.0" y1="632.4" y2="644.4" /><circle cx="200.0" cy="644.4" fill="#DC2626" r="4" /><line stroke="#DC2626" stroke-width="3" x1="181.61522368914976" x2="173.1299423149112" y1="624.7847763108502" y2="633.2700576850888" /><circle cx="173.1299423149112" cy="633.2700576850888" fill="#DC2626" r="4" /><line stroke="#DC2626" stroke-width="3" x1="174.0" x2="162.0" y1="606.4" y2="606.4" /><circle cx="162.0" cy="606.4" fill="#DC2626" r="4" /><line stroke="#DC2626" stroke-width="3" x1="181.61522368914976" x2="173.12994231491118" y1="588.0152236891497" y2="579.5299423149112" /><circle cx="173.12994231491118" cy="579.5299423149112" fill="#DC2626" r="4" /><line stroke="#DC2626" stroke-width="3" x1="200.0" x2="200.0" y1="580.4" y2="568.4" /><circle cx="200.0" cy="568.4" fill="#DC2626" r="4" /><line stroke="#DC2626" stroke-width="3" x1="218.38477631085024" x2="226.8700576850888" y1="588.0152236891497" y2="579.5299423149112" /><circle cx="226.8700576850888" cy="579.5299423149112" fill="#DC2626" r="4" /><circle cx="420" cy="576.4" fill="#DC2626" opacity="0.85" r="20" /><line stroke="#DC2626" stroke-width="3" x1="440.0" x2="452.0" y1="576.4" y2="576.4" /><circle cx="452.0" cy="576.4" fill="#DC2626" r="4" /><line stroke="#DC2626" stroke-width="3" x1="434.14213562373095" x2="442.62741699796953" y1="590.5421356237309" y2="599.0274169979695" /><circle cx="442.62741699796953" cy="599.0274169979695" fill="#DC2626" r="4" /><line stroke="#DC2626" stroke-width="3" x1="420.0" x2="420.0" y1="596.4" y2="608.4" /><circle cx="420.0" cy="608.4" fill="#DC2626" r="4" /><line stroke="#DC2626" stroke-width="3" x1="405.85786437626905" x2="397.37258300203047" y1="590.5421356237309" y2="599.0274169979695" /><circle cx="397.37258300203047" cy="599.0274169979695" fill="#DC2626" r="4" /><line stroke="#DC2626" stroke-width="3" x1="400.0" x2="388.0" y1="576.4" y2="576.4" /><circle cx="388.0" cy="576.4" fill="#DC2626" r="4" /><line stroke="#DC2626" stroke-width="3" x1="405.85786437626905" x2="397.37258300203047" y1="562.257864376269" y2="553.7725830020305" /><circle cx="397.37258300203047" cy="553.7725830020305" fill="#DC2626" r="4" /><line stroke="#DC2626" stroke-width="3" x1="420.0" x2="420.0" y1="556.4" y2="544.4" /><circle cx="420.0" cy="544.4" fill="#DC2626" r="4" /><line stroke="#DC2626" stroke-width="3" x1="434.14213562373095" x2="442.62741699796953" y1="562.257864376269" y2="553.7725830020305" /><circle cx="442.62741699796953" cy="553.7725830020305" fill="#DC2626" r="4" /><circle cx="620" cy="626.4" fill="#DC2626" opacity="0.85" r="18" /><line stroke="#DC2626" stroke-width="3" x1="638.0" x2="650.0" y1="626.4" y2="626.4" /><circle cx="650.0" cy="626.4" fill="#DC2626" r="4" /><line stroke="#DC2626" stroke-width="3" x1="632.7279220613578" x2="641.2132034355964" y1="639.1279220613578" y2="647.6132034355965" /><circle cx="641.2132034355964" cy="647.6132034355965" fill="#DC2626" r="4" /><line stroke="#DC2626" stroke-width="3" x1="620.0" x2="620.0" y1="644.4" y2="656.4" /><circle cx="620.0" cy="656.4" fill="#DC2626" r="4" /><line stroke="#DC2626" stroke-width="3" x1="607.2720779386422" x2="598.7867965644036" y1="639.1279220613578" y2="647.6132034355965" /><circle cx="598.7867965644036" cy="647.6132034355965" fill="#DC2626" r="4" /><line stroke="#DC2626" stroke-width="3" x1="602.0" x2="590.0" y1="626.4" y2="626.4" /><circle cx="590.0" cy="626.4" fill="#DC2626" r="4" /><line stroke="#DC2626" stroke-width="3" x1="607.2720779386422" x2="598.7867965644035" y1="613.6720779386421" y2="605.1867965644036" /><circle cx="598.7867965644035" cy="605.1867965644036" fill="#DC2626" r="4" /><line stroke="#DC2626" stroke-width="3" x1="620.0" x2="620.0" y1="608.4" y2="596.4" /><circle cx="620.0" cy="596.4" fill="#DC2626" r="4" /><line stroke="#DC2626" stroke-width="3" x1="632.7279220613578" x2="641.2132034355964" y1="613.6720779386421" y2="605.1867965644035" /><circle cx="641.2132034355964" cy="605.1867965644035" fill="#DC2626" r="4" /><line opacity="0.5" stroke="#DC2626" stroke-dasharray="6,4" stroke-width="2" x1="200" x2="200" y1="636.4" y2="701.4" /><line opacity="0.5" stroke="#DC2626" stroke-dasharray="6,4" stroke-width="2" x1="420" x2="420" y1="600.4" y2="701.4" /><line opacity="0.5" stroke="#DC2626" stroke-dasharray="6,4" stroke-width="2" x1="620" x2="620" y1="648.4" y2="701.4" /><text style="font-family:Arial;font-size:36px;fill:#DC2626;text-anchor:middle;font-weight:bold" x="200" y="568.4">RSV</text><text style="font-family:Arial;font-size:36px;fill:#DC2626;text-anchor:middle;font-weight:bold" x="420" y="544.4">RV</text><circle cx="365" cy="766.4" fill="#FCD34D" opacity="0.25" r="10" /><circle cx="505" cy="836.4" fill="#FCD34D" opacity="0.25" r="10" /><circle cx="425" cy="866.4" fill="#FCD34D" opacity="0.25" r="10" /><circle cx="445" cy="1226.4" fill="none" opacity="0.5" r="220" stroke="#991B1B" stroke-dasharray="8,6" stroke-width="3" /><circle cx="445.0" cy="1072.4" fill="#991B1B" opacity="0.8" r="8" /><text style="font-family:Arial;font-size:36px;fill:#991B1B;text-anchor:middle;font-weight:bold" x="445.0" y="1032.4">Viral RTIs</text><circle cx="599.0" cy="1226.4" fill="#991B1B" opacity="0.8" r="8" /><text style="font-family:Arial;font-size:36px;fill:#991B1B;text-anchor:middle;font-weight:bold" x="649.0" y="1234.4">Th2 inflammation</text><circle cx="445.0" cy="1380.4" fill="#991B1B" opacity="0.8" r="8" /><text style="font-family:Arial;font-size:36px;fill:#991B1B;text-anchor:middle;font-weight:bold" x="445.0" y="1420.4">Airway remodeling</text><circle cx="291.0" cy="1226.4" fill="#991B1B" opacity="0.8" r="8" /><text style="font-family:Arial;font-size:36px;fill:#991B1B;text-anchor:middle;font-weight:bold" x="241.0" y="1234.4">Re-susceptibility</text><path d="M 483.2025990867247,1009.7422943373143 A 220,220 0 0,0 661.6577056626858,1188.1974009132755" fill="none" opacity="0.8" stroke="#991B1B" stroke-width="3" /><polygon fill="#991B1B" opacity="0.8" points="661.6577056626858,1188.1974009132755 668.0546280979072,1200.6504882155375 659.9057715585352,1202.0873514853515" /><path d="M 661.6577056626858,1264.6025990867247 A 220,220 0 0,0 483.2025990867246,1443.057705662686" fill="none" opacity="0.8" stroke="#991B1B" stroke-width="3" /><polygon fill="#991B1B" opacity="0.8" points="483.2025990867246,1443.057705662686 470.7495117844625,1449.4546280979073 469.31264851464863,1441.3057715585353" /><path d="M 406.79740091327534,1443.0577056626857 A 220,220 0 0,0 228.34229433731423,1264.6025990867247" fill="none" opacity="0.8" stroke="#991B1B" stroke-width="3" /><polygon fill="#991B1B" opacity="0.8" points="228.34229433731423,1264.6025990867247 221.94537190209283,1252.1495117844627 230.09422844146485,1250.7126485146487" /><path d="M 228.34229433731423,1188.1974009132755 A 220,220 0 0,0 406.79740091327534,1009.7422943373143" fill="none" opacity="0.8" stroke="#991B1B" stroke-width="3" /><polygon fill="#991B1B" opacity="0.8" points="406.79740091327534,1009.7422943373143 419.2504882155374,1003.3453719020929 420.6873514853513,1011.4942284414649" /><line opacity="0.3" stroke="#991B1B" stroke-dasharray="6,4" stroke-width="2" x1="445" x2="445" y1="1006.4000000000001" y2="946.4" /><text style="font-family:Arial;font-size:40px;fill:#7F1D1D;text-anchor:middle;font-weight:bold" x="445" y="1501.4">Wheezing / Asthma</text><path d="M 1230.6,94 C 1276.1999999999998,109.2   1276.1999999999998,143.4   1230.6,173.8 C 1185.0,143.4   1185.0,109.2   1230.6,94 Z" fill="#2563EB" opacity="0.15" stroke="#2563EB" stroke-width="3" /><rect fill="#2563EB" height="12" opacity="0.6" rx="2" ry="2" width="14" x="1223.6" y="130" /><path d="M 1224.6,130 A 6,7 0 0,1 1236.6,130" fill="none" stroke="#2563EB" stroke-width="2.5" /><text style="font-family:Arial;font-size:40px;fill:#2563EB;text-anchor:middle;font-weight:bold" x="1230.6" y="200">OM-85</text><line opacity="0.5" stroke="#2563EB" stroke-width="4" x1="1230.6" x2="1230.6" y1="215" y2="676.4" /><polygon fill="#2563EB" opacity="0.5" points="1230.6,682.4 1221.6,664.4 1239.6,664.4" /><rect fill="#D97706" height="14" opacity="0.2" rx="2" ry="2" stroke="#D97706" stroke-width="2" width="24" x="1484.7" y="116.5" /><rect fill="#D97706" height="14" opacity="0.2" rx="2" ry="2" stroke="#D97706" stroke-width="2" width="24" x="1511.7" y="116.5" /><rect fill="#D97706" height="14" opacity="0.2" rx="2" ry="2" stroke="#D97706" stroke-width="2" width="24" x="1498.2" y="133.5" /><line opacity="0.5" stroke="#D97706" stroke-width="1.5" x1="1483.2" x2="1537.2" y1="130.5" y2="130.5" /><circle cx="1510.2" cy="132" fill="#D97706" opacity="0.06" r="30" /><text style="font-family:Arial;font-size:40px;fill:#D97706;text-anchor:middle;font-weight:bold" x="1510.2" y="200">PMBL</text><line opacity="0.5" stroke="#D97706" stroke-width="4" x1="1510.2" x2="1510.2" y1="215" y2="676.4" /><polygon fill="#D97706" opacity="0.5" points="1510.2,682.4 1501.2,664.4 1519.2,664.4" /><polygon fill="#7C3AED" opacity="0.15" points="1789.8000000000002,106.0 1795.9229349178415,117.21792747981941 1808.1847763108503,113.61522368914976 1804.5820725201809,125.87706508215857 1815.8000000000002,132.0 1804.5820725201809,138.12293491784143 1808.1847763108503,150.38477631085024 1795.9229349178415,146.78207252018058 1789.8000000000002,158.0 1783.6770650821588,146.78207252018058 1771.41522368915,150.38477631085024 1775.0179274798195,138.12293491784143 1763.8000000000002,132.0 1775.0179274798195,125.87706508215857 1771.41522368915,113.61522368914976 1783.6770650821588,117.21792747981942" stroke="#7C3AED" stroke-width="2" /><circle cx="1789.8000000000002" cy="132" fill="#7C3AED" opacity="0.4" r="6" /><text style="font-family:Arial;font-size:40px;fill:#7C3AED;text-anchor:middle;font-weight:bold" x="1789.8000000000002" y="200">MV130</text><line opacity="0.5" stroke="#7C3AED" stroke-width="4" x1="1789.8000000000002" x2="1789.8000000000002" y1="215" y2="676.4" /><polygon fill="#7C3AED" opacity="0.5" points="1789.8000000000002,682.4 1780.8000000000002,664.4 1798.8000000000002,664.4" /><path d="M 2045.4,142 A 24.0,24 0 0,1 2093.4,142" fill="none" stroke="#059669" stroke-width="3" /><line stroke="#059669" stroke-width="3" x1="2045.4" x2="2045.4" y1="142" y2="158" /><line stroke="#059669" stroke-width="3" x1="2093.4" x2="2093.4" y1="142" y2="158" /><text style="font-family:Arial;font-size:18px;fill:#059669;text-anchor:middle;font-weight:bold" x="2045.4" y="172">gut</text><text style="font-family:Arial;font-size:18px;fill:#059669;text-anchor:middle;font-weight:bold" x="2093.4" y="172">lung</text><rect fill="#059669" height="6" opacity="0.1" rx="2" ry="2" width="48" x="2045.4" y="138" /><text style="font-family:Arial;font-size:40px;fill:#059669;text-anchor:middle;font-weight:bold" x="2069.4" y="200">CRL1505</text><line opacity="0.5" stroke="#059669" stroke-width="4" x1="2069.4" x2="2069.4" y1="215" y2="676.4" /><polygon fill="#059669" opacity="0.5" points="2069.4,682.4 2060.4,664.4 2078.4,664.4" /><rect fill="white" height="46" opacity="0.85" rx="10" ry="10" width="120" x="1590.0" y="694.4" /><text style="font-family:Arial;font-size:38px;fill:#1F2937;text-anchor:middle;font-weight:bold" x="1650.0" y="728.4">↑ IgA</text><text style="font-family:Arial;font-size:36px;fill:#4B5563;text-anchor:middle;font-weight:bold" x="1650" y="55">Bacterial-derived immunomodulators</text><rect fill="white" height="260" opacity="0.7" rx="16" ry="16" stroke="#D97706" stroke-width="2" width="619.0" x="1011.0" y="1026.4" /><rect fill="#D97706" height="12.0" opacity="0.2" rx="2" ry="2" stroke="#D97706" stroke-width="1.5" width="19.5" x="1120.75" y="1123.9" /><rect fill="#D97706" height="12.0" opacity="0.2" rx="2" ry="2" stroke="#D97706" stroke-width="1.5" width="19.5" x="1143.25" y="1123.9" /><rect fill="#D97706" height="12.0" opacity="0.2" rx="2" ry="2" stroke="#D97706" stroke-width="1.5" width="19.5" x="1165.75" y="1123.9" /><rect fill="#D97706" height="12.0" opacity="0.2" rx="2" ry="2" stroke="#D97706" stroke-width="1.5" width="19.5" x="1188.25" y="1123.9" /><rect fill="#D97706" height="12.0" opacity="0.2" rx="2" ry="2" stroke="#D97706" stroke-width="1.5" width="19.5" x="1132.0" y="1138.9" /><rect fill="#D97706" height="12.0" opacity="0.2" rx="2" ry="2" stroke="#D97706" stroke-width="1.5" width="19.5" x="1154.5" y="1138.9" /><rect fill="#D97706" height="12.0" opacity="0.2" rx="2" ry="2" stroke="#D97706" stroke-width="1.5" width="19.5" x="1177.0" y="1138.9" /><rect fill="#D97706" height="12.0" opacity="0.2" rx="2" ry="2" stroke="#D97706" stroke-width="1.5" width="19.5" x="1120.75" y="1153.9" /><rect fill="#D97706" height="12.0" opacity="0.2" rx="2" ry="2" stroke="#D97706" stroke-width="1.5" width="19.5" x="1143.25" y="1153.9" /><rect fill="#D97706" height="12.0" opacity="0.2" rx="2" ry="2" stroke="#D97706" stroke-width="1.5" width="19.5" x="1165.75" y="1153.9" /><rect fill="#D97706" height="12.0" opacity="0.2" rx="2" ry="2" stroke="#D97706" stroke-width="1.5" width="19.5" x="1188.25" y="1153.9" /><text style="font-family:Arial;font-size:36px;fill:#1F2937;text-anchor:start;font-weight:bold" x="1230.75" y="1136.4">Epithelial barrier</text><text style="font-family:Arial;font-size:28px;fill:#9CA3AF;text-anchor:start" x="1230.75" y="1174.4">↑ Tight junctions</text><rect fill="white" height="260" opacity="0.7" rx="16" ry="16" stroke="#DC2626" stroke-width="2" width="619.0" x="1670.0" y="1026.4" /><polygon fill="#DC2626" opacity="0.15" points="1824.75,1101.4 1837.9751681765806,1128.1971176265638 1867.5475432332819,1132.4942352531275 1846.148771616641,1153.3528823734364 1851.2003363531612,1182.8057647468727 1824.75,1168.9 1798.2996636468388,1182.8057647468727 1803.351228383359,1153.3528823734364 1781.9524567667181,1132.4942352531275 1811.5248318234194,1128.1971176265638" stroke="#DC2626" stroke-width="2" /><circle cx="1824.75" cy="1146.4" fill="#DC2626" opacity="0.25" r="13.5" /><text style="font-family:Arial;font-size:36px;fill:#1F2937;text-anchor:start;font-weight:bold" x="1889.75" y="1136.4">Innate immunity</text><text style="font-family:Arial;font-size:28px;fill:#9CA3AF;text-anchor:start" x="1889.75" y="1174.4">DC / Macrophage</text><rect fill="white" height="260" opacity="0.7" rx="16" ry="16" stroke="#2563EB" stroke-width="2" width="619.0" x="1011.0" y="1326.4" /><polygon fill="#2563EB" opacity="0.2" points="1165.75,1464.4 1156.75,1477.9 1174.75,1477.9" stroke="#2563EB" stroke-width="2" /><line stroke="#2563EB" stroke-width="3" x1="1129.75" x2="1201.75" y1="1450.9" y2="1459.9" /><circle cx="1129.75" cy="1450.9" fill="#2563EB" opacity="0.1" r="9.0" stroke="#2563EB" stroke-width="1.5" /><text style="font-family:Arial;font-size:22px;fill:#2563EB;text-anchor:middle;font-weight:bold" x="1129.75" y="1458.9">Th1</text><circle cx="1201.75" cy="1459.9" fill="#2563EB" opacity="0.1" r="9.0" stroke="#2563EB" stroke-width="1.5" /><text style="font-family:Arial;font-size:22px;fill:#2563EB;text-anchor:middle;font-weight:bold" x="1201.75" y="1467.9">Th2</text><text style="font-family:Arial;font-size:36px;fill:#1F2937;text-anchor:start;font-weight:bold" x="1230.75" y="1436.4">Adaptive balance</text><text style="font-family:Arial;font-size:28px;fill:#9CA3AF;text-anchor:start" x="1230.75" y="1474.4">Th1/Th2 rebalance</text><rect fill="white" height="260" opacity="0.7" rx="16" ry="16" stroke="#059669" stroke-width="2" width="619.0" x="1670.0" y="1326.4" /><rect fill="none" height="45.0" rx="6.75" ry="6.75" stroke="#059669" stroke-width="2" width="13.5" x="1818.0" y="1419.4" /><rect fill="#059669" height="15.749999999999998" opacity="0.3" rx="4" ry="4" width="10.799999999999999" x="1819.35" y="1448.65" /><circle cx="1824.75" cy="1471.15" fill="#059669" opacity="0.2" r="9.9" stroke="#059669" stroke-width="2" /><line stroke="#059669" stroke-width="3" x1="1847.25" x2="1847.25" y1="1432.9" y2="1459.9" /><polygon fill="#059669" points="1847.25,1464.4 1839.25,1455.4 1855.25,1455.4" /><text style="font-family:Arial;font-size:36px;fill:#1F2937;text-anchor:start;font-weight:bold" x="1889.75" y="1436.4">Inflammation control</text><text style="font-family:Arial;font-size:28px;fill:#9CA3AF;text-anchor:start" x="1889.75" y="1474.4">↓ Cytokine storm</text><text style="font-family:Arial;font-size:28px;fill:#9CA3AF;text-anchor:middle;letter-spacing:4px" x="1650" y="996.4">SHARED MECHANISMS</text><text style="font-family:Arial;font-size:38px;fill:#065F46;text-anchor:middle;font-weight:bold" x="2854" y="636.4">Protected airways</text><path d="M 2854,536.4 C 2902.0,552.4   2902.0,588.4   2854,620.4 C 2806.0,588.4   2806.0,552.4   2854,536.4 Z" fill="#34D399" opacity="0.2" stroke="#34D399" stroke-width="3" /><path d="M 2839,576.4 L 2851,590.4 L 2872,564.4" fill="none" stroke="#34D399" stroke-width="4" /><text style="font-family:Arial;font-size:36px;fill:#1F2937;text-anchor:middle;font-weight:bold" x="2854" y="1006.4000000000001">Clinical evidence</text><text style="font-family:Arial;font-size:36px;fill:#2563EB;text-anchor:end;font-weight:bold" x="2678" y="1108.4">OM-85</text><rect fill="#F3F4F6" height="120" rx="10" ry="10" width="320" x="2694" y="1036.4" /><rect fill="#2563EB" height="120" opacity="0.75" rx="10" ry="10" width="320.0" x="2694" y="1036.4" /><text style="font-family:Arial;font-size:28px;fill:white;text-anchor:start;font-weight:bold" x="2710" y="1106.4">18 RCTs</text><text style="font-family:Arial;font-size:36px;fill:#D97706;text-anchor:end;font-weight:bold" x="2678" y="1264.4">PMBL</text><rect fill="#F3F4F6" height="120" rx="10" ry="10" width="320" x="2694" y="1192.4" /><rect fill="#D97706" height="120" opacity="0.75" rx="10" ry="10" width="176.0" x="2694" y="1192.4" /><text style="font-family:Arial;font-size:28px;fill:white;text-anchor:start;font-weight:bold" x="2710" y="1262.4">5 RCTs</text><text style="font-family:Arial;font-size:36px;fill:#7C3AED;text-anchor:end;font-weight:bold" x="2678" y="1420.4">MV130</text><rect fill="#F3F4F6" height="120" rx="10" ry="10" width="320" x="2694" y="1348.4" /><rect fill="#7C3AED" height="120" opacity="0.75" rx="10" ry="10" width="96.0" x="2694" y="1348.4" /><text style="font-family:Arial;font-size:28px;fill:#7C3AED;text-anchor:start;font-weight:bold" x="2802.0" y="1418.4">1 RCT</text><text style="font-family:Arial;font-size:36px;fill:#059669;text-anchor:end;font-weight:bold" x="2678" y="1576.4">CRL1505</text><rect fill="#F3F4F6" height="120" rx="10" ry="10" width="320" x="2694" y="1504.4" /><rect fill="#059669" height="120" opacity="0.75" rx="10" ry="10" width="38.4" x="2694" y="1504.4" /><text style="font-family:Arial;font-size:28px;fill:#059669;text-anchor:start;font-weight:bold" x="2744.4" y="1574.4">Preclinical</text><text style="font-family:Arial;font-size:24px;fill:#9CA3AF;text-anchor:end" x="2678" y="1056.4">Robust</text><text style="font-family:Arial;font-size:24px;fill:#9CA3AF;text-anchor:end" x="2678" y="1624.4">Emerging</text><text style="font-family:Arial;font-size:48px;fill:#D1D5DB;text-anchor:middle" x="851" y="822.4">›</text><text style="font-family:Arial;font-size:48px;fill:#D1D5DB;text-anchor:middle" x="951" y="822.4">›</text><text style="font-family:Arial;font-size:48px;fill:#D1D5DB;text-anchor:middle" x="1550" y="822.4">›</text><text style="font-family:Arial;font-size:48px;fill:#D1D5DB;text-anchor:middle" x="1750" y="822.4">›</text><text style="font-family:Arial;font-size:48px;fill:#D1D5DB;text-anchor:middle" x="2369" y="822.4">›</text><text style="font-family:Arial;font-size:48px;fill:#D1D5DB;text-anchor:middle" x="2469" y="822.4">›</text></svg>