<?xml version="1.0" encoding="utf-8" ?>
<svg baseProfile="full" height="1680px" version="1.1" viewBox="0 0 3300 1680" width="3300px" xmlns="http://www.w3.org/2000/svg" xmlns:ev="http://www.w3.org/2001/xml-events" xmlns:xlink="http://www.w3.org/1999/xlink"><defs /><rect fill="#FAFAFA" height="1680" width="3300" x="0" y="0" /><rect fill="#FEF2F2" height="1680" opacity="0.6" width="891" x="0" y="0" /><rect fill="#F0F9FF" height="1680" opacity="0.2" width="1518" x="891" y="0" /><rect fill="#ECFDF5" height="1680" opacity="0.5" width="891" x="2409" y="0" /><rect fill="#E8A0A0" height="62.0" opacity="0.85" rx="3" ry="3" stroke="#B0B0B0" stroke-width="1.5" width="98.375" x="40.0" y="638.4" /><rect fill="#E8A0A0" height="62.0" opacity="0.85" rx="3" ry="3" stroke="#B0B0B0" stroke-width="1.5" width="98.375" x="141.375" y="638.4" /><rect fill="#E8A0A0" height="62.0" opacity="0.85" rx="3" ry="3" stroke="#B0B0B0" stroke-width="1.5" width="98.375" x="242.75" y="638.4" /><rect fill="#E8A0A0" height="62.0" opacity="0.85" rx="3" ry="3" stroke="#B0B0B0" stroke-width="1.5" width="98.375" x="344.125" y="638.4" /><rect fill="#E8A0A0" height="62.0" opacity="0.85" rx="3" ry="3" stroke="#B0B0B0" stroke-width="1.5" width="98.375" x="445.5" y="638.4" /><rect fill="#E8A0A0" height="62.0" opacity="0.85" rx="3" ry="3" stroke="#B0B0B0" stroke-width="1.5" width="98.375" x="749.625" y="638.4" /><rect fill="#E8A0A0" height="62.0" opacity="0.85" rx="3" ry="3" stroke="#B0B0B0" stroke-width="1.5" width="98.375" x="90.6875" y="703.4" /><rect fill="#E8A0A0" height="62.0" opacity="0.85" rx="3" ry="3" stroke="#B0B0B0" stroke-width="1.5" width="98.375" x="192.0625" y="703.4" /><rect fill="#E8A0A0" height="62.0" opacity="0.85" rx="3" ry="3" stroke="#B0B0B0" stroke-width="1.5" width="98.375" x="293.4375" y="703.4" /><rect fill="#E8A0A0" height="62.0" opacity="0.85" rx="3" ry="3" stroke="#B0B0B0" stroke-width="1.5" width="98.375" x="597.5625" y="703.4" /><rect fill="#E8A0A0" height="62.0" opacity="0.85" rx="3" ry="3" stroke="#B0B0B0" stroke-width="1.5" width="98.375" x="698.9375" y="703.4" /><rect fill="#E8A0A0" height="62.0" opacity="0.85" rx="3" ry="3" stroke="#B0B0B0" stroke-width="1.5" width="98.375" x="40.0" y="768.4" /><rect fill="#E8A0A0" height="62.0" opacity="0.85" rx="3" ry="3" stroke="#B0B0B0" stroke-width="1.5" width="98.375" x="141.375" y="768.4" /><rect fill="#E8A0A0" height="62.0" opacity="0.85" rx="3" ry="3" stroke="#B0B0B0" stroke-width="1.5" width="98.375" x="242.75" y="768.4" /><rect fill="#E8A0A0" height="62.0" opacity="0.85" rx="3" ry="3" stroke="#B0B0B0" stroke-width="1.5" width="98.375" x="344.125" y="768.4" /><rect fill="#E8A0A0" height="62.0" opacity="0.85" rx="3" ry="3" stroke="#B0B0B0" stroke-width="1.5" width="98.375" x="445.5" y="768.4" /><rect fill="#E8A0A0" height="62.0" opacity="0.85" rx="3" ry="3" stroke="#B0B0B0" stroke-width="1.5" width="98.375" x="546.875" y="768.4" /><rect fill="#E8A0A0" height="62.0" opacity="0.85" rx="3" ry="3" stroke="#B0B0B0" stroke-width="1.5" width="98.375" x="90.6875" y="833.4" /><rect fill="#E8A0A0" height="62.0" opacity="0.85" rx="3" ry="3" stroke="#B0B0B0" stroke-width="1.5" width="98.375" x="192.0625" y="833.4" /><rect fill="#E8A0A0" height="62.0" opacity="0.85" rx="3" ry="3" stroke="#B0B0B0" stroke-width="1.5" width="98.375" x="394.8125" y="833.4" /><rect fill="#E8A0A0" height="62.0" opacity="0.85" rx="3" ry="3" stroke="#B0B0B0" stroke-width="1.5" width="98.375" x="496.1875" y="833.4" /><rect fill="#E8A0A0" height="62.0" opacity="0.85" rx="3" ry="3" stroke="#B0B0B0" stroke-width="1.5" width="98.375" x="698.9375" y="833.4" /><rect fill="#E8A0A0" height="45.5" opacity="0.5" rx="3" ry="3" stroke="#B0B0B0" stroke-width="1" transform="rotate(15, 597.35625, 631.15)" width="70.96249999999999" x="561.875" y="608.4" /><rect fill="#E8A0A0" height="45.5" opacity="0.5" rx="3" ry="3" stroke="#B0B0B0" stroke-width="1" transform="rotate(-10, 450.29375, 741.15)" width="70.96249999999999" x="414.8125" y="718.4" /><rect fill="#E8A0A0" height="45.5" opacity="0.5" rx="3" ry="3" stroke="#B0B0B0" stroke-width="1" transform="rotate(22, 775.10625, 816.15)" width="70.96249999999999" x="739.625" y="793.4" /><rect fill="#E8A0A0" height="45.5" opacity="0.5" rx="3" ry="3" stroke="#B0B0B0" stroke-width="1" transform="rotate(-18, 288.23125, 886.15)" width="70.96249999999999" x="252.75" y="863.4" /><circle cx="577.2875" cy="670.9" fill="#DC2626" opacity="0.85" r="20" /><line stroke="#DC2626" stroke-width="2.5" x1="597.2875" x2="607.2875" y1="670.9" y2="670.9" /><circle cx="607.2875" cy="670.9" fill="#DC2626" r="3.5" /><line stroke="#DC2626" stroke-width="2.5" x1="591.429635623731" x2="598.5007034355965" y1="685.0421356237309" y2="692.1132034355965" /><circle cx="598.5007034355965" cy="692.1132034355965" fill="#DC2626" r="3.5" /><line stroke="#DC2626" stroke-width="2.5" x1="577.2875" x2="577.2875" y1="690.9" y2="700.9" /><circle cx="577.2875" cy="700.9" fill="#DC2626" r="3.5" /><line stroke="#DC2626" stroke-width="2.5" x1="563.1453643762691" x2="556.0742965644037" y1="685.0421356237309" y2="692.1132034355965" /><circle cx="556.0742965644037" cy="692.1132034355965" fill="#DC2626" r="3.5" /><line stroke="#DC2626" stroke-width="2.5" x1="557.2875" x2="547.2875" y1="670.9" y2="670.9" /><circle cx="547.2875" cy="670.9" fill="#DC2626" r="3.5" /><line stroke="#DC2626" stroke-width="2.5" x1="563.1453643762691" x2="556.0742965644035" y1="656.757864376269" y2="649.6867965644036" /><circle cx="556.0742965644035" cy="649.6867965644036" fill="#DC2626" r="3.5" /><line stroke="#DC2626" stroke-width="2.5" x1="577.2875" x2="577.2875" y1="650.9" y2="640.9" /><circle cx="577.2875" cy="640.9" fill="#DC2626" r="3.5" /><line stroke="#DC2626" stroke-width="2.5" x1="591.429635623731" x2="598.5007034355964" y1="656.757864376269" y2="649.6867965644035" /><circle cx="598.5007034355964" cy="649.6867965644035" fill="#DC2626" r="3.5" /><circle cx="425.22499999999997" cy="735.9" fill="#DC2626" opacity="0.85" r="16" /><line stroke="#DC2626" stroke-width="2.5" x1="441.22499999999997" x2="451.22499999999997" y1="735.9" y2="735.9" /><circle cx="451.22499999999997" cy="735.9" fill="#DC2626" r="3.5" /><line stroke="#DC2626" stroke-width="2.5" x1="436.5387084989847" x2="443.6097763108502" y1="747.2137084989847" y2="754.2847763108502" /><circle cx="443.6097763108502" cy="754.2847763108502" fill="#DC2626" r="3.5" /><line stroke="#DC2626" stroke-width="2.5" x1="425.22499999999997" x2="425.22499999999997" y1="751.9" y2="761.9" /><circle cx="425.22499999999997" cy="761.9" fill="#DC2626" r="3.5" /><line stroke="#DC2626" stroke-width="2.5" x1="413.9112915010152" x2="406.84022368914975" y1="747.2137084989847" y2="754.2847763108502" /><circle cx="406.84022368914975" cy="754.2847763108502" fill="#DC2626" r="3.5" /><line stroke="#DC2626" stroke-width="2.5" x1="409.22499999999997" x2="399.22499999999997" y1="735.9" y2="735.9" /><circle cx="399.22499999999997" cy="735.9" fill="#DC2626" r="3.5" /><line stroke="#DC2626" stroke-width="2.5" x1="413.9112915010152" x2="406.84022368914975" y1="724.5862915010152" y2="717.5152236891497" /><circle cx="406.84022368914975" cy="717.5152236891497" fill="#DC2626" r="3.5" /><line stroke="#DC2626" stroke-width="2.5" x1="425.22499999999997" x2="425.22499999999997" y1="719.9" y2="709.9" /><circle cx="425.22499999999997" cy="709.9" fill="#DC2626" r="3.5" /><line stroke="#DC2626" stroke-width="2.5" x1="436.5387084989847" x2="443.6097763108502" y1="724.5862915010152" y2="717.5152236891497" /><circle cx="443.6097763108502" cy="717.5152236891497" fill="#DC2626" r="3.5" /><circle cx="698.9375" cy="787.9" fill="#DC2626" opacity="0.85" r="18" /><line stroke="#DC2626" stroke-width="2.5" x1="716.9375" x2="726.9375" y1="787.9" y2="787.9" /><circle cx="726.9375" cy="787.9" fill="#DC2626" r="3.5" /><line stroke="#DC2626" stroke-width="2.5" x1="711.6654220613578" x2="718.7364898732234" y1="800.6279220613578" y2="807.6989898732234" /><circle cx="718.7364898732234" cy="807.6989898732234" fill="#DC2626" r="3.5" /><line stroke="#DC2626" stroke-width="2.5" x1="698.9375" x2="698.9375" y1="805.9" y2="815.9" /><circle cx="698.9375" cy="815.9" fill="#DC2626" r="3.5" /><line stroke="#DC2626" stroke-width="2.5" x1="686.2095779386422" x2="679.1385101267766" y1="800.6279220613578" y2="807.6989898732234" /><circle cx="679.1385101267766" cy="807.6989898732234" fill="#DC2626" r="3.5" /><line stroke="#DC2626" stroke-width="2.5" x1="680.9375" x2="670.9375" y1="787.9" y2="787.9" /><circle cx="670.9375" cy="787.9" fill="#DC2626" r="3.5" /><line stroke="#DC2626" stroke-width="2.5" x1="686.2095779386422" x2="679.1385101267766" y1="775.1720779386421" y2="768.1010101267766" /><circle cx="679.1385101267766" cy="768.1010101267766" fill="#DC2626" r="3.5" /><line stroke="#DC2626" stroke-width="2.5" x1="698.9375" x2="698.9375" y1="769.9" y2="759.9" /><circle cx="698.9375" cy="759.9" fill="#DC2626" r="3.5" /><line stroke="#DC2626" stroke-width="2.5" x1="711.6654220613578" x2="718.7364898732234" y1="775.1720779386421" y2="768.1010101267766" /><circle cx="718.7364898732234" cy="768.1010101267766" fill="#DC2626" r="3.5" /><circle cx="445" cy="528.4" fill="#DC2626" opacity="0.2" r="30.800000000000004" stroke="#DC2626" stroke-width="2.5" /><path d="M 436.2,539.4 Q 445,531.6999999999999 453.8,539.4" fill="none" opacity="0.5" stroke="#DC2626" stroke-width="2" /><path d="M 427.4,559.1999999999999 Q 423.0,592.1999999999999 425.2,618.6 L 456.0,618.6 Q 462.6,592.1999999999999 460.4,559.1999999999999 Z" fill="#DC2626" opacity="0.15" stroke="#DC2626" stroke-width="2" /><path d="M 427.4,566.9 Q 412.0,588.9 414.2,605.4" fill="none" stroke="#DC2626" stroke-width="2.75" /><path d="M 460.4,566.9 Q 475.8,555.9 469.2,539.4" fill="none" stroke="#DC2626" stroke-width="2.75" /><path d="M 436.2,618.6 L 429.6,665.9" fill="none" stroke="#DC2626" stroke-width="3.3000000000000003" /><path d="M 450.5,618.6 L 456.0,665.9" fill="none" stroke="#DC2626" stroke-width="3.3000000000000003" /><path d="M 483.5,517.4 A 5.5,5.5 0 0,1 483.5,528.4" fill="none" opacity="0.45" stroke="#DC2626" stroke-width="2" /><path d="M 494.5,525.65 A 8.25,8.25 0 0,1 494.5,542.15" fill="none" opacity="0.45" stroke="#DC2626" stroke-width="2" /><path d="M 489.0,500.9 A 11.0,11.0 0 0,1 489.0,522.9" fill="none" opacity="0.45" stroke="#DC2626" stroke-width="2" /><circle cx="445" cy="958.4" fill="#FEE2E2" opacity="0.3" r="130" stroke="none" /><circle cx="445.0" cy="828.4" fill="#991B1B" opacity="0.8" r="6" /><text style="font-family:Arial;font-size:26px;font-weight:bold;fill:#991B1B;text-anchor:middle" x="445.0" y="812.4">Viral RTIs</text><circle cx="575.0" cy="958.4" fill="#991B1B" opacity="0.8" r="6" /><text style="font-family:Arial;font-size:26px;font-weight:bold;fill:#991B1B;text-anchor:start" x="587.0" y="965.4">Th2 bias</text><circle cx="445.0" cy="1088.4" fill="#991B1B" opacity="0.8" r="6" /><text style="font-family:Arial;font-size:26px;font-weight:bold;fill:#991B1B;text-anchor:middle" x="445.0" y="1112.4">Remodeling</text><circle cx="315.0" cy="958.4" fill="#991B1B" opacity="0.8" r="6" /><text style="font-family:Arial;font-size:26px;font-weight:bold;fill:#991B1B;text-anchor:end" x="305.0" y="965.4">Re-susceptibility</text><path d="M 467.574263096701,830.3749921084129 A 130,130 0 0,0 573.025007891587,935.825736903299" fill="none" opacity="0.5" stroke="#991B1B" stroke-width="2.5" /><polygon fill="#991B1B" opacity="0.5" points="573.025007891587,935.825736903299 577.5942382024595,944.7207992620577 571.7736263886223,945.7471301690675" /><path d="M 573.025007891587,980.974263096701 A 130,130 0 0,0 467.5742630967009,1086.425007891587" fill="none" opacity="0.5" stroke="#991B1B" stroke-width="2.5" /><polygon fill="#991B1B" opacity="0.5" points="467.5742630967009,1086.425007891587 458.67920073794227,1090.9942382024594 457.65286983093233,1085.1736263886223" /><path d="M 422.4257369032991,1086.425007891587 A 130,130 0 0,0 316.97499210841295,980.974263096701" fill="none" opacity="0.5" stroke="#991B1B" stroke-width="2.5" /><polygon fill="#991B1B" opacity="0.5" points="316.97499210841295,980.974263096701 312.40576179754055,972.0792007379423 318.22637361137765,971.0528698309324" /><path d="M 316.97499210841295,935.825736903299 A 130,130 0 0,0 422.4257369032991,830.3749921084129" fill="none" opacity="0.5" stroke="#991B1B" stroke-width="2.5" /><polygon fill="#991B1B" opacity="0.5" points="422.4257369032991,830.3749921084129 431.32079926205773,825.8057617975405 432.34713016906767,831.6263736113776" /><text style="font-family:Arial;font-size:36px;fill:#7F1D1D;text-anchor:middle;font-weight:bold" x="445" y="1133.4">Wheezing / Asthma</text><rect fill="#D4B4A0" height="62.0" opacity="0.7" rx="3" ry="3" stroke="#B0A090" stroke-width="1.5" width="101.14285714285714" x="921.0" y="638.4" /><rect fill="#D4B4A0" height="62.0" opacity="0.7" rx="3" ry="3" stroke="#B0A090" stroke-width="1.5" width="101.14285714285714" x="1025.142857142857" y="638.4" /><rect fill="#D4B4A0" height="62.0" opacity="0.7" rx="3" ry="3" stroke="#B0A090" stroke-width="1.5" width="101.14285714285714" x="1129.2857142857142" y="638.4" /><rect fill="#0D9488" height="62.0" opacity="0.85" rx="3" ry="3" stroke="#0D9488" stroke-width="1.5" width="101.14285714285714" x="1337.5714285714284" y="638.4" /><rect fill="#D4B4A0" height="62.0" opacity="0.7" rx="3" ry="3" stroke="#B0A090" stroke-width="1.5" width="101.14285714285714" x="1441.7142857142858" y="638.4" /><rect fill="#D4B4A0" height="62.0" opacity="0.7" rx="3" ry="3" stroke="#B0A090" stroke-width="1.5" width="101.14285714285714" x="1545.857142857143" y="638.4" /><rect fill="#D4B4A0" height="62.0" opacity="0.7" rx="3" ry="3" stroke="#B0A090" stroke-width="1.5" width="101.14285714285714" x="1650.0" y="638.4" /><rect fill="#D4B4A0" height="62.0" opacity="0.7" rx="3" ry="3" stroke="#B0A090" stroke-width="1.5" width="101.14285714285714" x="1754.142857142857" y="638.4" /><rect fill="#D4B4A0" height="62.0" opacity="0.7" rx="3" ry="3" stroke="#B0A090" stroke-width="1.5" width="101.14285714285714" x="1858.2857142857142" y="638.4" /><rect fill="#0D9488" height="62.0" opacity="0.85" rx="3" ry="3" stroke="#0D9488" stroke-width="1.5" width="101.14285714285714" x="1962.4285714285713" y="638.4" /><rect fill="#D4B4A0" height="62.0" opacity="0.7" rx="3" ry="3" stroke="#B0A090" stroke-width="1.5" width="101.14285714285714" x="2170.714285714286" y="638.4" /><rect fill="#D4B4A0" height="62.0" opacity="0.7" rx="3" ry="3" stroke="#B0A090" stroke-width="1.5" width="101.14285714285714" x="2274.857142857143" y="638.4" /><rect fill="#D4B4A0" height="62.0" opacity="0.7" rx="3" ry="3" stroke="#B0A090" stroke-width="1.5" width="101.14285714285714" x="973.0714285714286" y="703.4" /><rect fill="#D4B4A0" height="62.0" opacity="0.7" rx="3" ry="3" stroke="#B0A090" stroke-width="1.5" width="101.14285714285714" x="1077.2142857142858" y="703.4" /><rect fill="#D4B4A0" height="62.0" opacity="0.7" rx="3" ry="3" stroke="#B0A090" stroke-width="1.5" width="101.14285714285714" x="1181.357142857143" y="703.4" /><rect fill="#D4B4A0" height="62.0" opacity="0.7" rx="3" ry="3" stroke="#B0A090" stroke-width="1.5" width="101.14285714285714" x="1285.5000000000002" y="703.4" /><rect fill="#D4B4A0" height="62.0" opacity="0.7" rx="3" ry="3" stroke="#B0A090" stroke-width="1.5" width="101.14285714285714" x="1389.642857142857" y="703.4" /><rect fill="#D4B4A0" height="62.0" opacity="0.7" rx="3" ry="3" stroke="#B0A090" stroke-width="1.5" width="101.14285714285714" x="1493.7857142857144" y="703.4" /><rect fill="#D4B4A0" height="62.0" opacity="0.7" rx="3" ry="3" stroke="#B0A090" stroke-width="1.5" width="101.14285714285714" x="1597.9285714285716" y="703.4" /><rect fill="#0D9488" height="62.0" opacity="0.85" rx="3" ry="3" stroke="#0D9488" stroke-width="1.5" width="101.14285714285714" x="1702.0714285714287" y="703.4" /><rect fill="#0D9488" height="62.0" opacity="0.85" rx="3" ry="3" stroke="#0D9488" stroke-width="1.5" width="101.14285714285714" x="1910.357142857143" y="703.4" /><rect fill="#D4B4A0" height="62.0" opacity="0.7" rx="3" ry="3" stroke="#B0A090" stroke-width="1.5" width="101.14285714285714" x="2014.5" y="703.4" /><rect fill="#D4B4A0" height="62.0" opacity="0.7" rx="3" ry="3" stroke="#B0A090" stroke-width="1.5" width="101.14285714285714" x="2118.642857142857" y="703.4" /><rect fill="#D4B4A0" height="62.0" opacity="0.7" rx="3" ry="3" stroke="#B0A090" stroke-width="1.5" width="101.14285714285714" x="2222.785714285714" y="703.4" /><rect fill="#D4B4A0" height="62.0" opacity="0.7" rx="3" ry="3" stroke="#B0A090" stroke-width="1.5" width="101.14285714285714" x="921.0" y="768.4" /><rect fill="#0D9488" height="62.0" opacity="0.85" rx="3" ry="3" stroke="#0D9488" stroke-width="1.5" width="101.14285714285714" x="1129.2857142857142" y="768.4" /><rect fill="#D4B4A0" height="62.0" opacity="0.7" rx="3" ry="3" stroke="#B0A090" stroke-width="1.5" width="101.14285714285714" x="1233.4285714285716" y="768.4" /><rect fill="#D4B4A0" height="62.0" opacity="0.7" rx="3" ry="3" stroke="#B0A090" stroke-width="1.5" width="101.14285714285714" x="1337.5714285714284" y="768.4" /><rect fill="#0D9488" height="62.0" opacity="0.85" rx="3" ry="3" stroke="#0D9488" stroke-width="1.5" width="101.14285714285714" x="1545.857142857143" y="768.4" /><rect fill="#D4B4A0" height="62.0" opacity="0.7" rx="3" ry="3" stroke="#B0A090" stroke-width="1.5" width="101.14285714285714" x="1650.0" y="768.4" /><rect fill="#D4B4A0" height="62.0" opacity="0.7" rx="3" ry="3" stroke="#B0A090" stroke-width="1.5" width="101.14285714285714" x="1754.142857142857" y="768.4" /><rect fill="#D4B4A0" height="62.0" opacity="0.7" rx="3" ry="3" stroke="#B0A090" stroke-width="1.5" width="101.14285714285714" x="1858.2857142857142" y="768.4" /><rect fill="#D4B4A0" height="62.0" opacity="0.7" rx="3" ry="3" stroke="#B0A090" stroke-width="1.5" width="101.14285714285714" x="1962.4285714285713" y="768.4" /><rect fill="#D4B4A0" height="62.0" opacity="0.7" rx="3" ry="3" stroke="#B0A090" stroke-width="1.5" width="101.14285714285714" x="2066.5714285714284" y="768.4" /><rect fill="#D4B4A0" height="62.0" opacity="0.7" rx="3" ry="3" stroke="#B0A090" stroke-width="1.5" width="101.14285714285714" x="2170.714285714286" y="768.4" /><rect fill="#D4B4A0" height="62.0" opacity="0.7" rx="3" ry="3" stroke="#B0A090" stroke-width="1.5" width="101.14285714285714" x="2274.857142857143" y="768.4" /><rect fill="#D4B4A0" height="62.0" opacity="0.7" rx="3" ry="3" stroke="#B0A090" stroke-width="1.5" width="101.14285714285714" x="973.0714285714286" y="833.4" /><rect fill="#D4B4A0" height="62.0" opacity="0.7" rx="3" ry="3" stroke="#B0A090" stroke-width="1.5" width="101.14285714285714" x="1077.2142857142858" y="833.4" /><rect fill="#D4B4A0" height="62.0" opacity="0.7" rx="3" ry="3" stroke="#B0A090" stroke-width="1.5" width="101.14285714285714" x="1181.357142857143" y="833.4" /><rect fill="#D4B4A0" height="62.0" opacity="0.7" rx="3" ry="3" stroke="#B0A090" stroke-width="1.5" width="101.14285714285714" x="1285.5000000000002" y="833.4" /><rect fill="#D4B4A0" height="62.0" opacity="0.7" rx="3" ry="3" stroke="#B0A090" stroke-width="1.5" width="101.14285714285714" x="1389.642857142857" y="833.4" /><rect fill="#D4B4A0" height="62.0" opacity="0.7" rx="3" ry="3" stroke="#B0A090" stroke-width="1.5" width="101.14285714285714" x="1493.7857142857144" y="833.4" /><rect fill="#D4B4A0" height="62.0" opacity="0.7" rx="3" ry="3" stroke="#B0A090" stroke-width="1.5" width="101.14285714285714" x="1597.9285714285716" y="833.4" /><rect fill="#D4B4A0" height="62.0" opacity="0.7" rx="3" ry="3" stroke="#B0A090" stroke-width="1.5" width="101.14285714285714" x="1702.0714285714287" y="833.4" /><rect fill="#D4B4A0" height="62.0" opacity="0.7" rx="3" ry="3" stroke="#B0A090" stroke-width="1.5" width="101.14285714285714" x="1806.2142857142858" y="833.4" /><rect fill="#0D9488" height="62.0" opacity="0.85" rx="3" ry="3" stroke="#0D9488" stroke-width="1.5" width="101.14285714285714" x="1910.357142857143" y="833.4" /><rect fill="#0D9488" height="62.0" opacity="0.85" rx="3" ry="3" stroke="#0D9488" stroke-width="1.5" width="101.14285714285714" x="2118.642857142857" y="833.4" /><rect fill="#D4B4A0" height="62.0" opacity="0.7" rx="3" ry="3" stroke="#B0A090" stroke-width="1.5" width="101.14285714285714" x="2222.785714285714" y="833.4" /><path d="M 1431.3,473.4 C 1491.8,500.9 1491.8,544.9 1431.3,583.4 C 1370.8,544.9 1370.8,500.9 1431.3,473.4 Z" fill="#2563EB" opacity="0.15" stroke="#2563EB" stroke-opacity="1.0" stroke-width="2.5" /><path d="M 1030.35,608.4 Q 1431.3,558.4 1832.25,608.4" fill="none" opacity="0.8" stroke="#2563EB" stroke-width="8" /><path d="M 1020.3499999999999,613.4 Q 1431.3,546.4 1842.25,613.4" fill="none" opacity="0.35" stroke="#2563EB" stroke-width="4" /><text style="font-family:Arial;font-size:48px;fill:#2563EB;text-anchor:middle;font-weight:bold" x="1431.3" y="453.4">OM-85</text><text style="font-family:Arial;font-size:44px;fill:#0D9488;text-anchor:middle;font-weight:bold" x="1941.6" y="948.4">PMBL</text><rect fill="#0D9488" height="16" opacity="0.4" rx="3" ry="3" stroke="#0D9488" stroke-width="1.5" width="28" x="1891.6" y="960.4" /><rect fill="#0D9488" height="16" opacity="0.4" rx="3" ry="3" stroke="#0D9488" stroke-width="1.5" width="28" x="1926.6" y="960.4" /><rect fill="#0D9488" height="16" opacity="0.4" rx="3" ry="3" stroke="#0D9488" stroke-width="1.5" width="28" x="1961.6" y="960.4" /><line opacity="0.4" stroke="#0D9488" stroke-dasharray="6,4" stroke-width="2" x1="1941.6" x2="1941.6" y1="904.4" y2="903.4" /><path d="M 1037.64,953.4 L 1050.3975,964.8805029709526 L 1063.1550000000002,974.6132034355965 L 1075.9125000000001,981.1163859753386 L 1088.67,983.4 L 1101.4275,981.1163859753386 L 1114.1850000000002,974.6132034355965 L 1126.9425,964.8805029709526 L 1139.7,953.4 L 1152.4575,941.9194970290473 L 1165.2150000000001,932.1867965644036 L 1177.9725,925.6836140246614 L 1190.73,923.4 L 1203.4875000000002,925.6836140246613 L 1216.2450000000001,932.1867965644035 L 1229.0025,941.9194970290473 L 1241.7600000000002,953.4 L 1254.5175000000002,964.8805029709526 L 1267.275,974.6132034355963 L 1280.0325,981.1163859753385 L 1292.79,983.4 L 1305.5475000000001,981.1163859753386 L 1318.305,974.6132034355965 L 1331.0625,964.8805029709526 L 1343.8200000000002,953.4 L 1356.5775,941.9194970290473 L 1369.335,932.1867965644035 L 1382.0925000000002,925.6836140246614 L 1394.85,923.4 L 1407.6075,925.6836140246613 L 1420.365,932.1867965644035 L 1433.1225,941.9194970290473 L 1445.88,953.4 L 1458.6375,964.8805029709526 L 1471.395,974.6132034355965 L 1484.1525000000001,981.1163859753385 L 1496.91,983.4 L 1509.6675,981.1163859753386 L 1522.425,974.6132034355965 L 1535.1825000000001,964.8805029709526 L 1547.94,953.4 " fill="none" opacity="0.7" stroke="#7C3AED" stroke-width="3" /><path d="M 1037.64,953.4 L 1050.3975,941.9194970290473 L 1063.1550000000002,932.1867965644035 L 1075.9125000000001,925.6836140246613 L 1088.67,923.4 L 1101.4275,925.6836140246613 L 1114.1850000000002,932.1867965644035 L 1126.9425,941.9194970290473 L 1139.7,953.4 L 1152.4575,964.8805029709526 L 1165.2150000000001,974.6132034355963 L 1177.9725,981.1163859753385 L 1190.73,983.4 L 1203.4875000000002,981.1163859753386 L 1216.2450000000001,974.6132034355965 L 1229.0025,964.8805029709526 L 1241.7600000000002,953.4 L 1254.5175000000002,941.9194970290473 L 1267.275,932.1867965644036 L 1280.0325,925.6836140246614 L 1292.79,923.4 L 1305.5475000000001,925.6836140246613 L 1318.305,932.1867965644035 L 1331.0625,941.9194970290473 L 1343.8200000000002,953.4 L 1356.5775,964.8805029709526 L 1369.335,974.6132034355965 L 1382.0925000000002,981.1163859753385 L 1394.85,983.4 L 1407.6075,981.1163859753386 L 1420.365,974.6132034355965 L 1433.1225,964.8805029709526 L 1445.88,953.4 L 1458.6375,941.9194970290473 L 1471.395,932.1867965644035 L 1484.1525000000001,925.6836140246614 L 1496.91,923.4 L 1509.6675,925.6836140246613 L 1522.425,932.1867965644035 L 1535.1825000000001,941.9194970290473 L 1547.94,953.4 " fill="none" opacity="0.7" stroke="#7C3AED" stroke-width="3" /><line opacity="0.35" stroke="#7C3AED" stroke-width="1.5" x1="1088.67" x2="1088.67" y1="983.4" y2="923.4" /><line opacity="0.35" stroke="#7C3AED" stroke-width="1.5" x1="1190.73" x2="1190.73" y1="923.4" y2="983.4" /><line opacity="0.35" stroke="#7C3AED" stroke-width="1.5" x1="1292.79" x2="1292.79" y1="983.4" y2="923.4" /><line opacity="0.35" stroke="#7C3AED" stroke-width="1.5" x1="1394.85" x2="1394.85" y1="923.4" y2="983.4" /><line opacity="0.35" stroke="#7C3AED" stroke-width="1.5" x1="1496.91" x2="1496.91" y1="983.4" y2="923.4" /><text style="font-family:Arial;font-size:44px;fill:#7C3AED;text-anchor:middle;font-weight:bold" x="1292.79" y="1018.4">MV130</text><polygon fill="#4B5563" opacity="0.15" points="1650.0,723.4 1663.2251681765806,750.1971176265637 1692.7975432332819,754.4942352531274 1671.398771616641,775.3528823734363 1676.4503363531612,804.8057647468726 1650.0,790.9 1623.5496636468388,804.8057647468726 1628.601228383359,775.3528823734363 1607.2024567667181,754.4942352531274 1636.7748318234194,750.1971176265637" stroke="#4B5563" stroke-width="2" /><path d="M 2160.3,1600 C 2040.3000000000002,1350   2342.36,1020.4   2262.36,820.4" fill="none" opacity="1.0" stroke="#059669" stroke-width="7" /><path d="M 2168.3,1600 C 2048.3,1355   2350.36,1015.4   2270.36,820.4" fill="none" opacity="0.4" stroke="#059669" stroke-width="3" /><circle cx="2160.3" cy="1600" fill="#059669" opacity="0.12" r="30" stroke="#059669" stroke-width="2.5" /><path d="M 2146.3,1590 Q 2155.3,1584 2160.3,1594 Q 2166.3,1604 2160.3,1608 Q 2155.3,1616 2168.3,1613" fill="none" opacity="0.8" stroke="#059669" stroke-width="2.5" /><text style="font-family:Arial;font-size:24px;fill:#059669;text-anchor:middle;font-weight:bold" x="2160.3" y="1648">Gut</text><circle cx="2262.36" cy="780.4" fill="#059669" opacity="0.12" r="25" stroke="#059669" stroke-width="2.5" /><path d="M 2262.36,768.4 C 2247.36,773.4 2247.36,790.4 2259.36,794.4 M 2262.36,768.4 C 2277.36,773.4 2277.36,790.4 2265.36,794.4" fill="none" opacity="0.8" stroke="#059669" stroke-width="2.5" /><text style="font-family:Arial;font-size:24px;fill:#059669;text-anchor:middle;font-weight:bold" x="2262.36" y="748.4">Lung</text><text style="font-family:Arial;font-size:44px;fill:#059669;text-anchor:middle;font-weight:bold" x="2080.3" y="1240.2">CRL1505</text><rect fill="#6EE7B7" height="62.0" opacity="0.85" rx="3" ry="3" stroke="#34D399" stroke-width="1.5" width="98.375" x="2449.0" y="638.4" /><rect fill="#6EE7B7" height="62.0" opacity="0.85" rx="3" ry="3" stroke="#34D399" stroke-width="1.5" width="98.375" x="2550.375" y="638.4" /><rect fill="#6EE7B7" height="62.0" opacity="0.85" rx="3" ry="3" stroke="#34D399" stroke-width="1.5" width="98.375" x="2651.75" y="638.4" /><rect fill="#6EE7B7" height="62.0" opacity="0.85" rx="3" ry="3" stroke="#34D399" stroke-width="1.5" width="98.375" x="2753.125" y="638.4" /><rect fill="#6EE7B7" height="62.0" opacity="0.85" rx="3" ry="3" stroke="#34D399" stroke-width="1.5" width="98.375" x="2854.5" y="638.4" /><rect fill="#6EE7B7" height="62.0" opacity="0.85" rx="3" ry="3" stroke="#34D399" stroke-width="1.5" width="98.375" x="2955.875" y="638.4" /><rect fill="#6EE7B7" height="62.0" opacity="0.85" rx="3" ry="3" stroke="#34D399" stroke-width="1.5" width="98.375" x="3057.25" y="638.4" /><rect fill="#6EE7B7" height="62.0" opacity="0.85" rx="3" ry="3" stroke="#34D399" stroke-width="1.5" width="98.375" x="3158.625" y="638.4" /><rect fill="#6EE7B7" height="62.0" opacity="0.85" rx="3" ry="3" stroke="#34D399" stroke-width="1.5" width="98.375" x="2499.6875" y="703.4" /><rect fill="#6EE7B7" height="62.0" opacity="0.85" rx="3" ry="3" stroke="#34D399" stroke-width="1.5" width="98.375" x="2601.0625" y="703.4" /><rect fill="#6EE7B7" height="62.0" opacity="0.85" rx="3" ry="3" stroke="#34D399" stroke-width="1.5" width="98.375" x="2702.4375" y="703.4" /><rect fill="#6EE7B7" height="62.0" opacity="0.85" rx="3" ry="3" stroke="#34D399" stroke-width="1.5" width="98.375" x="2803.8125" y="703.4" /><rect fill="#6EE7B7" height="62.0" opacity="0.85" rx="3" ry="3" stroke="#34D399" stroke-width="1.5" width="98.375" x="2905.1875" y="703.4" /><rect fill="#6EE7B7" height="62.0" opacity="0.85" rx="3" ry="3" stroke="#34D399" stroke-width="1.5" width="98.375" x="3006.5625" y="703.4" /><rect fill="#6EE7B7" height="62.0" opacity="0.85" rx="3" ry="3" stroke="#34D399" stroke-width="1.5" width="98.375" x="3107.9375" y="703.4" /><rect fill="#6EE7B7" height="62.0" opacity="0.85" rx="3" ry="3" stroke="#34D399" stroke-width="1.5" width="98.375" x="2449.0" y="768.4" /><rect fill="#6EE7B7" height="62.0" opacity="0.85" rx="3" ry="3" stroke="#34D399" stroke-width="1.5" width="98.375" x="2550.375" y="768.4" /><rect fill="#6EE7B7" height="62.0" opacity="0.85" rx="3" ry="3" stroke="#34D399" stroke-width="1.5" width="98.375" x="2651.75" y="768.4" /><rect fill="#6EE7B7" height="62.0" opacity="0.85" rx="3" ry="3" stroke="#34D399" stroke-width="1.5" width="98.375" x="2753.125" y="768.4" /><rect fill="#6EE7B7" height="62.0" opacity="0.85" rx="3" ry="3" stroke="#34D399" stroke-width="1.5" width="98.375" x="2854.5" y="768.4" /><rect fill="#6EE7B7" height="62.0" opacity="0.85" rx="3" ry="3" stroke="#34D399" stroke-width="1.5" width="98.375" x="2955.875" y="768.4" /><rect fill="#6EE7B7" height="62.0" opacity="0.85" rx="3" ry="3" stroke="#34D399" stroke-width="1.5" width="98.375" x="3057.25" y="768.4" /><rect fill="#6EE7B7" height="62.0" opacity="0.85" rx="3" ry="3" stroke="#34D399" stroke-width="1.5" width="98.375" x="3158.625" y="768.4" /><rect fill="#6EE7B7" height="62.0" opacity="0.85" rx="3" ry="3" stroke="#34D399" stroke-width="1.5" width="98.375" x="2499.6875" y="833.4" /><rect fill="#6EE7B7" height="62.0" opacity="0.85" rx="3" ry="3" stroke="#34D399" stroke-width="1.5" width="98.375" x="2601.0625" y="833.4" /><rect fill="#6EE7B7" height="62.0" opacity="0.85" rx="3" ry="3" stroke="#34D399" stroke-width="1.5" width="98.375" x="2702.4375" y="833.4" /><rect fill="#6EE7B7" height="62.0" opacity="0.85" rx="3" ry="3" stroke="#34D399" stroke-width="1.5" width="98.375" x="2803.8125" y="833.4" /><rect fill="#6EE7B7" height="62.0" opacity="0.85" rx="3" ry="3" stroke="#34D399" stroke-width="1.5" width="98.375" x="2905.1875" y="833.4" /><rect fill="#6EE7B7" height="62.0" opacity="0.85" rx="3" ry="3" stroke="#34D399" stroke-width="1.5" width="98.375" x="3006.5625" y="833.4" /><rect fill="#6EE7B7" height="62.0" opacity="0.85" rx="3" ry="3" stroke="#34D399" stroke-width="1.5" width="98.375" x="3107.9375" y="833.4" /><circle cx="2854" cy="528.4" fill="#059669" opacity="0.25" r="30.800000000000004" stroke="#059669" stroke-width="2.5" /><path d="M 2843.0,533.9 Q 2854,546.0 2865.0,533.9" fill="none" opacity="0.6" stroke="#059669" stroke-width="2" /><path d="M 2834.2,559.1999999999999 Q 2829.8,594.4 2837.5,621.9 L 2870.5,621.9 Q 2878.2,594.4 2873.8,559.1999999999999 Z" fill="#059669" opacity="0.18" stroke="#059669" stroke-width="2" /><path d="M 2834.2,566.9 Q 2810.0,544.9 2799.0,528.4" fill="none" stroke="#059669" stroke-width="3.3000000000000003" /><path d="M 2873.8,566.9 Q 2898.0,544.9 2909.0,528.4" fill="none" stroke="#059669" stroke-width="3.3000000000000003" /><path d="M 2843.0,621.9 L 2829.8,671.4" fill="none" stroke="#059669" stroke-width="3.8500000000000005" /><path d="M 2865.0,621.9 L 2878.2,671.4" fill="none" stroke="#059669" stroke-width="3.8500000000000005" /><path d="M 2889.391253272097,489.90321243248184 L 2892.031253272097,496.06321243248186 L 2898.191253272097,498.70321243248185 L 2892.031253272097,501.34321243248183 L 2889.391253272097,507.50321243248186 L 2886.751253272097,501.34321243248183 L 2880.5912532720968,498.70321243248185 L 2886.751253272097,496.06321243248186 Z" fill="#059669" opacity="0.4" /><path d="M 2820.294044502765,491.3173451737922 L 2822.9340445027647,497.47734517379223 L 2829.094044502765,500.1173451737922 L 2822.9340445027647,502.7573451737922 L 2820.294044502765,508.9173451737922 L 2817.654044502765,502.7573451737922 L 2811.4940445027646,500.1173451737922 L 2817.654044502765,497.47734517379223 Z" fill="#059669" opacity="0.4" /><path d="M 2854.0,466.79999999999995 L 2856.64,472.96 L 2862.8,475.59999999999997 L 2856.64,478.23999999999995 L 2854.0,484.4 L 2851.36,478.23999999999995 L 2845.2,475.59999999999997 L 2851.36,472.96 Z" fill="#059669" opacity="0.4" /><text style="font-family:Arial;font-size:32px;fill:#065F46;text-anchor:middle;font-weight:bold" x="2854" y="618.4">Protected airways</text><text style="font-family:Arial;font-size:32px;fill:#1F2937;text-anchor:start;font-weight:bold" x="2459" y="953.4">Clinical evidence</text><polygon fill="#2563EB" opacity="0.45" points="2459,978.4 2469,968.4 3250,968.4 3240,978.4" /><polygon fill="#2563EB" opacity="0.3" points="3240,978.4 3250,968.4 3250,1068.4 3240,1078.4" /><rect fill="#2563EB" height="100" opacity="0.8" rx="3" ry="3" width="781" x="2459" y="978.4" /><text style="font-family:Arial;font-size:38px;fill:white;text-anchor:middle;font-weight:bold" x="2849.5" y="1026.4">OM-85</text><text style="font-family:Arial;font-size:24px;fill:white;text-anchor:middle;opacity:0.9" x="2849.5" y="1055.0">18 RCTs</text><polygon fill="#0D9488" opacity="0.45" points="2459,1093.4 2469,1083.4 3052.92,1083.4 3042.92,1093.4" /><polygon fill="#0D9488" opacity="0.3" points="3042.92,1093.4 3052.92,1083.4 3052.92,1168.4 3042.92,1178.4" /><rect fill="#0D9488" height="85" opacity="0.8" rx="3" ry="3" width="583.92" x="2459" y="1093.4" /><text style="font-family:Arial;font-size:38px;fill:white;text-anchor:middle;font-weight:bold" x="2750.96" y="1133.9">PMBL</text><text style="font-family:Arial;font-size:24px;fill:white;text-anchor:middle;opacity:0.9" x="2750.96" y="1162.5">5 RCTs</text><polygon fill="#7C3AED" opacity="0.45" points="2459,1193.4 2469,1183.4 2858.2799999999997,1183.4 2848.2799999999997,1193.4" /><polygon fill="#7C3AED" opacity="0.3" points="2848.2799999999997,1193.4 2858.2799999999997,1183.4 2858.2799999999997,1255.4 2848.2799999999997,1265.4" /><rect fill="#7C3AED" height="72" opacity="0.8" rx="3" ry="3" width="389.28" x="2459" y="1193.4" /><text style="font-family:Arial;font-size:38px;fill:white;text-anchor:middle;font-weight:bold" x="2653.64" y="1227.4">MV130</text><text style="font-family:Arial;font-size:24px;fill:white;text-anchor:middle;opacity:0.9" x="2653.64" y="1256.0">1 RCT</text><polygon fill="#059669" opacity="0.45" points="2459,1278.4 2469,1268.4 2728.52,1268.4 2718.52,1278.4" /><polygon fill="#059669" opacity="0.3" points="2718.52,1278.4 2728.52,1268.4 2728.52,1330.4 2718.52,1340.4" /><rect fill="#059669" height="62" opacity="0.8" rx="3" ry="3" width="259.52" x="2459" y="1278.4" /><text style="font-family:Arial;font-size:32px;fill:white;text-anchor:middle;font-weight:bold" x="2588.76" y="1307.4">CRL1505</text><text style="font-family:Arial;font-size:20px;fill:white;text-anchor:middle;opacity:0.9" x="2588.76" y="1331.8000000000002">Preclinical</text><text style="font-family:Arial;font-size:60px;fill:#D1D5DB;text-anchor:middle" x="891" y="740.0">›</text><text style="font-family:Arial;font-size:60px;fill:#D1D5DB;text-anchor:middle" x="891" y="840.0">›</text><text style="font-family:Arial;font-size:60px;fill:#D1D5DB;text-anchor:middle" x="891" y="940.0">›</text><text style="font-family:Arial;font-size:60px;fill:#D1D5DB;text-anchor:middle" x="2409" y="740.0">›</text><text style="font-family:Arial;font-size:60px;fill:#D1D5DB;text-anchor:middle" x="2409" y="840.0">›</text><text style="font-family:Arial;font-size:60px;fill:#D1D5DB;text-anchor:middle" x="2409" y="940.0">›</text></svg>