<?xml version="1.0" encoding="utf-8" ?>
<svg baseProfile="full" height="1680px" version="1.1" viewBox="0 0 3300 1680" width="3300px" xmlns="http://www.w3.org/2000/svg" xmlns:ev="http://www.w3.org/2001/xml-events" xmlns:xlink="http://www.w3.org/1999/xlink"><defs /><rect fill="#FAFAFA" height="1680" width="3300" x="0" y="0" /><rect fill="#FEE2E2" height="1680" opacity="0.5" width="825" x="0" y="0" /><rect fill="#FFF7ED" height="1680" opacity="0.3" width="1650" x="825" y="0" /><rect fill="#ECFDF5" height="1680" opacity="0.5" width="825" x="2475" y="0" /><line stroke="#9CA3AF" stroke-dasharray="12,8" stroke-width="2" x1="825" x2="825" y1="0" y2="1680" /><line stroke="#9CA3AF" stroke-dasharray="12,8" stroke-width="2" x1="2475" x2="2475" y1="0" y2="1680" /><text style="font-family:Arial;font-weight:bold;font-size:28px;fill:#9CA3AF;text-anchor:middle" x="412" y="36">ZONE 1 — PROBLÈME</text><text style="font-family:Arial;font-weight:bold;font-size:28px;fill:#9CA3AF;text-anchor:middle" x="1650" y="36">ZONE 2 — INTERVENTION + MÉCANISMES</text><text style="font-family:Arial;font-weight:bold;font-size:28px;fill:#9CA3AF;text-anchor:middle" x="2887" y="36">ZONE 3 — ÉVIDENCE CLINIQUE</text><text style="font-family:Arial;font-size:22px;fill:#D1D5DB;text-anchor:middle" x="412" y="62">~25%</text><text style="font-family:Arial;font-size:22px;fill:#D1D5DB;text-anchor:middle" x="1650" y="62">~50%</text><text style="font-family:Arial;font-size:22px;fill:#D1D5DB;text-anchor:middle" x="2887" y="62">~25%</text><ellipse cx="412" cy="840" fill="white" opacity="0.9" rx="180" ry="260" stroke="#F87171" stroke-width="12" /><ellipse cx="412" cy="840" fill="none" opacity="0.6" rx="220" ry="300" stroke="#F87171" stroke-dasharray="18,10" stroke-width="8" /><text style="font-family:Arial;font-size:24px;fill:#9CA3AF;text-anchor:middle;font-style:italic" x="412" y="848">Bronchial lumen</text><text style="font-family:Arial;font-size:24px;fill:#9CA3AF;text-anchor:middle;font-style:italic" x="412" y="878">(porous epithelium)</text><circle cx="352" cy="720" fill="#FCD34D" opacity="0.5" r="18" /><circle cx="452" cy="760" fill="#FCD34D" opacity="0.5" r="18" /><circle cx="392" cy="940" fill="#FCD34D" opacity="0.5" r="18" /><circle cx="482" cy="900" fill="#FCD34D" opacity="0.5" r="18" /><circle cx="272" cy="640" fill="#DC2626" opacity="0.85" r="28" /><line stroke="#DC2626" stroke-width="4" x1="300.0" x2="314.0" y1="640.0" y2="640.0" /><circle cx="314.0" cy="640.0" fill="#DC2626" r="5" /><line stroke="#DC2626" stroke-width="4" x1="286.0" x2="293.0" y1="664.2487113059643" y2="676.3730669589464" /><circle cx="293.0" cy="676.3730669589464" fill="#DC2626" r="5" /><line stroke="#DC2626" stroke-width="4" x1="258.0" x2="251.0" y1="664.2487113059643" y2="676.3730669589464" /><circle cx="251.0" cy="676.3730669589464" fill="#DC2626" r="5" /><line stroke="#DC2626" stroke-width="4" x1="244.0" x2="230.0" y1="640.0" y2="640.0" /><circle cx="230.0" cy="640.0" fill="#DC2626" r="5" /><line stroke="#DC2626" stroke-width="4" x1="258.0" x2="250.99999999999997" y1="615.7512886940357" y2="603.6269330410536" /><circle cx="250.99999999999997" cy="603.6269330410536" fill="#DC2626" r="5" /><line stroke="#DC2626" stroke-width="4" x1="286.0" x2="293.0" y1="615.7512886940357" y2="603.6269330410536" /><circle cx="293.0" cy="603.6269330410536" fill="#DC2626" r="5" /><circle cx="512" cy="580" fill="#DC2626" opacity="0.85" r="22" /><line stroke="#DC2626" stroke-width="4" x1="534.0" x2="548.0" y1="580.0" y2="580.0" /><circle cx="548.0" cy="580.0" fill="#DC2626" r="5" /><line stroke="#DC2626" stroke-width="4" x1="523.0" x2="530.0" y1="599.0525588832577" y2="611.1769145362398" /><circle cx="530.0" cy="611.1769145362398" fill="#DC2626" r="5" /><line stroke="#DC2626" stroke-width="4" x1="501.0" x2="494.0" y1="599.0525588832577" y2="611.1769145362398" /><circle cx="494.0" cy="611.1769145362398" fill="#DC2626" r="5" /><line stroke="#DC2626" stroke-width="4" x1="490.0" x2="476.0" y1="580.0" y2="580.0" /><circle cx="476.0" cy="580.0" fill="#DC2626" r="5" /><line stroke="#DC2626" stroke-width="4" x1="501.0" x2="494.0" y1="560.9474411167423" y2="548.8230854637602" /><circle cx="494.0" cy="548.8230854637602" fill="#DC2626" r="5" /><line stroke="#DC2626" stroke-width="4" x1="523.0" x2="530.0" y1="560.9474411167423" y2="548.8230854637602" /><circle cx="530.0" cy="548.8230854637602" fill="#DC2626" r="5" /><circle cx="212" cy="890" fill="#DC2626" opacity="0.85" r="20" /><line stroke="#DC2626" stroke-width="4" x1="232.0" x2="246.0" y1="890.0" y2="890.0" /><circle cx="246.0" cy="890.0" fill="#DC2626" r="5" /><line stroke="#DC2626" stroke-width="4" x1="222.0" x2="229.0" y1="907.3205080756887" y2="919.444863728671" /><circle cx="229.0" cy="919.444863728671" fill="#DC2626" r="5" /><line stroke="#DC2626" stroke-width="4" x1="202.0" x2="195.0" y1="907.3205080756887" y2="919.444863728671" /><circle cx="195.0" cy="919.444863728671" fill="#DC2626" r="5" /><line stroke="#DC2626" stroke-width="4" x1="192.0" x2="178.0" y1="890.0" y2="890.0" /><circle cx="178.0" cy="890.0" fill="#DC2626" r="5" /><line stroke="#DC2626" stroke-width="4" x1="202.0" x2="195.0" y1="872.6794919243113" y2="860.555136271329" /><circle cx="195.0" cy="860.555136271329" fill="#DC2626" r="5" /><line stroke="#DC2626" stroke-width="4" x1="222.0" x2="229.0" y1="872.6794919243113" y2="860.555136271329" /><circle cx="229.0" cy="860.555136271329" fill="#DC2626" r="5" /><text style="font-family:Arial;font-size:20px;fill:#DC2626;text-anchor:middle;font-weight:bold" x="272" y="600">RSV</text><text style="font-family:Arial;font-size:20px;fill:#DC2626;text-anchor:middle;font-weight:bold" x="512" y="544">RV</text><text style="font-family:Arial;font-size:26px;fill:#991B1B;text-anchor:middle;font-weight:bold" x="412.0" y="420.0">Viral RTIs</text><text style="font-family:Arial;font-size:26px;fill:#991B1B;text-anchor:middle;font-weight:bold" x="775.7306695894642" y="1050.0">Dysregulated</text><text style="font-family:Arial;font-size:26px;fill:#991B1B;text-anchor:middle;font-weight:bold" x="775.7306695894642" y="1080.0">inflammation</text><text style="font-family:Arial;font-size:26px;fill:#991B1B;text-anchor:middle;font-weight:bold" x="48.269330410535815" y="630.0">Airway</text><text style="font-family:Arial;font-size:26px;fill:#991B1B;text-anchor:middle;font-weight:bold" x="48.269330410535815" y="660.0">remodeling</text><path d="M 602.0,510.91034656191334 A 380,380 0 0,1 786.226946144639,774.0136924865665" fill="none" stroke="#B91C1C" stroke-width="5" /><polygon fill="#B91C1C" points="786.226946144639,774.0136924865665 798.0446391807855,776.0974706185697 796.6192509900523,768.0136924865665" /><path d="M 602.0,1169.0896534380868 A 380,380 0 0,1 167.74070831911504,1131.0968883852115" fill="none" stroke="#B91C1C" stroke-width="5" /><polygon fill="#B91C1C" points="167.74070831911504,1131.0968883852115 157.34840347370178,1137.0968883852115 163.636466599207,1142.3731998346425" /><path d="M 32.0,840.0 A 380,380 0 0,1 282.03234553624594,482.9168041013548" fill="none" stroke="#B91C1C" stroke-width="5" /><polygon fill="#B91C1C" points="282.03234553624594,482.9168041013548 282.03234553624594,470.9168041013548 274.31889422000745,473.72427078392707" /><text style="font-family:Arial;font-size:32px;fill:#7F1D1D;text-anchor:middle;font-weight:bold" x="412" y="1600">Wheezing / Asthma</text><rect fill="#2563EB" height="70" opacity="0.15" rx="15" ry="15" stroke="#2563EB" stroke-width="3" width="100" x="1141.0" y="145" /><text style="font-family:Arial;font-size:18px;fill:#2563EB;text-anchor:middle;font-style:italic" x="1191.0" y="186">[capsule]</text><text style="font-family:Arial;font-size:30px;fill:#2563EB;text-anchor:middle;font-weight:bold" x="1191.0" y="255">OM-85</text><line opacity="0.5" stroke="#2563EB" stroke-width="3" x1="1191.0" x2="1650" y1="265" y2="520" /><polygon fill="#2563EB" opacity="0.5" points="1650,520 1642,504 1658,504" /><rect fill="#0D9488" height="70" opacity="0.15" rx="15" ry="15" stroke="#0D9488" stroke-width="3" width="100" x="1447.0" y="145" /><text style="font-family:Arial;font-size:18px;fill:#0D9488;text-anchor:middle;font-style:italic" x="1497.0" y="186">[tablet]</text><text style="font-family:Arial;font-size:30px;fill:#0D9488;text-anchor:middle;font-weight:bold" x="1497.0" y="255">PMBL</text><line opacity="0.5" stroke="#0D9488" stroke-width="3" x1="1497.0" x2="1650" y1="265" y2="520" /><polygon fill="#0D9488" opacity="0.5" points="1650,520 1642,504 1658,504" /><rect fill="#7C3AED" height="70" opacity="0.15" rx="15" ry="15" stroke="#7C3AED" stroke-width="3" width="100" x="1753.0" y="145" /><text style="font-family:Arial;font-size:18px;fill:#7C3AED;text-anchor:middle;font-style:italic" x="1803.0" y="186">[spray]</text><text style="font-family:Arial;font-size:30px;fill:#7C3AED;text-anchor:middle;font-weight:bold" x="1803.0" y="255">MV130</text><line opacity="0.5" stroke="#7C3AED" stroke-width="3" x1="1803.0" x2="1650" y1="265" y2="520" /><polygon fill="#7C3AED" opacity="0.5" points="1650,520 1642,504 1658,504" /><rect fill="#059669" height="70" opacity="0.15" rx="15" ry="15" stroke="#059669" stroke-width="3" width="100" x="2059.0" y="145" /><text style="font-family:Arial;font-size:18px;fill:#059669;text-anchor:middle;font-style:italic" x="2109.0" y="186">[probiotic]</text><text style="font-family:Arial;font-size:30px;fill:#059669;text-anchor:middle;font-weight:bold" x="2109.0" y="255">CRL1505</text><line opacity="0.5" stroke="#059669" stroke-width="3" x1="2109.0" x2="1650" y1="265" y2="520" /><polygon fill="#059669" opacity="0.5" points="1650,520 1642,504 1658,504" /><text style="font-family:Arial;font-size:22px;fill:#9CA3AF;text-anchor:middle;font-style:italic" x="1650" y="550">convergent action</text><circle cx="1350" cy="640" fill="#F59E0B" opacity="0.12" r="50" stroke="#F59E0B" stroke-width="3" /><text style="font-family:Arial;font-size:40px;text-anchor:middle" x="1350" y="655">🧱</text><text style="font-family:Arial;font-size:32px;fill:#1F2937;text-anchor:start;font-weight:bold" x="1430" y="635">Epithelial barrier</text><text style="font-family:Arial;font-size:20px;fill:#D1D5DB;text-anchor:start;font-style:italic" x="1430" y="665">→ Bricks closing / tight junctions</text><circle cx="1350" cy="880" fill="#EF4444" opacity="0.12" r="50" stroke="#EF4444" stroke-width="3" /><text style="font-family:Arial;font-size:40px;text-anchor:middle" x="1350" y="895">🔬</text><text style="font-family:Arial;font-size:32px;fill:#1F2937;text-anchor:start;font-weight:bold" x="1430" y="875">Innate immunity</text><text style="font-family:Arial;font-size:20px;fill:#D1D5DB;text-anchor:start;font-style:italic" x="1430" y="905">→ DC/Macrophage activating (glow)</text><circle cx="1350" cy="1120" fill="#3B82F6" opacity="0.12" r="50" stroke="#3B82F6" stroke-width="3" /><text style="font-family:Arial;font-size:40px;text-anchor:middle" x="1350" y="1135">⚖️</text><text style="font-family:Arial;font-size:32px;fill:#1F2937;text-anchor:start;font-weight:bold" x="1430" y="1115">Adaptive balance</text><text style="font-family:Arial;font-size:20px;fill:#D1D5DB;text-anchor:start;font-style:italic" x="1430" y="1145">→ Th1/Th2 scale rebalancing</text><circle cx="1350" cy="1360" fill="#10B981" opacity="0.12" r="50" stroke="#10B981" stroke-width="3" /><text style="font-family:Arial;font-size:40px;text-anchor:middle" x="1350" y="1375">🌡️</text><text style="font-family:Arial;font-size:32px;fill:#1F2937;text-anchor:start;font-weight:bold" x="1430" y="1355">Inflammation control</text><text style="font-family:Arial;font-size:20px;fill:#D1D5DB;text-anchor:start;font-style:italic" x="1430" y="1385">→ Thermostat going down</text><line stroke="#9CA3AF" stroke-width="3" x1="1270" x2="1270" y1="620" y2="1380" /><text style="font-family:Arial;font-size:20px;fill:#D1D5DB;text-anchor:middle" x="1245" y="630">S</text><text style="font-family:Arial;font-size:20px;fill:#D1D5DB;text-anchor:middle" x="1245" y="670">H</text><text style="font-family:Arial;font-size:20px;fill:#D1D5DB;text-anchor:middle" x="1245" y="710">A</text><text style="font-family:Arial;font-size:20px;fill:#D1D5DB;text-anchor:middle" x="1245" y="750">R</text><text style="font-family:Arial;font-size:20px;fill:#D1D5DB;text-anchor:middle" x="1245" y="790">E</text><text style="font-family:Arial;font-size:20px;fill:#D1D5DB;text-anchor:middle" x="1245" y="830">D</text><text style="font-family:Arial;font-size:20px;fill:#D1D5DB;text-anchor:middle" x="1245" y="870"> </text><text style="font-family:Arial;font-size:20px;fill:#D1D5DB;text-anchor:middle" x="1245" y="910">M</text><text style="font-family:Arial;font-size:20px;fill:#D1D5DB;text-anchor:middle" x="1245" y="950">E</text><text style="font-family:Arial;font-size:20px;fill:#D1D5DB;text-anchor:middle" x="1245" y="990">C</text><text style="font-family:Arial;font-size:20px;fill:#D1D5DB;text-anchor:middle" x="1245" y="1030">H</text><text style="font-family:Arial;font-size:20px;fill:#D1D5DB;text-anchor:middle" x="1245" y="1070">A</text><text style="font-family:Arial;font-size:20px;fill:#D1D5DB;text-anchor:middle" x="1245" y="1110">N</text><text style="font-family:Arial;font-size:20px;fill:#D1D5DB;text-anchor:middle" x="1245" y="1150">I</text><text style="font-family:Arial;font-size:20px;fill:#D1D5DB;text-anchor:middle" x="1245" y="1190">S</text><text style="font-family:Arial;font-size:20px;fill:#D1D5DB;text-anchor:middle" x="1245" y="1230">M</text><text style="font-family:Arial;font-size:20px;fill:#D1D5DB;text-anchor:middle" x="1245" y="1270">S</text><ellipse cx="2887" cy="400" fill="white" opacity="0.9" rx="150" ry="220" stroke="#34D399" stroke-width="12" /><ellipse cx="2887" cy="400" fill="none" opacity="0.6" rx="185" ry="255" stroke="#34D399" stroke-width="8" /><text style="font-family:Arial;font-size:24px;fill:#6B7280;text-anchor:middle;font-style:italic" x="2887" y="395">Healthy airway</text><text style="font-family:Arial;font-size:24px;fill:#6B7280;text-anchor:middle;font-style:italic" x="2887" y="425">(intact epithelium)</text><text style="font-family:Arial;font-size:28px;fill:#1F2937;text-anchor:middle;font-weight:bold" x="2887" y="730">Clinical evidence</text><rect fill="#E5E7EB" height="155" rx="8" ry="8" width="240" x="2767" y="760" /><rect fill="#2563EB" height="155" opacity="0.7" rx="8" ry="8" width="240.0" x="2767" y="760" /><text style="font-family:Arial;font-size:26px;fill:#2563EB;text-anchor:end;font-weight:bold" x="2752" y="845">OM-85</text><text style="font-family:Arial;font-size:22px;fill:white;text-anchor:start;font-weight:bold" x="2779" y="845">18 RCTs</text><rect fill="#E5E7EB" height="155" rx="8" ry="8" width="240" x="2767" y="935" /><rect fill="#0D9488" height="155" opacity="0.7" rx="8" ry="8" width="132.0" x="2767" y="935" /><text style="font-family:Arial;font-size:26px;fill:#0D9488;text-anchor:end;font-weight:bold" x="2752" y="1020">PMBL</text><text style="font-family:Arial;font-size:22px;fill:white;text-anchor:start;font-weight:bold" x="2779" y="1020">5 RCTs</text><rect fill="#E5E7EB" height="155" rx="8" ry="8" width="240" x="2767" y="1110" /><rect fill="#7C3AED" height="155" opacity="0.7" rx="8" ry="8" width="72.0" x="2767" y="1110" /><text style="font-family:Arial;font-size:26px;fill:#7C3AED;text-anchor:end;font-weight:bold" x="2752" y="1195">MV130</text><text style="font-family:Arial;font-size:22px;fill:white;text-anchor:start;font-weight:bold" x="2779" y="1195">1 RCT</text><rect fill="#E5E7EB" height="155" rx="8" ry="8" width="240" x="2767" y="1285" /><rect fill="#059669" height="155" opacity="0.7" rx="8" ry="8" width="28.799999999999997" x="2767" y="1285" /><text style="font-family:Arial;font-size:26px;fill:#059669;text-anchor:end;font-weight:bold" x="2752" y="1370">CRL1505</text><text style="font-family:Arial;font-size:22px;fill:#059669;text-anchor:start;font-weight:bold" x="2805.8" y="1370">Preclinical</text><text style="font-family:Arial;font-size:18px;fill:#9CA3AF;text-anchor:middle" x="2887" y="754">▲ Robust</text><text style="font-family:Arial;font-size:18px;fill:#9CA3AF;text-anchor:middle" x="2887" y="1475">▼ Emerging</text><polygon fill="#9CA3AF" opacity="0.3" points="795,790 875,840 795,890" /><polygon fill="#9CA3AF" opacity="0.3" points="2445,790 2525,840 2445,890" /><text style="font-family:Arial;font-size:18px;fill:#E5E7EB;text-anchor:middle" x="1650" y="1660">3300px × 1680px (3x working)</text><text style="font-family:Arial;font-size:18px;fill:#E5E7EB;text-anchor:middle" x="1650" y="1676">Final: 1100×560 px</text></svg>