<?xml version="1.0" encoding="utf-8" ?>
<svg baseProfile="full" height="1680px" version="1.1" viewBox="0 0 3300 1680" width="3300px" xmlns="http://www.w3.org/2000/svg" xmlns:ev="http://www.w3.org/2001/xml-events" xmlns:xlink="http://www.w3.org/1999/xlink"><defs /><rect fill="#FAFAFA" height="1680" width="3300" x="0" y="0" /><rect fill="#FEF2F2" height="1680" opacity="0.6" width="891" x="0" y="0" /><rect fill="#FFFBEB" height="1680" opacity="0.25" width="1518" x="891" y="0" /><rect fill="#ECFDF5" height="1680" opacity="0.5" width="891" x="2409" y="0" /><circle cx="515" cy="739.2" fill="#FCA5A5" opacity="0.25" r="140" stroke="#F87171" stroke-width="8" /><circle cx="515" cy="739.2" fill="none" r="105.0" stroke="#DC2626" stroke-dasharray="18,12" stroke-width="5" /><circle cx="515" cy="739.2" fill="white" opacity="0.9" r="70.0" stroke="#FCA5A5" stroke-width="2" /><circle cx="533.1865334794732" cy="749.7" fill="#FCD34D" opacity="0.35" r="8" /><circle cx="499.8445554337723" cy="747.95" fill="#FCD34D" opacity="0.35" r="8" /><circle cx="506.62050648852113" cy="716.1775307907453" fill="#FCD34D" opacity="0.35" r="8" /><circle cx="610.4594154601839" cy="834.6594154601839" fill="#DC2626" opacity="0.85" r="22" /><line stroke="#DC2626" stroke-width="2.5" x1="632.4594154601839" x2="642.4594154601839" y1="834.6594154601839" y2="834.6594154601839" /><circle cx="642.4594154601839" cy="834.6594154601839" fill="#DC2626" r="3.5" /><line stroke="#DC2626" stroke-width="2.5" x1="626.015764646288" x2="633.0868324581534" y1="850.215764646288" y2="857.2868324581534" /><circle cx="633.0868324581534" cy="857.2868324581534" fill="#DC2626" r="3.5" /><line stroke="#DC2626" stroke-width="2.5" x1="610.4594154601839" x2="610.4594154601839" y1="856.6594154601839" y2="866.6594154601839" /><circle cx="610.4594154601839" cy="866.6594154601839" fill="#DC2626" r="3.5" /><line stroke="#DC2626" stroke-width="2.5" x1="594.9030662740798" x2="587.8319984622144" y1="850.215764646288" y2="857.2868324581534" /><circle cx="587.8319984622144" cy="857.2868324581534" fill="#DC2626" r="3.5" /><line stroke="#DC2626" stroke-width="2.5" x1="588.4594154601839" x2="578.4594154601839" y1="834.6594154601839" y2="834.6594154601839" /><circle cx="578.4594154601839" cy="834.6594154601839" fill="#DC2626" r="3.5" /><line stroke="#DC2626" stroke-width="2.5" x1="594.9030662740798" x2="587.8319984622144" y1="819.1030662740799" y2="812.0319984622145" /><circle cx="587.8319984622144" cy="812.0319984622145" fill="#DC2626" r="3.5" /><line stroke="#DC2626" stroke-width="2.5" x1="610.4594154601839" x2="610.4594154601839" y1="812.6594154601839" y2="802.6594154601839" /><circle cx="610.4594154601839" cy="802.6594154601839" fill="#DC2626" r="3.5" /><line stroke="#DC2626" stroke-width="2.5" x1="626.015764646288" x2="633.0868324581534" y1="819.1030662740799" y2="812.0319984622145" /><circle cx="633.0868324581534" cy="812.0319984622145" fill="#DC2626" r="3.5" /><line opacity="0.4" stroke="#DC2626" stroke-dasharray="5,4" stroke-width="2" x1="610.4594154601839" x2="578.6396103067893" y1="834.6594154601839" y2="802.8396103067894" /><circle cx="411.58400017893797" cy="825.9763273076828" fill="#DC2626" opacity="0.85" r="18" /><line stroke="#DC2626" stroke-width="2.5" x1="429.58400017893797" x2="439.58400017893797" y1="825.9763273076828" y2="825.9763273076828" /><circle cx="439.58400017893797" cy="825.9763273076828" fill="#DC2626" r="3.5" /><line stroke="#DC2626" stroke-width="2.5" x1="424.3119222402958" x2="431.3829900521613" y1="838.7042493690407" y2="845.7753171809062" /><circle cx="431.3829900521613" cy="845.7753171809062" fill="#DC2626" r="3.5" /><line stroke="#DC2626" stroke-width="2.5" x1="411.58400017893797" x2="411.58400017893797" y1="843.9763273076828" y2="853.9763273076828" /><circle cx="411.58400017893797" cy="853.9763273076828" fill="#DC2626" r="3.5" /><line stroke="#DC2626" stroke-width="2.5" x1="398.8560781175801" x2="391.78501030571465" y1="838.7042493690407" y2="845.7753171809062" /><circle cx="391.78501030571465" cy="845.7753171809062" fill="#DC2626" r="3.5" /><line stroke="#DC2626" stroke-width="2.5" x1="393.58400017893797" x2="383.58400017893797" y1="825.9763273076828" y2="825.9763273076828" /><circle cx="383.58400017893797" cy="825.9763273076828" fill="#DC2626" r="3.5" /><line stroke="#DC2626" stroke-width="2.5" x1="398.8560781175801" x2="391.78501030571465" y1="813.248405246325" y2="806.1773374344594" /><circle cx="391.78501030571465" cy="806.1773374344594" fill="#DC2626" r="3.5" /><line stroke="#DC2626" stroke-width="2.5" x1="411.58400017893797" x2="411.58400017893797" y1="807.9763273076828" y2="797.9763273076828" /><circle cx="411.58400017893797" cy="797.9763273076828" fill="#DC2626" r="3.5" /><line stroke="#DC2626" stroke-width="2.5" x1="424.3119222402958" x2="431.3829900521613" y1="813.248405246325" y2="806.1773374344594" /><circle cx="431.3829900521613" cy="806.1773374344594" fill="#DC2626" r="3.5" /><line opacity="0.4" stroke="#DC2626" stroke-dasharray="5,4" stroke-width="2" x1="411.58400017893797" x2="446.056000119292" y1="825.9763273076828" y2="797.0508848717886" /><circle cx="601.7763273076828" cy="635.784000178938" fill="#DC2626" opacity="0.85" r="16" /><line stroke="#DC2626" stroke-width="2.5" x1="617.7763273076828" x2="627.7763273076828" y1="635.784000178938" y2="635.784000178938" /><circle cx="627.7763273076828" cy="635.784000178938" fill="#DC2626" r="3.5" /><line stroke="#DC2626" stroke-width="2.5" x1="613.0900358066675" x2="620.161103618533" y1="647.0977086779227" y2="654.1687764897882" /><circle cx="620.161103618533" cy="654.1687764897882" fill="#DC2626" r="3.5" /><line stroke="#DC2626" stroke-width="2.5" x1="601.7763273076828" x2="601.7763273076828" y1="651.784000178938" y2="661.784000178938" /><circle cx="601.7763273076828" cy="661.784000178938" fill="#DC2626" r="3.5" /><line stroke="#DC2626" stroke-width="2.5" x1="590.462618808698" x2="583.3915509968325" y1="647.0977086779227" y2="654.1687764897882" /><circle cx="583.3915509968325" cy="654.1687764897882" fill="#DC2626" r="3.5" /><line stroke="#DC2626" stroke-width="2.5" x1="585.7763273076828" x2="575.7763273076828" y1="635.784000178938" y2="635.784000178938" /><circle cx="575.7763273076828" cy="635.784000178938" fill="#DC2626" r="3.5" /><line stroke="#DC2626" stroke-width="2.5" x1="590.462618808698" x2="583.3915509968325" y1="624.4702916799532" y2="617.3992238680877" /><circle cx="583.3915509968325" cy="617.3992238680877" fill="#DC2626" r="3.5" /><line stroke="#DC2626" stroke-width="2.5" x1="601.7763273076828" x2="601.7763273076828" y1="619.784000178938" y2="609.784000178938" /><circle cx="601.7763273076828" cy="609.784000178938" fill="#DC2626" r="3.5" /><line stroke="#DC2626" stroke-width="2.5" x1="613.0900358066675" x2="620.161103618533" y1="624.4702916799532" y2="617.3992238680877" /><circle cx="620.161103618533" cy="617.3992238680877" fill="#DC2626" r="3.5" /><line opacity="0.4" stroke="#DC2626" stroke-dasharray="5,4" stroke-width="2" x1="601.7763273076828" x2="572.8508848717885" y1="635.784000178938" y2="670.256000119292" /><text style="font-family:Arial;font-size:30px;fill:#DC2626;text-anchor:middle;font-weight:bold" x="690" y="569.2">RSV</text><text style="font-family:Arial;font-size:30px;fill:#DC2626;text-anchor:middle;font-weight:bold" x="355" y="749.2">RV</text><circle cx="515" cy="499.20000000000005" fill="#DC2626" opacity="0.25" r="25" stroke="#DC2626" stroke-width="3.5" /><path d="M 515,524.2 Q 507,554.2 510,574.2" fill="none" stroke="#DC2626" stroke-width="3.5" /><line stroke="#DC2626" stroke-width="3" x1="512" x2="484" y1="542.2" y2="567.2" /><line stroke="#DC2626" stroke-width="3" x1="512" x2="539" y1="542.2" y2="564.2" /><line stroke="#DC2626" stroke-width="3" x1="510" x2="498" y1="574.2" y2="609.2" /><line stroke="#DC2626" stroke-width="3" x1="510" x2="526" y1="574.2" y2="609.2" /><path d="M 547,486.20000000000005 A 5,5 0 0,1 547,496.20000000000005" fill="none" opacity="0.5" stroke="#DC2626" stroke-width="2" /><path d="M 555,494.20000000000005 A 7,7 0 0,1 555,508.20000000000005" fill="none" opacity="0.5" stroke="#DC2626" stroke-width="2" /><path d="M 551,472.20000000000005 A 9,9 0 0,1 551,490.20000000000005" fill="none" opacity="0.5" stroke="#DC2626" stroke-width="2" /><path d="M 508,507.20000000000005 Q 515,501.20000000000005 522,507.20000000000005" fill="none" opacity="0.5" stroke="#DC2626" stroke-width="2" /><circle cx="515.0" cy="479.20000000000005" fill="#991B1B" opacity="0.8" r="7" /><text style="font-family:Arial;font-size:26px;font-weight:bold;fill:#991B1B;text-anchor:middle" x="515.0" y="459.20000000000005">Viral RTIs</text><circle cx="775.0" cy="739.2" fill="#991B1B" opacity="0.8" r="7" /><text style="font-family:Arial;font-size:26px;font-weight:bold;fill:#991B1B;text-anchor:start" x="790.0" y="747.2">Th2 bias</text><circle cx="515.0" cy="999.2" fill="#991B1B" opacity="0.8" r="7" /><text style="font-family:Arial;font-size:26px;font-weight:bold;fill:#991B1B;text-anchor:middle" x="515.0" y="1027.2">Remodeling</text><circle cx="255.0" cy="739.2" fill="#991B1B" opacity="0.8" r="7" /><text style="font-family:Arial;font-size:26px;font-weight:bold;fill:#991B1B;text-anchor:end" x="243.0" y="747.2">Re-susceptibility</text><path d="M 560.148526193402,483.14998421682594 A 260,260 0 0,0 771.0500157831741,694.0514738065982" fill="none" opacity="0.6" stroke="#991B1B" stroke-width="2.5" /><polygon fill="#991B1B" opacity="0.6" points="771.0500157831741,694.0514738065982 776.533092156221,704.7255486371085 769.5483579796164,705.9571457255205" /><path d="M 771.0500157831741,784.348526193402 A 260,260 0 0,0 560.1485261934018,995.2500157831741" fill="none" opacity="0.6" stroke="#991B1B" stroke-width="2.5" /><polygon fill="#991B1B" opacity="0.6" points="560.1485261934018,995.2500157831741 549.4744513628915,1000.733092156221 548.2428542744796,993.7483579796165" /><path d="M 469.8514738065981,995.2500157831741 A 260,260 0 0,0 258.9499842168259,784.348526193402" fill="none" opacity="0.6" stroke="#991B1B" stroke-width="2.5" /><polygon fill="#991B1B" opacity="0.6" points="258.9499842168259,784.348526193402 253.46690784377898,773.6744513628917 260.4516420203836,772.4428542744797" /><path d="M 258.9499842168259,694.0514738065982 A 260,260 0 0,0 469.8514738065981,483.14998421682594" fill="none" opacity="0.6" stroke="#991B1B" stroke-width="2.5" /><polygon fill="#991B1B" opacity="0.6" points="469.8514738065981,483.14998421682594 480.52554863710844,477.66690784377903 481.7571457255204,484.65164202038363" /><text style="font-family:Arial;font-size:36px;fill:#7F1D1D;text-anchor:middle;font-weight:bold" x="515" y="1064.2">Wheezing / Asthma</text><text style="font-family:Arial;font-size:36px;fill:#4B5563;text-anchor:middle;font-weight:bold" x="1650" y="55">Immunomodulators</text><circle cx="1650" cy="806.4" fill="#FEF3C7" opacity="0.2" r="275" stroke="#FBBF24" stroke-width="5" /><circle cx="1650" cy="806.4" fill="none" r="206.25" stroke="#92400E" stroke-dasharray="30,8" stroke-width="4" /><circle cx="1650" cy="806.4" fill="white" opacity="0.95" r="137.5" stroke="#D4A574" stroke-width="2" /><path d="M 1390.1923788646684,656.4 A 300,300 0 0,0 1909.8076211353316,656.4" fill="none" opacity="1.0" stroke="#2563EB" stroke-width="14" /><path d="M 1374.6039215965484,647.4 A 318,318 0 0,0 1925.3960784034516,647.4" fill="none" opacity="0.5" stroke="#2563EB" stroke-width="6" /><text style="font-family:Arial;font-size:42px;fill:#2563EB;text-anchor:middle;font-weight:bold" x="1650.0" y="456.4">OM-85</text><path d="M 1650.0,388.4 C 1670.0,394.4   1670.0,412.4   1650.0,426.4 C 1630.0,412.4   1630.0,394.4   1650.0,388.4 Z" fill="#2563EB" opacity="0.2" stroke="#2563EB" stroke-width="2" /><rect fill="#0D9488" height="36" opacity="0.6" rx="4" ry="4" stroke="#0D9488" stroke-width="2" transform="rotate(-330, 1828.6177395305403, 909.5250000000001)" width="60" x="1798.6177395305403" y="891.5250000000001" /><rect fill="#0D9488" height="36" opacity="0.6" rx="4" ry="4" stroke="#0D9488" stroke-width="2" transform="rotate(-350, 1853.1165990587679, 842.2149366438043)" width="60" x="1823.1165990587679" y="824.2149366438043" /><rect fill="#0D9488" height="36" opacity="0.6" rx="4" ry="4" stroke="#0D9488" stroke-width="2" transform="rotate(-10, 1853.1165990587679, 770.5850633561956)" width="60" x="1823.1165990587679" y="752.5850633561956" /><rect fill="#0D9488" height="36" opacity="0.6" rx="4" ry="4" stroke="#0D9488" stroke-width="2" transform="rotate(-30, 1828.6177395305406, 703.275)" width="60" x="1798.6177395305406" y="685.275" /><text style="font-family:Arial;font-size:38px;fill:#0D9488;text-anchor:start;font-weight:bold" x="1990" y="816.4">PMBL</text><rect fill="#0D9488" height="10" opacity="0.35" rx="2" ry="2" stroke="#0D9488" stroke-width="1.5" width="18" x="1990" y="828.4" /><rect fill="#0D9488" height="10" opacity="0.35" rx="2" ry="2" stroke="#0D9488" stroke-width="1.5" width="18" x="2012" y="828.4" /><rect fill="#0D9488" height="10" opacity="0.35" rx="2" ry="2" stroke="#0D9488" stroke-width="1.5" width="18" x="2034" y="828.4" /><path d="M 1691.25,806.4 L 1727.401020463234,851.0875 L 1670.625,842.1235479061081 L 1650.0,895.775 L 1629.375,842.1235479061081 L 1572.598979536766,851.0875 L 1608.75,806.4 L 1572.598979536766,761.7125 L 1629.375,770.6764520938918 L 1650.0,717.025 L 1670.625,770.6764520938918 L 1727.401020463234,761.7125 Z" fill="#7C3AED" fill-opacity="0.08" stroke="#7C3AED" stroke-opacity="0.5" stroke-width="3" /><text style="font-family:Arial;font-size:38px;fill:#7C3AED;text-anchor:end;font-weight:bold" x="1310" y="816.4">MV130</text><circle cx="1250" cy="839.4" fill="#7C3AED" opacity="0.3" r="5" /><circle cx="1268" cy="827.4" fill="#7C3AED" opacity="0.3" r="5" /><circle cx="1286" cy="839.4" fill="#7C3AED" opacity="0.3" r="5" /><path d="M 1560.0,1101.4 Q 1650,1241.4   1740.0,1101.4" fill="none" opacity="0.55" stroke="#059669" stroke-width="4" /><line opacity="0.55" stroke="#059669" stroke-width="3" x1="1560.0" x2="1560.0" y1="1101.4" y2="1141.4" /><line opacity="0.55" stroke="#059669" stroke-width="3" x1="1740.0" x2="1740.0" y1="1101.4" y2="1141.4" /><text style="font-family:Arial;font-size:34px;fill:#059669;text-anchor:middle;font-weight:bold" x="1650" y="1256.4">CRL1505</text><circle cx="1560.0" cy="1156.4" fill="#059669" opacity="0.12" r="20" stroke="#059669" stroke-width="2" /><path d="M 1550.0,1148.4 Q 1556.0,1144.4 1560.0,1151.4 Q 1564.0,1158.4 1560.0,1162.4 Q 1556.0,1168.4 1566.0,1166.4" fill="none" opacity="0.7" stroke="#059669" stroke-width="2" /><text style="font-family:Arial;font-size:20px;fill:#059669;text-anchor:middle;font-weight:bold" x="1560.0" y="1194.4">Gut</text><circle cx="1740.0" cy="1156.4" fill="#059669" opacity="0.12" r="20" stroke="#059669" stroke-width="2" /><path d="M 1740.0,1146.4 C 1728.0,1150.4 1728.0,1164.4 1738.0,1168.4 M 1740.0,1146.4 C 1752.0,1150.4 1752.0,1164.4 1742.0,1168.4" fill="none" opacity="0.7" stroke="#059669" stroke-width="2" /><text style="font-family:Arial;font-size:20px;fill:#059669;text-anchor:middle;font-weight:bold" x="1740.0" y="1194.4">Lung</text><rect fill="white" height="44" opacity="0.85" rx="10" ry="10" width="110" x="1595" y="847.65" /><text style="font-family:Arial;font-size:36px;fill:#1F2937;text-anchor:middle;font-weight:bold" x="1650" y="880.65">↑ IgA</text><line opacity="0.3" stroke="#2563EB" stroke-width="2" x1="1650.0" x2="1650.0" y1="464.4" y2="486.4" /><line opacity="0.25" stroke="#0D9488" stroke-dasharray="8,6" stroke-width="1.5" x1="1985" x2="1861.25" y1="810.4" y2="806.4" /><circle cx="2854" cy="302.4" fill="#D1FAE5" opacity="0.2" r="110" stroke="#34D399" stroke-width="5" /><circle cx="2854" cy="302.4" fill="none" r="82.5" stroke="#065F46" stroke-width="4" /><circle cx="2854" cy="302.4" fill="white" opacity="0.95" r="55.0" stroke="#34D399" stroke-width="2" /><circle cx="2854" cy="102.39999999999998" fill="#059669" opacity="0.2" r="25" stroke="#059669" stroke-width="3.5" /><line stroke="#059669" stroke-width="3.5" x1="2854" x2="2854" y1="127.39999999999998" y2="182.39999999999998" /><line stroke="#059669" stroke-width="3.5" x1="2854" x2="2824" y1="145.39999999999998" y2="123.39999999999998" /><line stroke="#059669" stroke-width="3.5" x1="2854" x2="2884" y1="145.39999999999998" y2="123.39999999999998" /><line stroke="#059669" stroke-width="3.5" x1="2854" x2="2832" y1="182.39999999999998" y2="220.39999999999998" /><line stroke="#059669" stroke-width="3.5" x1="2854" x2="2876" y1="182.39999999999998" y2="220.39999999999998" /><path d="M 2885.1277776829816,73.60409541866022 L 2887.2277776829815,78.50409541866023 L 2892.1277776829816,80.60409541866022 L 2887.2277776829815,82.70409541866022 L 2885.1277776829816,87.60409541866022 L 2883.0277776829817,82.70409541866022 L 2878.1277776829816,80.60409541866022 L 2883.0277776829817,78.50409541866023 Z" fill="#059669" opacity="0.45" /><path d="M 2824.5105264055965,74.75124829136232 L 2826.6105264055964,79.65124829136232 L 2831.5105264055965,81.75124829136232 L 2826.6105264055964,83.85124829136231 L 2824.5105264055965,88.75124829136232 L 2822.4105264055966,83.85124829136231 L 2817.5105264055965,81.75124829136232 L 2822.4105264055966,79.65124829136232 Z" fill="#059669" opacity="0.45" /><path d="M 2854.0,53.39999999999998 L 2856.1,58.299999999999976 L 2861.0,60.39999999999998 L 2856.1,62.49999999999998 L 2854.0,67.39999999999998 L 2851.9,62.49999999999998 L 2847.0,60.39999999999998 L 2851.9,58.299999999999976 Z" fill="#059669" opacity="0.45" /><path d="M 2846,107.39999999999998 Q 2854,116.39999999999998 2862,107.39999999999998" fill="none" opacity="0.6" stroke="#059669" stroke-width="2" /><text style="font-family:Arial;font-size:32px;fill:#065F46;text-anchor:middle;font-weight:bold" x="2854" y="452.4">Protected airways</text><path d="M 2984,415.4 C 3008.2,426.4   3008.2,444.0   2984,459.4 C 2959.8,444.0   2959.8,426.4   2984,415.4 Z" fill="#34D399" opacity="0.2" stroke="#34D399" stroke-width="2" /><path d="M 2975,437.4 L 2982,446.4 L 2996,429.4" fill="none" stroke="#34D399" stroke-width="3" /><text style="font-family:Arial;font-size:32px;fill:#1F2937;text-anchor:middle;font-weight:bold" x="2854" y="492.4">Clinical evidence</text><line stroke="#2563EB" stroke-width="6" x1="2884" x2="2884" y1="552.4" y2="814.3" /><line stroke="#0D9488" stroke-width="4" x1="2884" x2="2884" y1="814.3" y2="1076.1999999999998" /><line stroke="#7C3AED" stroke-width="3" x1="2884" x2="2884" y1="1076.1999999999998" y2="1338.1" /><line stroke="#059669" stroke-dasharray="8,6" stroke-width="2" x1="2884" x2="2884" y1="1338.1" y2="1600" /><circle cx="2884" cy="552.4" fill="#2563EB" opacity="0.9" r="14" /><circle cx="2884" cy="814.3" fill="#0D9488" opacity="0.8" r="11" /><circle cx="2884" cy="1076.1999999999998" fill="#7C3AED" opacity="0.7" r="8" /><circle cx="2884" cy="1338.1" fill="#059669" opacity="0.5" r="6" /><line stroke="#2563EB" stroke-width="4" x1="2534" x2="2884" y1="552.4" y2="552.4" /><line stroke="#0D9488" stroke-width="3" x1="2624" x2="2884" y1="814.3" y2="814.3" /><line stroke="#7C3AED" stroke-width="2" x1="2714" x2="2884" y1="1076.1999999999998" y2="1076.1999999999998" /><line stroke="#059669" stroke-dasharray="6,4" stroke-width="1.5" x1="2884" x2="3034" y1="1338.1" y2="1338.1" /><text style="font-family:Arial;font-size:38px;fill:#2563EB;text-anchor:start;font-weight:bold" x="2539" y="537.4">OM-85</text><text style="font-family:Arial;font-size:28px;fill:#2563EB;text-anchor:start;opacity:0.8" x="2539" y="582.4">18 RCTs</text><text style="font-family:Arial;font-size:34px;fill:#0D9488;text-anchor:start;font-weight:bold" x="2629" y="802.3">PMBL</text><text style="font-family:Arial;font-size:24px;fill:#0D9488;text-anchor:start;opacity:0.8" x="2629" y="840.3">5 RCTs</text><text style="font-family:Arial;font-size:30px;fill:#7C3AED;text-anchor:start;font-weight:bold" x="2719" y="1066.1999999999998">MV130</text><text style="font-family:Arial;font-size:22px;fill:#7C3AED;text-anchor:start;opacity:0.8" x="2719" y="1098.1999999999998">1 RCT</text><text style="font-family:Arial;font-size:28px;fill:#059669;text-anchor:start;font-weight:bold" x="2904" y="1328.1">CRL1505</text><text style="font-family:Arial;font-size:20px;fill:#059669;text-anchor:start;opacity:0.7" x="2904" y="1358.1">Preclinical</text><circle cx="2884" cy="566.1842105263157" fill="#2563EB" opacity="0.3" r="4" /><circle cx="2884" cy="579.9684210526316" fill="#2563EB" opacity="0.3" r="4" /><circle cx="2884" cy="593.7526315789473" fill="#2563EB" opacity="0.3" r="4" /><circle cx="2884" cy="607.5368421052631" fill="#2563EB" opacity="0.3" r="4" /><circle cx="2884" cy="621.3210526315789" fill="#2563EB" opacity="0.3" r="4" /><circle cx="2884" cy="635.1052631578947" fill="#2563EB" opacity="0.3" r="4" /><circle cx="2884" cy="648.8894736842105" fill="#2563EB" opacity="0.3" r="4" /><circle cx="2884" cy="662.6736842105263" fill="#2563EB" opacity="0.3" r="4" /><circle cx="2884" cy="676.457894736842" fill="#2563EB" opacity="0.3" r="4" /><circle cx="2884" cy="690.2421052631579" fill="#2563EB" opacity="0.3" r="4" /><circle cx="2884" cy="704.0263157894736" fill="#2563EB" opacity="0.3" r="4" /><circle cx="2884" cy="717.8105263157895" fill="#2563EB" opacity="0.3" r="4" /><circle cx="2884" cy="731.5947368421052" fill="#2563EB" opacity="0.3" r="4" /><circle cx="2884" cy="745.378947368421" fill="#2563EB" opacity="0.3" r="4" /><circle cx="2884" cy="759.1631578947367" fill="#2563EB" opacity="0.3" r="4" /><circle cx="2884" cy="772.9473684210526" fill="#2563EB" opacity="0.3" r="4" /><circle cx="2884" cy="786.7315789473683" fill="#2563EB" opacity="0.3" r="4" /><circle cx="2884" cy="800.5157894736842" fill="#2563EB" opacity="0.3" r="4" /><circle cx="2884" cy="857.9499999999999" fill="#0D9488" opacity="0.25" r="3.5" /><circle cx="2884" cy="901.5999999999999" fill="#0D9488" opacity="0.25" r="3.5" /><circle cx="2884" cy="945.2499999999999" fill="#0D9488" opacity="0.25" r="3.5" /><circle cx="2884" cy="988.8999999999999" fill="#0D9488" opacity="0.25" r="3.5" /><circle cx="2884" cy="1032.5499999999997" fill="#0D9488" opacity="0.25" r="3.5" /><circle cx="2884" cy="1207.1499999999999" fill="#7C3AED" opacity="0.2" r="3.5" /><text style="font-family:Arial;font-size:22px;fill:#2563EB;text-anchor:start;opacity:0.6" x="2904" y="517.4">Bedside</text><text style="font-family:Arial;font-size:22px;fill:#059669;text-anchor:start;opacity:0.6" x="2904" y="1620">Laboratory</text><text style="font-family:Arial;font-size:60px;fill:#D1D5DB;text-anchor:middle" x="891" y="740.0">›</text><text style="font-family:Arial;font-size:60px;fill:#D1D5DB;text-anchor:middle" x="891" y="840.0">›</text><text style="font-family:Arial;font-size:60px;fill:#D1D5DB;text-anchor:middle" x="891" y="940.0">›</text><text style="font-family:Arial;font-size:60px;fill:#D1D5DB;text-anchor:middle" x="2409" y="740.0">›</text><text style="font-family:Arial;font-size:60px;fill:#D1D5DB;text-anchor:middle" x="2409" y="840.0">›</text><text style="font-family:Arial;font-size:60px;fill:#D1D5DB;text-anchor:middle" x="2409" y="940.0">›</text></svg>